G04*
G04 #@! TF.GenerationSoftware,Altium Limited,Altium Designer,19.1.8 (144)*
G04*
G04 Layer_Physical_Order=1*
G04 Layer_Color=255*
%FSLAX25Y25*%
%MOIN*%
G70*
G01*
G75*
%ADD22R,0.03740X0.05512*%
%ADD23R,0.03543X0.05512*%
%ADD24R,0.06693X0.04331*%
%ADD25R,0.05807X0.01772*%
%ADD26R,0.03543X0.07480*%
%ADD27R,0.00945X0.03543*%
%ADD28R,0.03543X0.00945*%
%ADD29C,0.01000*%
%ADD30R,0.05906X0.05906*%
%ADD31C,0.05906*%
%ADD32C,0.02362*%
G36*
X393500Y-393500D02*
X0D01*
Y0D01*
X393500D01*
Y-393500D01*
D02*
G37*
%LPC*%
G36*
X212478Y-9337D02*
X32878D01*
X32488Y-9415D01*
X32157Y-9636D01*
X20456Y-21338D01*
X19393D01*
X19094Y-20616D01*
X18541Y-19895D01*
X17819Y-19341D01*
X16979Y-18993D01*
X16078Y-18875D01*
X15177Y-18993D01*
X14337Y-19341D01*
X13615Y-19895D01*
X13062Y-20616D01*
X12714Y-21456D01*
X12595Y-22357D01*
X12714Y-23258D01*
X13062Y-24098D01*
X13615Y-24820D01*
X14337Y-25373D01*
X15177Y-25721D01*
X16078Y-25840D01*
X16979Y-25721D01*
X17819Y-25373D01*
X18541Y-24820D01*
X19094Y-24098D01*
X19393Y-23377D01*
X20878D01*
X21268Y-23299D01*
X21599Y-23078D01*
X33300Y-11377D01*
X212056D01*
X216258Y-15579D01*
Y-20673D01*
X215758Y-20825D01*
X215699Y-20736D01*
X210599Y-15636D01*
X210268Y-15415D01*
X209878Y-15337D01*
X32078D01*
X31688Y-15415D01*
X31357Y-15636D01*
X17701Y-29292D01*
X16979Y-28993D01*
X16078Y-28875D01*
X15177Y-28993D01*
X14337Y-29341D01*
X13615Y-29895D01*
X13062Y-30616D01*
X12714Y-31456D01*
X12595Y-32357D01*
X12714Y-33259D01*
X13062Y-34098D01*
X13615Y-34820D01*
X14337Y-35373D01*
X15177Y-35721D01*
X16078Y-35840D01*
X16979Y-35721D01*
X17819Y-35373D01*
X18541Y-34820D01*
X19094Y-34098D01*
X19442Y-33259D01*
X19560Y-32357D01*
X19442Y-31456D01*
X19143Y-30734D01*
X32500Y-17377D01*
X209456D01*
X211022Y-18944D01*
X210831Y-19406D01*
X210039D01*
Y-23161D01*
Y-26917D01*
X211809D01*
X212016Y-27417D01*
X210189Y-29245D01*
X209967Y-29575D01*
X209890Y-29966D01*
Y-33406D01*
X207169D01*
Y-39917D01*
X208260D01*
Y-46406D01*
X206909D01*
Y-51475D01*
X204145Y-54240D01*
X203924Y-54571D01*
X203847Y-54961D01*
Y-59937D01*
X201463D01*
Y-62709D01*
Y-65268D01*
Y-67827D01*
Y-70386D01*
X208270D01*
Y-70020D01*
X210659D01*
X210788Y-70212D01*
X211344Y-70584D01*
X212000Y-70714D01*
X212656Y-70584D01*
X213212Y-70212D01*
X213584Y-69656D01*
X213714Y-69000D01*
X213584Y-68344D01*
X213212Y-67788D01*
X212656Y-67416D01*
X212000Y-67286D01*
X211344Y-67416D01*
X210788Y-67788D01*
X210659Y-67980D01*
X208270D01*
Y-64902D01*
X210518D01*
X210908Y-64824D01*
X211239Y-64603D01*
X212273Y-63569D01*
X212500Y-63614D01*
X213156Y-63484D01*
X213712Y-63112D01*
X214084Y-62556D01*
X214214Y-61900D01*
X214084Y-61244D01*
X213712Y-60688D01*
X213156Y-60316D01*
X212500Y-60186D01*
X211844Y-60316D01*
X211288Y-60688D01*
X210916Y-61244D01*
X210786Y-61900D01*
X210831Y-62127D01*
X210096Y-62862D01*
X208270D01*
Y-59937D01*
X205886D01*
Y-55383D01*
X208351Y-52917D01*
X211650D01*
Y-46406D01*
X210299D01*
Y-39917D01*
X211910D01*
Y-35390D01*
X211929Y-35291D01*
Y-30388D01*
X215699Y-26618D01*
X215758Y-26529D01*
X216258Y-26681D01*
Y-42735D01*
X216336Y-43125D01*
X216557Y-43456D01*
X219449Y-46347D01*
Y-51417D01*
X222747D01*
X225213Y-53883D01*
Y-58437D01*
X222829D01*
Y-61362D01*
X222204D01*
X221069Y-60227D01*
X221114Y-60000D01*
X220984Y-59344D01*
X220612Y-58788D01*
X220056Y-58416D01*
X219400Y-58286D01*
X218744Y-58416D01*
X218188Y-58788D01*
X217816Y-59344D01*
X217686Y-60000D01*
X217816Y-60656D01*
X218188Y-61212D01*
X218744Y-61584D01*
X219400Y-61714D01*
X219627Y-61669D01*
X221061Y-63103D01*
X221392Y-63324D01*
X221782Y-63402D01*
X222829D01*
Y-67787D01*
X222809Y-67886D01*
Y-72753D01*
X195039Y-100523D01*
X194818Y-100854D01*
X194740Y-101244D01*
Y-101857D01*
X194415Y-102198D01*
X193903Y-102202D01*
X181429Y-89727D01*
X181474Y-89500D01*
X181343Y-88844D01*
X180972Y-88288D01*
X180416Y-87916D01*
X179760Y-87786D01*
X179533Y-87831D01*
X170721Y-79019D01*
X170390Y-78798D01*
X170000Y-78721D01*
X59417D01*
X59180Y-78768D01*
X57146D01*
Y-79452D01*
X57119Y-79621D01*
X56756Y-79813D01*
X56256Y-79580D01*
Y-77812D01*
X56303Y-77575D01*
Y-76753D01*
X58136Y-74920D01*
X60659D01*
X60788Y-75112D01*
X61344Y-75484D01*
X62000Y-75614D01*
X62656Y-75484D01*
X63212Y-75112D01*
X63584Y-74556D01*
X63714Y-73900D01*
X63584Y-73244D01*
X63212Y-72688D01*
X62656Y-72316D01*
X62000Y-72186D01*
X61344Y-72316D01*
X60788Y-72688D01*
X60659Y-72880D01*
X57714D01*
X57324Y-72958D01*
X56993Y-73179D01*
X54869Y-75303D01*
X54335D01*
Y-73515D01*
X54257Y-73125D01*
X54036Y-72794D01*
X51169Y-69927D01*
X51214Y-69700D01*
X51084Y-69044D01*
X50712Y-68488D01*
X50156Y-68116D01*
X49500Y-67986D01*
X48844Y-68116D01*
X48288Y-68488D01*
X47916Y-69044D01*
X47786Y-69700D01*
X47916Y-70356D01*
X48288Y-70912D01*
X48844Y-71284D01*
X49500Y-71414D01*
X49727Y-71369D01*
X52295Y-73937D01*
Y-77575D01*
X52342Y-77812D01*
X52342Y-79580D01*
X51842Y-79813D01*
X51480Y-79621D01*
X51453Y-79452D01*
Y-78768D01*
X49418D01*
X49181Y-78721D01*
X38901D01*
X38612Y-78288D01*
X38056Y-77916D01*
X37400Y-77786D01*
X36744Y-77916D01*
X36188Y-78288D01*
X35816Y-78844D01*
X35686Y-79500D01*
X35816Y-80156D01*
X36188Y-80712D01*
X36744Y-81084D01*
X37400Y-81214D01*
X38056Y-81084D01*
X38429Y-80834D01*
X38753Y-80903D01*
X38932Y-81426D01*
X38727Y-81631D01*
X38500Y-81586D01*
X37844Y-81716D01*
X37288Y-82088D01*
X36916Y-82644D01*
X36786Y-83300D01*
X36916Y-83956D01*
X37288Y-84512D01*
X37844Y-84884D01*
X38500Y-85014D01*
X38546Y-85005D01*
X38792Y-85466D01*
X22586Y-101672D01*
X22365Y-102003D01*
X22287Y-102393D01*
Y-109971D01*
X22035D01*
X21798Y-110018D01*
X19764D01*
Y-110702D01*
X19737Y-110871D01*
X19374Y-111063D01*
X18874Y-110830D01*
Y-106553D01*
X16929D01*
X16929Y-106553D01*
X16905D01*
Y-106553D01*
X16429Y-106553D01*
X14961D01*
Y-106680D01*
X5941D01*
X5812Y-106488D01*
X5256Y-106116D01*
X4600Y-105986D01*
X3944Y-106116D01*
X3388Y-106488D01*
X3016Y-107044D01*
X2886Y-107700D01*
X3016Y-108356D01*
X3388Y-108912D01*
X3944Y-109284D01*
X4600Y-109414D01*
X5256Y-109284D01*
X5812Y-108912D01*
X5941Y-108720D01*
X14602D01*
X14961Y-109200D01*
X14961Y-111097D01*
X14492Y-111171D01*
X14146D01*
X14071Y-110702D01*
Y-110018D01*
X12036D01*
X11799Y-109971D01*
X10555D01*
X10318Y-110018D01*
X9528D01*
Y-110484D01*
X9223Y-110544D01*
X8892Y-110765D01*
X3579Y-116079D01*
X3358Y-116409D01*
X3280Y-116800D01*
X3280Y-241000D01*
X3358Y-241390D01*
X3579Y-241721D01*
X8469Y-246611D01*
X8799Y-246832D01*
X9190Y-246909D01*
X13863D01*
X14162Y-247631D01*
X14715Y-248352D01*
X15437Y-248906D01*
X16277Y-249254D01*
X17178Y-249372D01*
X18079Y-249254D01*
X18919Y-248906D01*
X19640Y-248352D01*
X20194Y-247631D01*
X20542Y-246791D01*
X20661Y-245890D01*
X20542Y-244988D01*
X20194Y-244148D01*
X19640Y-243427D01*
X18919Y-242874D01*
X18079Y-242526D01*
X17178Y-242407D01*
X16277Y-242526D01*
X15437Y-242874D01*
X14715Y-243427D01*
X14162Y-244148D01*
X13863Y-244870D01*
X9612D01*
X7791Y-243049D01*
X8110Y-242660D01*
X8144Y-242684D01*
X8800Y-242814D01*
X9456Y-242684D01*
X10012Y-242312D01*
X10384Y-241756D01*
X10514Y-241100D01*
X10384Y-240444D01*
X10012Y-239888D01*
X9820Y-239759D01*
Y-179916D01*
X9742Y-179525D01*
X9521Y-179195D01*
X7538Y-177212D01*
Y-174539D01*
X7758Y-174359D01*
X8685D01*
X8988Y-174812D01*
X9544Y-175184D01*
X10200Y-175314D01*
X10856Y-175184D01*
X11412Y-174812D01*
X11784Y-174256D01*
X11914Y-173600D01*
X11784Y-172944D01*
X11412Y-172388D01*
X10856Y-172016D01*
X10200Y-171886D01*
X9544Y-172016D01*
X9090Y-172320D01*
X8181D01*
X7538Y-171678D01*
Y-127820D01*
X17137D01*
X18639Y-129321D01*
X18969Y-129542D01*
X19360Y-129620D01*
X29814D01*
X30204Y-129542D01*
X30535Y-129321D01*
X30780Y-129076D01*
X31280Y-129283D01*
Y-133600D01*
Y-137601D01*
X31277Y-137606D01*
X31199Y-137997D01*
Y-139803D01*
X31277Y-140194D01*
X31280Y-140199D01*
Y-173880D01*
X29000D01*
X28610Y-173958D01*
X28279Y-174179D01*
X23679Y-178779D01*
X23458Y-179110D01*
X23380Y-179500D01*
Y-197378D01*
X18188Y-202571D01*
X18079Y-202526D01*
X17178Y-202407D01*
X16277Y-202526D01*
X15437Y-202874D01*
X14715Y-203427D01*
X14162Y-204148D01*
X13814Y-204988D01*
X13695Y-205890D01*
X13814Y-206791D01*
X14162Y-207631D01*
X14715Y-208352D01*
X15437Y-208906D01*
X16277Y-209254D01*
X17178Y-209372D01*
X18079Y-209254D01*
X18919Y-208906D01*
X19640Y-208352D01*
X20194Y-207631D01*
X20542Y-206791D01*
X20661Y-205890D01*
X20542Y-204988D01*
X20194Y-204148D01*
X19890Y-203752D01*
X25121Y-198521D01*
X25342Y-198190D01*
X25420Y-197800D01*
Y-179922D01*
X29422Y-175920D01*
X50462D01*
X52295Y-177753D01*
Y-178575D01*
X52342Y-178812D01*
X52342Y-180580D01*
X51842Y-180813D01*
X51480Y-180621D01*
X51453Y-180452D01*
Y-179768D01*
X49418D01*
X49181Y-179721D01*
X49042Y-179748D01*
X47493D01*
X47394Y-179768D01*
X46909D01*
Y-179780D01*
X41834D01*
X41567Y-179280D01*
X41784Y-178956D01*
X41914Y-178300D01*
X41784Y-177644D01*
X41412Y-177088D01*
X40856Y-176716D01*
X40200Y-176586D01*
X39544Y-176716D01*
X38988Y-177088D01*
X38616Y-177644D01*
X38486Y-178300D01*
X38616Y-178956D01*
X38833Y-179280D01*
X38643Y-179780D01*
X30500D01*
X30110Y-179858D01*
X29779Y-180079D01*
X26379Y-183479D01*
X26158Y-183810D01*
X26080Y-184200D01*
Y-202678D01*
X19629Y-209129D01*
X19408Y-209460D01*
X19330Y-209850D01*
Y-212295D01*
X18801Y-212825D01*
X18079Y-212526D01*
X17178Y-212407D01*
X16277Y-212526D01*
X15437Y-212874D01*
X14715Y-213427D01*
X14162Y-214148D01*
X13814Y-214988D01*
X13695Y-215890D01*
X13814Y-216791D01*
X14162Y-217631D01*
X14715Y-218352D01*
X15437Y-218906D01*
X16277Y-219253D01*
X17178Y-219372D01*
X18079Y-219253D01*
X18919Y-218906D01*
X19640Y-218352D01*
X20194Y-217631D01*
X20542Y-216791D01*
X20661Y-215890D01*
X20542Y-214988D01*
X20243Y-214267D01*
X21071Y-213439D01*
X21292Y-213108D01*
X21370Y-212718D01*
Y-210272D01*
X27821Y-203821D01*
X28042Y-203490D01*
X28120Y-203100D01*
Y-184622D01*
X30922Y-181820D01*
X31931D01*
X32138Y-182320D01*
X29179Y-185279D01*
X28958Y-185610D01*
X28880Y-186000D01*
Y-195900D01*
Y-213613D01*
X19315Y-223178D01*
X18919Y-222874D01*
X18079Y-222526D01*
X17178Y-222407D01*
X16277Y-222526D01*
X15437Y-222874D01*
X14715Y-223427D01*
X14162Y-224148D01*
X13814Y-224988D01*
X13695Y-225890D01*
X13814Y-226791D01*
X14162Y-227631D01*
X14715Y-228352D01*
X15437Y-228906D01*
X16277Y-229254D01*
X17178Y-229372D01*
X18079Y-229254D01*
X18919Y-228906D01*
X19640Y-228352D01*
X20194Y-227631D01*
X20542Y-226791D01*
X20661Y-225890D01*
X20542Y-224988D01*
X20497Y-224880D01*
X30621Y-214756D01*
X30842Y-214425D01*
X30920Y-214035D01*
Y-196820D01*
X33259D01*
X33388Y-197012D01*
X33944Y-197384D01*
X34600Y-197514D01*
X35256Y-197384D01*
X35812Y-197012D01*
X36184Y-196456D01*
X36314Y-195800D01*
X36184Y-195144D01*
X35812Y-194588D01*
X35256Y-194216D01*
X34600Y-194086D01*
X33944Y-194216D01*
X33388Y-194588D01*
X33259Y-194780D01*
X30920D01*
Y-186422D01*
X33614Y-183728D01*
X40523D01*
X40730Y-184228D01*
X39978Y-184980D01*
X35841D01*
X35712Y-184788D01*
X35156Y-184416D01*
X34500Y-184286D01*
X33844Y-184416D01*
X33288Y-184788D01*
X32916Y-185344D01*
X32786Y-186000D01*
X32916Y-186656D01*
X33288Y-187212D01*
X33844Y-187584D01*
X34500Y-187714D01*
X35156Y-187584D01*
X35712Y-187212D01*
X35841Y-187020D01*
X40400D01*
X40564Y-186987D01*
X40810Y-187448D01*
X39678Y-188580D01*
X34701D01*
X34156Y-188216D01*
X33500Y-188086D01*
X32844Y-188216D01*
X32288Y-188588D01*
X31916Y-189144D01*
X31786Y-189800D01*
X31916Y-190456D01*
X32288Y-191012D01*
X32844Y-191384D01*
X33500Y-191514D01*
X34156Y-191384D01*
X34712Y-191012D01*
X34974Y-190620D01*
X40100D01*
X40490Y-190542D01*
X40821Y-190321D01*
X43324Y-187818D01*
X43595Y-187856D01*
X43773Y-188385D01*
X39427Y-192731D01*
X39200Y-192686D01*
X38544Y-192816D01*
X37988Y-193188D01*
X37616Y-193744D01*
X37486Y-194400D01*
X37616Y-195056D01*
X37988Y-195612D01*
X38544Y-195984D01*
X39200Y-196114D01*
X39856Y-195984D01*
X40412Y-195612D01*
X40784Y-195056D01*
X40914Y-194400D01*
X40869Y-194173D01*
X41980Y-193061D01*
X42480Y-193269D01*
Y-198697D01*
X42558Y-199087D01*
X42779Y-199418D01*
X43582Y-200221D01*
X43913Y-200442D01*
X44303Y-200520D01*
X67463D01*
X67591Y-200712D01*
X68147Y-201084D01*
X68803Y-201214D01*
X69459Y-201084D01*
X70015Y-200712D01*
X70144Y-200520D01*
X82526D01*
X86890Y-204883D01*
Y-209756D01*
X91630D01*
Y-203244D01*
X88135D01*
X83670Y-198779D01*
X83339Y-198558D01*
X82949Y-198480D01*
X70144D01*
X70015Y-198288D01*
X69459Y-197916D01*
X68803Y-197786D01*
X68147Y-197916D01*
X67591Y-198288D01*
X67463Y-198480D01*
X62472D01*
X62265Y-197980D01*
X64726Y-195520D01*
X79919D01*
X80048Y-195712D01*
X80604Y-196084D01*
X81260Y-196214D01*
X81916Y-196084D01*
X82472Y-195712D01*
X82600Y-195520D01*
X91855D01*
X99079Y-202744D01*
X98872Y-203244D01*
X98709Y-203244D01*
X94370D01*
Y-209756D01*
X95524D01*
Y-217244D01*
X94468D01*
Y-223756D01*
X99012D01*
Y-217244D01*
X97563D01*
Y-209756D01*
X99110D01*
Y-203660D01*
X99110Y-203482D01*
X99610Y-203275D01*
X101300Y-204965D01*
X101631Y-205186D01*
X102021Y-205264D01*
X102104D01*
Y-209756D01*
X106844D01*
Y-203244D01*
X103006D01*
X102907Y-203224D01*
X102444D01*
X92998Y-193779D01*
X92667Y-193558D01*
X92277Y-193480D01*
X82600D01*
X82472Y-193288D01*
X81916Y-192916D01*
X81260Y-192786D01*
X80604Y-192916D01*
X80048Y-193288D01*
X79919Y-193480D01*
X64303D01*
X63913Y-193558D01*
X63582Y-193779D01*
X60881Y-196480D01*
X57726D01*
X56331Y-195086D01*
Y-192776D01*
X56256Y-192400D01*
Y-190743D01*
X56756Y-190510D01*
X57119Y-190702D01*
X57146Y-190871D01*
Y-191555D01*
X58983D01*
X59220Y-191602D01*
X103152D01*
X105263Y-193714D01*
X105176Y-193844D01*
X105046Y-194500D01*
X105176Y-195156D01*
X105548Y-195712D01*
X106104Y-196084D01*
X106760Y-196214D01*
X107416Y-196084D01*
X107546Y-195996D01*
X108676Y-197127D01*
X114294Y-202744D01*
X114087Y-203244D01*
X113923Y-203244D01*
X109584D01*
Y-209756D01*
X110738D01*
Y-217244D01*
X109568D01*
Y-223756D01*
X114112D01*
Y-217244D01*
X112777D01*
Y-209756D01*
X114324D01*
Y-203660D01*
X114324Y-203482D01*
X114824Y-203275D01*
X116515Y-204965D01*
X116846Y-205186D01*
X117236Y-205264D01*
X117318D01*
Y-209756D01*
X122058D01*
Y-203244D01*
X118220D01*
X118122Y-203224D01*
X117658D01*
X110118Y-195685D01*
X108360Y-193926D01*
X108343Y-193844D01*
X107972Y-193288D01*
X107416Y-192916D01*
X107334Y-192900D01*
X104567Y-190134D01*
X104774Y-189634D01*
X115994D01*
X120431Y-194071D01*
X120346Y-194500D01*
X120476Y-195156D01*
X120848Y-195712D01*
X121404Y-196084D01*
X122060Y-196214D01*
X122489Y-196129D01*
X129104Y-202744D01*
X128897Y-203244D01*
X124799D01*
Y-209756D01*
X125824D01*
Y-217244D01*
X124768D01*
Y-223756D01*
X129312D01*
Y-217244D01*
X127863D01*
Y-209756D01*
X129539D01*
Y-203886D01*
X130039Y-203679D01*
X131325Y-204965D01*
X131656Y-205186D01*
X132046Y-205264D01*
X132533D01*
Y-209756D01*
X137273D01*
Y-203244D01*
X133434D01*
X133336Y-203224D01*
X132468D01*
X123769Y-194525D01*
X123774Y-194500D01*
X123643Y-193844D01*
X123272Y-193288D01*
X122716Y-192916D01*
X122060Y-192786D01*
X122035Y-192791D01*
X117409Y-188165D01*
X117616Y-187665D01*
X129643D01*
X136118Y-194139D01*
X136046Y-194500D01*
X136176Y-195156D01*
X136548Y-195712D01*
X137104Y-196084D01*
X137760Y-196214D01*
X138120Y-196142D01*
X139199Y-197221D01*
X144722Y-202744D01*
X144515Y-203244D01*
X144352Y-203244D01*
X140013D01*
Y-209756D01*
X141024D01*
Y-217244D01*
X139968D01*
Y-223756D01*
X144512D01*
Y-217244D01*
X143063D01*
Y-209756D01*
X144753D01*
Y-203660D01*
X144753Y-203482D01*
X145253Y-203275D01*
X146943Y-204965D01*
X147274Y-205186D01*
X147664Y-205264D01*
X147747D01*
Y-209756D01*
X152487D01*
Y-203244D01*
X148649D01*
X148550Y-203224D01*
X148087D01*
X140641Y-195779D01*
X139455Y-194593D01*
X139474Y-194500D01*
X139343Y-193844D01*
X138972Y-193288D01*
X138416Y-192916D01*
X137760Y-192786D01*
X137667Y-192805D01*
X131059Y-186197D01*
X131266Y-185697D01*
X143775D01*
X152134Y-194056D01*
X152046Y-194500D01*
X152176Y-195156D01*
X152548Y-195712D01*
X153104Y-196084D01*
X153760Y-196214D01*
X154204Y-196126D01*
X157191Y-199112D01*
X162961Y-204883D01*
Y-209756D01*
X167701D01*
Y-203244D01*
X164206D01*
X158633Y-197670D01*
X155472Y-194510D01*
X155474Y-194500D01*
X155343Y-193844D01*
X154972Y-193288D01*
X154416Y-192916D01*
X153760Y-192786D01*
X153750Y-192788D01*
X145190Y-184228D01*
X145397Y-183728D01*
X156135D01*
X166356Y-193949D01*
X166246Y-194500D01*
X166376Y-195156D01*
X166748Y-195712D01*
X167304Y-196084D01*
X167960Y-196214D01*
X168511Y-196104D01*
X175151Y-202744D01*
X174944Y-203244D01*
X174780Y-203244D01*
X170441D01*
Y-209756D01*
X171595D01*
Y-217244D01*
X170468D01*
Y-223756D01*
X175012D01*
Y-217244D01*
X173634D01*
Y-209756D01*
X175182D01*
Y-203660D01*
X175182Y-203482D01*
X175682Y-203275D01*
X177372Y-204965D01*
X177703Y-205186D01*
X178093Y-205264D01*
X178175D01*
Y-209756D01*
X182915D01*
Y-203244D01*
X179077D01*
X178979Y-203224D01*
X178515D01*
X169645Y-194354D01*
X169543Y-193844D01*
X169172Y-193288D01*
X168616Y-192916D01*
X168105Y-192815D01*
X157550Y-182260D01*
X157757Y-181760D01*
X169381D01*
X181641Y-194020D01*
X181546Y-194500D01*
X181676Y-195156D01*
X182048Y-195712D01*
X182604Y-196084D01*
X183260Y-196214D01*
X183740Y-196119D01*
X190365Y-202744D01*
X190158Y-203244D01*
X189994Y-203244D01*
X185656D01*
Y-209756D01*
X186809D01*
Y-217244D01*
X185668D01*
Y-223756D01*
X190212D01*
Y-217244D01*
X188849D01*
Y-209756D01*
X190396D01*
Y-203660D01*
X190396Y-203482D01*
X190896Y-203275D01*
X192586Y-204965D01*
X192917Y-205186D01*
X193307Y-205264D01*
X193390D01*
Y-209756D01*
X198130D01*
Y-203244D01*
X194291D01*
X194193Y-203224D01*
X193729D01*
X184966Y-194461D01*
X184843Y-193844D01*
X184472Y-193288D01*
X183916Y-192916D01*
X183299Y-192794D01*
X170524Y-180019D01*
X170193Y-179798D01*
X169803Y-179721D01*
X59220D01*
X58983Y-179768D01*
X57146D01*
Y-180452D01*
X57119Y-180621D01*
X56756Y-180813D01*
X56256Y-180580D01*
Y-178812D01*
X56303Y-178575D01*
Y-178323D01*
X57897D01*
X58287Y-178245D01*
X58618Y-178024D01*
X59873Y-176769D01*
X60100Y-176814D01*
X60756Y-176684D01*
X61312Y-176312D01*
X61684Y-175756D01*
X61814Y-175100D01*
X61684Y-174444D01*
X61312Y-173888D01*
X60756Y-173516D01*
X60100Y-173386D01*
X59444Y-173516D01*
X58888Y-173888D01*
X58516Y-174444D01*
X58386Y-175100D01*
X58431Y-175327D01*
X57474Y-176284D01*
X55311D01*
X55212Y-176303D01*
X54311D01*
Y-176303D01*
X54287D01*
Y-176303D01*
X53729D01*
X51605Y-174179D01*
X51274Y-173958D01*
X50884Y-173880D01*
X33320D01*
Y-140717D01*
X33820Y-140499D01*
X34400Y-140614D01*
X35056Y-140484D01*
X35125Y-140437D01*
X35566Y-140673D01*
Y-143259D01*
X35374Y-143388D01*
X35002Y-143944D01*
X34872Y-144600D01*
X35002Y-145256D01*
X35374Y-145812D01*
X35930Y-146184D01*
X36586Y-146314D01*
X37242Y-146184D01*
X37798Y-145812D01*
X38170Y-145256D01*
X38300Y-144600D01*
X38170Y-143944D01*
X37798Y-143388D01*
X37606Y-143259D01*
Y-137636D01*
X41986Y-133256D01*
X42634D01*
X42786Y-133756D01*
X42588Y-133888D01*
X42216Y-134444D01*
X42086Y-135100D01*
X42216Y-135756D01*
X42588Y-136312D01*
X43144Y-136684D01*
X43800Y-136814D01*
X44194Y-136736D01*
X44440Y-137197D01*
X40526Y-141111D01*
X40400Y-141086D01*
X39744Y-141216D01*
X39188Y-141588D01*
X38816Y-142144D01*
X38686Y-142800D01*
X38816Y-143456D01*
X39188Y-144012D01*
X39744Y-144384D01*
X40400Y-144514D01*
X41056Y-144384D01*
X41612Y-144012D01*
X41984Y-143456D01*
X42114Y-142800D01*
X42180Y-142746D01*
X42680Y-142982D01*
Y-144659D01*
X42488Y-144788D01*
X42116Y-145344D01*
X41986Y-146000D01*
X42116Y-146656D01*
X42488Y-147212D01*
X43044Y-147584D01*
X43700Y-147714D01*
X44356Y-147584D01*
X44912Y-147212D01*
X45284Y-146656D01*
X45414Y-146000D01*
X45284Y-145344D01*
X44912Y-144788D01*
X44720Y-144659D01*
Y-141922D01*
X46448Y-140194D01*
X46909Y-140386D01*
Y-141055D01*
X47965D01*
Y-146200D01*
X48042Y-146590D01*
X48263Y-146921D01*
X51063Y-149721D01*
X51394Y-149942D01*
X51784Y-150020D01*
X67463D01*
X67591Y-150212D01*
X68147Y-150584D01*
X68803Y-150714D01*
X69459Y-150584D01*
X70015Y-150212D01*
X70144Y-150020D01*
X82526D01*
X86890Y-154383D01*
Y-159256D01*
X91630D01*
Y-152744D01*
X88135D01*
X83670Y-148279D01*
X83339Y-148058D01*
X82949Y-147980D01*
X70144D01*
X70015Y-147788D01*
X69459Y-147416D01*
X68803Y-147286D01*
X68147Y-147416D01*
X67591Y-147788D01*
X67463Y-147980D01*
X62472D01*
X62265Y-147480D01*
X64726Y-145020D01*
X79919D01*
X80048Y-145212D01*
X80604Y-145584D01*
X81260Y-145714D01*
X81916Y-145584D01*
X82472Y-145212D01*
X82600Y-145020D01*
X91855D01*
X99079Y-152244D01*
X98872Y-152744D01*
X98709Y-152744D01*
X94370D01*
Y-159256D01*
X95524D01*
Y-166744D01*
X94468D01*
Y-173256D01*
X99012D01*
Y-166744D01*
X97563D01*
Y-159256D01*
X99110D01*
Y-153159D01*
X99110Y-152982D01*
X99610Y-152775D01*
X101300Y-154465D01*
X101631Y-154686D01*
X102021Y-154764D01*
X102104D01*
Y-159256D01*
X106844D01*
Y-152744D01*
X103006D01*
X102907Y-152725D01*
X102444D01*
X92998Y-143279D01*
X92667Y-143058D01*
X92277Y-142980D01*
X82600D01*
X82472Y-142788D01*
X81916Y-142416D01*
X81260Y-142286D01*
X80604Y-142416D01*
X80048Y-142788D01*
X79919Y-142980D01*
X64303D01*
X63913Y-143058D01*
X63582Y-143279D01*
X60881Y-145980D01*
X57726D01*
X56331Y-144586D01*
Y-142276D01*
X56256Y-141900D01*
Y-139976D01*
X56591Y-139923D01*
X57119Y-140202D01*
X57146Y-140371D01*
Y-141055D01*
X58983D01*
X59220Y-141102D01*
X103152D01*
X105263Y-143214D01*
X105176Y-143344D01*
X105046Y-144000D01*
X105176Y-144656D01*
X105548Y-145212D01*
X106104Y-145584D01*
X106760Y-145714D01*
X107416Y-145584D01*
X107546Y-145496D01*
X108676Y-146627D01*
X114294Y-152244D01*
X114087Y-152744D01*
X113923Y-152744D01*
X109584D01*
Y-159256D01*
X110738D01*
Y-166744D01*
X109569D01*
Y-173256D01*
X114112D01*
Y-166744D01*
X112777D01*
Y-159256D01*
X114324D01*
Y-153159D01*
X114325Y-152982D01*
X114824Y-152775D01*
X116515Y-154465D01*
X116846Y-154686D01*
X117236Y-154764D01*
X117318D01*
Y-159256D01*
X122058D01*
Y-152744D01*
X118220D01*
X118122Y-152725D01*
X117658D01*
X110118Y-145185D01*
X108360Y-143426D01*
X108343Y-143344D01*
X107972Y-142788D01*
X107416Y-142416D01*
X107334Y-142400D01*
X104567Y-139634D01*
X104774Y-139134D01*
X115994D01*
X120431Y-143571D01*
X120346Y-144000D01*
X120476Y-144656D01*
X120848Y-145212D01*
X121404Y-145584D01*
X122060Y-145714D01*
X122489Y-145629D01*
X129104Y-152244D01*
X128897Y-152744D01*
X124799D01*
Y-159256D01*
X125824D01*
Y-166744D01*
X124768D01*
Y-173256D01*
X129312D01*
Y-166744D01*
X127863D01*
Y-159256D01*
X129539D01*
Y-153386D01*
X130039Y-153179D01*
X131325Y-154465D01*
X131656Y-154686D01*
X132046Y-154764D01*
X132533D01*
Y-159256D01*
X137273D01*
Y-152744D01*
X133434D01*
X133336Y-152725D01*
X132468D01*
X123769Y-144025D01*
X123774Y-144000D01*
X123643Y-143344D01*
X123272Y-142788D01*
X122716Y-142416D01*
X122060Y-142286D01*
X122035Y-142291D01*
X117409Y-137665D01*
X117616Y-137165D01*
X129643D01*
X135795Y-143316D01*
X135776Y-143344D01*
X135646Y-144000D01*
X135776Y-144656D01*
X136148Y-145212D01*
X136704Y-145584D01*
X137360Y-145714D01*
X138016Y-145584D01*
X138043Y-145565D01*
X139199Y-146721D01*
X144722Y-152244D01*
X144515Y-152744D01*
X144352Y-152744D01*
X140013D01*
Y-159256D01*
X141024D01*
Y-166744D01*
X139969D01*
Y-173256D01*
X144512D01*
Y-166744D01*
X143063D01*
Y-159256D01*
X144753D01*
Y-153159D01*
X144753Y-152982D01*
X145253Y-152775D01*
X146943Y-154465D01*
X147274Y-154686D01*
X147664Y-154764D01*
X147747D01*
Y-159256D01*
X152487D01*
Y-152744D01*
X148649D01*
X148550Y-152725D01*
X148087D01*
X140641Y-145279D01*
X139002Y-143640D01*
X138943Y-143344D01*
X138572Y-142788D01*
X138016Y-142416D01*
X137720Y-142358D01*
X131059Y-135697D01*
X131266Y-135197D01*
X143775D01*
X152134Y-143556D01*
X152046Y-144000D01*
X152176Y-144656D01*
X152548Y-145212D01*
X153104Y-145584D01*
X153760Y-145714D01*
X154204Y-145626D01*
X157191Y-148612D01*
X162961Y-154383D01*
Y-159256D01*
X167701D01*
Y-152744D01*
X164206D01*
X158633Y-147170D01*
X155472Y-144010D01*
X155474Y-144000D01*
X155343Y-143344D01*
X154972Y-142788D01*
X154416Y-142416D01*
X153760Y-142286D01*
X153750Y-142288D01*
X145190Y-133728D01*
X145397Y-133228D01*
X156135D01*
X166356Y-143449D01*
X166246Y-144000D01*
X166376Y-144656D01*
X166748Y-145212D01*
X167304Y-145584D01*
X167960Y-145714D01*
X168511Y-145604D01*
X175151Y-152244D01*
X174944Y-152744D01*
X174780Y-152744D01*
X170441D01*
Y-159256D01*
X171595D01*
Y-166744D01*
X170468D01*
Y-173256D01*
X175012D01*
Y-166744D01*
X173634D01*
Y-159256D01*
X175182D01*
Y-153159D01*
X175182Y-152982D01*
X175682Y-152775D01*
X177372Y-154465D01*
X177703Y-154686D01*
X178093Y-154764D01*
X178175D01*
Y-159256D01*
X182916D01*
Y-152744D01*
X179077D01*
X178979Y-152725D01*
X178515D01*
X169645Y-143854D01*
X169543Y-143344D01*
X169172Y-142788D01*
X168616Y-142416D01*
X168105Y-142315D01*
X157550Y-131760D01*
X157757Y-131260D01*
X169381D01*
X181641Y-143520D01*
X181546Y-144000D01*
X181676Y-144656D01*
X182048Y-145212D01*
X182604Y-145584D01*
X183260Y-145714D01*
X183740Y-145619D01*
X190365Y-152244D01*
X190158Y-152744D01*
X189995Y-152744D01*
X185656D01*
Y-159256D01*
X186809D01*
Y-166744D01*
X185668D01*
Y-173256D01*
X190212D01*
Y-166744D01*
X188849D01*
Y-159256D01*
X190396D01*
Y-153159D01*
X190396Y-152982D01*
X190896Y-152775D01*
X192586Y-154465D01*
X192917Y-154686D01*
X193307Y-154764D01*
X193390D01*
Y-159256D01*
X198130D01*
Y-152744D01*
X194291D01*
X194193Y-152725D01*
X193729D01*
X184966Y-143961D01*
X184843Y-143344D01*
X184472Y-142788D01*
X183916Y-142416D01*
X183299Y-142294D01*
X170524Y-129519D01*
X170193Y-129298D01*
X169803Y-129221D01*
X59220D01*
X58983Y-129268D01*
X57146D01*
Y-129952D01*
X57119Y-130121D01*
X56591Y-130400D01*
X56256Y-130346D01*
Y-128312D01*
X56303Y-128075D01*
Y-127823D01*
X57997D01*
X58387Y-127745D01*
X58718Y-127524D01*
X60873Y-125369D01*
X61100Y-125414D01*
X61756Y-125284D01*
X62312Y-124912D01*
X62684Y-124356D01*
X62814Y-123700D01*
X62684Y-123044D01*
X62312Y-122488D01*
X61756Y-122116D01*
X61100Y-121986D01*
X60444Y-122116D01*
X59888Y-122488D01*
X59516Y-123044D01*
X59386Y-123700D01*
X59431Y-123927D01*
X57574Y-125784D01*
X55311D01*
X55212Y-125803D01*
X54311Y-125803D01*
Y-125803D01*
X54287D01*
X54287Y-125803D01*
X52342D01*
Y-127499D01*
X39497D01*
X39106Y-127577D01*
X38776Y-127798D01*
X33820Y-132754D01*
X33320Y-132547D01*
Y-115684D01*
X33242Y-115294D01*
X33021Y-114964D01*
X30635Y-112577D01*
X30780Y-112099D01*
X30856Y-112084D01*
X31412Y-111712D01*
X31784Y-111156D01*
X31914Y-110500D01*
X31869Y-110273D01*
X33322Y-108820D01*
X39859D01*
X39988Y-109012D01*
X40544Y-109384D01*
X41200Y-109514D01*
X41856Y-109384D01*
X42412Y-109012D01*
X42784Y-108456D01*
X42914Y-107800D01*
X42784Y-107144D01*
X42412Y-106588D01*
X41856Y-106216D01*
X41200Y-106086D01*
X40544Y-106216D01*
X39988Y-106588D01*
X39859Y-106780D01*
X32900D01*
X32510Y-106858D01*
X32179Y-107079D01*
X30427Y-108831D01*
X30200Y-108786D01*
X29544Y-108916D01*
X28988Y-109288D01*
X28820Y-109540D01*
X28320Y-109388D01*
Y-105822D01*
X29174Y-104968D01*
X31521D01*
X31911Y-104890D01*
X32241Y-104669D01*
X34021Y-102890D01*
X34556Y-102784D01*
X35112Y-102412D01*
X35484Y-101856D01*
X35614Y-101200D01*
X35484Y-100544D01*
X35112Y-99988D01*
X34556Y-99616D01*
X33900Y-99486D01*
X33244Y-99616D01*
X32688Y-99988D01*
X32316Y-100544D01*
X32186Y-101200D01*
X32292Y-101734D01*
X31098Y-102929D01*
X29879D01*
X29830Y-102429D01*
X30056Y-102384D01*
X30612Y-102012D01*
X30984Y-101456D01*
X31114Y-100800D01*
X30984Y-100144D01*
X30612Y-99588D01*
X30478Y-99498D01*
X30448Y-98994D01*
X42777Y-86665D01*
X45686D01*
X45893Y-87165D01*
X42727Y-90331D01*
X42500Y-90286D01*
X41844Y-90416D01*
X41288Y-90788D01*
X40916Y-91344D01*
X40786Y-92000D01*
X40916Y-92656D01*
X41288Y-93212D01*
X41844Y-93584D01*
X42500Y-93714D01*
X43156Y-93584D01*
X43712Y-93212D01*
X44084Y-92656D01*
X44214Y-92000D01*
X44169Y-91773D01*
X46404Y-89538D01*
X46509Y-89553D01*
X46890Y-89759D01*
Y-89835D01*
X46880Y-89883D01*
Y-94159D01*
X46688Y-94288D01*
X46316Y-94844D01*
X46186Y-95500D01*
X46316Y-96156D01*
X46688Y-96712D01*
X46880Y-96841D01*
Y-99000D01*
X46958Y-99390D01*
X47179Y-99721D01*
X48460Y-101002D01*
X48791Y-101223D01*
X49181Y-101301D01*
X70122D01*
X70286Y-101500D01*
X70416Y-102156D01*
X70788Y-102712D01*
X71344Y-103084D01*
X72000Y-103214D01*
X72656Y-103084D01*
X73212Y-102712D01*
X73584Y-102156D01*
X73714Y-101500D01*
X73584Y-100844D01*
X73212Y-100288D01*
X73271Y-99748D01*
X73477Y-99520D01*
X82723D01*
X86890Y-103686D01*
Y-108756D01*
X91630D01*
Y-102244D01*
X88332D01*
X83867Y-97779D01*
X83536Y-97558D01*
X83146Y-97480D01*
X72562D01*
X72172Y-97558D01*
X71842Y-97779D01*
X70359Y-99262D01*
X49604D01*
X48920Y-98578D01*
Y-96841D01*
X49112Y-96712D01*
X49484Y-96156D01*
X49614Y-95500D01*
X49484Y-94844D01*
X49112Y-94288D01*
X48920Y-94159D01*
Y-90555D01*
X51342D01*
X51453Y-90555D01*
X51842Y-90821D01*
Y-91248D01*
X53315D01*
Y-92248D01*
X51842D01*
Y-94520D01*
X51842D01*
X51870Y-95020D01*
X51379Y-95510D01*
X51158Y-95841D01*
X51080Y-96231D01*
Y-96600D01*
X51158Y-96990D01*
X51379Y-97321D01*
X51710Y-97542D01*
X52100Y-97620D01*
X52490Y-97542D01*
X52821Y-97321D01*
X53042Y-96990D01*
X53106Y-96667D01*
X54033Y-95741D01*
X54254Y-95410D01*
X54255Y-95404D01*
X54797Y-95239D01*
X56779Y-97221D01*
X57110Y-97442D01*
X57500Y-97520D01*
X61500D01*
X61890Y-97442D01*
X62221Y-97221D01*
X64273Y-95169D01*
X64500Y-95214D01*
X65156Y-95084D01*
X65712Y-94712D01*
X65841Y-94520D01*
X79419D01*
X79548Y-94712D01*
X80104Y-95084D01*
X80760Y-95214D01*
X81416Y-95084D01*
X81972Y-94712D01*
X82100Y-94520D01*
X92052D01*
X99394Y-101862D01*
X99069Y-102244D01*
X98627Y-102244D01*
X94370D01*
Y-108756D01*
X95721D01*
Y-116244D01*
X94468D01*
Y-122756D01*
X99012D01*
Y-116244D01*
X97760D01*
Y-108756D01*
X99110D01*
Y-102742D01*
X99110Y-102285D01*
X99493Y-101961D01*
X101497Y-103965D01*
X101828Y-104186D01*
X102104Y-104241D01*
Y-108756D01*
X106844D01*
Y-102244D01*
X103203D01*
X103104Y-102225D01*
X102640D01*
X93195Y-92779D01*
X92864Y-92558D01*
X92474Y-92480D01*
X82100D01*
X81972Y-92288D01*
X81416Y-91916D01*
X80760Y-91786D01*
X80104Y-91916D01*
X79548Y-92288D01*
X79419Y-92480D01*
X65841D01*
X65712Y-92288D01*
X65156Y-91916D01*
X64500Y-91786D01*
X63844Y-91916D01*
X63288Y-92288D01*
X62916Y-92844D01*
X62786Y-93500D01*
X62831Y-93727D01*
X61078Y-95480D01*
X57922D01*
X56331Y-93889D01*
Y-91776D01*
X56256Y-91400D01*
Y-89743D01*
X56756Y-89510D01*
X57119Y-89702D01*
X57146Y-89871D01*
Y-90555D01*
X59180D01*
X59417Y-90602D01*
X103349D01*
X108873Y-96127D01*
X114608Y-101862D01*
X114284Y-102244D01*
X113841Y-102244D01*
X109584D01*
Y-108756D01*
X110935D01*
Y-116244D01*
X109569D01*
Y-122756D01*
X114112D01*
Y-116244D01*
X112974D01*
Y-108756D01*
X114324D01*
Y-102742D01*
X114324Y-102285D01*
X114707Y-101961D01*
X116711Y-103965D01*
X117042Y-104186D01*
X117318Y-104241D01*
Y-108756D01*
X122058D01*
Y-102244D01*
X118417D01*
X118318Y-102225D01*
X117855D01*
X111286Y-95656D01*
X112773Y-94169D01*
X113000Y-94214D01*
X113656Y-94084D01*
X114212Y-93712D01*
X114584Y-93156D01*
X114714Y-92500D01*
X114584Y-91844D01*
X114212Y-91288D01*
X113656Y-90916D01*
X113000Y-90786D01*
X112344Y-90916D01*
X111788Y-91288D01*
X111416Y-91844D01*
X111286Y-92500D01*
X111331Y-92727D01*
X109844Y-94214D01*
X104764Y-89134D01*
X104971Y-88634D01*
X114901D01*
X128049Y-101782D01*
X127858Y-102244D01*
X124799D01*
Y-108756D01*
X126021D01*
Y-116244D01*
X124768D01*
Y-122756D01*
X129312D01*
Y-116244D01*
X128060D01*
Y-108756D01*
X129539D01*
Y-103925D01*
X130001Y-103734D01*
X130232Y-103965D01*
X130563Y-104186D01*
X130953Y-104264D01*
X132533D01*
Y-108756D01*
X137273D01*
Y-102244D01*
X133631D01*
X133533Y-102225D01*
X132665D01*
X132020Y-101579D01*
Y-100341D01*
X132212Y-100212D01*
X132584Y-99656D01*
X132714Y-99000D01*
X132584Y-98344D01*
X132212Y-97788D01*
X131656Y-97416D01*
X131000Y-97286D01*
X130344Y-97416D01*
X129788Y-97788D01*
X129416Y-98344D01*
X129286Y-99000D01*
X129392Y-99534D01*
X128970Y-99819D01*
X116316Y-87165D01*
X116523Y-86665D01*
X129840D01*
X139396Y-96221D01*
X145037Y-101862D01*
X144712Y-102244D01*
X144270Y-102244D01*
X140013D01*
Y-108756D01*
X141220D01*
Y-116244D01*
X139969D01*
Y-122756D01*
X144512D01*
Y-116244D01*
X143260D01*
Y-108756D01*
X144753D01*
Y-102742D01*
X144753Y-102285D01*
X145136Y-101961D01*
X147140Y-103965D01*
X147471Y-104186D01*
X147747Y-104241D01*
Y-108756D01*
X152487D01*
Y-102244D01*
X148845D01*
X148747Y-102225D01*
X148283D01*
X143729Y-97670D01*
X143975Y-97209D01*
X144000Y-97214D01*
X144656Y-97084D01*
X145212Y-96712D01*
X145584Y-96156D01*
X145714Y-95500D01*
X145584Y-94844D01*
X145212Y-94288D01*
X144656Y-93916D01*
X144000Y-93786D01*
X143344Y-93916D01*
X142788Y-94288D01*
X142659Y-94480D01*
X140539D01*
X131256Y-85197D01*
X131463Y-84697D01*
X143972D01*
X157388Y-98112D01*
X162961Y-103686D01*
Y-108756D01*
X167701D01*
Y-102244D01*
X164403D01*
X159305Y-97146D01*
X159780Y-96670D01*
X160000Y-96714D01*
X160656Y-96584D01*
X161212Y-96212D01*
X161584Y-95656D01*
X161714Y-95000D01*
X161584Y-94344D01*
X161212Y-93788D01*
X160656Y-93416D01*
X160000Y-93286D01*
X159344Y-93416D01*
X158788Y-93788D01*
X158416Y-94344D01*
X158286Y-95000D01*
X158333Y-95234D01*
X157863Y-95704D01*
X145387Y-83228D01*
X145594Y-82728D01*
X156332D01*
X175209Y-101606D01*
X175211Y-101773D01*
X174748Y-102244D01*
X170441Y-102244D01*
Y-108756D01*
X171792D01*
Y-116244D01*
X170468D01*
Y-122756D01*
X175012D01*
Y-116244D01*
X173831D01*
Y-112145D01*
X174087Y-111751D01*
X174087Y-111751D01*
Y-111751D01*
X174331Y-111727D01*
X174337Y-111754D01*
X174416Y-112156D01*
X174788Y-112712D01*
X175344Y-113084D01*
X176000Y-113214D01*
X176656Y-113084D01*
X177212Y-112712D01*
X177584Y-112156D01*
X177714Y-111500D01*
X177584Y-110844D01*
X177562Y-110811D01*
X179617Y-108756D01*
X182916D01*
Y-102244D01*
X179274D01*
X179175Y-102225D01*
X178712D01*
X157747Y-81260D01*
X157954Y-80760D01*
X169578D01*
X178091Y-89273D01*
X178046Y-89500D01*
X178176Y-90156D01*
X178548Y-90712D01*
X179104Y-91084D01*
X179760Y-91214D01*
X179987Y-91169D01*
X190679Y-101862D01*
X190355Y-102244D01*
X189913Y-102244D01*
X185656D01*
Y-108756D01*
X187006D01*
Y-116244D01*
X185669D01*
Y-122756D01*
X190212D01*
Y-116244D01*
X189045D01*
Y-108756D01*
X190396D01*
Y-102742D01*
X190396Y-102285D01*
X190779Y-101961D01*
X192783Y-103965D01*
X193114Y-104186D01*
X193390Y-104241D01*
Y-108756D01*
X198130D01*
Y-102244D01*
X196779D01*
Y-101666D01*
X224550Y-73896D01*
X224771Y-73565D01*
X224848Y-73175D01*
Y-68886D01*
X229636D01*
Y-66327D01*
Y-63768D01*
Y-61209D01*
Y-58437D01*
X227252D01*
Y-53461D01*
X227174Y-53070D01*
X226953Y-52740D01*
X224189Y-49975D01*
Y-46347D01*
X230020Y-40516D01*
X230241Y-40185D01*
X230319Y-39795D01*
Y-38417D01*
X231669D01*
Y-31905D01*
X226929D01*
Y-38417D01*
X228280D01*
Y-39373D01*
X222747Y-44905D01*
X220891D01*
X218298Y-42312D01*
Y-15157D01*
X218220Y-14767D01*
X217999Y-14436D01*
X213199Y-9636D01*
X212868Y-9415D01*
X212478Y-9337D01*
D02*
G37*
G36*
X256811Y-17906D02*
X254539D01*
Y-21161D01*
X256811D01*
Y-17906D01*
D02*
G37*
G36*
X231971D02*
X229699D01*
Y-21161D01*
X231971D01*
Y-17906D01*
D02*
G37*
G36*
X253539D02*
X251268D01*
Y-21161D01*
X253539D01*
Y-17906D01*
D02*
G37*
G36*
X228699D02*
X226428D01*
Y-21161D01*
X228699D01*
Y-17906D01*
D02*
G37*
G36*
X187471Y-19406D02*
X185199D01*
Y-22661D01*
X187471D01*
Y-19406D01*
D02*
G37*
G36*
X209039D02*
X206768D01*
Y-22661D01*
X209039D01*
Y-19406D01*
D02*
G37*
G36*
X184199D02*
X181928D01*
Y-22661D01*
X184199D01*
Y-19406D01*
D02*
G37*
G36*
X115079Y-21406D02*
X112807D01*
Y-24661D01*
X115079D01*
Y-21406D01*
D02*
G37*
G36*
X90238D02*
X87967D01*
Y-24661D01*
X90238D01*
Y-21406D01*
D02*
G37*
G36*
X111807D02*
X109535D01*
Y-24661D01*
X111807D01*
Y-21406D01*
D02*
G37*
G36*
X86967D02*
X84695D01*
Y-24661D01*
X86967D01*
Y-21406D01*
D02*
G37*
G36*
X256811Y-22161D02*
X254539D01*
Y-25417D01*
X256811D01*
Y-22161D01*
D02*
G37*
G36*
X253539D02*
X251268D01*
Y-25417D01*
X253539D01*
Y-22161D01*
D02*
G37*
G36*
X231971D02*
X229699D01*
Y-25417D01*
X231971D01*
Y-22161D01*
D02*
G37*
G36*
X228699D02*
X226428D01*
Y-25417D01*
X228699D01*
Y-22161D01*
D02*
G37*
G36*
X209039Y-23661D02*
X206768D01*
Y-26917D01*
X209039D01*
Y-23661D01*
D02*
G37*
G36*
X187471D02*
X185199D01*
Y-26917D01*
X187471D01*
Y-23661D01*
D02*
G37*
G36*
X184199D02*
X181928D01*
Y-26917D01*
X184199D01*
Y-23661D01*
D02*
G37*
G36*
X165945Y-25161D02*
X163673D01*
Y-28417D01*
X165945D01*
Y-25161D01*
D02*
G37*
G36*
X162673D02*
X160402D01*
Y-28417D01*
X162673D01*
Y-25161D01*
D02*
G37*
G36*
X141105Y-25161D02*
X138833D01*
Y-28417D01*
X141105D01*
Y-25161D01*
D02*
G37*
G36*
X137833D02*
X135561D01*
Y-28417D01*
X137833D01*
Y-25161D01*
D02*
G37*
G36*
X115079Y-25661D02*
X112807D01*
Y-28917D01*
X115079D01*
Y-25661D01*
D02*
G37*
G36*
X111807D02*
X109535D01*
Y-28917D01*
X111807D01*
Y-25661D01*
D02*
G37*
G36*
X90238D02*
X87967D01*
Y-28917D01*
X90238D01*
Y-25661D01*
D02*
G37*
G36*
X86967D02*
X84695D01*
Y-28917D01*
X86967D01*
Y-25661D01*
D02*
G37*
G36*
X242146Y-30596D02*
X238299D01*
Y-33261D01*
X242146D01*
Y-30596D01*
D02*
G37*
G36*
X237299D02*
X233453D01*
Y-33261D01*
X237299D01*
Y-30596D01*
D02*
G37*
G36*
X252978Y-6437D02*
X20978D01*
X20588Y-6515D01*
X20257Y-6736D01*
X18089Y-8904D01*
X12625D01*
Y-15810D01*
X19531D01*
Y-10346D01*
X21400Y-8477D01*
X252556D01*
X261058Y-16979D01*
Y-34738D01*
X256410D01*
Y-31905D01*
X251669D01*
Y-38417D01*
X253020D01*
Y-44905D01*
X251410D01*
Y-49975D01*
X248645Y-52740D01*
X248424Y-53070D01*
X248346Y-53461D01*
Y-58437D01*
X245963D01*
Y-61209D01*
Y-63768D01*
Y-66327D01*
Y-68886D01*
X252770D01*
Y-68770D01*
X254492D01*
X254788Y-69212D01*
X255344Y-69584D01*
X256000Y-69714D01*
X256656Y-69584D01*
X257212Y-69212D01*
X257584Y-68656D01*
X257714Y-68000D01*
X257584Y-67344D01*
X257212Y-66788D01*
X256656Y-66416D01*
X256000Y-66286D01*
X255344Y-66416D01*
X254874Y-66730D01*
X252770D01*
Y-63402D01*
X254718D01*
X255108Y-63324D01*
X255439Y-63103D01*
X256573Y-61969D01*
X256800Y-62014D01*
X257456Y-61884D01*
X258012Y-61512D01*
X258384Y-60956D01*
X258514Y-60300D01*
X258384Y-59644D01*
X258012Y-59088D01*
X257456Y-58716D01*
X256800Y-58586D01*
X256144Y-58716D01*
X255588Y-59088D01*
X255216Y-59644D01*
X255086Y-60300D01*
X255131Y-60527D01*
X254296Y-61362D01*
X252770D01*
Y-58437D01*
X250386D01*
Y-53883D01*
X252851Y-51417D01*
X256150D01*
Y-44905D01*
X255059D01*
Y-38417D01*
X256410D01*
Y-36777D01*
X261492D01*
X261882Y-36699D01*
X262213Y-36478D01*
X262799Y-35892D01*
X263020Y-35561D01*
X263098Y-35171D01*
Y-16557D01*
X263020Y-16167D01*
X262799Y-15836D01*
X253699Y-6736D01*
X253368Y-6515D01*
X252978Y-6437D01*
D02*
G37*
G36*
X197646Y-32096D02*
X193799D01*
Y-34761D01*
X197646D01*
Y-32096D01*
D02*
G37*
G36*
X192799D02*
X188953D01*
Y-34761D01*
X192799D01*
Y-32096D01*
D02*
G37*
G36*
X151279Y-33596D02*
X147433D01*
Y-36261D01*
X151279D01*
Y-33596D01*
D02*
G37*
G36*
X146433D02*
X142587D01*
Y-36261D01*
X146433D01*
Y-33596D01*
D02*
G37*
G36*
X100413Y-34096D02*
X96567D01*
Y-36761D01*
X100413D01*
Y-34096D01*
D02*
G37*
G36*
X95567D02*
X91720D01*
Y-36761D01*
X95567D01*
Y-34096D01*
D02*
G37*
G36*
X242146Y-34261D02*
X238299D01*
Y-36927D01*
X242146D01*
Y-34261D01*
D02*
G37*
G36*
X237299D02*
X233453D01*
Y-36927D01*
X237299D01*
Y-34261D01*
D02*
G37*
G36*
X248831Y-18406D02*
X244287D01*
Y-24917D01*
X245539D01*
Y-31905D01*
X244189D01*
Y-38417D01*
X248929D01*
Y-31905D01*
X247579D01*
Y-24917D01*
X248831D01*
Y-18406D01*
D02*
G37*
G36*
X223991D02*
X219447D01*
Y-24917D01*
X220699D01*
Y-31905D01*
X219449D01*
Y-38417D01*
X224189D01*
Y-31905D01*
X222739D01*
Y-24917D01*
X223991D01*
Y-18406D01*
D02*
G37*
G36*
X197646Y-35761D02*
X193799D01*
Y-38427D01*
X197646D01*
Y-35761D01*
D02*
G37*
G36*
X192799D02*
X188953D01*
Y-38427D01*
X192799D01*
Y-35761D01*
D02*
G37*
G36*
X204331Y-19906D02*
X199787D01*
Y-26417D01*
X201040D01*
Y-33406D01*
X199689D01*
Y-39917D01*
X204429D01*
Y-33406D01*
X203079D01*
Y-26417D01*
X204331D01*
Y-19906D01*
D02*
G37*
G36*
X179490D02*
X174947D01*
Y-26417D01*
X176299D01*
Y-33406D01*
X174949D01*
Y-39917D01*
X179689D01*
Y-33406D01*
X178338D01*
Y-26417D01*
X179490D01*
Y-19906D01*
D02*
G37*
G36*
X151279Y-37261D02*
X147433D01*
Y-39927D01*
X151279D01*
Y-37261D01*
D02*
G37*
G36*
X146433D02*
X142587D01*
Y-39927D01*
X146433D01*
Y-37261D01*
D02*
G37*
G36*
X100413Y-37761D02*
X96567D01*
Y-40427D01*
X100413D01*
Y-37761D01*
D02*
G37*
G36*
X95567D02*
X91720D01*
Y-40427D01*
X95567D01*
Y-37761D01*
D02*
G37*
G36*
X157965Y-21406D02*
X153421D01*
Y-27917D01*
X154673D01*
Y-34905D01*
X153323D01*
Y-41417D01*
X158063D01*
Y-34905D01*
X156712D01*
Y-27917D01*
X157965D01*
Y-21406D01*
D02*
G37*
G36*
X133124D02*
X128581D01*
Y-27917D01*
X129933D01*
Y-34905D01*
X128583D01*
Y-41417D01*
X133323D01*
Y-34905D01*
X131972D01*
Y-27917D01*
X133124D01*
Y-21406D01*
D02*
G37*
G36*
X107098Y-21905D02*
X102555D01*
Y-28417D01*
X103807D01*
Y-35405D01*
X102457D01*
Y-41917D01*
X107197D01*
Y-35405D01*
X105846D01*
Y-28417D01*
X107098D01*
Y-21905D01*
D02*
G37*
G36*
X82258D02*
X77715D01*
Y-28417D01*
X79067D01*
Y-35405D01*
X77716D01*
Y-41917D01*
X82457D01*
Y-35405D01*
X81106D01*
Y-28417D01*
X82258D01*
Y-21905D01*
D02*
G37*
G36*
X248669Y-44905D02*
X243929D01*
Y-47142D01*
X241646D01*
Y-46057D01*
X233953D01*
Y-47142D01*
X231669D01*
Y-44905D01*
X226929D01*
Y-51417D01*
X231669D01*
Y-49181D01*
X233953D01*
Y-51387D01*
X241646D01*
Y-49181D01*
X243929D01*
Y-51417D01*
X248669D01*
Y-44905D01*
D02*
G37*
G36*
X140803Y-34905D02*
X136063D01*
Y-41417D01*
X137413D01*
Y-42373D01*
X131881Y-47905D01*
X130025D01*
X123058Y-40939D01*
Y-40667D01*
X123362Y-40213D01*
X123492Y-39557D01*
X123362Y-38901D01*
X122990Y-38345D01*
X122434Y-37974D01*
X121778Y-37843D01*
X121122Y-37974D01*
X120566Y-38345D01*
X120194Y-38901D01*
X120064Y-39557D01*
X120194Y-40213D01*
X120566Y-40769D01*
X121019Y-41072D01*
Y-41361D01*
X121097Y-41752D01*
X121318Y-42082D01*
X128583Y-49347D01*
Y-54417D01*
X131881D01*
X134347Y-56883D01*
Y-61437D01*
X131963D01*
Y-64362D01*
X129573D01*
X129090Y-63880D01*
X128984Y-63344D01*
X128612Y-62788D01*
X128056Y-62416D01*
X127400Y-62286D01*
X126744Y-62416D01*
X126188Y-62788D01*
X125816Y-63344D01*
X125686Y-64000D01*
X125816Y-64656D01*
X126188Y-65212D01*
X126744Y-65584D01*
X127400Y-65714D01*
X127934Y-65608D01*
X128429Y-66103D01*
X128760Y-66324D01*
X129150Y-66401D01*
X131963D01*
Y-69480D01*
X129869D01*
X129478Y-69558D01*
X129148Y-69779D01*
X128534Y-70392D01*
X128000Y-70286D01*
X127344Y-70416D01*
X126788Y-70788D01*
X126416Y-71344D01*
X126286Y-72000D01*
X126416Y-72656D01*
X126788Y-73212D01*
X127344Y-73584D01*
X128000Y-73714D01*
X128656Y-73584D01*
X129212Y-73212D01*
X129584Y-72656D01*
X129690Y-72120D01*
X130291Y-71520D01*
X131963D01*
Y-71886D01*
X138770D01*
Y-69327D01*
Y-66768D01*
Y-64209D01*
Y-61437D01*
X136386D01*
Y-56461D01*
X136308Y-56071D01*
X136087Y-55740D01*
X133323Y-52975D01*
Y-49347D01*
X139154Y-43516D01*
X139375Y-43185D01*
X139453Y-42795D01*
Y-41417D01*
X140803D01*
Y-34905D01*
D02*
G37*
G36*
X114677Y-35405D02*
X109937D01*
Y-41917D01*
X111287D01*
Y-48406D01*
X109677D01*
Y-53475D01*
X106913Y-56240D01*
X106692Y-56571D01*
X106614Y-56961D01*
Y-61937D01*
X104230D01*
Y-64709D01*
Y-67268D01*
Y-69827D01*
Y-72386D01*
X111037D01*
Y-72270D01*
X112492D01*
X112788Y-72712D01*
X113344Y-73084D01*
X114000Y-73214D01*
X114656Y-73084D01*
X115212Y-72712D01*
X115584Y-72156D01*
X115714Y-71500D01*
X115584Y-70844D01*
X115212Y-70288D01*
X114656Y-69916D01*
X114000Y-69786D01*
X113344Y-69916D01*
X112874Y-70230D01*
X111037D01*
Y-66811D01*
X113220D01*
X113288Y-66912D01*
X113844Y-67284D01*
X114500Y-67414D01*
X115156Y-67284D01*
X115712Y-66912D01*
X116084Y-66356D01*
X116214Y-65700D01*
X116084Y-65044D01*
X115712Y-64488D01*
X115156Y-64116D01*
X114500Y-63986D01*
X113844Y-64116D01*
X113288Y-64488D01*
X113099Y-64771D01*
X111037D01*
Y-61937D01*
X108653D01*
Y-57383D01*
X111119Y-54917D01*
X114417D01*
Y-49847D01*
X114869Y-49395D01*
X114872Y-49395D01*
X115203Y-49174D01*
X116151Y-48226D01*
X116378Y-48271D01*
X117034Y-48141D01*
X117590Y-47769D01*
X117962Y-47213D01*
X118092Y-46557D01*
X117962Y-45901D01*
X117590Y-45345D01*
X117034Y-44974D01*
X116378Y-44843D01*
X115722Y-44974D01*
X115166Y-45345D01*
X114794Y-45901D01*
X114664Y-46557D01*
X114709Y-46784D01*
X113983Y-47510D01*
X113980Y-47511D01*
X113827Y-47613D01*
X113327Y-47383D01*
Y-41917D01*
X114677D01*
Y-35405D01*
D02*
G37*
G36*
X204169Y-46406D02*
X199429D01*
Y-48642D01*
X197146D01*
Y-47557D01*
X189453D01*
Y-48642D01*
X187169D01*
Y-46406D01*
X182429D01*
Y-52917D01*
X187169D01*
Y-50681D01*
X189453D01*
Y-52887D01*
X197146D01*
Y-50681D01*
X199429D01*
Y-52917D01*
X204169D01*
Y-46406D01*
D02*
G37*
G36*
X157803Y-47905D02*
X153063D01*
Y-50142D01*
X150779D01*
Y-49057D01*
X143087D01*
Y-50142D01*
X140803D01*
Y-47905D01*
X136063D01*
Y-54417D01*
X140803D01*
Y-52181D01*
X143087D01*
Y-54387D01*
X150779D01*
Y-52181D01*
X153063D01*
Y-54417D01*
X157803D01*
Y-47905D01*
D02*
G37*
G36*
X106937Y-48406D02*
X102197D01*
Y-50642D01*
X99913D01*
Y-49557D01*
X92220D01*
Y-50642D01*
X89937D01*
Y-48406D01*
X85197D01*
Y-54917D01*
X89937D01*
Y-52681D01*
X92220D01*
Y-54887D01*
X99913D01*
Y-52681D01*
X102197D01*
Y-54917D01*
X106937D01*
Y-48406D01*
D02*
G37*
G36*
X16078Y-48875D02*
X15177Y-48993D01*
X14337Y-49341D01*
X13615Y-49895D01*
X13062Y-50616D01*
X12714Y-51456D01*
X12595Y-52357D01*
X12714Y-53259D01*
X13062Y-54098D01*
X13615Y-54820D01*
X14337Y-55373D01*
X15177Y-55721D01*
X16078Y-55840D01*
X16979Y-55721D01*
X17819Y-55373D01*
X18541Y-54820D01*
X19094Y-54098D01*
X19442Y-53259D01*
X19560Y-52357D01*
X19442Y-51456D01*
X19094Y-50616D01*
X18541Y-49895D01*
X17819Y-49341D01*
X16979Y-48993D01*
X16078Y-48875D01*
D02*
G37*
G36*
X168178Y-18737D02*
X38678D01*
X38288Y-18815D01*
X37957Y-19036D01*
X17701Y-39292D01*
X16979Y-38993D01*
X16078Y-38875D01*
X15177Y-38993D01*
X14337Y-39341D01*
X13615Y-39895D01*
X13062Y-40616D01*
X12714Y-41456D01*
X12595Y-42357D01*
X12714Y-43259D01*
X13062Y-44098D01*
X13615Y-44820D01*
X14337Y-45373D01*
X15177Y-45721D01*
X16078Y-45840D01*
X16979Y-45721D01*
X17819Y-45373D01*
X18541Y-44820D01*
X19094Y-44098D01*
X19442Y-43259D01*
X19560Y-42357D01*
X19442Y-41456D01*
X19143Y-40734D01*
X39100Y-20777D01*
X135115D01*
X135561Y-20906D01*
X135561Y-21277D01*
Y-24161D01*
X138333D01*
X141105D01*
Y-21277D01*
X141105Y-20906D01*
X141551Y-20777D01*
X159955D01*
X160402Y-20906D01*
X160402Y-21277D01*
Y-24161D01*
X163173D01*
X165945D01*
Y-21277D01*
X165945Y-20906D01*
X166392Y-20777D01*
X167756D01*
X170058Y-23079D01*
Y-47757D01*
X170136Y-48147D01*
X170357Y-48478D01*
X173147Y-51268D01*
X173478Y-51489D01*
X173868Y-51567D01*
X174949D01*
Y-52917D01*
X178247D01*
X180713Y-55383D01*
Y-59937D01*
X178329D01*
Y-62862D01*
X176873D01*
X176390Y-62379D01*
X176284Y-61844D01*
X175912Y-61288D01*
X175356Y-60916D01*
X174700Y-60786D01*
X174044Y-60916D01*
X173488Y-61288D01*
X173116Y-61844D01*
X172986Y-62500D01*
X173116Y-63156D01*
X173488Y-63712D01*
X174044Y-64084D01*
X174700Y-64214D01*
X175234Y-64108D01*
X175730Y-64603D01*
X176060Y-64824D01*
X176451Y-64902D01*
X178329D01*
Y-67980D01*
X174841D01*
X174712Y-67788D01*
X174156Y-67416D01*
X173500Y-67286D01*
X172844Y-67416D01*
X172288Y-67788D01*
X171916Y-68344D01*
X171786Y-69000D01*
X171916Y-69656D01*
X172288Y-70212D01*
X172844Y-70584D01*
X173500Y-70714D01*
X174156Y-70584D01*
X174712Y-70212D01*
X174841Y-70020D01*
X178329D01*
Y-70386D01*
X185136D01*
Y-67827D01*
Y-65268D01*
Y-62709D01*
Y-59937D01*
X182752D01*
Y-54961D01*
X182674Y-54571D01*
X182453Y-54240D01*
X179689Y-51475D01*
Y-46406D01*
X178338D01*
Y-45450D01*
X183871Y-39917D01*
X187169D01*
Y-33406D01*
X182429D01*
Y-38475D01*
X176598Y-44307D01*
X176377Y-44637D01*
X176299Y-45028D01*
Y-46406D01*
X174949D01*
Y-49528D01*
X174290D01*
X172098Y-47335D01*
Y-22657D01*
X172020Y-22267D01*
X171799Y-21936D01*
X168899Y-19036D01*
X168568Y-18815D01*
X168178Y-18737D01*
D02*
G37*
G36*
X166878Y-30643D02*
X166222Y-30774D01*
X165666Y-31145D01*
X165294Y-31701D01*
X165164Y-32357D01*
X165294Y-33013D01*
X165575Y-33432D01*
X164101Y-34905D01*
X160803D01*
Y-41417D01*
X162154D01*
Y-47905D01*
X160543D01*
Y-54417D01*
X161894D01*
Y-54995D01*
X160183Y-56706D01*
X159962Y-57037D01*
X159884Y-57427D01*
Y-61437D01*
X155096D01*
Y-64209D01*
Y-66768D01*
Y-69327D01*
Y-71886D01*
X161904D01*
Y-71520D01*
X163578D01*
X164331Y-72273D01*
X164286Y-72500D01*
X164416Y-73156D01*
X164788Y-73712D01*
X165344Y-74084D01*
X166000Y-74214D01*
X166656Y-74084D01*
X167212Y-73712D01*
X167584Y-73156D01*
X167714Y-72500D01*
X167584Y-71844D01*
X167212Y-71288D01*
X166656Y-70916D01*
X166000Y-70786D01*
X165773Y-70831D01*
X164721Y-69779D01*
X164390Y-69558D01*
X164000Y-69480D01*
X161904D01*
Y-66401D01*
X163718D01*
X164108Y-66324D01*
X164439Y-66103D01*
X165873Y-64669D01*
X166100Y-64714D01*
X166756Y-64584D01*
X167312Y-64212D01*
X167684Y-63656D01*
X167814Y-63000D01*
X167684Y-62344D01*
X167312Y-61788D01*
X166756Y-61416D01*
X166100Y-61286D01*
X165444Y-61416D01*
X164888Y-61788D01*
X164516Y-62344D01*
X164386Y-63000D01*
X164431Y-63227D01*
X163296Y-64362D01*
X161904D01*
Y-62536D01*
X161923Y-62437D01*
Y-57850D01*
X163634Y-56138D01*
X163855Y-55808D01*
X163933Y-55417D01*
Y-54417D01*
X165284D01*
Y-47905D01*
X164193D01*
Y-41417D01*
X165543D01*
Y-36347D01*
X167338Y-34552D01*
X167559Y-34222D01*
X167628Y-33878D01*
X168090Y-33569D01*
X168462Y-33013D01*
X168592Y-32357D01*
X168462Y-31701D01*
X168090Y-31145D01*
X167534Y-30774D01*
X166878Y-30643D01*
D02*
G37*
G36*
X89937Y-35405D02*
X85197D01*
Y-40475D01*
X79366Y-46307D01*
X79145Y-46637D01*
X79067Y-47028D01*
Y-48406D01*
X77716D01*
Y-52898D01*
X44518D01*
X44128Y-52975D01*
X43797Y-53196D01*
X17701Y-79292D01*
X16979Y-78993D01*
X16078Y-78875D01*
X15177Y-78993D01*
X14337Y-79341D01*
X13615Y-79895D01*
X13062Y-80616D01*
X12714Y-81456D01*
X12595Y-82357D01*
X12714Y-83258D01*
X13062Y-84098D01*
X13615Y-84820D01*
X14337Y-85373D01*
X15177Y-85721D01*
X16078Y-85840D01*
X16979Y-85721D01*
X17819Y-85373D01*
X18541Y-84820D01*
X19094Y-84098D01*
X19442Y-83258D01*
X19560Y-82357D01*
X19442Y-81456D01*
X19143Y-80734D01*
X44940Y-54937D01*
X78716D01*
X78815Y-54917D01*
X81015D01*
X83480Y-57383D01*
Y-61937D01*
X81097D01*
Y-64862D01*
X77973D01*
X77290Y-64179D01*
X77184Y-63644D01*
X76812Y-63088D01*
X76256Y-62716D01*
X75600Y-62586D01*
X74944Y-62716D01*
X74388Y-63088D01*
X74016Y-63644D01*
X73886Y-64300D01*
X74016Y-64956D01*
X74388Y-65512D01*
X74944Y-65884D01*
X75600Y-66014D01*
X76134Y-65908D01*
X76829Y-66603D01*
X77160Y-66824D01*
X77551Y-66901D01*
X81097D01*
Y-69980D01*
X76341D01*
X76212Y-69788D01*
X75656Y-69416D01*
X75000Y-69286D01*
X74344Y-69416D01*
X73788Y-69788D01*
X73416Y-70344D01*
X73286Y-71000D01*
X73416Y-71656D01*
X73788Y-72212D01*
X74344Y-72584D01*
X75000Y-72714D01*
X75656Y-72584D01*
X76212Y-72212D01*
X76341Y-72020D01*
X81097D01*
Y-72386D01*
X87903D01*
Y-69827D01*
Y-67268D01*
Y-64709D01*
Y-61937D01*
X85520D01*
Y-56961D01*
X85442Y-56571D01*
X85221Y-56240D01*
X82457Y-53475D01*
Y-48406D01*
X81106D01*
Y-47450D01*
X86639Y-41917D01*
X89937D01*
Y-35405D01*
D02*
G37*
G36*
X16078Y-58875D02*
X15177Y-58993D01*
X14337Y-59341D01*
X13615Y-59895D01*
X13062Y-60616D01*
X12714Y-61456D01*
X12595Y-62357D01*
X12714Y-63258D01*
X13062Y-64098D01*
X13615Y-64820D01*
X14337Y-65373D01*
X15177Y-65721D01*
X16078Y-65840D01*
X16979Y-65721D01*
X17819Y-65373D01*
X18541Y-64820D01*
X19094Y-64098D01*
X19442Y-63258D01*
X19560Y-62357D01*
X19442Y-61456D01*
X19094Y-60616D01*
X18541Y-59895D01*
X17819Y-59341D01*
X16979Y-58993D01*
X16078Y-58875D01*
D02*
G37*
G36*
Y-68875D02*
X15177Y-68993D01*
X14337Y-69341D01*
X13615Y-69895D01*
X13062Y-70616D01*
X12714Y-71456D01*
X12595Y-72357D01*
X12714Y-73259D01*
X13062Y-74098D01*
X13615Y-74820D01*
X14337Y-75373D01*
X15177Y-75721D01*
X16078Y-75840D01*
X16979Y-75721D01*
X17819Y-75373D01*
X18541Y-74820D01*
X19094Y-74098D01*
X19442Y-73259D01*
X19560Y-72357D01*
X19442Y-71456D01*
X19094Y-70616D01*
X18541Y-69895D01*
X17819Y-69341D01*
X16979Y-68993D01*
X16078Y-68875D01*
D02*
G37*
G36*
X107132Y-115744D02*
X104860D01*
Y-119000D01*
X107132D01*
Y-115744D01*
D02*
G37*
G36*
X103860D02*
X101588D01*
Y-119000D01*
X103860D01*
Y-115744D01*
D02*
G37*
G36*
X152731D02*
X150460D01*
Y-119000D01*
X152731D01*
Y-115744D01*
D02*
G37*
G36*
X92032D02*
X89760D01*
Y-119000D01*
X92032D01*
Y-115744D01*
D02*
G37*
G36*
X149460D02*
X147188D01*
Y-119000D01*
X149460D01*
Y-115744D01*
D02*
G37*
G36*
X88760D02*
X86488D01*
Y-119000D01*
X88760D01*
Y-115744D01*
D02*
G37*
G36*
X198431D02*
X196160D01*
Y-119000D01*
X198431D01*
Y-115744D01*
D02*
G37*
G36*
X137531D02*
X135260D01*
Y-119000D01*
X137531D01*
Y-115744D01*
D02*
G37*
G36*
X195160D02*
X192888D01*
Y-119000D01*
X195160D01*
Y-115744D01*
D02*
G37*
G36*
X134260D02*
X131988D01*
Y-119000D01*
X134260D01*
Y-115744D01*
D02*
G37*
G36*
X183231D02*
X180960D01*
Y-119000D01*
X183231D01*
Y-115744D01*
D02*
G37*
G36*
X122332D02*
X120060D01*
Y-119000D01*
X122332D01*
Y-115744D01*
D02*
G37*
G36*
X179960D02*
X177688D01*
Y-119000D01*
X179960D01*
Y-115744D01*
D02*
G37*
G36*
X119060D02*
X116788D01*
Y-119000D01*
X119060D01*
Y-115744D01*
D02*
G37*
G36*
X168031D02*
X165760D01*
Y-119000D01*
X168031D01*
Y-115744D01*
D02*
G37*
G36*
X164760D02*
X162488D01*
Y-119000D01*
X164760D01*
Y-115744D01*
D02*
G37*
G36*
X205610Y-102244D02*
X200870D01*
Y-108756D01*
X202120D01*
Y-116244D01*
X200868D01*
Y-122756D01*
X205412D01*
Y-116244D01*
X204160D01*
Y-108756D01*
X205610D01*
Y-102244D01*
D02*
G37*
G36*
X159967D02*
X155227D01*
Y-108756D01*
X156578D01*
Y-116244D01*
X155168D01*
Y-122756D01*
X159712D01*
Y-116244D01*
X158617D01*
Y-108756D01*
X159967D01*
Y-102244D01*
D02*
G37*
G36*
X198431Y-120000D02*
X196160D01*
Y-123256D01*
X198431D01*
Y-120000D01*
D02*
G37*
G36*
X195160D02*
X192888D01*
Y-123256D01*
X195160D01*
Y-120000D01*
D02*
G37*
G36*
X183231Y-120000D02*
X180960D01*
Y-123256D01*
X183231D01*
Y-120000D01*
D02*
G37*
G36*
X179960D02*
X177688D01*
Y-123256D01*
X179960D01*
Y-120000D01*
D02*
G37*
G36*
X168031Y-120000D02*
X165760D01*
Y-123256D01*
X168031D01*
Y-120000D01*
D02*
G37*
G36*
X164760D02*
X162488D01*
Y-123256D01*
X164760D01*
Y-120000D01*
D02*
G37*
G36*
X152731Y-120000D02*
X150460D01*
Y-123256D01*
X152731D01*
Y-120000D01*
D02*
G37*
G36*
X149460D02*
X147188D01*
Y-123256D01*
X149460D01*
Y-120000D01*
D02*
G37*
G36*
X137531Y-120000D02*
X135260D01*
Y-123256D01*
X137531D01*
Y-120000D01*
D02*
G37*
G36*
X134260D02*
X131988D01*
Y-123256D01*
X134260D01*
Y-120000D01*
D02*
G37*
G36*
X122332Y-120000D02*
X120060D01*
Y-123256D01*
X122332D01*
Y-120000D01*
D02*
G37*
G36*
X119060D02*
X116788D01*
Y-123256D01*
X119060D01*
Y-120000D01*
D02*
G37*
G36*
X107132Y-120000D02*
X104860D01*
Y-123256D01*
X107132D01*
Y-120000D01*
D02*
G37*
G36*
X103860D02*
X101588D01*
Y-123256D01*
X103860D01*
Y-120000D01*
D02*
G37*
G36*
X92032Y-120000D02*
X89760D01*
Y-123256D01*
X92032D01*
Y-120000D01*
D02*
G37*
G36*
X88760D02*
X86488D01*
Y-123256D01*
X88760D01*
Y-120000D01*
D02*
G37*
G36*
X34800Y-111586D02*
X34144Y-111716D01*
X33588Y-112088D01*
X33216Y-112644D01*
X33086Y-113300D01*
X33216Y-113956D01*
X33588Y-114512D01*
X34144Y-114884D01*
X34800Y-115014D01*
X35027Y-114969D01*
X44118Y-124060D01*
X44449Y-124281D01*
X44839Y-124359D01*
X45385D01*
X45688Y-124812D01*
X46244Y-125184D01*
X46900Y-125314D01*
X47556Y-125184D01*
X48112Y-124812D01*
X48484Y-124256D01*
X48614Y-123600D01*
X48484Y-122944D01*
X48112Y-122388D01*
X47556Y-122016D01*
X46900Y-121886D01*
X46244Y-122016D01*
X45790Y-122320D01*
X45262D01*
X36469Y-113527D01*
X36514Y-113300D01*
X36384Y-112644D01*
X36012Y-112088D01*
X35456Y-111716D01*
X34800Y-111586D01*
D02*
G37*
G36*
X168032Y-166244D02*
X165760D01*
Y-169500D01*
X168032D01*
Y-166244D01*
D02*
G37*
G36*
X152732D02*
X150460D01*
Y-169500D01*
X152732D01*
Y-166244D01*
D02*
G37*
G36*
X137531D02*
X135260D01*
Y-169500D01*
X137531D01*
Y-166244D01*
D02*
G37*
G36*
X122332D02*
X120060D01*
Y-169500D01*
X122332D01*
Y-166244D01*
D02*
G37*
G36*
X107132D02*
X104860D01*
Y-169500D01*
X107132D01*
Y-166244D01*
D02*
G37*
G36*
X92032D02*
X89760D01*
Y-169500D01*
X92032D01*
Y-166244D01*
D02*
G37*
G36*
X164760D02*
X162488D01*
Y-169500D01*
X164760D01*
Y-166244D01*
D02*
G37*
G36*
X149460D02*
X147188D01*
Y-169500D01*
X149460D01*
Y-166244D01*
D02*
G37*
G36*
X134260D02*
X131988D01*
Y-169500D01*
X134260D01*
Y-166244D01*
D02*
G37*
G36*
X119060D02*
X116788D01*
Y-169500D01*
X119060D01*
Y-166244D01*
D02*
G37*
G36*
X103860D02*
X101588D01*
Y-169500D01*
X103860D01*
Y-166244D01*
D02*
G37*
G36*
X88760D02*
X86488D01*
Y-169500D01*
X88760D01*
Y-166244D01*
D02*
G37*
G36*
X198431D02*
X196160D01*
Y-169500D01*
X198431D01*
Y-166244D01*
D02*
G37*
G36*
X183231D02*
X180960D01*
Y-169500D01*
X183231D01*
Y-166244D01*
D02*
G37*
G36*
X195160D02*
X192888D01*
Y-169500D01*
X195160D01*
Y-166244D01*
D02*
G37*
G36*
X179960D02*
X177688D01*
Y-169500D01*
X179960D01*
Y-166244D01*
D02*
G37*
G36*
X205610Y-152744D02*
X200870D01*
Y-159256D01*
X201924D01*
Y-166744D01*
X200868D01*
Y-173256D01*
X205412D01*
Y-166744D01*
X203963D01*
Y-159256D01*
X205610D01*
Y-152744D01*
D02*
G37*
G36*
X159967D02*
X155227D01*
Y-159256D01*
X156381D01*
Y-166744D01*
X155168D01*
Y-173256D01*
X159712D01*
Y-166744D01*
X158420D01*
Y-159256D01*
X159967D01*
Y-152744D01*
D02*
G37*
G36*
X198431Y-170500D02*
X196160D01*
Y-173756D01*
X198431D01*
Y-170500D01*
D02*
G37*
G36*
X195160D02*
X192888D01*
Y-173756D01*
X195160D01*
Y-170500D01*
D02*
G37*
G36*
X183231D02*
X180960D01*
Y-173756D01*
X183231D01*
Y-170500D01*
D02*
G37*
G36*
X179960D02*
X177688D01*
Y-173756D01*
X179960D01*
Y-170500D01*
D02*
G37*
G36*
X168032Y-170500D02*
X165760D01*
Y-173756D01*
X168032D01*
Y-170500D01*
D02*
G37*
G36*
X164760D02*
X162488D01*
Y-173756D01*
X164760D01*
Y-170500D01*
D02*
G37*
G36*
X152732D02*
X150460D01*
Y-173756D01*
X152732D01*
Y-170500D01*
D02*
G37*
G36*
X149460D02*
X147188D01*
Y-173756D01*
X149460D01*
Y-170500D01*
D02*
G37*
G36*
X137531D02*
X135260D01*
Y-173756D01*
X137531D01*
Y-170500D01*
D02*
G37*
G36*
X134260D02*
X131988D01*
Y-173756D01*
X134260D01*
Y-170500D01*
D02*
G37*
G36*
X122332D02*
X120060D01*
Y-173756D01*
X122332D01*
Y-170500D01*
D02*
G37*
G36*
X119060D02*
X116788D01*
Y-173756D01*
X119060D01*
Y-170500D01*
D02*
G37*
G36*
X107132D02*
X104860D01*
Y-173756D01*
X107132D01*
Y-170500D01*
D02*
G37*
G36*
X103860D02*
X101588D01*
Y-173756D01*
X103860D01*
Y-170500D01*
D02*
G37*
G36*
X92032D02*
X89760D01*
Y-173756D01*
X92032D01*
Y-170500D01*
D02*
G37*
G36*
X88760D02*
X86488D01*
Y-173756D01*
X88760D01*
Y-170500D01*
D02*
G37*
G36*
X20631Y-192437D02*
X13725D01*
Y-199342D01*
X20631D01*
Y-192437D01*
D02*
G37*
G36*
X92032Y-216744D02*
X89760D01*
Y-220000D01*
X92032D01*
Y-216744D01*
D02*
G37*
G36*
X88760D02*
X86488D01*
Y-220000D01*
X88760D01*
Y-216744D01*
D02*
G37*
G36*
X198431D02*
X196160D01*
Y-220000D01*
X198431D01*
Y-216744D01*
D02*
G37*
G36*
X183231D02*
X180960D01*
Y-220000D01*
X183231D01*
Y-216744D01*
D02*
G37*
G36*
X168031D02*
X165760D01*
Y-220000D01*
X168031D01*
Y-216744D01*
D02*
G37*
G36*
X152731D02*
X150460D01*
Y-220000D01*
X152731D01*
Y-216744D01*
D02*
G37*
G36*
X137531D02*
X135260D01*
Y-220000D01*
X137531D01*
Y-216744D01*
D02*
G37*
G36*
X122331D02*
X120060D01*
Y-220000D01*
X122331D01*
Y-216744D01*
D02*
G37*
G36*
X107131D02*
X104860D01*
Y-220000D01*
X107131D01*
Y-216744D01*
D02*
G37*
G36*
X195160D02*
X192888D01*
Y-220000D01*
X195160D01*
Y-216744D01*
D02*
G37*
G36*
X179960D02*
X177688D01*
Y-220000D01*
X179960D01*
Y-216744D01*
D02*
G37*
G36*
X164760D02*
X162488D01*
Y-220000D01*
X164760D01*
Y-216744D01*
D02*
G37*
G36*
X149460D02*
X147188D01*
Y-220000D01*
X149460D01*
Y-216744D01*
D02*
G37*
G36*
X134260D02*
X131988D01*
Y-220000D01*
X134260D01*
Y-216744D01*
D02*
G37*
G36*
X119060D02*
X116788D01*
Y-220000D01*
X119060D01*
Y-216744D01*
D02*
G37*
G36*
X103860D02*
X101588D01*
Y-220000D01*
X103860D01*
Y-216744D01*
D02*
G37*
G36*
X205610Y-203244D02*
X200870D01*
Y-209756D01*
X201924D01*
Y-217244D01*
X200868D01*
Y-223756D01*
X205412D01*
Y-217244D01*
X203963D01*
Y-209756D01*
X205610D01*
Y-203244D01*
D02*
G37*
G36*
X159967D02*
X155227D01*
Y-209756D01*
X156381D01*
Y-217244D01*
X155168D01*
Y-223756D01*
X159712D01*
Y-217244D01*
X158420D01*
Y-209756D01*
X159967D01*
Y-203244D01*
D02*
G37*
G36*
X198431Y-221000D02*
X196160D01*
Y-224256D01*
X198431D01*
Y-221000D01*
D02*
G37*
G36*
X195160D02*
X192888D01*
Y-224256D01*
X195160D01*
Y-221000D01*
D02*
G37*
G36*
X183231D02*
X180960D01*
Y-224256D01*
X183231D01*
Y-221000D01*
D02*
G37*
G36*
X179960D02*
X177688D01*
Y-224256D01*
X179960D01*
Y-221000D01*
D02*
G37*
G36*
X168031D02*
X165760D01*
Y-224256D01*
X168031D01*
Y-221000D01*
D02*
G37*
G36*
X164760D02*
X162488D01*
Y-224256D01*
X164760D01*
Y-221000D01*
D02*
G37*
G36*
X152731D02*
X150460D01*
Y-224256D01*
X152731D01*
Y-221000D01*
D02*
G37*
G36*
X149460D02*
X147188D01*
Y-224256D01*
X149460D01*
Y-221000D01*
D02*
G37*
G36*
X137531D02*
X135260D01*
Y-224256D01*
X137531D01*
Y-221000D01*
D02*
G37*
G36*
X134260D02*
X131988D01*
Y-224256D01*
X134260D01*
Y-221000D01*
D02*
G37*
G36*
X122331D02*
X120060D01*
Y-224256D01*
X122331D01*
Y-221000D01*
D02*
G37*
G36*
X119060D02*
X116788D01*
Y-224256D01*
X119060D01*
Y-221000D01*
D02*
G37*
G36*
X107131D02*
X104860D01*
Y-224256D01*
X107131D01*
Y-221000D01*
D02*
G37*
G36*
X103860D02*
X101588D01*
Y-224256D01*
X103860D01*
Y-221000D01*
D02*
G37*
G36*
X92032Y-221000D02*
X89760D01*
Y-224256D01*
X92032D01*
Y-221000D01*
D02*
G37*
G36*
X88760D02*
X86488D01*
Y-224256D01*
X88760D01*
Y-221000D01*
D02*
G37*
G36*
X228374Y-225803D02*
X227402D01*
Y-228075D01*
X228374D01*
Y-225803D01*
D02*
G37*
G36*
X56756Y-226303D02*
X55783D01*
Y-228575D01*
X56756D01*
Y-226303D01*
D02*
G37*
G36*
X17178Y-232407D02*
X16277Y-232526D01*
X15437Y-232874D01*
X14715Y-233427D01*
X14162Y-234148D01*
X13814Y-234988D01*
X13695Y-235890D01*
X13814Y-236791D01*
X14162Y-237631D01*
X14715Y-238352D01*
X15437Y-238906D01*
X16277Y-239253D01*
X17178Y-239372D01*
X18079Y-239253D01*
X18919Y-238906D01*
X19640Y-238352D01*
X20194Y-237631D01*
X20542Y-236791D01*
X20661Y-235890D01*
X20542Y-234988D01*
X20194Y-234148D01*
X19640Y-233427D01*
X18919Y-232874D01*
X18079Y-232526D01*
X17178Y-232407D01*
D02*
G37*
G36*
X204600Y-239386D02*
X203944Y-239516D01*
X203388Y-239888D01*
X203016Y-240444D01*
X202886Y-241100D01*
X202931Y-241327D01*
X199827Y-244431D01*
X199600Y-244386D01*
X198944Y-244516D01*
X198388Y-244888D01*
X198016Y-245444D01*
X197886Y-246100D01*
X198016Y-246756D01*
X198388Y-247312D01*
X198944Y-247684D01*
X199600Y-247814D01*
X200256Y-247684D01*
X200812Y-247312D01*
X201184Y-246756D01*
X201314Y-246100D01*
X201269Y-245873D01*
X204373Y-242769D01*
X204600Y-242814D01*
X205256Y-242684D01*
X205812Y-242312D01*
X206184Y-241756D01*
X206314Y-241100D01*
X206184Y-240444D01*
X205812Y-239888D01*
X205256Y-239516D01*
X204600Y-239386D01*
D02*
G37*
G36*
X17178Y-252407D02*
X16277Y-252526D01*
X15437Y-252874D01*
X14715Y-253427D01*
X14162Y-254148D01*
X13814Y-254988D01*
X13695Y-255890D01*
X13814Y-256791D01*
X14162Y-257631D01*
X14715Y-258352D01*
X15437Y-258906D01*
X16277Y-259254D01*
X17178Y-259372D01*
X18079Y-259254D01*
X18919Y-258906D01*
X19640Y-258352D01*
X20194Y-257631D01*
X20542Y-256791D01*
X20661Y-255890D01*
X20542Y-254988D01*
X20194Y-254148D01*
X19640Y-253427D01*
X18919Y-252874D01*
X18079Y-252526D01*
X17178Y-252407D01*
D02*
G37*
G36*
X59014Y-216395D02*
X41286D01*
X40896Y-216472D01*
X40565Y-216693D01*
X35979Y-221279D01*
X35758Y-221610D01*
X35680Y-222000D01*
Y-232189D01*
X35482D01*
X35092Y-232267D01*
X34761Y-232488D01*
X25379Y-241870D01*
X25158Y-242200D01*
X25080Y-242590D01*
Y-256545D01*
X18801Y-262825D01*
X18079Y-262526D01*
X17178Y-262407D01*
X16277Y-262526D01*
X15437Y-262874D01*
X14715Y-263427D01*
X14162Y-264148D01*
X13814Y-264988D01*
X13695Y-265890D01*
X13814Y-266791D01*
X14162Y-267631D01*
X14715Y-268352D01*
X15437Y-268906D01*
X16277Y-269253D01*
X17178Y-269372D01*
X18079Y-269253D01*
X18919Y-268906D01*
X19640Y-268352D01*
X20194Y-267631D01*
X20542Y-266791D01*
X20661Y-265890D01*
X20542Y-264988D01*
X20243Y-264267D01*
X26821Y-257688D01*
X27042Y-257358D01*
X27120Y-256967D01*
Y-243013D01*
X35904Y-234228D01*
X38023D01*
X38230Y-234728D01*
X36861Y-236098D01*
X36300Y-235986D01*
X35644Y-236116D01*
X35088Y-236488D01*
X34716Y-237044D01*
X34586Y-237700D01*
X34697Y-238261D01*
X30679Y-242279D01*
X30458Y-242610D01*
X30380Y-243000D01*
Y-261245D01*
X18801Y-272825D01*
X18079Y-272526D01*
X17178Y-272407D01*
X16277Y-272526D01*
X15437Y-272874D01*
X14715Y-273427D01*
X14162Y-274148D01*
X13814Y-274988D01*
X13695Y-275890D01*
X13814Y-276791D01*
X14162Y-277631D01*
X14715Y-278352D01*
X15437Y-278906D01*
X16277Y-279254D01*
X17178Y-279372D01*
X18079Y-279254D01*
X18919Y-278906D01*
X19640Y-278352D01*
X20194Y-277631D01*
X20542Y-276791D01*
X20661Y-275890D01*
X20542Y-274988D01*
X20243Y-274267D01*
X32121Y-262388D01*
X32342Y-262058D01*
X32420Y-261667D01*
Y-243422D01*
X36460Y-239382D01*
X36956Y-239284D01*
X37512Y-238912D01*
X37884Y-238356D01*
X37982Y-237860D01*
X39645Y-236197D01*
X46409D01*
Y-236646D01*
X49181D01*
Y-237646D01*
X46409D01*
Y-238095D01*
X44068D01*
X43677Y-238172D01*
X43347Y-238393D01*
X35479Y-246261D01*
X35258Y-246592D01*
X35180Y-246982D01*
Y-266445D01*
X18801Y-282825D01*
X18079Y-282526D01*
X17178Y-282407D01*
X16277Y-282526D01*
X15437Y-282874D01*
X14715Y-283427D01*
X14162Y-284148D01*
X13814Y-284988D01*
X13695Y-285890D01*
X13814Y-286791D01*
X14162Y-287631D01*
X14715Y-288352D01*
X15437Y-288906D01*
X16277Y-289253D01*
X17178Y-289372D01*
X18079Y-289253D01*
X18919Y-288906D01*
X19640Y-288352D01*
X20194Y-287631D01*
X20542Y-286791D01*
X20661Y-285890D01*
X20542Y-284988D01*
X20243Y-284267D01*
X36921Y-267588D01*
X37142Y-267258D01*
X37220Y-266867D01*
Y-247404D01*
X40519Y-244105D01*
X40980Y-244297D01*
Y-247697D01*
X41058Y-248087D01*
X41279Y-248418D01*
X44982Y-252121D01*
X45313Y-252342D01*
X45703Y-252420D01*
X67403D01*
X67793Y-252342D01*
X68124Y-252121D01*
X68576Y-251669D01*
X68803Y-251714D01*
X69459Y-251584D01*
X70015Y-251212D01*
X70144Y-251020D01*
X82526D01*
X86890Y-255383D01*
Y-260256D01*
X91630D01*
Y-253744D01*
X88135D01*
X83670Y-249279D01*
X83339Y-249058D01*
X82949Y-248980D01*
X70144D01*
X70015Y-248788D01*
X69459Y-248416D01*
X68803Y-248286D01*
X68147Y-248416D01*
X67591Y-248788D01*
X67220Y-249344D01*
X67089Y-250000D01*
X66681Y-250380D01*
X46126D01*
X43020Y-247274D01*
Y-243725D01*
X44643Y-242102D01*
X48984D01*
X49221Y-242055D01*
X51453D01*
Y-241371D01*
X51480Y-241202D01*
X51842Y-241010D01*
X52342Y-241243D01*
Y-242934D01*
X52276Y-243267D01*
Y-245782D01*
X51627Y-246431D01*
X51400Y-246386D01*
X50744Y-246516D01*
X50188Y-246888D01*
X49816Y-247444D01*
X49686Y-248100D01*
X49816Y-248756D01*
X50188Y-249312D01*
X50744Y-249684D01*
X51400Y-249814D01*
X52056Y-249684D01*
X52612Y-249312D01*
X52984Y-248756D01*
X53114Y-248100D01*
X53069Y-247873D01*
X54017Y-246925D01*
X54068Y-246848D01*
X54318Y-246791D01*
X54667Y-246806D01*
X56582Y-248721D01*
X56913Y-248942D01*
X57303Y-249020D01*
X61303D01*
X61693Y-248942D01*
X62024Y-248721D01*
X64726Y-246020D01*
X79919D01*
X80048Y-246212D01*
X80604Y-246584D01*
X81260Y-246714D01*
X81916Y-246584D01*
X82472Y-246212D01*
X82600Y-246020D01*
X91855D01*
X99079Y-253244D01*
X98872Y-253744D01*
X98709Y-253744D01*
X94370D01*
Y-260256D01*
X95524D01*
Y-267744D01*
X94468D01*
Y-274256D01*
X99012D01*
Y-267744D01*
X97563D01*
Y-260256D01*
X99110D01*
Y-254159D01*
X99110Y-253982D01*
X99610Y-253775D01*
X101300Y-255465D01*
X101631Y-255686D01*
X102021Y-255764D01*
X102104D01*
Y-260256D01*
X106844D01*
Y-253744D01*
X103006D01*
X102907Y-253725D01*
X102444D01*
X92998Y-244279D01*
X92667Y-244058D01*
X92277Y-243980D01*
X82600D01*
X82472Y-243788D01*
X81916Y-243416D01*
X81260Y-243286D01*
X80604Y-243416D01*
X80048Y-243788D01*
X79919Y-243980D01*
X64303D01*
X63913Y-244058D01*
X63582Y-244279D01*
X60881Y-246980D01*
X57726D01*
X56331Y-245585D01*
Y-243276D01*
X56256Y-242900D01*
X56256Y-241243D01*
X56756Y-241010D01*
X57119Y-241202D01*
X57146Y-241371D01*
Y-242055D01*
X58983D01*
X59220Y-242102D01*
X103152D01*
X105263Y-244214D01*
X105176Y-244344D01*
X105046Y-245000D01*
X105176Y-245656D01*
X105548Y-246212D01*
X106104Y-246584D01*
X106760Y-246714D01*
X107416Y-246584D01*
X107546Y-246497D01*
X108676Y-247627D01*
X114294Y-253244D01*
X114087Y-253744D01*
X113923Y-253744D01*
X109584D01*
Y-260256D01*
X110738D01*
Y-267744D01*
X109569D01*
Y-274256D01*
X114112D01*
Y-267744D01*
X112777D01*
Y-260256D01*
X114324D01*
Y-254159D01*
X114325Y-253982D01*
X114824Y-253775D01*
X116515Y-255465D01*
X116846Y-255686D01*
X117236Y-255764D01*
X117318D01*
Y-260256D01*
X122058D01*
Y-253744D01*
X118220D01*
X118122Y-253725D01*
X117658D01*
X110118Y-246185D01*
X108360Y-244426D01*
X108343Y-244344D01*
X107972Y-243788D01*
X107416Y-243416D01*
X107334Y-243400D01*
X104567Y-240634D01*
X104774Y-240134D01*
X115994D01*
X120431Y-244571D01*
X120346Y-245000D01*
X120476Y-245656D01*
X120848Y-246212D01*
X121404Y-246584D01*
X122060Y-246714D01*
X122489Y-246629D01*
X129104Y-253244D01*
X128897Y-253744D01*
X124799D01*
Y-260256D01*
X125824D01*
Y-267744D01*
X124768D01*
Y-274256D01*
X129312D01*
Y-267744D01*
X127863D01*
Y-260256D01*
X129539D01*
Y-254386D01*
X130039Y-254179D01*
X131325Y-255465D01*
X131656Y-255686D01*
X132046Y-255764D01*
X132533D01*
Y-260256D01*
X137273D01*
Y-253744D01*
X133434D01*
X133336Y-253725D01*
X132468D01*
X123769Y-245025D01*
X123774Y-245000D01*
X123643Y-244344D01*
X123272Y-243788D01*
X122716Y-243416D01*
X122060Y-243286D01*
X122035Y-243291D01*
X117409Y-238665D01*
X117616Y-238165D01*
X129643D01*
X136118Y-244639D01*
X136046Y-245000D01*
X136176Y-245656D01*
X136548Y-246212D01*
X137104Y-246584D01*
X137760Y-246714D01*
X138120Y-246642D01*
X139199Y-247721D01*
X144722Y-253244D01*
X144515Y-253744D01*
X144352Y-253744D01*
X140013D01*
Y-260256D01*
X141024D01*
Y-267744D01*
X139969D01*
Y-274256D01*
X144512D01*
Y-267744D01*
X143063D01*
Y-260256D01*
X144753D01*
Y-254159D01*
X144753Y-253982D01*
X145253Y-253775D01*
X146943Y-255465D01*
X147274Y-255686D01*
X147664Y-255764D01*
X147747D01*
Y-260256D01*
X152487D01*
Y-253744D01*
X148649D01*
X148550Y-253725D01*
X148087D01*
X140641Y-246279D01*
X139455Y-245093D01*
X139474Y-245000D01*
X139343Y-244344D01*
X138972Y-243788D01*
X138416Y-243416D01*
X137760Y-243286D01*
X137667Y-243304D01*
X131059Y-236697D01*
X131266Y-236197D01*
X143775D01*
X152134Y-244556D01*
X152046Y-245000D01*
X152176Y-245656D01*
X152548Y-246212D01*
X153104Y-246584D01*
X153760Y-246714D01*
X154204Y-246626D01*
X157191Y-249612D01*
X162961Y-255383D01*
Y-260256D01*
X167701D01*
Y-253744D01*
X164206D01*
X158633Y-248170D01*
X155472Y-245010D01*
X155474Y-245000D01*
X155343Y-244344D01*
X154972Y-243788D01*
X154416Y-243416D01*
X153760Y-243286D01*
X153750Y-243288D01*
X145190Y-234728D01*
X145397Y-234228D01*
X156135D01*
X166356Y-244449D01*
X166246Y-245000D01*
X166376Y-245656D01*
X166748Y-246212D01*
X167304Y-246584D01*
X167960Y-246714D01*
X168511Y-246604D01*
X175151Y-253244D01*
X174944Y-253744D01*
X174780Y-253744D01*
X170441D01*
Y-260256D01*
X171595D01*
Y-267744D01*
X170468D01*
Y-274256D01*
X175012D01*
Y-267744D01*
X173634D01*
Y-260256D01*
X175182D01*
Y-254159D01*
X175182Y-253982D01*
X175682Y-253775D01*
X177372Y-255465D01*
X177703Y-255686D01*
X178093Y-255764D01*
X178175D01*
Y-260256D01*
X182916D01*
Y-253744D01*
X179077D01*
X178979Y-253725D01*
X178515D01*
X169645Y-244854D01*
X169543Y-244344D01*
X169172Y-243788D01*
X168616Y-243416D01*
X168105Y-243315D01*
X157550Y-232760D01*
X157757Y-232260D01*
X169381D01*
X181641Y-244520D01*
X181546Y-245000D01*
X181676Y-245656D01*
X182048Y-246212D01*
X182604Y-246584D01*
X183260Y-246714D01*
X183740Y-246619D01*
X190365Y-253244D01*
X190158Y-253744D01*
X189995Y-253744D01*
X185656D01*
Y-260256D01*
X186809D01*
Y-267744D01*
X185668D01*
Y-274256D01*
X190212D01*
Y-267744D01*
X188849D01*
Y-260256D01*
X190396D01*
Y-254159D01*
X190396Y-253982D01*
X190896Y-253775D01*
X192586Y-255465D01*
X192917Y-255686D01*
X193307Y-255764D01*
X193390D01*
Y-260256D01*
X198130D01*
Y-253744D01*
X194291D01*
X194193Y-253725D01*
X193729D01*
X184966Y-244961D01*
X184843Y-244344D01*
X184472Y-243788D01*
X183916Y-243416D01*
X183299Y-243294D01*
X170524Y-230519D01*
X170193Y-230298D01*
X169803Y-230221D01*
X59220D01*
X58983Y-230268D01*
X57256D01*
X57146Y-230268D01*
X56756Y-230002D01*
Y-229575D01*
X55283D01*
Y-229075D01*
X54783D01*
Y-226303D01*
X54335D01*
Y-226124D01*
X54257Y-225733D01*
X54036Y-225403D01*
X51912Y-223279D01*
X51582Y-223058D01*
X51191Y-222980D01*
X49700D01*
X49310Y-223058D01*
X48979Y-223279D01*
X48027Y-224231D01*
X47800Y-224186D01*
X47144Y-224316D01*
X46588Y-224688D01*
X46216Y-225244D01*
X46086Y-225900D01*
X46216Y-226556D01*
X46588Y-227112D01*
X47144Y-227484D01*
X47800Y-227614D01*
X48456Y-227484D01*
X49012Y-227112D01*
X49384Y-226556D01*
X49514Y-225900D01*
X49469Y-225673D01*
X50122Y-225020D01*
X50769D01*
X52295Y-226546D01*
Y-229075D01*
X52342Y-229312D01*
Y-231347D01*
X51873Y-231421D01*
X51528D01*
X51453Y-230952D01*
Y-230268D01*
X49418D01*
X49181Y-230221D01*
X48162D01*
X43837Y-225895D01*
X43506Y-225674D01*
X43116Y-225596D01*
X41609D01*
X41481Y-225404D01*
X40925Y-225032D01*
X40269Y-224902D01*
X39613Y-225032D01*
X39057Y-225404D01*
X38685Y-225960D01*
X38555Y-226616D01*
X38685Y-227272D01*
X39057Y-227828D01*
X39613Y-228199D01*
X40269Y-228330D01*
X40925Y-228199D01*
X41481Y-227828D01*
X41609Y-227635D01*
X42693D01*
X46747Y-231689D01*
X46540Y-232189D01*
X37720D01*
Y-222422D01*
X41708Y-218434D01*
X58592D01*
X67879Y-227721D01*
X68210Y-227942D01*
X68600Y-228020D01*
X185178D01*
X190588Y-233430D01*
X190919Y-233651D01*
X191309Y-233728D01*
X196412D01*
X196944Y-234084D01*
X197600Y-234214D01*
X198256Y-234084D01*
X198788Y-233728D01*
X209823D01*
X210030Y-234228D01*
X209027Y-235231D01*
X208800Y-235186D01*
X208144Y-235316D01*
X207588Y-235688D01*
X207216Y-236244D01*
X207086Y-236900D01*
X207216Y-237556D01*
X207588Y-238112D01*
X207699Y-238186D01*
Y-280819D01*
X207777Y-281209D01*
X207780Y-281214D01*
Y-306700D01*
X207858Y-307090D01*
X207861Y-307095D01*
Y-332581D01*
X207939Y-332971D01*
X208160Y-333302D01*
X211352Y-336494D01*
X211683Y-336715D01*
X212073Y-336792D01*
X213815D01*
X213865Y-337293D01*
X213744Y-337316D01*
X213188Y-337688D01*
X212816Y-338244D01*
X212686Y-338900D01*
X212816Y-339556D01*
X213188Y-340112D01*
X213744Y-340484D01*
X214400Y-340614D01*
X214538Y-340586D01*
X214658Y-340702D01*
X214663Y-341373D01*
X213200Y-342836D01*
X212979Y-343167D01*
X212902Y-343557D01*
Y-348557D01*
X212979Y-348947D01*
X213200Y-349278D01*
X215200Y-351278D01*
X215531Y-351499D01*
X215921Y-351577D01*
X239081D01*
X239209Y-351769D01*
X239765Y-352141D01*
X240421Y-352271D01*
X241077Y-352141D01*
X241633Y-351769D01*
X241762Y-351577D01*
X254145D01*
X258508Y-355940D01*
Y-360813D01*
X263248D01*
Y-354301D01*
X259753D01*
X255288Y-349836D01*
X254957Y-349615D01*
X254567Y-349537D01*
X241762D01*
X241633Y-349345D01*
X241077Y-348974D01*
X240421Y-348843D01*
X239765Y-348974D01*
X239209Y-349345D01*
X239081Y-349537D01*
X234090D01*
X233883Y-349038D01*
X236344Y-346577D01*
X251537D01*
X251666Y-346769D01*
X252222Y-347141D01*
X252878Y-347271D01*
X253534Y-347141D01*
X254090Y-346769D01*
X254219Y-346577D01*
X263473D01*
X270697Y-353801D01*
X270490Y-354301D01*
X270327Y-354301D01*
X265988D01*
Y-360813D01*
X267142D01*
Y-368301D01*
X266087D01*
Y-374813D01*
X270630D01*
Y-368301D01*
X269181D01*
Y-360813D01*
X270728D01*
Y-354717D01*
X270728Y-354539D01*
X271228Y-354332D01*
X272919Y-356022D01*
X273249Y-356243D01*
X273639Y-356321D01*
X273722D01*
Y-360813D01*
X278462D01*
Y-354301D01*
X274624D01*
X274525Y-354282D01*
X274062D01*
X264616Y-344836D01*
X264285Y-344615D01*
X263895Y-344537D01*
X254219D01*
X254090Y-344345D01*
X253534Y-343974D01*
X252878Y-343843D01*
X252222Y-343974D01*
X251666Y-344345D01*
X251537Y-344537D01*
X235921D01*
X235531Y-344615D01*
X235200Y-344836D01*
X232499Y-347537D01*
X229344D01*
X227949Y-346143D01*
Y-343833D01*
X227871Y-343443D01*
X227835Y-343388D01*
Y-341839D01*
X228335Y-341606D01*
X228697Y-341797D01*
X228724Y-341966D01*
Y-342651D01*
X230796D01*
X230838Y-342659D01*
X274770D01*
X276881Y-344771D01*
X276794Y-344901D01*
X276664Y-345557D01*
X276794Y-346213D01*
X277166Y-346769D01*
X277722Y-347141D01*
X278378Y-347271D01*
X279034Y-347141D01*
X279164Y-347054D01*
X280294Y-348184D01*
X285912Y-353801D01*
X285705Y-354301D01*
X285541Y-354301D01*
X281203D01*
Y-360813D01*
X282356D01*
Y-368301D01*
X281187D01*
Y-374813D01*
X285730D01*
Y-368301D01*
X284395D01*
Y-360813D01*
X285943D01*
Y-354717D01*
X285943Y-354539D01*
X286443Y-354332D01*
X288133Y-356022D01*
X288463Y-356243D01*
X288854Y-356321D01*
X288936D01*
Y-360813D01*
X293677D01*
Y-354301D01*
X289838D01*
X289740Y-354282D01*
X289276D01*
X281736Y-346742D01*
X279978Y-344983D01*
X279961Y-344901D01*
X279590Y-344345D01*
X279034Y-343974D01*
X278952Y-343957D01*
X276185Y-341191D01*
X276392Y-340691D01*
X287612D01*
X292049Y-345128D01*
X291964Y-345557D01*
X292094Y-346213D01*
X292466Y-346769D01*
X293022Y-347141D01*
X293678Y-347271D01*
X294107Y-347186D01*
X300722Y-353801D01*
X300515Y-354301D01*
X296417D01*
Y-360813D01*
X297442D01*
Y-368301D01*
X296387D01*
Y-374813D01*
X300930D01*
Y-368301D01*
X299481D01*
Y-360813D01*
X301157D01*
Y-354943D01*
X301657Y-354736D01*
X302943Y-356022D01*
X303274Y-356243D01*
X303664Y-356321D01*
X304151D01*
Y-360813D01*
X308891D01*
Y-354301D01*
X305052D01*
X304954Y-354282D01*
X304086D01*
X295387Y-345582D01*
X295392Y-345557D01*
X295262Y-344901D01*
X294890Y-344345D01*
X294334Y-343974D01*
X293678Y-343843D01*
X293653Y-343848D01*
X289027Y-339222D01*
X289234Y-338722D01*
X301261D01*
X307736Y-345197D01*
X307664Y-345557D01*
X307794Y-346213D01*
X308166Y-346769D01*
X308722Y-347141D01*
X309378Y-347271D01*
X309739Y-347199D01*
X310817Y-348278D01*
X316340Y-353801D01*
X316133Y-354301D01*
X315970Y-354301D01*
X311631D01*
Y-360813D01*
X312642D01*
Y-368301D01*
X311587D01*
Y-374813D01*
X316130D01*
Y-368301D01*
X314681D01*
Y-360813D01*
X316371D01*
Y-354717D01*
X316371Y-354539D01*
X316871Y-354332D01*
X318561Y-356022D01*
X318892Y-356243D01*
X319282Y-356321D01*
X319365D01*
Y-360813D01*
X324105D01*
Y-354301D01*
X320267D01*
X320168Y-354282D01*
X319705D01*
X312259Y-346836D01*
X311073Y-345650D01*
X311092Y-345557D01*
X310962Y-344901D01*
X310590Y-344345D01*
X310034Y-343974D01*
X309378Y-343843D01*
X309285Y-343862D01*
X302677Y-337254D01*
X302884Y-336754D01*
X315393D01*
X323752Y-345113D01*
X323664Y-345557D01*
X323794Y-346213D01*
X324166Y-346769D01*
X324722Y-347141D01*
X325378Y-347271D01*
X325822Y-347183D01*
X328809Y-350169D01*
X334579Y-355940D01*
Y-360813D01*
X339319D01*
Y-354301D01*
X335824D01*
X330251Y-348728D01*
X327090Y-345567D01*
X327092Y-345557D01*
X326961Y-344901D01*
X326590Y-344345D01*
X326034Y-343974D01*
X325378Y-343843D01*
X325368Y-343845D01*
X316809Y-335285D01*
X317016Y-334785D01*
X327753D01*
X337973Y-345006D01*
X337864Y-345557D01*
X337994Y-346213D01*
X338366Y-346769D01*
X338922Y-347141D01*
X339578Y-347271D01*
X340129Y-347162D01*
X346769Y-353801D01*
X346562Y-354301D01*
X346398Y-354301D01*
X342060D01*
Y-360813D01*
X343213D01*
Y-368301D01*
X342087D01*
Y-374813D01*
X346630D01*
Y-368301D01*
X345252D01*
Y-360813D01*
X346800D01*
Y-354717D01*
X346800Y-354539D01*
X347300Y-354332D01*
X348990Y-356022D01*
X349321Y-356243D01*
X349711Y-356321D01*
X349794D01*
Y-360813D01*
X354534D01*
Y-354301D01*
X350695D01*
X350597Y-354282D01*
X350133D01*
X341263Y-345411D01*
X341161Y-344901D01*
X340790Y-344345D01*
X340234Y-343974D01*
X339724Y-343872D01*
X329168Y-333317D01*
X329376Y-332817D01*
X340999D01*
X353259Y-345077D01*
X353164Y-345557D01*
X353294Y-346213D01*
X353666Y-346769D01*
X354222Y-347141D01*
X354878Y-347271D01*
X355358Y-347176D01*
X361983Y-353801D01*
X361776Y-354301D01*
X361613Y-354301D01*
X357274D01*
Y-360813D01*
X358428D01*
Y-368301D01*
X357287D01*
Y-374813D01*
X361830D01*
Y-368301D01*
X360467D01*
Y-360813D01*
X362014D01*
Y-354717D01*
X362014Y-354539D01*
X362514Y-354332D01*
X364204Y-356022D01*
X364535Y-356243D01*
X364925Y-356321D01*
X365008D01*
Y-360813D01*
X369748D01*
Y-354301D01*
X365910D01*
X365811Y-354282D01*
X365347D01*
X356584Y-345518D01*
X356462Y-344901D01*
X356090Y-344345D01*
X355534Y-343974D01*
X354917Y-343851D01*
X342142Y-331076D01*
X341811Y-330855D01*
X341421Y-330778D01*
X230838D01*
X230448Y-330855D01*
X230436Y-330863D01*
X228835D01*
X228724Y-330863D01*
X228335Y-330597D01*
Y-330170D01*
X226862D01*
Y-329671D01*
X226362D01*
Y-326899D01*
X225390D01*
Y-327399D01*
X223921D01*
Y-331676D01*
X223421Y-331908D01*
X223058Y-331717D01*
X223031Y-331548D01*
Y-330863D01*
X220997D01*
X220760Y-330816D01*
X218672D01*
X218620Y-330764D01*
Y-319600D01*
X218542Y-319210D01*
X218321Y-318879D01*
X212769Y-313327D01*
X212814Y-313100D01*
X212684Y-312444D01*
X212312Y-311888D01*
X211756Y-311516D01*
X211100Y-311386D01*
X210444Y-311516D01*
X210342Y-311585D01*
X209901Y-311349D01*
Y-306781D01*
X209823Y-306391D01*
X209820Y-306386D01*
Y-284015D01*
X210281Y-283823D01*
X212452Y-285994D01*
X212783Y-286215D01*
X213173Y-286293D01*
X217988D01*
Y-286741D01*
X220760D01*
Y-287741D01*
X217988D01*
Y-288190D01*
X214016D01*
X213756Y-288016D01*
X213100Y-287886D01*
X212444Y-288016D01*
X211888Y-288388D01*
X211516Y-288944D01*
X211386Y-289600D01*
X211516Y-290256D01*
X211888Y-290812D01*
X212444Y-291184D01*
X213100Y-291314D01*
X213618Y-291211D01*
X213881Y-291656D01*
X213200Y-292336D01*
X212979Y-292667D01*
X212902Y-293057D01*
Y-298057D01*
X212979Y-298447D01*
X213200Y-298778D01*
X215200Y-300778D01*
X215531Y-300999D01*
X215921Y-301077D01*
X239081D01*
X239209Y-301269D01*
X239765Y-301641D01*
X240421Y-301771D01*
X241077Y-301641D01*
X241633Y-301269D01*
X241762Y-301077D01*
X254145D01*
X258508Y-305440D01*
Y-310313D01*
X263248D01*
Y-303801D01*
X259753D01*
X255288Y-299336D01*
X254957Y-299115D01*
X254567Y-299038D01*
X241762D01*
X241633Y-298845D01*
X241077Y-298474D01*
X240421Y-298343D01*
X239765Y-298474D01*
X239209Y-298845D01*
X239081Y-299038D01*
X234090D01*
X233883Y-298537D01*
X236344Y-296077D01*
X251537D01*
X251666Y-296269D01*
X252222Y-296641D01*
X252878Y-296771D01*
X253534Y-296641D01*
X254090Y-296269D01*
X254219Y-296077D01*
X263473D01*
X270697Y-303301D01*
X270490Y-303801D01*
X270327Y-303801D01*
X265988D01*
Y-310313D01*
X267142D01*
Y-317801D01*
X266087D01*
Y-324313D01*
X270630D01*
Y-317801D01*
X269181D01*
Y-310313D01*
X270728D01*
Y-304217D01*
X270728Y-304039D01*
X271228Y-303832D01*
X272919Y-305522D01*
X273249Y-305743D01*
X273639Y-305821D01*
X273722D01*
Y-310313D01*
X278462D01*
Y-303801D01*
X274624D01*
X274525Y-303782D01*
X274062D01*
X264616Y-294336D01*
X264285Y-294115D01*
X263895Y-294038D01*
X254219D01*
X254090Y-293845D01*
X253534Y-293474D01*
X252878Y-293343D01*
X252222Y-293474D01*
X251666Y-293845D01*
X251537Y-294038D01*
X235921D01*
X235531Y-294115D01*
X235200Y-294336D01*
X232499Y-297038D01*
X229344D01*
X227949Y-295643D01*
Y-293333D01*
X227871Y-292943D01*
X227835Y-292888D01*
Y-291338D01*
X228335Y-291106D01*
X228697Y-291298D01*
X228724Y-291466D01*
Y-292151D01*
X230796D01*
X230838Y-292159D01*
X274770D01*
X276881Y-294271D01*
X276794Y-294401D01*
X276664Y-295057D01*
X276794Y-295713D01*
X277166Y-296269D01*
X277722Y-296641D01*
X278378Y-296771D01*
X279034Y-296641D01*
X279164Y-296554D01*
X280294Y-297684D01*
X285912Y-303301D01*
X285705Y-303801D01*
X285541Y-303801D01*
X281203D01*
Y-310313D01*
X282356D01*
Y-317801D01*
X281187D01*
Y-324313D01*
X285730D01*
Y-317801D01*
X284395D01*
Y-310313D01*
X285943D01*
Y-304217D01*
X285943Y-304039D01*
X286443Y-303832D01*
X288133Y-305522D01*
X288463Y-305743D01*
X288854Y-305821D01*
X288936D01*
Y-310313D01*
X293677D01*
Y-303801D01*
X289838D01*
X289740Y-303782D01*
X289276D01*
X281736Y-296242D01*
X279978Y-294483D01*
X279961Y-294401D01*
X279590Y-293845D01*
X279034Y-293474D01*
X278952Y-293457D01*
X276185Y-290691D01*
X276392Y-290191D01*
X287612D01*
X292049Y-294628D01*
X291964Y-295057D01*
X292094Y-295713D01*
X292466Y-296269D01*
X293022Y-296641D01*
X293678Y-296771D01*
X294107Y-296686D01*
X300722Y-303301D01*
X300515Y-303801D01*
X296417D01*
Y-310313D01*
X297442D01*
Y-317801D01*
X296387D01*
Y-324313D01*
X300930D01*
Y-317801D01*
X299481D01*
Y-310313D01*
X301157D01*
Y-304443D01*
X301657Y-304236D01*
X302943Y-305522D01*
X303274Y-305743D01*
X303664Y-305821D01*
X304151D01*
Y-310313D01*
X308891D01*
Y-303801D01*
X305052D01*
X304954Y-303782D01*
X304086D01*
X295387Y-295082D01*
X295392Y-295057D01*
X295262Y-294401D01*
X294890Y-293845D01*
X294334Y-293474D01*
X293678Y-293343D01*
X293653Y-293348D01*
X289027Y-288722D01*
X289234Y-288222D01*
X301261D01*
X307736Y-294696D01*
X307664Y-295057D01*
X307794Y-295713D01*
X308166Y-296269D01*
X308722Y-296641D01*
X309378Y-296771D01*
X309739Y-296699D01*
X310817Y-297778D01*
X316340Y-303301D01*
X316133Y-303801D01*
X315970Y-303801D01*
X311631D01*
Y-310313D01*
X312642D01*
Y-317801D01*
X311587D01*
Y-324313D01*
X316130D01*
Y-317801D01*
X314681D01*
Y-310313D01*
X316371D01*
Y-304217D01*
X316371Y-304039D01*
X316871Y-303832D01*
X318561Y-305522D01*
X318892Y-305743D01*
X319282Y-305821D01*
X319365D01*
Y-310313D01*
X324105D01*
Y-303801D01*
X320267D01*
X320168Y-303782D01*
X319705D01*
X312259Y-296336D01*
X311073Y-295150D01*
X311092Y-295057D01*
X310962Y-294401D01*
X310590Y-293845D01*
X310034Y-293474D01*
X309378Y-293343D01*
X309285Y-293362D01*
X302677Y-286754D01*
X302884Y-286254D01*
X315393D01*
X323752Y-294613D01*
X323664Y-295057D01*
X323794Y-295713D01*
X324166Y-296269D01*
X324722Y-296641D01*
X325378Y-296771D01*
X325822Y-296683D01*
X328809Y-299670D01*
X334579Y-305440D01*
Y-310313D01*
X339319D01*
Y-303801D01*
X335824D01*
X330251Y-298228D01*
X327090Y-295067D01*
X327092Y-295057D01*
X326961Y-294401D01*
X326590Y-293845D01*
X326034Y-293474D01*
X325378Y-293343D01*
X325368Y-293345D01*
X316809Y-284785D01*
X317016Y-284285D01*
X327753D01*
X337973Y-294506D01*
X337864Y-295057D01*
X337994Y-295713D01*
X338366Y-296269D01*
X338922Y-296641D01*
X339578Y-296771D01*
X340129Y-296661D01*
X346769Y-303301D01*
X346562Y-303801D01*
X346398Y-303801D01*
X342060D01*
Y-310313D01*
X343213D01*
Y-317801D01*
X342087D01*
Y-324313D01*
X346630D01*
Y-317801D01*
X345252D01*
Y-310313D01*
X346800D01*
Y-304217D01*
X346800Y-304039D01*
X347300Y-303832D01*
X348990Y-305522D01*
X349321Y-305743D01*
X349711Y-305821D01*
X349794D01*
Y-310313D01*
X354534D01*
Y-303801D01*
X350695D01*
X350597Y-303782D01*
X350133D01*
X341263Y-294911D01*
X341161Y-294401D01*
X340790Y-293845D01*
X340234Y-293474D01*
X339724Y-293372D01*
X329168Y-282817D01*
X329376Y-282317D01*
X340999D01*
X353259Y-294577D01*
X353164Y-295057D01*
X353294Y-295713D01*
X353666Y-296269D01*
X354222Y-296641D01*
X354878Y-296771D01*
X355358Y-296676D01*
X361983Y-303301D01*
X361776Y-303801D01*
X361613Y-303801D01*
X357274D01*
Y-310313D01*
X358428D01*
Y-317801D01*
X357287D01*
Y-324313D01*
X361830D01*
Y-317801D01*
X360467D01*
Y-310313D01*
X362014D01*
Y-304217D01*
X362014Y-304039D01*
X362514Y-303832D01*
X364204Y-305522D01*
X364535Y-305743D01*
X364925Y-305821D01*
X365008D01*
Y-310313D01*
X369748D01*
Y-303801D01*
X365910D01*
X365811Y-303782D01*
X365347D01*
X356584Y-295018D01*
X356462Y-294401D01*
X356090Y-293845D01*
X355534Y-293474D01*
X354917Y-293351D01*
X342142Y-280576D01*
X341811Y-280355D01*
X341421Y-280278D01*
X230838D01*
X230448Y-280355D01*
X230436Y-280363D01*
X228835D01*
X228724Y-280363D01*
X228335Y-280097D01*
Y-279671D01*
X226862D01*
Y-279170D01*
X226362D01*
Y-276399D01*
X225390D01*
Y-276399D01*
X224890Y-276481D01*
X223849Y-275440D01*
X223518Y-275219D01*
X223128Y-275141D01*
X222015D01*
X221712Y-274688D01*
X221156Y-274316D01*
X220500Y-274186D01*
X219844Y-274316D01*
X219288Y-274688D01*
X218916Y-275244D01*
X218786Y-275900D01*
X218916Y-276556D01*
X219288Y-277112D01*
X219844Y-277484D01*
X220500Y-277614D01*
X221156Y-277484D01*
X221610Y-277180D01*
X222706D01*
X223874Y-278349D01*
Y-279170D01*
X223921Y-279408D01*
Y-281176D01*
X223421Y-281408D01*
X223058Y-281217D01*
X223031Y-281048D01*
Y-280363D01*
X220997D01*
X220760Y-280316D01*
X219938D01*
X217001Y-277379D01*
X216670Y-277158D01*
X216437Y-277112D01*
X216221Y-276621D01*
X220573Y-272269D01*
X220800Y-272314D01*
X221456Y-272184D01*
X222012Y-271812D01*
X222384Y-271256D01*
X222514Y-270600D01*
X222384Y-269944D01*
X222012Y-269388D01*
X221456Y-269016D01*
X220800Y-268886D01*
X220144Y-269016D01*
X219588Y-269388D01*
X219216Y-269944D01*
X219086Y-270600D01*
X219131Y-270827D01*
X213138Y-276820D01*
X212010D01*
X211556Y-276516D01*
X210900Y-276386D01*
X210244Y-276516D01*
X210179Y-276560D01*
X209738Y-276324D01*
Y-238295D01*
X210012Y-238112D01*
X210384Y-237556D01*
X210514Y-236900D01*
X210469Y-236673D01*
X211445Y-235697D01*
X218028D01*
Y-236146D01*
X220799D01*
Y-237146D01*
X218028D01*
Y-237567D01*
X214365D01*
X214112Y-237188D01*
X213556Y-236816D01*
X212900Y-236686D01*
X212244Y-236816D01*
X211688Y-237188D01*
X211316Y-237744D01*
X211186Y-238400D01*
X211316Y-239056D01*
X211688Y-239612D01*
X212244Y-239984D01*
X212900Y-240114D01*
X213556Y-239984D01*
X214112Y-239612D01*
X214116Y-239606D01*
X214723D01*
X214930Y-240106D01*
X213200Y-241836D01*
X212979Y-242167D01*
X212902Y-242557D01*
Y-247557D01*
X212979Y-247947D01*
X213200Y-248278D01*
X215200Y-250278D01*
X215531Y-250499D01*
X215921Y-250577D01*
X239081D01*
X239209Y-250769D01*
X239765Y-251141D01*
X240421Y-251271D01*
X241077Y-251141D01*
X241633Y-250769D01*
X241762Y-250577D01*
X254145D01*
X258508Y-254940D01*
Y-259813D01*
X263248D01*
Y-253301D01*
X259753D01*
X255288Y-248836D01*
X254957Y-248615D01*
X254567Y-248537D01*
X241762D01*
X241633Y-248345D01*
X241077Y-247974D01*
X240421Y-247843D01*
X239765Y-247974D01*
X239209Y-248345D01*
X239081Y-248537D01*
X234090D01*
X233883Y-248038D01*
X236344Y-245577D01*
X251537D01*
X251666Y-245769D01*
X252222Y-246141D01*
X252878Y-246271D01*
X253534Y-246141D01*
X254090Y-245769D01*
X254219Y-245577D01*
X263473D01*
X270697Y-252801D01*
X270490Y-253301D01*
X270327Y-253301D01*
X265988D01*
Y-259813D01*
X267142D01*
Y-267301D01*
X266087D01*
Y-273813D01*
X270630D01*
Y-267301D01*
X269181D01*
Y-259813D01*
X270728D01*
Y-253717D01*
X270728Y-253539D01*
X271228Y-253332D01*
X272919Y-255022D01*
X273249Y-255243D01*
X273639Y-255321D01*
X273722D01*
Y-259813D01*
X278462D01*
Y-253301D01*
X274624D01*
X274525Y-253282D01*
X274062D01*
X264616Y-243836D01*
X264285Y-243615D01*
X263895Y-243537D01*
X254219D01*
X254090Y-243345D01*
X253534Y-242974D01*
X252878Y-242843D01*
X252222Y-242974D01*
X251666Y-243345D01*
X251537Y-243537D01*
X235921D01*
X235531Y-243615D01*
X235200Y-243836D01*
X232499Y-246537D01*
X229344D01*
X227949Y-245143D01*
Y-242833D01*
X227874Y-242457D01*
Y-240743D01*
X228374Y-240510D01*
X228737Y-240702D01*
X228764Y-240871D01*
Y-241555D01*
X230409D01*
X230448Y-241582D01*
X230838Y-241659D01*
X274770D01*
X276881Y-243771D01*
X276794Y-243901D01*
X276664Y-244557D01*
X276794Y-245213D01*
X277166Y-245769D01*
X277722Y-246141D01*
X278378Y-246271D01*
X279034Y-246141D01*
X279164Y-246054D01*
X280294Y-247184D01*
X285912Y-252801D01*
X285705Y-253301D01*
X285541Y-253301D01*
X281203D01*
Y-259813D01*
X282356D01*
Y-267301D01*
X281187D01*
Y-273813D01*
X285730D01*
Y-267301D01*
X284395D01*
Y-259813D01*
X285943D01*
Y-253717D01*
X285943Y-253539D01*
X286443Y-253332D01*
X288133Y-255022D01*
X288463Y-255243D01*
X288854Y-255321D01*
X288936D01*
Y-259813D01*
X293677D01*
Y-253301D01*
X289838D01*
X289740Y-253282D01*
X289276D01*
X281736Y-245742D01*
X279978Y-243983D01*
X279961Y-243901D01*
X279590Y-243345D01*
X279034Y-242974D01*
X278952Y-242957D01*
X276185Y-240191D01*
X276392Y-239691D01*
X287612D01*
X292049Y-244128D01*
X291964Y-244557D01*
X292094Y-245213D01*
X292466Y-245769D01*
X293022Y-246141D01*
X293678Y-246271D01*
X294107Y-246186D01*
X300722Y-252801D01*
X300515Y-253301D01*
X296417D01*
Y-259813D01*
X297442D01*
Y-267301D01*
X296387D01*
Y-273813D01*
X300930D01*
Y-267301D01*
X299481D01*
Y-259813D01*
X301157D01*
Y-253943D01*
X301657Y-253736D01*
X302943Y-255022D01*
X303274Y-255243D01*
X303664Y-255321D01*
X304151D01*
Y-259813D01*
X308891D01*
Y-253301D01*
X305052D01*
X304954Y-253282D01*
X304086D01*
X295387Y-244582D01*
X295392Y-244557D01*
X295262Y-243901D01*
X294890Y-243345D01*
X294334Y-242974D01*
X293678Y-242843D01*
X293653Y-242848D01*
X289027Y-238222D01*
X289234Y-237722D01*
X301261D01*
X307736Y-244197D01*
X307664Y-244557D01*
X307794Y-245213D01*
X308166Y-245769D01*
X308722Y-246141D01*
X309378Y-246271D01*
X309739Y-246199D01*
X310817Y-247278D01*
X316340Y-252801D01*
X316133Y-253301D01*
X315970Y-253301D01*
X311631D01*
Y-259813D01*
X312642D01*
Y-267301D01*
X311587D01*
Y-273813D01*
X316130D01*
Y-267301D01*
X314681D01*
Y-259813D01*
X316371D01*
Y-253717D01*
X316371Y-253539D01*
X316871Y-253332D01*
X318561Y-255022D01*
X318892Y-255243D01*
X319282Y-255321D01*
X319365D01*
Y-259813D01*
X324105D01*
Y-253301D01*
X320267D01*
X320168Y-253282D01*
X319705D01*
X312259Y-245836D01*
X311073Y-244650D01*
X311092Y-244557D01*
X310962Y-243901D01*
X310590Y-243345D01*
X310034Y-242974D01*
X309378Y-242843D01*
X309285Y-242862D01*
X302677Y-236254D01*
X302884Y-235754D01*
X315393D01*
X323752Y-244113D01*
X323664Y-244557D01*
X323794Y-245213D01*
X324166Y-245769D01*
X324722Y-246141D01*
X325378Y-246271D01*
X325822Y-246183D01*
X328809Y-249169D01*
X334579Y-254940D01*
Y-259813D01*
X339319D01*
Y-253301D01*
X335824D01*
X330251Y-247728D01*
X327090Y-244567D01*
X327092Y-244557D01*
X326961Y-243901D01*
X326590Y-243345D01*
X326034Y-242974D01*
X325378Y-242843D01*
X325368Y-242845D01*
X316809Y-234285D01*
X317016Y-233785D01*
X327753D01*
X337973Y-244006D01*
X337864Y-244557D01*
X337994Y-245213D01*
X338366Y-245769D01*
X338922Y-246141D01*
X339578Y-246271D01*
X340129Y-246162D01*
X346769Y-252801D01*
X346562Y-253301D01*
X346398Y-253301D01*
X342060D01*
Y-259813D01*
X343213D01*
Y-267301D01*
X342087D01*
Y-273813D01*
X346630D01*
Y-267301D01*
X345252D01*
Y-259813D01*
X346800D01*
Y-253717D01*
X346800Y-253539D01*
X347300Y-253332D01*
X348990Y-255022D01*
X349321Y-255243D01*
X349711Y-255321D01*
X349794D01*
Y-259813D01*
X354534D01*
Y-253301D01*
X350695D01*
X350597Y-253282D01*
X350133D01*
X341263Y-244411D01*
X341161Y-243901D01*
X340790Y-243345D01*
X340234Y-242974D01*
X339724Y-242872D01*
X329168Y-232317D01*
X329376Y-231817D01*
X340999D01*
X353259Y-244077D01*
X353164Y-244557D01*
X353294Y-245213D01*
X353666Y-245769D01*
X354222Y-246141D01*
X354878Y-246271D01*
X355358Y-246176D01*
X361983Y-252801D01*
X361776Y-253301D01*
X361613Y-253301D01*
X357274D01*
Y-259813D01*
X358428D01*
Y-267301D01*
X357287D01*
Y-273813D01*
X361830D01*
Y-267301D01*
X360467D01*
Y-259813D01*
X362014D01*
Y-253717D01*
X362014Y-253539D01*
X362514Y-253332D01*
X364204Y-255022D01*
X364535Y-255243D01*
X364925Y-255321D01*
X365008D01*
Y-259813D01*
X369748D01*
Y-253301D01*
X365910D01*
X365811Y-253282D01*
X365347D01*
X356584Y-244518D01*
X356462Y-243901D01*
X356090Y-243345D01*
X355534Y-242974D01*
X354917Y-242851D01*
X342142Y-230076D01*
X341811Y-229855D01*
X341421Y-229778D01*
X233307D01*
Y-229768D01*
X228874D01*
X228764Y-229768D01*
X228374Y-229502D01*
Y-229075D01*
X226902D01*
Y-228575D01*
X226402D01*
Y-225803D01*
X225429D01*
Y-226072D01*
X224929Y-226288D01*
X224905Y-226284D01*
X222207D01*
X220602Y-224679D01*
X220271Y-224458D01*
X219881Y-224380D01*
X218541D01*
X218412Y-224188D01*
X217856Y-223816D01*
X217200Y-223686D01*
X216544Y-223816D01*
X215988Y-224188D01*
X215616Y-224744D01*
X215486Y-225400D01*
X215616Y-226056D01*
X215988Y-226612D01*
X216544Y-226984D01*
X216479Y-227480D01*
X215141D01*
X215012Y-227288D01*
X214456Y-226916D01*
X213800Y-226786D01*
X213144Y-226916D01*
X212588Y-227288D01*
X212216Y-227844D01*
X212086Y-228500D01*
X212216Y-229156D01*
X212588Y-229712D01*
X213144Y-230084D01*
X213800Y-230214D01*
X214456Y-230084D01*
X215012Y-229712D01*
X215141Y-229520D01*
X216893D01*
X218528Y-231154D01*
Y-231689D01*
X199080D01*
X198812Y-231288D01*
X198256Y-230916D01*
X197600Y-230786D01*
X196944Y-230916D01*
X196388Y-231288D01*
X196120Y-231689D01*
X191731D01*
X186321Y-226279D01*
X185990Y-226058D01*
X185600Y-225980D01*
X69022D01*
X59735Y-216693D01*
X59404Y-216472D01*
X59014Y-216395D01*
D02*
G37*
G36*
X339650Y-266801D02*
X337378D01*
Y-270057D01*
X339650D01*
Y-266801D01*
D02*
G37*
G36*
X324350D02*
X322078D01*
Y-270057D01*
X324350D01*
Y-266801D01*
D02*
G37*
G36*
X309150D02*
X306878D01*
Y-270057D01*
X309150D01*
Y-266801D01*
D02*
G37*
G36*
X293950D02*
X291678D01*
Y-270057D01*
X293950D01*
Y-266801D01*
D02*
G37*
G36*
X278750D02*
X276478D01*
Y-270057D01*
X278750D01*
Y-266801D01*
D02*
G37*
G36*
X263650D02*
X261378D01*
Y-270057D01*
X263650D01*
Y-266801D01*
D02*
G37*
G36*
X336378D02*
X334106D01*
Y-270057D01*
X336378D01*
Y-266801D01*
D02*
G37*
G36*
X321078D02*
X318806D01*
Y-270057D01*
X321078D01*
Y-266801D01*
D02*
G37*
G36*
X305878D02*
X303606D01*
Y-270057D01*
X305878D01*
Y-266801D01*
D02*
G37*
G36*
X290678D02*
X288406D01*
Y-270057D01*
X290678D01*
Y-266801D01*
D02*
G37*
G36*
X275478D02*
X273206D01*
Y-270057D01*
X275478D01*
Y-266801D01*
D02*
G37*
G36*
X260378D02*
X258106D01*
Y-270057D01*
X260378D01*
Y-266801D01*
D02*
G37*
G36*
X370050D02*
X367778D01*
Y-270057D01*
X370050D01*
Y-266801D01*
D02*
G37*
G36*
X354850D02*
X352578D01*
Y-270057D01*
X354850D01*
Y-266801D01*
D02*
G37*
G36*
X366778D02*
X364506D01*
Y-270057D01*
X366778D01*
Y-266801D01*
D02*
G37*
G36*
X351578D02*
X349306D01*
Y-270057D01*
X351578D01*
Y-266801D01*
D02*
G37*
G36*
X168032Y-267244D02*
X165760D01*
Y-270500D01*
X168032D01*
Y-267244D01*
D02*
G37*
G36*
X152732D02*
X150460D01*
Y-270500D01*
X152732D01*
Y-267244D01*
D02*
G37*
G36*
X137531D02*
X135260D01*
Y-270500D01*
X137531D01*
Y-267244D01*
D02*
G37*
G36*
X122332D02*
X120060D01*
Y-270500D01*
X122332D01*
Y-267244D01*
D02*
G37*
G36*
X107132D02*
X104860D01*
Y-270500D01*
X107132D01*
Y-267244D01*
D02*
G37*
G36*
X92032D02*
X89760D01*
Y-270500D01*
X92032D01*
Y-267244D01*
D02*
G37*
G36*
X164760D02*
X162488D01*
Y-270500D01*
X164760D01*
Y-267244D01*
D02*
G37*
G36*
X149460D02*
X147188D01*
Y-270500D01*
X149460D01*
Y-267244D01*
D02*
G37*
G36*
X134260D02*
X131988D01*
Y-270500D01*
X134260D01*
Y-267244D01*
D02*
G37*
G36*
X119060D02*
X116788D01*
Y-270500D01*
X119060D01*
Y-267244D01*
D02*
G37*
G36*
X103860D02*
X101588D01*
Y-270500D01*
X103860D01*
Y-267244D01*
D02*
G37*
G36*
X88760D02*
X86488D01*
Y-270500D01*
X88760D01*
Y-267244D01*
D02*
G37*
G36*
X198431D02*
X196160D01*
Y-270500D01*
X198431D01*
Y-267244D01*
D02*
G37*
G36*
X183231D02*
X180960D01*
Y-270500D01*
X183231D01*
Y-267244D01*
D02*
G37*
G36*
X195160D02*
X192888D01*
Y-270500D01*
X195160D01*
Y-267244D01*
D02*
G37*
G36*
X179960D02*
X177688D01*
Y-270500D01*
X179960D01*
Y-267244D01*
D02*
G37*
G36*
X377228Y-253301D02*
X372488D01*
Y-259813D01*
X373542D01*
Y-267301D01*
X372486D01*
Y-273813D01*
X377030D01*
Y-267301D01*
X375581D01*
Y-259813D01*
X377228D01*
Y-253301D01*
D02*
G37*
G36*
X331585D02*
X326845D01*
Y-259813D01*
X327999D01*
Y-267301D01*
X326787D01*
Y-273813D01*
X331330D01*
Y-267301D01*
X330038D01*
Y-259813D01*
X331585D01*
Y-253301D01*
D02*
G37*
G36*
X205610Y-253744D02*
X200870D01*
Y-260256D01*
X201924D01*
Y-267744D01*
X200868D01*
Y-274256D01*
X205412D01*
Y-267744D01*
X203963D01*
Y-260256D01*
X205610D01*
Y-253744D01*
D02*
G37*
G36*
X159967D02*
X155227D01*
Y-260256D01*
X156381D01*
Y-267744D01*
X155168D01*
Y-274256D01*
X159712D01*
Y-267744D01*
X158420D01*
Y-260256D01*
X159967D01*
Y-253744D01*
D02*
G37*
G36*
X370050Y-271057D02*
X367778D01*
Y-274313D01*
X370050D01*
Y-271057D01*
D02*
G37*
G36*
X366778D02*
X364506D01*
Y-274313D01*
X366778D01*
Y-271057D01*
D02*
G37*
G36*
X354850D02*
X352578D01*
Y-274313D01*
X354850D01*
Y-271057D01*
D02*
G37*
G36*
X351578D02*
X349306D01*
Y-274313D01*
X351578D01*
Y-271057D01*
D02*
G37*
G36*
X339650Y-271057D02*
X337378D01*
Y-274313D01*
X339650D01*
Y-271057D01*
D02*
G37*
G36*
X336378D02*
X334106D01*
Y-274313D01*
X336378D01*
Y-271057D01*
D02*
G37*
G36*
X324350D02*
X322078D01*
Y-274313D01*
X324350D01*
Y-271057D01*
D02*
G37*
G36*
X321078D02*
X318806D01*
Y-274313D01*
X321078D01*
Y-271057D01*
D02*
G37*
G36*
X309150D02*
X306878D01*
Y-274313D01*
X309150D01*
Y-271057D01*
D02*
G37*
G36*
X305878D02*
X303606D01*
Y-274313D01*
X305878D01*
Y-271057D01*
D02*
G37*
G36*
X293950D02*
X291678D01*
Y-274313D01*
X293950D01*
Y-271057D01*
D02*
G37*
G36*
X290678D02*
X288406D01*
Y-274313D01*
X290678D01*
Y-271057D01*
D02*
G37*
G36*
X278750D02*
X276478D01*
Y-274313D01*
X278750D01*
Y-271057D01*
D02*
G37*
G36*
X275478D02*
X273206D01*
Y-274313D01*
X275478D01*
Y-271057D01*
D02*
G37*
G36*
X263650D02*
X261378D01*
Y-274313D01*
X263650D01*
Y-271057D01*
D02*
G37*
G36*
X260378D02*
X258106D01*
Y-274313D01*
X260378D01*
Y-271057D01*
D02*
G37*
G36*
X198431Y-271500D02*
X196160D01*
Y-274756D01*
X198431D01*
Y-271500D01*
D02*
G37*
G36*
X195160D02*
X192888D01*
Y-274756D01*
X195160D01*
Y-271500D01*
D02*
G37*
G36*
X183231D02*
X180960D01*
Y-274756D01*
X183231D01*
Y-271500D01*
D02*
G37*
G36*
X179960D02*
X177688D01*
Y-274756D01*
X179960D01*
Y-271500D01*
D02*
G37*
G36*
X168032Y-271500D02*
X165760D01*
Y-274756D01*
X168032D01*
Y-271500D01*
D02*
G37*
G36*
X164760D02*
X162488D01*
Y-274756D01*
X164760D01*
Y-271500D01*
D02*
G37*
G36*
X152732D02*
X150460D01*
Y-274756D01*
X152732D01*
Y-271500D01*
D02*
G37*
G36*
X149460D02*
X147188D01*
Y-274756D01*
X149460D01*
Y-271500D01*
D02*
G37*
G36*
X137531D02*
X135260D01*
Y-274756D01*
X137531D01*
Y-271500D01*
D02*
G37*
G36*
X134260D02*
X131988D01*
Y-274756D01*
X134260D01*
Y-271500D01*
D02*
G37*
G36*
X122332D02*
X120060D01*
Y-274756D01*
X122332D01*
Y-271500D01*
D02*
G37*
G36*
X119060D02*
X116788D01*
Y-274756D01*
X119060D01*
Y-271500D01*
D02*
G37*
G36*
X107132D02*
X104860D01*
Y-274756D01*
X107132D01*
Y-271500D01*
D02*
G37*
G36*
X103860D02*
X101588D01*
Y-274756D01*
X103860D01*
Y-271500D01*
D02*
G37*
G36*
X92032D02*
X89760D01*
Y-274756D01*
X92032D01*
Y-271500D01*
D02*
G37*
G36*
X88760D02*
X86488D01*
Y-274756D01*
X88760D01*
Y-271500D01*
D02*
G37*
G36*
X228335Y-276399D02*
X227362D01*
Y-278671D01*
X228335D01*
Y-276399D01*
D02*
G37*
G36*
X56756Y-276803D02*
X55783D01*
Y-279075D01*
X56756D01*
Y-276803D01*
D02*
G37*
G36*
X5000Y-257486D02*
X4344Y-257616D01*
X3788Y-257988D01*
X3416Y-258544D01*
X3286Y-259200D01*
X3416Y-259856D01*
X3788Y-260412D01*
X3980Y-260541D01*
Y-283712D01*
X4058Y-284102D01*
X4279Y-284433D01*
X14113Y-294267D01*
X13814Y-294988D01*
X13695Y-295890D01*
X13814Y-296791D01*
X14162Y-297631D01*
X14715Y-298352D01*
X15437Y-298906D01*
X16277Y-299254D01*
X17178Y-299372D01*
X18079Y-299254D01*
X18919Y-298906D01*
X19640Y-298352D01*
X20194Y-297631D01*
X20493Y-296909D01*
X22110D01*
X22501Y-296832D01*
X22831Y-296611D01*
X36682Y-282760D01*
X37779D01*
X37930Y-283260D01*
X37888Y-283288D01*
X37516Y-283844D01*
X37386Y-284500D01*
X37516Y-285156D01*
X37888Y-285712D01*
X38444Y-286084D01*
X39100Y-286214D01*
X39756Y-286084D01*
X40312Y-285712D01*
X40615Y-285259D01*
X40761D01*
X41151Y-285181D01*
X41482Y-284960D01*
X41714Y-284728D01*
X42512D01*
X42719Y-285228D01*
X37137Y-290809D01*
X36517Y-290686D01*
X35861Y-290816D01*
X35305Y-291188D01*
X34933Y-291744D01*
X34803Y-292400D01*
X34933Y-293056D01*
X35305Y-293612D01*
X35497Y-293741D01*
Y-332001D01*
X35575Y-332391D01*
X35796Y-332722D01*
X39972Y-336898D01*
X40302Y-337119D01*
X40693Y-337197D01*
X46409D01*
Y-337646D01*
X49181D01*
Y-338646D01*
X46409D01*
Y-339080D01*
X38701D01*
X38573Y-338888D01*
X38017Y-338516D01*
X37361Y-338386D01*
X36705Y-338516D01*
X36149Y-338888D01*
X35777Y-339444D01*
X35647Y-340100D01*
X35777Y-340756D01*
X36149Y-341312D01*
X36705Y-341684D01*
X37361Y-341814D01*
X38017Y-341684D01*
X38573Y-341312D01*
X38701Y-341120D01*
X43034D01*
X43242Y-341620D01*
X41582Y-343279D01*
X41361Y-343610D01*
X41284Y-344000D01*
Y-349000D01*
X41361Y-349390D01*
X41582Y-349721D01*
X43582Y-351721D01*
X43913Y-351942D01*
X44303Y-352020D01*
X67463D01*
X67591Y-352212D01*
X68147Y-352584D01*
X68803Y-352714D01*
X69459Y-352584D01*
X70015Y-352212D01*
X70144Y-352020D01*
X82526D01*
X86890Y-356383D01*
Y-361256D01*
X91630D01*
Y-354744D01*
X88135D01*
X83670Y-350279D01*
X83339Y-350058D01*
X82949Y-349980D01*
X70144D01*
X70015Y-349788D01*
X69459Y-349416D01*
X68803Y-349286D01*
X68147Y-349416D01*
X67591Y-349788D01*
X67463Y-349980D01*
X62472D01*
X62265Y-349480D01*
X64726Y-347020D01*
X79919D01*
X80048Y-347212D01*
X80604Y-347584D01*
X81260Y-347714D01*
X81916Y-347584D01*
X82472Y-347212D01*
X82600Y-347020D01*
X91855D01*
X99079Y-354244D01*
X98872Y-354744D01*
X98709Y-354744D01*
X94370D01*
Y-361256D01*
X95524D01*
Y-368744D01*
X94468D01*
Y-375256D01*
X99012D01*
Y-368744D01*
X97563D01*
Y-361256D01*
X99110D01*
Y-355159D01*
X99110Y-354982D01*
X99610Y-354775D01*
X101300Y-356465D01*
X101631Y-356686D01*
X102021Y-356764D01*
X102104D01*
Y-361256D01*
X106844D01*
Y-354744D01*
X103006D01*
X102907Y-354725D01*
X102444D01*
X92998Y-345279D01*
X92667Y-345058D01*
X92277Y-344980D01*
X82600D01*
X82472Y-344788D01*
X81916Y-344416D01*
X81260Y-344286D01*
X80604Y-344416D01*
X80048Y-344788D01*
X79919Y-344980D01*
X64303D01*
X63913Y-345058D01*
X63582Y-345279D01*
X60881Y-347980D01*
X57726D01*
X56331Y-346585D01*
Y-344276D01*
X56256Y-343900D01*
Y-342243D01*
X56756Y-342010D01*
X57119Y-342202D01*
X57146Y-342371D01*
Y-343055D01*
X58983D01*
X59220Y-343102D01*
X103152D01*
X105263Y-345214D01*
X105176Y-345344D01*
X105046Y-346000D01*
X105176Y-346656D01*
X105548Y-347212D01*
X106104Y-347584D01*
X106760Y-347714D01*
X107416Y-347584D01*
X107546Y-347497D01*
X108676Y-348627D01*
X114294Y-354244D01*
X114087Y-354744D01*
X113923Y-354744D01*
X109584D01*
Y-361256D01*
X110738D01*
Y-368744D01*
X109569D01*
Y-375256D01*
X114112D01*
Y-368744D01*
X112777D01*
Y-361256D01*
X114324D01*
Y-355159D01*
X114325Y-354982D01*
X114824Y-354775D01*
X116515Y-356465D01*
X116846Y-356686D01*
X117236Y-356764D01*
X117318D01*
Y-361256D01*
X122058D01*
Y-354744D01*
X118220D01*
X118122Y-354725D01*
X117658D01*
X110118Y-347185D01*
X108360Y-345426D01*
X108343Y-345344D01*
X107972Y-344788D01*
X107416Y-344416D01*
X107334Y-344400D01*
X104567Y-341634D01*
X104774Y-341134D01*
X115994D01*
X120431Y-345571D01*
X120346Y-346000D01*
X120476Y-346656D01*
X120848Y-347212D01*
X121404Y-347584D01*
X122060Y-347714D01*
X122489Y-347629D01*
X129104Y-354244D01*
X128897Y-354744D01*
X124799D01*
Y-361256D01*
X125824D01*
Y-368744D01*
X124768D01*
Y-375256D01*
X129312D01*
Y-368744D01*
X127863D01*
Y-361256D01*
X129539D01*
Y-355386D01*
X130039Y-355179D01*
X131325Y-356465D01*
X131656Y-356686D01*
X132046Y-356764D01*
X132533D01*
Y-361256D01*
X137273D01*
Y-354744D01*
X133434D01*
X133336Y-354725D01*
X132468D01*
X123769Y-346025D01*
X123774Y-346000D01*
X123643Y-345344D01*
X123272Y-344788D01*
X122716Y-344416D01*
X122060Y-344286D01*
X122035Y-344291D01*
X117409Y-339665D01*
X117616Y-339165D01*
X129643D01*
X136118Y-345639D01*
X136046Y-346000D01*
X136176Y-346656D01*
X136548Y-347212D01*
X137104Y-347584D01*
X137760Y-347714D01*
X138120Y-347642D01*
X139199Y-348721D01*
X144722Y-354244D01*
X144515Y-354744D01*
X144352Y-354744D01*
X140013D01*
Y-361256D01*
X141024D01*
Y-368744D01*
X139969D01*
Y-375256D01*
X144512D01*
Y-368744D01*
X143063D01*
Y-361256D01*
X144753D01*
Y-355159D01*
X144753Y-354982D01*
X145253Y-354775D01*
X146943Y-356465D01*
X147274Y-356686D01*
X147664Y-356764D01*
X147747D01*
Y-361256D01*
X152487D01*
Y-354744D01*
X148649D01*
X148550Y-354725D01*
X148087D01*
X140641Y-347279D01*
X139455Y-346093D01*
X139474Y-346000D01*
X139343Y-345344D01*
X138972Y-344788D01*
X138416Y-344416D01*
X137760Y-344286D01*
X137667Y-344304D01*
X131059Y-337697D01*
X131266Y-337197D01*
X143775D01*
X152134Y-345556D01*
X152046Y-346000D01*
X152176Y-346656D01*
X152548Y-347212D01*
X153104Y-347584D01*
X153760Y-347714D01*
X154204Y-347626D01*
X157191Y-350612D01*
X162961Y-356383D01*
Y-361256D01*
X167701D01*
Y-354744D01*
X164206D01*
X158633Y-349170D01*
X155472Y-346010D01*
X155474Y-346000D01*
X155343Y-345344D01*
X154972Y-344788D01*
X154416Y-344416D01*
X153760Y-344286D01*
X153750Y-344288D01*
X145190Y-335728D01*
X145397Y-335228D01*
X156135D01*
X166356Y-345449D01*
X166246Y-346000D01*
X166376Y-346656D01*
X166748Y-347212D01*
X167304Y-347584D01*
X167960Y-347714D01*
X168511Y-347604D01*
X175151Y-354244D01*
X174944Y-354744D01*
X174780Y-354744D01*
X170441D01*
Y-361256D01*
X171595D01*
Y-368744D01*
X170468D01*
Y-375256D01*
X175012D01*
Y-368744D01*
X173634D01*
Y-361256D01*
X175182D01*
Y-355159D01*
X175182Y-354982D01*
X175682Y-354775D01*
X177372Y-356465D01*
X177703Y-356686D01*
X178093Y-356764D01*
X178175D01*
Y-361256D01*
X182916D01*
Y-354744D01*
X179077D01*
X178979Y-354725D01*
X178515D01*
X169645Y-345854D01*
X169543Y-345344D01*
X169172Y-344788D01*
X168616Y-344416D01*
X168105Y-344315D01*
X157550Y-333760D01*
X157757Y-333260D01*
X169381D01*
X181641Y-345520D01*
X181546Y-346000D01*
X181676Y-346656D01*
X182048Y-347212D01*
X182604Y-347584D01*
X183260Y-347714D01*
X183740Y-347619D01*
X190365Y-354244D01*
X190158Y-354744D01*
X189995Y-354744D01*
X185656D01*
Y-361256D01*
X186809D01*
Y-368744D01*
X185668D01*
Y-375256D01*
X190212D01*
Y-368744D01*
X188849D01*
Y-361256D01*
X190396D01*
Y-355159D01*
X190396Y-354982D01*
X190896Y-354775D01*
X192586Y-356465D01*
X192917Y-356686D01*
X193307Y-356764D01*
X193390D01*
Y-361256D01*
X198130D01*
Y-354744D01*
X194291D01*
X194193Y-354725D01*
X193729D01*
X184966Y-345961D01*
X184843Y-345344D01*
X184472Y-344788D01*
X183916Y-344416D01*
X183299Y-344294D01*
X170524Y-331519D01*
X170193Y-331298D01*
X169803Y-331221D01*
X59220D01*
X58983Y-331268D01*
X57256D01*
X57146Y-331268D01*
X56756Y-331002D01*
Y-330575D01*
X55283D01*
Y-330075D01*
X54783D01*
Y-327303D01*
X54335D01*
Y-317896D01*
X54257Y-317506D01*
X54036Y-317175D01*
X53820Y-316959D01*
Y-316041D01*
X54012Y-315912D01*
X54384Y-315356D01*
X54514Y-314700D01*
X54384Y-314044D01*
X54012Y-313488D01*
X53456Y-313116D01*
X52800Y-312986D01*
X52144Y-313116D01*
X51588Y-313488D01*
X51216Y-314044D01*
X51086Y-314700D01*
X51216Y-315356D01*
X51588Y-315912D01*
X51780Y-316041D01*
Y-317381D01*
X51858Y-317771D01*
X52079Y-318102D01*
X52295Y-318318D01*
Y-330075D01*
X52342Y-330312D01*
Y-332347D01*
X51873Y-332421D01*
X51528D01*
X51453Y-331952D01*
Y-331268D01*
X49418D01*
X49181Y-331221D01*
X46463D01*
X46015Y-330773D01*
X46012Y-330212D01*
X46384Y-329656D01*
X46514Y-329000D01*
X46384Y-328344D01*
X46012Y-327788D01*
X45456Y-327416D01*
X44800Y-327286D01*
X44144Y-327416D01*
X43588Y-327788D01*
X43216Y-328344D01*
X43086Y-329000D01*
X43216Y-329656D01*
X43588Y-330212D01*
X43780Y-330341D01*
Y-331000D01*
X43858Y-331390D01*
X44079Y-331721D01*
X45047Y-332689D01*
X44840Y-333189D01*
X42231D01*
X41069Y-332027D01*
X41114Y-331800D01*
X40984Y-331144D01*
X40612Y-330588D01*
X40056Y-330216D01*
X39400Y-330086D01*
X38744Y-330216D01*
X38188Y-330588D01*
X38036Y-330815D01*
X37536Y-330663D01*
Y-293741D01*
X37729Y-293612D01*
X38100Y-293056D01*
X38181Y-292650D01*
X43085Y-287746D01*
X43211Y-287804D01*
X43497Y-288041D01*
X43386Y-288600D01*
X43516Y-289256D01*
X43888Y-289812D01*
X44264Y-290063D01*
X44239Y-290352D01*
X44137Y-290580D01*
X43830Y-290641D01*
X43499Y-290862D01*
X41582Y-292779D01*
X41361Y-293110D01*
X41284Y-293500D01*
Y-298500D01*
X41361Y-298890D01*
X41582Y-299221D01*
X43582Y-301221D01*
X43913Y-301442D01*
X44303Y-301520D01*
X67463D01*
X67591Y-301712D01*
X68147Y-302084D01*
X68803Y-302214D01*
X69459Y-302084D01*
X70015Y-301712D01*
X70144Y-301520D01*
X82526D01*
X86890Y-305883D01*
Y-310756D01*
X91630D01*
Y-304244D01*
X88135D01*
X83670Y-299779D01*
X83339Y-299558D01*
X82949Y-299480D01*
X70144D01*
X70015Y-299288D01*
X69459Y-298916D01*
X68803Y-298786D01*
X68147Y-298916D01*
X67591Y-299288D01*
X67463Y-299480D01*
X62472D01*
X62265Y-298980D01*
X64726Y-296520D01*
X79919D01*
X80048Y-296712D01*
X80604Y-297084D01*
X81260Y-297214D01*
X81916Y-297084D01*
X82472Y-296712D01*
X82600Y-296520D01*
X91855D01*
X99079Y-303744D01*
X98872Y-304244D01*
X98709Y-304244D01*
X94370D01*
Y-310756D01*
X95524D01*
Y-318244D01*
X94468D01*
Y-324756D01*
X99012D01*
Y-318244D01*
X97563D01*
Y-310756D01*
X99110D01*
Y-304660D01*
X99110Y-304482D01*
X99610Y-304275D01*
X101300Y-305965D01*
X101631Y-306186D01*
X102021Y-306264D01*
X102104D01*
Y-310756D01*
X106844D01*
Y-304244D01*
X103006D01*
X102907Y-304224D01*
X102444D01*
X92998Y-294779D01*
X92667Y-294558D01*
X92277Y-294480D01*
X82600D01*
X82472Y-294288D01*
X81916Y-293916D01*
X81260Y-293786D01*
X80604Y-293916D01*
X80048Y-294288D01*
X79919Y-294480D01*
X64303D01*
X63913Y-294558D01*
X63582Y-294779D01*
X60881Y-297480D01*
X57726D01*
X56331Y-296086D01*
Y-293776D01*
X56256Y-293400D01*
Y-291476D01*
X56591Y-291423D01*
X57119Y-291702D01*
X57146Y-291871D01*
Y-292555D01*
X58983D01*
X59220Y-292602D01*
X103152D01*
X105263Y-294714D01*
X105176Y-294844D01*
X105046Y-295500D01*
X105176Y-296156D01*
X105548Y-296712D01*
X106104Y-297084D01*
X106760Y-297214D01*
X107416Y-297084D01*
X107546Y-296996D01*
X108676Y-298127D01*
X114294Y-303744D01*
X114087Y-304244D01*
X113923Y-304244D01*
X109584D01*
Y-310756D01*
X110738D01*
Y-318244D01*
X109569D01*
Y-324756D01*
X114112D01*
Y-318244D01*
X112777D01*
Y-310756D01*
X114324D01*
Y-304660D01*
X114325Y-304482D01*
X114824Y-304275D01*
X116515Y-305965D01*
X116846Y-306186D01*
X117236Y-306264D01*
X117318D01*
Y-310756D01*
X122058D01*
Y-304244D01*
X118220D01*
X118122Y-304224D01*
X117658D01*
X110118Y-296685D01*
X108360Y-294926D01*
X108343Y-294844D01*
X107972Y-294288D01*
X107416Y-293916D01*
X107334Y-293900D01*
X104567Y-291134D01*
X104774Y-290634D01*
X115994D01*
X120431Y-295071D01*
X120346Y-295500D01*
X120476Y-296156D01*
X120848Y-296712D01*
X121404Y-297084D01*
X122060Y-297214D01*
X122489Y-297129D01*
X129104Y-303744D01*
X128897Y-304244D01*
X124799D01*
Y-310756D01*
X125824D01*
Y-318244D01*
X124768D01*
Y-324756D01*
X129312D01*
Y-318244D01*
X127863D01*
Y-310756D01*
X129539D01*
Y-304886D01*
X130039Y-304679D01*
X131325Y-305965D01*
X131656Y-306186D01*
X132046Y-306264D01*
X132533D01*
Y-310756D01*
X137273D01*
Y-304244D01*
X133434D01*
X133336Y-304224D01*
X132468D01*
X123769Y-295525D01*
X123774Y-295500D01*
X123643Y-294844D01*
X123272Y-294288D01*
X122716Y-293916D01*
X122060Y-293786D01*
X122035Y-293791D01*
X117409Y-289165D01*
X117616Y-288665D01*
X129643D01*
X136118Y-295139D01*
X136046Y-295500D01*
X136176Y-296156D01*
X136548Y-296712D01*
X137104Y-297084D01*
X137760Y-297214D01*
X138120Y-297142D01*
X139199Y-298221D01*
X144722Y-303744D01*
X144515Y-304244D01*
X144352Y-304244D01*
X140013D01*
Y-310756D01*
X141024D01*
Y-318244D01*
X139969D01*
Y-324756D01*
X144512D01*
Y-318244D01*
X143063D01*
Y-310756D01*
X144753D01*
Y-304660D01*
X144753Y-304482D01*
X145253Y-304275D01*
X146943Y-305965D01*
X147274Y-306186D01*
X147664Y-306264D01*
X147747D01*
Y-310756D01*
X152487D01*
Y-304244D01*
X148649D01*
X148550Y-304224D01*
X148087D01*
X140641Y-296779D01*
X139455Y-295593D01*
X139474Y-295500D01*
X139343Y-294844D01*
X138972Y-294288D01*
X138416Y-293916D01*
X137760Y-293786D01*
X137667Y-293805D01*
X131059Y-287197D01*
X131266Y-286697D01*
X143775D01*
X152134Y-295056D01*
X152046Y-295500D01*
X152176Y-296156D01*
X152548Y-296712D01*
X153104Y-297084D01*
X153760Y-297214D01*
X154204Y-297126D01*
X157191Y-300112D01*
X162961Y-305883D01*
Y-310756D01*
X167701D01*
Y-304244D01*
X164206D01*
X158633Y-298671D01*
X155472Y-295510D01*
X155474Y-295500D01*
X155343Y-294844D01*
X154972Y-294288D01*
X154416Y-293916D01*
X153760Y-293786D01*
X153750Y-293788D01*
X145190Y-285228D01*
X145397Y-284728D01*
X156135D01*
X166356Y-294949D01*
X166246Y-295500D01*
X166376Y-296156D01*
X166748Y-296712D01*
X167304Y-297084D01*
X167960Y-297214D01*
X168511Y-297104D01*
X175151Y-303744D01*
X174944Y-304244D01*
X174780Y-304244D01*
X170441D01*
Y-310756D01*
X171595D01*
Y-318244D01*
X170468D01*
Y-324756D01*
X175012D01*
Y-318244D01*
X173634D01*
Y-310756D01*
X175182D01*
Y-304660D01*
X175182Y-304482D01*
X175682Y-304275D01*
X177372Y-305965D01*
X177703Y-306186D01*
X178093Y-306264D01*
X178175D01*
Y-310756D01*
X182916D01*
Y-304244D01*
X179077D01*
X178979Y-304224D01*
X178515D01*
X169645Y-295354D01*
X169543Y-294844D01*
X169172Y-294288D01*
X168616Y-293916D01*
X168105Y-293815D01*
X157550Y-283260D01*
X157757Y-282760D01*
X169381D01*
X181641Y-295020D01*
X181546Y-295500D01*
X181676Y-296156D01*
X182048Y-296712D01*
X182604Y-297084D01*
X183260Y-297214D01*
X183740Y-297119D01*
X190365Y-303744D01*
X190158Y-304244D01*
X189995Y-304244D01*
X185656D01*
Y-310756D01*
X186809D01*
Y-318244D01*
X185668D01*
Y-324756D01*
X190212D01*
Y-318244D01*
X188849D01*
Y-310756D01*
X190396D01*
Y-304660D01*
X190396Y-304482D01*
X190896Y-304275D01*
X192586Y-305965D01*
X192917Y-306186D01*
X193307Y-306264D01*
X193390D01*
Y-310756D01*
X198130D01*
Y-304244D01*
X194291D01*
X194193Y-304224D01*
X193729D01*
X184966Y-295461D01*
X184843Y-294844D01*
X184472Y-294288D01*
X183916Y-293916D01*
X183299Y-293794D01*
X170524Y-281019D01*
X170193Y-280798D01*
X169803Y-280721D01*
X59220D01*
X58983Y-280768D01*
X57256D01*
X57146Y-280768D01*
X56756Y-280502D01*
Y-280075D01*
X55283D01*
Y-279575D01*
X54783D01*
Y-276803D01*
X54335D01*
Y-273715D01*
X54257Y-273325D01*
X54036Y-272994D01*
X53021Y-271979D01*
X52690Y-271758D01*
X52300Y-271680D01*
X50541D01*
X50412Y-271488D01*
X49856Y-271116D01*
X49200Y-270986D01*
X49154Y-270995D01*
X48908Y-270534D01*
X49422Y-270020D01*
X56278D01*
X65479Y-279221D01*
X65810Y-279442D01*
X66200Y-279520D01*
X169559D01*
X169688Y-279712D01*
X170244Y-280084D01*
X170900Y-280214D01*
X171556Y-280084D01*
X172112Y-279712D01*
X172484Y-279156D01*
X172614Y-278500D01*
X172484Y-277844D01*
X172112Y-277288D01*
X171556Y-276916D01*
X170900Y-276786D01*
X170244Y-276916D01*
X169688Y-277288D01*
X169559Y-277480D01*
X66622D01*
X57421Y-268279D01*
X57090Y-268058D01*
X56700Y-267980D01*
X49000D01*
X48610Y-268058D01*
X48279Y-268279D01*
X35539Y-281019D01*
X21688Y-294870D01*
X20493D01*
X20194Y-294148D01*
X19640Y-293427D01*
X18919Y-292874D01*
X18079Y-292526D01*
X17178Y-292407D01*
X16277Y-292526D01*
X15555Y-292825D01*
X6020Y-283289D01*
Y-260541D01*
X6212Y-260412D01*
X6584Y-259856D01*
X6714Y-259200D01*
X6584Y-258544D01*
X6212Y-257988D01*
X5656Y-257616D01*
X5000Y-257486D01*
D02*
G37*
G36*
X17678Y-301969D02*
Y-305390D01*
X21099D01*
X21029Y-304858D01*
X20631Y-303896D01*
X19997Y-303070D01*
X19171Y-302437D01*
X18210Y-302039D01*
X17678Y-301969D01*
D02*
G37*
G36*
X16678D02*
X16146Y-302039D01*
X15184Y-302437D01*
X14359Y-303070D01*
X13725Y-303896D01*
X13327Y-304858D01*
X13257Y-305390D01*
X16678D01*
Y-301969D01*
D02*
G37*
G36*
X21099Y-306390D02*
X17678D01*
Y-309811D01*
X18210Y-309741D01*
X19171Y-309342D01*
X19997Y-308709D01*
X20631Y-307883D01*
X21029Y-306922D01*
X21099Y-306390D01*
D02*
G37*
G36*
X16678D02*
X13257D01*
X13327Y-306922D01*
X13725Y-307883D01*
X14359Y-308709D01*
X15184Y-309342D01*
X16146Y-309741D01*
X16678Y-309811D01*
Y-306390D01*
D02*
G37*
G36*
X339650Y-317301D02*
X337378D01*
Y-320557D01*
X339650D01*
Y-317301D01*
D02*
G37*
G36*
X324350D02*
X322078D01*
Y-320557D01*
X324350D01*
Y-317301D01*
D02*
G37*
G36*
X309150D02*
X306878D01*
Y-320557D01*
X309150D01*
Y-317301D01*
D02*
G37*
G36*
X293950D02*
X291678D01*
Y-320557D01*
X293950D01*
Y-317301D01*
D02*
G37*
G36*
X278750D02*
X276478D01*
Y-320557D01*
X278750D01*
Y-317301D01*
D02*
G37*
G36*
X263650D02*
X261378D01*
Y-320557D01*
X263650D01*
Y-317301D01*
D02*
G37*
G36*
X336378D02*
X334106D01*
Y-320557D01*
X336378D01*
Y-317301D01*
D02*
G37*
G36*
X321078D02*
X318806D01*
Y-320557D01*
X321078D01*
Y-317301D01*
D02*
G37*
G36*
X305878D02*
X303606D01*
Y-320557D01*
X305878D01*
Y-317301D01*
D02*
G37*
G36*
X290678D02*
X288406D01*
Y-320557D01*
X290678D01*
Y-317301D01*
D02*
G37*
G36*
X275478D02*
X273206D01*
Y-320557D01*
X275478D01*
Y-317301D01*
D02*
G37*
G36*
X260378D02*
X258106D01*
Y-320557D01*
X260378D01*
Y-317301D01*
D02*
G37*
G36*
X370050D02*
X367778D01*
Y-320557D01*
X370050D01*
Y-317301D01*
D02*
G37*
G36*
X354850D02*
X352578D01*
Y-320557D01*
X354850D01*
Y-317301D01*
D02*
G37*
G36*
X366778D02*
X364506D01*
Y-320557D01*
X366778D01*
Y-317301D01*
D02*
G37*
G36*
X351578D02*
X349306D01*
Y-320557D01*
X351578D01*
Y-317301D01*
D02*
G37*
G36*
X168032Y-317744D02*
X165760D01*
Y-321000D01*
X168032D01*
Y-317744D01*
D02*
G37*
G36*
X152732D02*
X150460D01*
Y-321000D01*
X152732D01*
Y-317744D01*
D02*
G37*
G36*
X137531D02*
X135260D01*
Y-321000D01*
X137531D01*
Y-317744D01*
D02*
G37*
G36*
X122332D02*
X120060D01*
Y-321000D01*
X122332D01*
Y-317744D01*
D02*
G37*
G36*
X107132D02*
X104860D01*
Y-321000D01*
X107132D01*
Y-317744D01*
D02*
G37*
G36*
X92032D02*
X89760D01*
Y-321000D01*
X92032D01*
Y-317744D01*
D02*
G37*
G36*
X164760D02*
X162488D01*
Y-321000D01*
X164760D01*
Y-317744D01*
D02*
G37*
G36*
X149460D02*
X147188D01*
Y-321000D01*
X149460D01*
Y-317744D01*
D02*
G37*
G36*
X134260D02*
X131988D01*
Y-321000D01*
X134260D01*
Y-317744D01*
D02*
G37*
G36*
X119060D02*
X116788D01*
Y-321000D01*
X119060D01*
Y-317744D01*
D02*
G37*
G36*
X103860D02*
X101588D01*
Y-321000D01*
X103860D01*
Y-317744D01*
D02*
G37*
G36*
X88760D02*
X86488D01*
Y-321000D01*
X88760D01*
Y-317744D01*
D02*
G37*
G36*
X198431D02*
X196160D01*
Y-321000D01*
X198431D01*
Y-317744D01*
D02*
G37*
G36*
X183231D02*
X180960D01*
Y-321000D01*
X183231D01*
Y-317744D01*
D02*
G37*
G36*
X195160D02*
X192888D01*
Y-321000D01*
X195160D01*
Y-317744D01*
D02*
G37*
G36*
X179960D02*
X177688D01*
Y-321000D01*
X179960D01*
Y-317744D01*
D02*
G37*
G36*
X377228Y-303801D02*
X372488D01*
Y-310313D01*
X373542D01*
Y-317801D01*
X372486D01*
Y-324313D01*
X377030D01*
Y-317801D01*
X375581D01*
Y-310313D01*
X377228D01*
Y-303801D01*
D02*
G37*
G36*
X331585D02*
X326845D01*
Y-310313D01*
X327999D01*
Y-317801D01*
X326787D01*
Y-324313D01*
X331330D01*
Y-317801D01*
X330038D01*
Y-310313D01*
X331585D01*
Y-303801D01*
D02*
G37*
G36*
X205610Y-304244D02*
X200870D01*
Y-310756D01*
X201924D01*
Y-318244D01*
X200868D01*
Y-324756D01*
X205412D01*
Y-318244D01*
X203963D01*
Y-310756D01*
X205610D01*
Y-304244D01*
D02*
G37*
G36*
X159967D02*
X155227D01*
Y-310756D01*
X156381D01*
Y-318244D01*
X155168D01*
Y-324756D01*
X159712D01*
Y-318244D01*
X158420D01*
Y-310756D01*
X159967D01*
Y-304244D01*
D02*
G37*
G36*
X370050Y-321557D02*
X367778D01*
Y-324813D01*
X370050D01*
Y-321557D01*
D02*
G37*
G36*
X366778D02*
X364506D01*
Y-324813D01*
X366778D01*
Y-321557D01*
D02*
G37*
G36*
X354850D02*
X352578D01*
Y-324813D01*
X354850D01*
Y-321557D01*
D02*
G37*
G36*
X351578D02*
X349306D01*
Y-324813D01*
X351578D01*
Y-321557D01*
D02*
G37*
G36*
X339650Y-321557D02*
X337378D01*
Y-324813D01*
X339650D01*
Y-321557D01*
D02*
G37*
G36*
X336378D02*
X334106D01*
Y-324813D01*
X336378D01*
Y-321557D01*
D02*
G37*
G36*
X324350D02*
X322078D01*
Y-324813D01*
X324350D01*
Y-321557D01*
D02*
G37*
G36*
X321078D02*
X318806D01*
Y-324813D01*
X321078D01*
Y-321557D01*
D02*
G37*
G36*
X309150D02*
X306878D01*
Y-324813D01*
X309150D01*
Y-321557D01*
D02*
G37*
G36*
X305878D02*
X303606D01*
Y-324813D01*
X305878D01*
Y-321557D01*
D02*
G37*
G36*
X293950D02*
X291678D01*
Y-324813D01*
X293950D01*
Y-321557D01*
D02*
G37*
G36*
X290678D02*
X288406D01*
Y-324813D01*
X290678D01*
Y-321557D01*
D02*
G37*
G36*
X278750D02*
X276478D01*
Y-324813D01*
X278750D01*
Y-321557D01*
D02*
G37*
G36*
X275478D02*
X273206D01*
Y-324813D01*
X275478D01*
Y-321557D01*
D02*
G37*
G36*
X263650D02*
X261378D01*
Y-324813D01*
X263650D01*
Y-321557D01*
D02*
G37*
G36*
X260378D02*
X258106D01*
Y-324813D01*
X260378D01*
Y-321557D01*
D02*
G37*
G36*
X198431Y-322000D02*
X196160D01*
Y-325256D01*
X198431D01*
Y-322000D01*
D02*
G37*
G36*
X195160D02*
X192888D01*
Y-325256D01*
X195160D01*
Y-322000D01*
D02*
G37*
G36*
X183231D02*
X180960D01*
Y-325256D01*
X183231D01*
Y-322000D01*
D02*
G37*
G36*
X179960D02*
X177688D01*
Y-325256D01*
X179960D01*
Y-322000D01*
D02*
G37*
G36*
X168032Y-322000D02*
X165760D01*
Y-325256D01*
X168032D01*
Y-322000D01*
D02*
G37*
G36*
X164760D02*
X162488D01*
Y-325256D01*
X164760D01*
Y-322000D01*
D02*
G37*
G36*
X152732D02*
X150460D01*
Y-325256D01*
X152732D01*
Y-322000D01*
D02*
G37*
G36*
X149460D02*
X147188D01*
Y-325256D01*
X149460D01*
Y-322000D01*
D02*
G37*
G36*
X137531D02*
X135260D01*
Y-325256D01*
X137531D01*
Y-322000D01*
D02*
G37*
G36*
X134260D02*
X131988D01*
Y-325256D01*
X134260D01*
Y-322000D01*
D02*
G37*
G36*
X122332D02*
X120060D01*
Y-325256D01*
X122332D01*
Y-322000D01*
D02*
G37*
G36*
X119060D02*
X116788D01*
Y-325256D01*
X119060D01*
Y-322000D01*
D02*
G37*
G36*
X107132D02*
X104860D01*
Y-325256D01*
X107132D01*
Y-322000D01*
D02*
G37*
G36*
X103860D02*
X101588D01*
Y-325256D01*
X103860D01*
Y-322000D01*
D02*
G37*
G36*
X92032D02*
X89760D01*
Y-325256D01*
X92032D01*
Y-322000D01*
D02*
G37*
G36*
X88760D02*
X86488D01*
Y-325256D01*
X88760D01*
Y-322000D01*
D02*
G37*
G36*
X228335Y-326899D02*
X227362D01*
Y-329170D01*
X228335D01*
Y-326899D01*
D02*
G37*
G36*
X56756Y-327303D02*
X55783D01*
Y-329575D01*
X56756D01*
Y-327303D01*
D02*
G37*
G36*
X339650Y-367801D02*
X337378D01*
Y-371057D01*
X339650D01*
Y-367801D01*
D02*
G37*
G36*
X324350D02*
X322078D01*
Y-371057D01*
X324350D01*
Y-367801D01*
D02*
G37*
G36*
X309150D02*
X306878D01*
Y-371057D01*
X309150D01*
Y-367801D01*
D02*
G37*
G36*
X293950D02*
X291678D01*
Y-371057D01*
X293950D01*
Y-367801D01*
D02*
G37*
G36*
X278750D02*
X276478D01*
Y-371057D01*
X278750D01*
Y-367801D01*
D02*
G37*
G36*
X263650D02*
X261378D01*
Y-371057D01*
X263650D01*
Y-367801D01*
D02*
G37*
G36*
X336378D02*
X334106D01*
Y-371057D01*
X336378D01*
Y-367801D01*
D02*
G37*
G36*
X321078D02*
X318806D01*
Y-371057D01*
X321078D01*
Y-367801D01*
D02*
G37*
G36*
X305878D02*
X303606D01*
Y-371057D01*
X305878D01*
Y-367801D01*
D02*
G37*
G36*
X290678D02*
X288406D01*
Y-371057D01*
X290678D01*
Y-367801D01*
D02*
G37*
G36*
X275478D02*
X273206D01*
Y-371057D01*
X275478D01*
Y-367801D01*
D02*
G37*
G36*
X260378D02*
X258106D01*
Y-371057D01*
X260378D01*
Y-367801D01*
D02*
G37*
G36*
X370050D02*
X367778D01*
Y-371057D01*
X370050D01*
Y-367801D01*
D02*
G37*
G36*
X354850D02*
X352578D01*
Y-371057D01*
X354850D01*
Y-367801D01*
D02*
G37*
G36*
X366778D02*
X364506D01*
Y-371057D01*
X366778D01*
Y-367801D01*
D02*
G37*
G36*
X351578D02*
X349306D01*
Y-371057D01*
X351578D01*
Y-367801D01*
D02*
G37*
G36*
X168032Y-368244D02*
X165760D01*
Y-371500D01*
X168032D01*
Y-368244D01*
D02*
G37*
G36*
X152732D02*
X150460D01*
Y-371500D01*
X152732D01*
Y-368244D01*
D02*
G37*
G36*
X137531D02*
X135260D01*
Y-371500D01*
X137531D01*
Y-368244D01*
D02*
G37*
G36*
X122332D02*
X120060D01*
Y-371500D01*
X122332D01*
Y-368244D01*
D02*
G37*
G36*
X107132D02*
X104860D01*
Y-371500D01*
X107132D01*
Y-368244D01*
D02*
G37*
G36*
X92032D02*
X89760D01*
Y-371500D01*
X92032D01*
Y-368244D01*
D02*
G37*
G36*
X164760D02*
X162488D01*
Y-371500D01*
X164760D01*
Y-368244D01*
D02*
G37*
G36*
X149460D02*
X147188D01*
Y-371500D01*
X149460D01*
Y-368244D01*
D02*
G37*
G36*
X134260D02*
X131988D01*
Y-371500D01*
X134260D01*
Y-368244D01*
D02*
G37*
G36*
X119060D02*
X116788D01*
Y-371500D01*
X119060D01*
Y-368244D01*
D02*
G37*
G36*
X103860D02*
X101588D01*
Y-371500D01*
X103860D01*
Y-368244D01*
D02*
G37*
G36*
X88760D02*
X86488D01*
Y-371500D01*
X88760D01*
Y-368244D01*
D02*
G37*
G36*
X198431D02*
X196160D01*
Y-371500D01*
X198431D01*
Y-368244D01*
D02*
G37*
G36*
X183231D02*
X180960D01*
Y-371500D01*
X183231D01*
Y-368244D01*
D02*
G37*
G36*
X195160D02*
X192888D01*
Y-371500D01*
X195160D01*
Y-368244D01*
D02*
G37*
G36*
X179960D02*
X177688D01*
Y-371500D01*
X179960D01*
Y-368244D01*
D02*
G37*
G36*
X377228Y-354301D02*
X372488D01*
Y-360813D01*
X373542D01*
Y-368301D01*
X372486D01*
Y-374813D01*
X377030D01*
Y-368301D01*
X375581D01*
Y-360813D01*
X377228D01*
Y-354301D01*
D02*
G37*
G36*
X331585D02*
X326845D01*
Y-360813D01*
X327999D01*
Y-368301D01*
X326787D01*
Y-374813D01*
X331330D01*
Y-368301D01*
X330038D01*
Y-360813D01*
X331585D01*
Y-354301D01*
D02*
G37*
G36*
X205610Y-354744D02*
X200870D01*
Y-361256D01*
X201924D01*
Y-368744D01*
X200868D01*
Y-375256D01*
X205412D01*
Y-368744D01*
X203963D01*
Y-361256D01*
X205610D01*
Y-354744D01*
D02*
G37*
G36*
X159967D02*
X155227D01*
Y-361256D01*
X156381D01*
Y-368744D01*
X155168D01*
Y-375256D01*
X159712D01*
Y-368744D01*
X158420D01*
Y-361256D01*
X159967D01*
Y-354744D01*
D02*
G37*
G36*
X370050Y-372057D02*
X367778D01*
Y-375313D01*
X370050D01*
Y-372057D01*
D02*
G37*
G36*
X366778D02*
X364506D01*
Y-375313D01*
X366778D01*
Y-372057D01*
D02*
G37*
G36*
X354850D02*
X352578D01*
Y-375313D01*
X354850D01*
Y-372057D01*
D02*
G37*
G36*
X351578D02*
X349306D01*
Y-375313D01*
X351578D01*
Y-372057D01*
D02*
G37*
G36*
X339650Y-372057D02*
X337378D01*
Y-375313D01*
X339650D01*
Y-372057D01*
D02*
G37*
G36*
X336378D02*
X334106D01*
Y-375313D01*
X336378D01*
Y-372057D01*
D02*
G37*
G36*
X324350D02*
X322078D01*
Y-375313D01*
X324350D01*
Y-372057D01*
D02*
G37*
G36*
X321078D02*
X318806D01*
Y-375313D01*
X321078D01*
Y-372057D01*
D02*
G37*
G36*
X309150D02*
X306878D01*
Y-375313D01*
X309150D01*
Y-372057D01*
D02*
G37*
G36*
X305878D02*
X303606D01*
Y-375313D01*
X305878D01*
Y-372057D01*
D02*
G37*
G36*
X293950D02*
X291678D01*
Y-375313D01*
X293950D01*
Y-372057D01*
D02*
G37*
G36*
X290678D02*
X288406D01*
Y-375313D01*
X290678D01*
Y-372057D01*
D02*
G37*
G36*
X278750D02*
X276478D01*
Y-375313D01*
X278750D01*
Y-372057D01*
D02*
G37*
G36*
X275478D02*
X273206D01*
Y-375313D01*
X275478D01*
Y-372057D01*
D02*
G37*
G36*
X263650D02*
X261378D01*
Y-375313D01*
X263650D01*
Y-372057D01*
D02*
G37*
G36*
X260378D02*
X258106D01*
Y-375313D01*
X260378D01*
Y-372057D01*
D02*
G37*
G36*
X198431Y-372500D02*
X196160D01*
Y-375756D01*
X198431D01*
Y-372500D01*
D02*
G37*
G36*
X195160D02*
X192888D01*
Y-375756D01*
X195160D01*
Y-372500D01*
D02*
G37*
G36*
X183231D02*
X180960D01*
Y-375756D01*
X183231D01*
Y-372500D01*
D02*
G37*
G36*
X179960D02*
X177688D01*
Y-375756D01*
X179960D01*
Y-372500D01*
D02*
G37*
G36*
X168032Y-372500D02*
X165760D01*
Y-375756D01*
X168032D01*
Y-372500D01*
D02*
G37*
G36*
X164760D02*
X162488D01*
Y-375756D01*
X164760D01*
Y-372500D01*
D02*
G37*
G36*
X152732D02*
X150460D01*
Y-375756D01*
X152732D01*
Y-372500D01*
D02*
G37*
G36*
X149460D02*
X147188D01*
Y-375756D01*
X149460D01*
Y-372500D01*
D02*
G37*
G36*
X137531D02*
X135260D01*
Y-375756D01*
X137531D01*
Y-372500D01*
D02*
G37*
G36*
X134260D02*
X131988D01*
Y-375756D01*
X134260D01*
Y-372500D01*
D02*
G37*
G36*
X122332D02*
X120060D01*
Y-375756D01*
X122332D01*
Y-372500D01*
D02*
G37*
G36*
X119060D02*
X116788D01*
Y-375756D01*
X119060D01*
Y-372500D01*
D02*
G37*
G36*
X107132D02*
X104860D01*
Y-375756D01*
X107132D01*
Y-372500D01*
D02*
G37*
G36*
X103860D02*
X101588D01*
Y-375756D01*
X103860D01*
Y-372500D01*
D02*
G37*
G36*
X92032D02*
X89760D01*
Y-375756D01*
X92032D01*
Y-372500D01*
D02*
G37*
G36*
X88760D02*
X86488D01*
Y-375756D01*
X88760D01*
Y-372500D01*
D02*
G37*
%LPD*%
G36*
X28041Y-99808D02*
X27816Y-100144D01*
X27686Y-100800D01*
X27816Y-101456D01*
X28188Y-102012D01*
X28744Y-102384D01*
X28970Y-102429D01*
X28921Y-102929D01*
X28752D01*
X28362Y-103006D01*
X28031Y-103227D01*
X26579Y-104679D01*
X26358Y-105010D01*
X26280Y-105400D01*
Y-110685D01*
X26358Y-111075D01*
X26579Y-111406D01*
X27287Y-112113D01*
X27157Y-112442D01*
X27060Y-112594D01*
X26566Y-112692D01*
X26111Y-112238D01*
X25780Y-112017D01*
X25390Y-111939D01*
X24307D01*
Y-111061D01*
X24327Y-110963D01*
Y-102815D01*
X27653Y-99489D01*
X28041Y-99808D01*
D02*
G37*
G36*
X27280Y-119924D02*
Y-124359D01*
X27088Y-124488D01*
X26716Y-125044D01*
X26586Y-125700D01*
X26716Y-126356D01*
X27088Y-126912D01*
X27340Y-127080D01*
X27188Y-127580D01*
X19782D01*
X18280Y-126079D01*
X17950Y-125858D01*
X17560Y-125780D01*
X17559D01*
X17405Y-125770D01*
Y-125270D01*
X18874D01*
Y-120726D01*
X19209Y-120673D01*
X19737Y-120952D01*
X19764Y-121121D01*
Y-121805D01*
X24307D01*
X24307Y-119860D01*
X24307Y-119360D01*
X24307Y-117604D01*
X24769Y-117413D01*
X27280Y-119924D01*
D02*
G37*
G36*
X49299Y-192003D02*
X49303Y-192055D01*
X46979Y-194379D01*
X46758Y-194710D01*
X46680Y-195100D01*
X46758Y-195490D01*
X46979Y-195821D01*
X47310Y-196042D01*
X47700Y-196120D01*
X48090Y-196042D01*
X48421Y-195821D01*
X50474Y-193768D01*
X51842D01*
Y-195520D01*
X52815D01*
Y-192748D01*
X53815D01*
Y-195520D01*
X54294D01*
X54369Y-195898D01*
X54590Y-196229D01*
X56342Y-197980D01*
X56134Y-198480D01*
X44725D01*
X44520Y-198275D01*
Y-193122D01*
X46040Y-191602D01*
X48984D01*
X49299Y-192003D01*
D02*
G37*
G36*
X7780Y-180338D02*
Y-239759D01*
X7588Y-239888D01*
X7216Y-240444D01*
X7086Y-241100D01*
X7216Y-241756D01*
X7240Y-241791D01*
X6851Y-242109D01*
X5320Y-240578D01*
X5320Y-178540D01*
X5727Y-178383D01*
X5820Y-178377D01*
X7780Y-180338D01*
D02*
G37*
G36*
X223961Y-240743D02*
Y-242511D01*
X223914Y-242748D01*
Y-243570D01*
X222548Y-244935D01*
X222300Y-244886D01*
X221644Y-245016D01*
X221088Y-245388D01*
X220716Y-245944D01*
X220586Y-246600D01*
X220716Y-247256D01*
X221088Y-247812D01*
X221426Y-248038D01*
X221274Y-248537D01*
X216344D01*
X214941Y-247135D01*
Y-242979D01*
X216261Y-241659D01*
X220602D01*
X220992Y-241582D01*
X221032Y-241555D01*
X223071D01*
Y-240871D01*
X223098Y-240702D01*
X223461Y-240510D01*
X223961Y-240743D01*
D02*
G37*
G36*
X223921Y-291338D02*
Y-293107D01*
X223874Y-293344D01*
Y-294166D01*
X223654Y-294496D01*
X223652Y-294506D01*
X222927Y-295231D01*
X222700Y-295186D01*
X222044Y-295316D01*
X221488Y-295688D01*
X221116Y-296244D01*
X220986Y-296900D01*
X221116Y-297556D01*
X221488Y-298112D01*
X222044Y-298484D01*
X222315Y-298537D01*
X222266Y-299038D01*
X216344D01*
X214941Y-297635D01*
Y-293479D01*
X216261Y-292159D01*
X220602D01*
X220645Y-292151D01*
X223031D01*
Y-291466D01*
X223058Y-291298D01*
X223421Y-291106D01*
X223921Y-291338D01*
D02*
G37*
G36*
X210444Y-314684D02*
X211100Y-314814D01*
X211327Y-314769D01*
X216580Y-320022D01*
Y-331031D01*
X216182Y-331242D01*
X216096Y-331254D01*
X215115Y-330273D01*
X215112Y-329712D01*
X215484Y-329156D01*
X215614Y-328500D01*
X215484Y-327844D01*
X215112Y-327288D01*
X214556Y-326916D01*
X213900Y-326786D01*
X213244Y-326916D01*
X212688Y-327288D01*
X212316Y-327844D01*
X212186Y-328500D01*
X212316Y-329156D01*
X212688Y-329712D01*
X212880Y-329841D01*
Y-330500D01*
X212958Y-330890D01*
X213179Y-331221D01*
X216211Y-334253D01*
X216004Y-334753D01*
X212495D01*
X209901Y-332159D01*
Y-314851D01*
X210342Y-314615D01*
X210444Y-314684D01*
D02*
G37*
G36*
X223921Y-341839D02*
Y-343607D01*
X223874Y-343844D01*
Y-344096D01*
X221885D01*
X221494Y-344173D01*
X221164Y-344394D01*
X220027Y-345531D01*
X219800Y-345486D01*
X219144Y-345616D01*
X218588Y-345988D01*
X218216Y-346544D01*
X218086Y-347200D01*
X218216Y-347856D01*
X218588Y-348412D01*
X219144Y-348784D01*
X219800Y-348914D01*
X220456Y-348784D01*
X221012Y-348412D01*
X221384Y-347856D01*
X221514Y-347200D01*
X221469Y-346973D01*
X222307Y-346135D01*
X224866D01*
X224965Y-346115D01*
X225866D01*
X225909Y-346563D01*
X225909Y-346565D01*
X225916Y-346595D01*
X225987Y-346955D01*
X226208Y-347286D01*
X227960Y-349038D01*
X227753Y-349537D01*
X216344D01*
X214941Y-348135D01*
Y-343979D01*
X216261Y-342659D01*
X220602D01*
X220645Y-342651D01*
X223031D01*
Y-341966D01*
X223058Y-341797D01*
X223421Y-341606D01*
X223921Y-341839D01*
D02*
G37*
G36*
X47495Y-272654D02*
X47486Y-272700D01*
X47616Y-273356D01*
X47988Y-273912D01*
X48544Y-274284D01*
X49200Y-274414D01*
X49856Y-274284D01*
X50412Y-273912D01*
X50541Y-273720D01*
X51878D01*
X52295Y-274137D01*
Y-279575D01*
X52342Y-279812D01*
Y-281846D01*
X51873Y-281921D01*
X51528D01*
X51453Y-281452D01*
Y-280768D01*
X49418D01*
X49181Y-280721D01*
X39375D01*
X39183Y-280259D01*
X47034Y-272408D01*
X47495Y-272654D01*
D02*
G37*
G36*
X52342Y-291743D02*
Y-293511D01*
X52295Y-293748D01*
Y-294570D01*
X51440Y-295426D01*
X51219Y-295756D01*
X51178Y-295961D01*
X50688Y-296288D01*
X50316Y-296844D01*
X50186Y-297500D01*
X50316Y-298156D01*
X50688Y-298712D01*
X51090Y-298980D01*
X50938Y-299480D01*
X44725D01*
X43323Y-298078D01*
Y-293922D01*
X44643Y-292602D01*
X48984D01*
X49221Y-292555D01*
X51453D01*
Y-291871D01*
X51480Y-291702D01*
X51842Y-291510D01*
X52342Y-291743D01*
D02*
G37*
G36*
Y-342243D02*
Y-344011D01*
X52295Y-344248D01*
Y-344500D01*
X49949D01*
X49559Y-344578D01*
X49228Y-344799D01*
X49134Y-344892D01*
X48600Y-344786D01*
X47944Y-344916D01*
X47388Y-345288D01*
X47016Y-345844D01*
X46886Y-346500D01*
X47016Y-347156D01*
X47388Y-347712D01*
X47944Y-348084D01*
X48600Y-348214D01*
X49256Y-348084D01*
X49812Y-347712D01*
X50184Y-347156D01*
X50290Y-346620D01*
X50371Y-346539D01*
X53287D01*
X53386Y-346520D01*
X54287D01*
X54291Y-347008D01*
X54369Y-347398D01*
X54590Y-347729D01*
X56342Y-349480D01*
X56134Y-349980D01*
X44725D01*
X43323Y-348578D01*
Y-344422D01*
X44643Y-343102D01*
X48984D01*
X49221Y-343055D01*
X51453D01*
Y-342371D01*
X51480Y-342202D01*
X51842Y-342010D01*
X52342Y-342243D01*
D02*
G37*
D22*
X96740Y-206500D02*
D03*
X89260D02*
D03*
X111954D02*
D03*
X104474D02*
D03*
X127169D02*
D03*
X119688D02*
D03*
X142383D02*
D03*
X134903D02*
D03*
X157597D02*
D03*
X150117D02*
D03*
X172812D02*
D03*
X165331D02*
D03*
X188026D02*
D03*
X180545D02*
D03*
X203240D02*
D03*
X195760D02*
D03*
X374858Y-357557D02*
D03*
X367378D02*
D03*
X359644D02*
D03*
X352164D02*
D03*
X344430D02*
D03*
X336949D02*
D03*
X329215D02*
D03*
X321735D02*
D03*
X314001D02*
D03*
X306521D02*
D03*
X298787D02*
D03*
X291306D02*
D03*
X283573D02*
D03*
X276092D02*
D03*
X268358D02*
D03*
X260878D02*
D03*
X374858Y-307057D02*
D03*
X367378D02*
D03*
X359644D02*
D03*
X352164D02*
D03*
X344430D02*
D03*
X336949D02*
D03*
X329215D02*
D03*
X321735D02*
D03*
X314001D02*
D03*
X306521D02*
D03*
X298787D02*
D03*
X291306D02*
D03*
X283573D02*
D03*
X276092D02*
D03*
X268358D02*
D03*
X260878D02*
D03*
X374858Y-256557D02*
D03*
X367378D02*
D03*
X359644D02*
D03*
X352164D02*
D03*
X344430D02*
D03*
X336949D02*
D03*
X329215D02*
D03*
X321735D02*
D03*
X314001D02*
D03*
X306521D02*
D03*
X298787D02*
D03*
X291306D02*
D03*
X283573D02*
D03*
X276092D02*
D03*
X268358D02*
D03*
X260878D02*
D03*
X203240Y-358000D02*
D03*
X195760D02*
D03*
X188026D02*
D03*
X180545D02*
D03*
X172812D02*
D03*
X165331D02*
D03*
X157597D02*
D03*
X150117D02*
D03*
X142383D02*
D03*
X134903D02*
D03*
X127169D02*
D03*
X119688D02*
D03*
X111954D02*
D03*
X104474D02*
D03*
X96740D02*
D03*
X89260D02*
D03*
X203240Y-307500D02*
D03*
X195760D02*
D03*
X188026D02*
D03*
X180545D02*
D03*
X172812D02*
D03*
X165331D02*
D03*
X157597D02*
D03*
X150117D02*
D03*
X142383D02*
D03*
X134903D02*
D03*
X127169D02*
D03*
X119688D02*
D03*
X111954D02*
D03*
X104474D02*
D03*
X96740D02*
D03*
X89260D02*
D03*
X203240Y-257000D02*
D03*
X195760D02*
D03*
X188026D02*
D03*
X180545D02*
D03*
X172812D02*
D03*
X165331D02*
D03*
X157597D02*
D03*
X150117D02*
D03*
X142383D02*
D03*
X134903D02*
D03*
X127169D02*
D03*
X119688D02*
D03*
X111954D02*
D03*
X104474D02*
D03*
X96740D02*
D03*
X89260D02*
D03*
X203240Y-156000D02*
D03*
X195760D02*
D03*
X188026D02*
D03*
X180545D02*
D03*
X172812D02*
D03*
X165331D02*
D03*
X157597D02*
D03*
X150117D02*
D03*
X142383D02*
D03*
X134903D02*
D03*
X127169D02*
D03*
X119688D02*
D03*
X111954D02*
D03*
X104474D02*
D03*
X96740D02*
D03*
X89260D02*
D03*
X96740Y-105500D02*
D03*
X89260D02*
D03*
X111954D02*
D03*
X104474D02*
D03*
X127169D02*
D03*
X119688D02*
D03*
X142383D02*
D03*
X134903D02*
D03*
X157597D02*
D03*
X150117D02*
D03*
X172812D02*
D03*
X165331D02*
D03*
X203240D02*
D03*
X195760D02*
D03*
X188026D02*
D03*
X180545D02*
D03*
X80087Y-38661D02*
D03*
X87567D02*
D03*
X104827D02*
D03*
X112307D02*
D03*
X80087Y-51661D02*
D03*
X87567D02*
D03*
X112047D02*
D03*
X104567D02*
D03*
X130953Y-38161D02*
D03*
X138433D02*
D03*
X155693D02*
D03*
X163173D02*
D03*
X130953Y-51161D02*
D03*
X138433D02*
D03*
X162913D02*
D03*
X155433D02*
D03*
X177319Y-36661D02*
D03*
X184799D02*
D03*
X202059D02*
D03*
X209539D02*
D03*
X177319Y-49661D02*
D03*
X184799D02*
D03*
X209280D02*
D03*
X201799D02*
D03*
X229299Y-35161D02*
D03*
X221819D02*
D03*
X254039D02*
D03*
X246559D02*
D03*
X229299Y-48161D02*
D03*
X221819D02*
D03*
X246299D02*
D03*
X253780D02*
D03*
D23*
X89260Y-220500D02*
D03*
X96740D02*
D03*
X104360D02*
D03*
X111840D02*
D03*
X119560D02*
D03*
X127040D02*
D03*
X134760D02*
D03*
X142240D02*
D03*
X149960D02*
D03*
X157440D02*
D03*
X165260D02*
D03*
X172740D02*
D03*
X180460D02*
D03*
X187940D02*
D03*
X195660D02*
D03*
X203140D02*
D03*
X367278Y-371557D02*
D03*
X374758D02*
D03*
X352078D02*
D03*
X359558D02*
D03*
X336878D02*
D03*
X344358D02*
D03*
X321578D02*
D03*
X329058D02*
D03*
X306378D02*
D03*
X313858D02*
D03*
X291178D02*
D03*
X298658D02*
D03*
X275978D02*
D03*
X283458D02*
D03*
X260878D02*
D03*
X268358D02*
D03*
X367278Y-321057D02*
D03*
X374758D02*
D03*
X352078D02*
D03*
X359558D02*
D03*
X336878D02*
D03*
X344358D02*
D03*
X321578D02*
D03*
X329058D02*
D03*
X306378D02*
D03*
X313858D02*
D03*
X291178D02*
D03*
X298658D02*
D03*
X275978D02*
D03*
X283458D02*
D03*
X260878D02*
D03*
X268358D02*
D03*
X367278Y-270557D02*
D03*
X374758D02*
D03*
X352078D02*
D03*
X359558D02*
D03*
X336878D02*
D03*
X344358D02*
D03*
X321578D02*
D03*
X329058D02*
D03*
X306378D02*
D03*
X313858D02*
D03*
X291178D02*
D03*
X298658D02*
D03*
X275978D02*
D03*
X283458D02*
D03*
X260878D02*
D03*
X268358D02*
D03*
X195660Y-372000D02*
D03*
X203140D02*
D03*
X180460D02*
D03*
X187940D02*
D03*
X165260D02*
D03*
X172740D02*
D03*
X149960D02*
D03*
X157440D02*
D03*
X134760D02*
D03*
X142240D02*
D03*
X119560D02*
D03*
X127040D02*
D03*
X104360D02*
D03*
X111840D02*
D03*
X89260D02*
D03*
X96740D02*
D03*
X195660Y-321500D02*
D03*
X203140D02*
D03*
X180460D02*
D03*
X187940D02*
D03*
X165260D02*
D03*
X172740D02*
D03*
X149960D02*
D03*
X157440D02*
D03*
X134760D02*
D03*
X142240D02*
D03*
X119560D02*
D03*
X127040D02*
D03*
X104360D02*
D03*
X111840D02*
D03*
X89260D02*
D03*
X96740D02*
D03*
X195660Y-271000D02*
D03*
X203140D02*
D03*
X180460D02*
D03*
X187940D02*
D03*
X165260D02*
D03*
X172740D02*
D03*
X149960D02*
D03*
X157440D02*
D03*
X134760D02*
D03*
X142240D02*
D03*
X119560D02*
D03*
X127040D02*
D03*
X104360D02*
D03*
X111840D02*
D03*
X89260D02*
D03*
X96740D02*
D03*
X195660Y-170000D02*
D03*
X203140D02*
D03*
X180460D02*
D03*
X187940D02*
D03*
X165260D02*
D03*
X172740D02*
D03*
X149960D02*
D03*
X157440D02*
D03*
X134760D02*
D03*
X142240D02*
D03*
X119560D02*
D03*
X127040D02*
D03*
X104360D02*
D03*
X111840D02*
D03*
X89260D02*
D03*
X96740D02*
D03*
X165260Y-119500D02*
D03*
X172740D02*
D03*
X149960D02*
D03*
X157440D02*
D03*
X134760D02*
D03*
X142240D02*
D03*
X119560D02*
D03*
X127040D02*
D03*
X104360D02*
D03*
X111840D02*
D03*
X89260D02*
D03*
X96740D02*
D03*
X195660D02*
D03*
X203140D02*
D03*
X180460D02*
D03*
X187940D02*
D03*
X87467Y-25161D02*
D03*
X79987D02*
D03*
X112307D02*
D03*
X104827D02*
D03*
X138333Y-24661D02*
D03*
X130853D02*
D03*
X163173D02*
D03*
X155693D02*
D03*
X184699Y-23161D02*
D03*
X177219D02*
D03*
X209539D02*
D03*
X202059D02*
D03*
X221719Y-21661D02*
D03*
X229199D02*
D03*
X246559D02*
D03*
X254039D02*
D03*
D24*
X96067Y-37261D02*
D03*
Y-52222D02*
D03*
X146933Y-36761D02*
D03*
Y-51722D02*
D03*
X193299Y-35261D02*
D03*
Y-50222D02*
D03*
X237799Y-48722D02*
D03*
Y-33761D02*
D03*
D25*
X107634Y-63323D02*
D03*
Y-65882D02*
D03*
Y-68441D02*
D03*
Y-71000D02*
D03*
X84500D02*
D03*
Y-68441D02*
D03*
Y-65882D02*
D03*
Y-63323D02*
D03*
X158500Y-62823D02*
D03*
Y-65382D02*
D03*
Y-67941D02*
D03*
Y-70500D02*
D03*
X135366D02*
D03*
Y-67941D02*
D03*
Y-65382D02*
D03*
Y-62823D02*
D03*
X204866Y-61323D02*
D03*
Y-63882D02*
D03*
Y-66441D02*
D03*
Y-69000D02*
D03*
X181732D02*
D03*
Y-66441D02*
D03*
Y-63882D02*
D03*
Y-61323D02*
D03*
X226232Y-59823D02*
D03*
Y-62382D02*
D03*
Y-64941D02*
D03*
Y-67500D02*
D03*
X249366D02*
D03*
Y-64941D02*
D03*
Y-62382D02*
D03*
Y-59823D02*
D03*
D26*
X225878Y-336757D02*
D03*
X54299Y-337161D02*
D03*
X225878Y-286257D02*
D03*
X54299Y-286661D02*
D03*
Y-236161D02*
D03*
X225917Y-235661D02*
D03*
X54299Y-185661D02*
D03*
Y-135161D02*
D03*
X16917Y-115911D02*
D03*
X54299Y-84661D02*
D03*
D27*
X224894Y-343844D02*
D03*
Y-329671D02*
D03*
X226862D02*
D03*
Y-343844D02*
D03*
X53315Y-344248D02*
D03*
Y-330075D02*
D03*
X55283D02*
D03*
Y-344248D02*
D03*
X224894Y-293344D02*
D03*
Y-279170D02*
D03*
X226862D02*
D03*
Y-293344D02*
D03*
X53315Y-293748D02*
D03*
Y-279575D02*
D03*
X55283D02*
D03*
Y-293748D02*
D03*
X53315Y-243248D02*
D03*
Y-229075D02*
D03*
X55283D02*
D03*
Y-243248D02*
D03*
X224933Y-242748D02*
D03*
Y-228575D02*
D03*
X226902D02*
D03*
Y-242748D02*
D03*
X55283Y-178575D02*
D03*
Y-192748D02*
D03*
X53315D02*
D03*
Y-178575D02*
D03*
X55283Y-128075D02*
D03*
Y-142248D02*
D03*
X53315D02*
D03*
Y-128075D02*
D03*
X17902Y-108825D02*
D03*
Y-122998D02*
D03*
X15933D02*
D03*
Y-108825D02*
D03*
X55283Y-77575D02*
D03*
Y-91748D02*
D03*
X53315D02*
D03*
Y-77575D02*
D03*
D28*
X220760Y-341678D02*
D03*
Y-339710D02*
D03*
Y-337741D02*
D03*
Y-335773D02*
D03*
Y-333804D02*
D03*
Y-331836D02*
D03*
X230996D02*
D03*
Y-333804D02*
D03*
Y-335773D02*
D03*
Y-337741D02*
D03*
Y-339710D02*
D03*
Y-341678D02*
D03*
X49181Y-342083D02*
D03*
Y-340114D02*
D03*
Y-338146D02*
D03*
Y-336177D02*
D03*
Y-334209D02*
D03*
Y-332240D02*
D03*
X59417D02*
D03*
Y-334209D02*
D03*
Y-336177D02*
D03*
Y-338146D02*
D03*
Y-340114D02*
D03*
Y-342083D02*
D03*
X220760Y-291178D02*
D03*
Y-289210D02*
D03*
Y-287241D02*
D03*
Y-285273D02*
D03*
Y-283304D02*
D03*
Y-281336D02*
D03*
X230996D02*
D03*
Y-283304D02*
D03*
Y-285273D02*
D03*
Y-287241D02*
D03*
Y-289210D02*
D03*
Y-291178D02*
D03*
X49181Y-291583D02*
D03*
Y-289614D02*
D03*
Y-287646D02*
D03*
Y-285677D02*
D03*
Y-283709D02*
D03*
Y-281740D02*
D03*
X59417D02*
D03*
Y-283709D02*
D03*
Y-285677D02*
D03*
Y-287646D02*
D03*
Y-289614D02*
D03*
Y-291583D02*
D03*
X49181Y-241083D02*
D03*
Y-239114D02*
D03*
Y-237146D02*
D03*
Y-235177D02*
D03*
Y-233209D02*
D03*
Y-231240D02*
D03*
X59417D02*
D03*
Y-233209D02*
D03*
Y-235177D02*
D03*
Y-237146D02*
D03*
Y-239114D02*
D03*
Y-241083D02*
D03*
X220799Y-240583D02*
D03*
Y-238614D02*
D03*
Y-236646D02*
D03*
Y-234677D02*
D03*
Y-232709D02*
D03*
Y-230740D02*
D03*
X231035D02*
D03*
Y-232709D02*
D03*
Y-234677D02*
D03*
Y-236646D02*
D03*
Y-238614D02*
D03*
Y-240583D02*
D03*
X59417Y-180740D02*
D03*
Y-182709D02*
D03*
Y-184677D02*
D03*
Y-186646D02*
D03*
Y-188614D02*
D03*
Y-190583D02*
D03*
X49181D02*
D03*
Y-188614D02*
D03*
Y-186646D02*
D03*
Y-184677D02*
D03*
Y-182709D02*
D03*
Y-180740D02*
D03*
X59417Y-130240D02*
D03*
Y-132209D02*
D03*
Y-134177D02*
D03*
Y-136146D02*
D03*
Y-138114D02*
D03*
Y-140083D02*
D03*
X49181D02*
D03*
Y-138114D02*
D03*
Y-136146D02*
D03*
Y-134177D02*
D03*
Y-132209D02*
D03*
Y-130240D02*
D03*
X22035Y-110990D02*
D03*
Y-112959D02*
D03*
Y-114927D02*
D03*
Y-116896D02*
D03*
Y-118864D02*
D03*
Y-120833D02*
D03*
X11799D02*
D03*
Y-118864D02*
D03*
Y-116896D02*
D03*
Y-114927D02*
D03*
Y-112959D02*
D03*
Y-110990D02*
D03*
X59417Y-79740D02*
D03*
Y-81709D02*
D03*
Y-83677D02*
D03*
Y-85646D02*
D03*
Y-87614D02*
D03*
Y-89583D02*
D03*
X49181D02*
D03*
Y-87614D02*
D03*
Y-85646D02*
D03*
Y-83677D02*
D03*
Y-81709D02*
D03*
Y-79740D02*
D03*
D29*
X43500Y-198697D02*
Y-192700D01*
Y-198697D02*
X44303Y-199500D01*
X68803D01*
X47700Y-195100D02*
X50052Y-192748D01*
X53315D01*
X70781Y-100281D02*
X72000Y-101500D01*
X49181Y-100281D02*
X70781D01*
X47900Y-99000D02*
X49181Y-100281D01*
X70781D02*
X72562Y-98500D01*
X224894Y-287241D02*
X225878Y-286257D01*
X220760Y-287241D02*
X224894D01*
X53315Y-287646D02*
X54299Y-286661D01*
X49181Y-287646D02*
X53315D01*
X225917Y-235661D02*
X226902Y-234677D01*
Y-228575D01*
X220799Y-236646D02*
X224933D01*
X225917Y-235661D01*
X11799Y-112959D02*
X15646D01*
X16917Y-114230D01*
Y-115911D02*
Y-114230D01*
X11799Y-114927D02*
X15933D01*
X16917Y-115911D01*
X53315Y-338146D02*
X54299Y-337161D01*
X49181Y-338146D02*
X53315D01*
X52100Y-96600D02*
Y-96231D01*
X53312Y-95020D01*
Y-91751D01*
X53315Y-91748D01*
X47900Y-99000D02*
Y-95500D01*
X6519Y-126800D02*
X17560D01*
X29814Y-128600D02*
X30481Y-127933D01*
X17560Y-126800D02*
X19360Y-128600D01*
X30481Y-127933D02*
Y-119562D01*
X19360Y-128600D02*
X29814D01*
X12500Y-124600D02*
X12869D01*
X13199Y-124270D01*
X15905D01*
X15933Y-124242D01*
Y-122998D01*
X53196Y-143104D02*
X53287D01*
X53315Y-143077D01*
Y-142248D01*
X51300Y-145000D02*
X53196Y-143104D01*
X226862Y-335773D02*
Y-329671D01*
X225878Y-336757D02*
X226862Y-335773D01*
X224894Y-337741D02*
X225878Y-336757D01*
X220760Y-337741D02*
X224894D01*
X32300Y-133600D02*
Y-115684D01*
Y-137916D02*
Y-133600D01*
X32816Y-134116D01*
X33900D01*
X6519Y-126800D02*
Y-119781D01*
Y-172100D02*
Y-126800D01*
X29761Y-118841D02*
X30481Y-119562D01*
X29761Y-118841D02*
Y-116861D01*
X29500Y-116600D02*
X29761Y-116861D01*
X66200Y-278500D02*
X170900D01*
X56700Y-269000D02*
X66200Y-278500D01*
X49000Y-269000D02*
X56700D01*
X36260Y-281740D02*
X49000Y-269000D01*
X53315Y-279575D02*
Y-273715D01*
X59220Y-285677D02*
X144197D01*
X59220Y-283709D02*
X156557D01*
X59220Y-281740D02*
X169803D01*
X59220Y-287646D02*
X130066D01*
X139920Y-297500D01*
X169803Y-281740D02*
X193307Y-305244D01*
X144197Y-285677D02*
X157912Y-299392D01*
X156557Y-283709D02*
X178093Y-305244D01*
X59417Y-289614D02*
X116416D01*
X59220Y-291583D02*
X103574D01*
X116416Y-289614D02*
X132046Y-305244D01*
X59220Y-289614D02*
X59417D01*
X103574Y-291583D02*
X109397Y-297406D01*
X52300Y-272700D02*
X53315Y-273715D01*
X49200Y-272700D02*
X52300D01*
X210900Y-278100D02*
X211161Y-277839D01*
X213561D01*
X220800Y-270600D01*
X220761Y-276161D02*
X223128D01*
X224894Y-277926D01*
X220500Y-275900D02*
X220761Y-276161D01*
X224894Y-279170D02*
Y-277926D01*
X213800Y-228500D02*
X217315D01*
X219555Y-230740D01*
X220799D01*
X6519Y-177635D02*
Y-172100D01*
X7758Y-173339D01*
X9939D01*
X10200Y-173600D01*
X33700Y-189600D02*
X40100D01*
X33500Y-189800D02*
X33700Y-189600D01*
X6519Y-177635D02*
X8800Y-179916D01*
X6519Y-119781D02*
X9377Y-116923D01*
X8911Y-123689D02*
Y-119511D01*
X8700Y-123900D02*
X8911Y-123689D01*
Y-119511D02*
X9530Y-118892D01*
X11772D01*
X11799Y-118864D01*
X4300Y-116800D02*
X9613Y-111486D01*
X4300Y-116800D02*
X4300Y-241000D01*
X9190Y-245890D01*
X22035Y-112959D02*
X25390D01*
X26731Y-114300D01*
X27100D01*
X27300Y-110685D02*
X32300Y-115684D01*
X27300Y-110685D02*
Y-105400D01*
X28752Y-103948D01*
X31521D01*
X30200Y-110500D02*
X32900Y-107800D01*
X41200D01*
X31521Y-103948D02*
X33900Y-101569D01*
X32219Y-137997D02*
X32300Y-137916D01*
X32219Y-139803D02*
Y-137997D01*
Y-139803D02*
X32300Y-139884D01*
X40400Y-142800D02*
Y-142679D01*
X46905Y-136173D01*
X49154D01*
X34800Y-113300D02*
X44839Y-123339D01*
X46639D01*
X46900Y-123600D01*
X43800Y-135100D02*
X44169D01*
X45091Y-134177D01*
X49181D01*
X36586Y-144600D02*
Y-137214D01*
X41564Y-132236D02*
X49154D01*
X36586Y-137214D02*
X41564Y-132236D01*
X43700Y-141500D02*
X47058Y-138142D01*
X43700Y-146000D02*
Y-141500D01*
X47058Y-138142D02*
X49154D01*
X17178Y-226757D02*
X18045Y-225890D01*
X17221Y-216714D02*
Y-215847D01*
X40560Y-130240D02*
X49181D01*
X34400Y-136400D02*
X40560Y-130240D01*
X34400Y-138900D02*
Y-136400D01*
X218250Y-331836D02*
X220760D01*
X217600Y-331186D02*
X218250Y-331836D01*
X217600Y-331186D02*
Y-319600D01*
X211100Y-313100D02*
X217600Y-319600D01*
X208881Y-332581D02*
Y-306781D01*
X208800Y-306700D02*
X208881Y-306781D01*
X208800Y-306700D02*
Y-280900D01*
X208881Y-332581D02*
X212073Y-335773D01*
X220760D01*
X202943Y-321500D02*
Y-307600D01*
X203043Y-307500D01*
X187829Y-321414D02*
Y-307500D01*
X187743Y-321500D02*
X187829Y-321414D01*
X208719Y-236981D02*
X211023Y-234677D01*
X210900Y-278100D02*
X216280D01*
X219516Y-281336D01*
X220760D01*
X208719Y-280819D02*
X208800Y-280900D01*
X208719Y-280819D02*
Y-236981D01*
X214200Y-281000D02*
X216504Y-283304D01*
X222300Y-246600D02*
X222325D01*
X224933Y-243992D01*
Y-242748D01*
X224596Y-295004D02*
Y-294886D01*
X224894Y-294588D01*
Y-293344D01*
X222700Y-296900D02*
X224596Y-295004D01*
X219800Y-347200D02*
X221885Y-345115D01*
X224866D01*
X224894Y-345088D01*
Y-343844D01*
X48600Y-346500D02*
X48969D01*
X49949Y-345520D01*
X53287D01*
X53315Y-345492D01*
Y-344248D01*
X51900Y-297500D02*
X52161Y-297239D01*
Y-296146D01*
X53315Y-294992D01*
Y-293748D01*
X53296Y-246204D02*
Y-243267D01*
X53315Y-243248D01*
X51400Y-248100D02*
X53296Y-246204D01*
X39200Y-194400D02*
X44986Y-188614D01*
X49181D01*
X45617Y-190583D02*
X48984D01*
X43500Y-192700D02*
X45617Y-190583D01*
X57897Y-177303D02*
X60100Y-175100D01*
X55311Y-177303D02*
X57897D01*
X55283Y-177331D02*
X55311Y-177303D01*
X55283Y-178575D02*
Y-177331D01*
X254718Y-62382D02*
X256800Y-60300D01*
X249366Y-62382D02*
X254718D01*
X249366Y-64941D02*
Y-62382D01*
X219400Y-60000D02*
X221782Y-62382D01*
X226232D01*
Y-64941D02*
Y-62382D01*
X210518Y-63882D02*
X212500Y-61900D01*
X204866Y-63882D02*
X210518D01*
X204866Y-66441D02*
Y-63882D01*
X174700Y-62500D02*
X175069D01*
X176451Y-63882D01*
X181732D01*
Y-66441D02*
Y-63882D01*
X163718Y-65382D02*
X166100Y-63000D01*
X158500Y-65382D02*
X163718D01*
X158500Y-67941D02*
Y-65382D01*
X127400Y-64000D02*
X127769D01*
X129150Y-65382D01*
X135366D01*
Y-67941D02*
Y-65382D01*
X114409Y-65791D02*
X114500Y-65700D01*
X107725Y-65791D02*
X114409D01*
X107634Y-65882D02*
X107725Y-65791D01*
X107634Y-68441D02*
Y-65882D01*
X84500Y-68441D02*
Y-65882D01*
X75600Y-64300D02*
X75969D01*
X77551Y-65882D01*
X84500D01*
X55283Y-76331D02*
X57714Y-73900D01*
X55283Y-77575D02*
Y-76331D01*
X57714Y-73900D02*
X62000D01*
X42500Y-92000D02*
X46858Y-87642D01*
X49154D01*
X49181Y-87614D01*
X57997Y-126803D02*
X61100Y-123700D01*
X55311Y-126803D02*
X57997D01*
X55283Y-126831D02*
X55311Y-126803D01*
X55283Y-128075D02*
Y-126831D01*
X49154Y-138142D02*
X49181Y-138114D01*
X47900Y-95500D02*
Y-89883D01*
X47909Y-89873D01*
Y-89610D01*
X42354Y-85646D02*
X49181D01*
X29400Y-98600D02*
X42354Y-85646D01*
X29400Y-100800D02*
Y-98600D01*
X48984Y-146200D02*
Y-140083D01*
X51784Y-149000D02*
X68803D01*
X48984Y-146200D02*
X51784Y-149000D01*
X89063Y-156000D02*
Y-155114D01*
X49154Y-136173D02*
X49181Y-136146D01*
X32300Y-174900D02*
Y-139884D01*
X33900Y-101569D02*
Y-101200D01*
X39497Y-128519D02*
X53287D01*
X53315Y-128491D01*
X33900Y-134116D02*
X39497Y-128519D01*
X53315Y-128491D02*
Y-128075D01*
X41995Y-83705D02*
X49154D01*
X23307Y-102393D02*
X41995Y-83705D01*
X23307Y-110963D02*
Y-102393D01*
X38500Y-83300D02*
X40091Y-81709D01*
X37640Y-79740D02*
X49181D01*
X37400Y-79500D02*
X37640Y-79740D01*
X40091Y-81709D02*
X49181D01*
X53315Y-77575D02*
Y-73515D01*
X49500Y-69700D02*
X53315Y-73515D01*
X32300Y-174900D02*
X50884D01*
X29000D02*
X32300D01*
X40100Y-189600D02*
X43054Y-186646D01*
X49181D01*
X29900Y-195900D02*
Y-186000D01*
Y-214035D02*
Y-195900D01*
X30000Y-195800D01*
X34600D01*
X89063Y-206500D02*
Y-205614D01*
X34500Y-186000D02*
X40400D01*
X41723Y-184677D01*
X49181D01*
X18045Y-225890D02*
X29900Y-214035D01*
X33191Y-182709D02*
X48559D01*
X29900Y-186000D02*
X33191Y-182709D01*
X27100Y-203100D02*
Y-184200D01*
X20350Y-209850D02*
X27100Y-203100D01*
X30500Y-180800D02*
X39900D01*
X27100Y-184200D02*
X30500Y-180800D01*
X24400Y-179500D02*
X29000Y-174900D01*
X24400Y-197800D02*
Y-179500D01*
X17178Y-205890D02*
Y-205022D01*
X24400Y-197800D01*
X49154Y-132236D02*
X49181Y-132209D01*
X39900Y-180800D02*
X47461D01*
X39900D02*
X39939Y-180761D01*
Y-178561D01*
X40200Y-178300D01*
X15933Y-122998D02*
Y-116896D01*
X16917Y-115911D01*
X53315Y-91748D02*
Y-85646D01*
X54299Y-84661D01*
X53315Y-142248D02*
Y-136146D01*
X54299Y-135161D01*
X212900Y-238400D02*
X213087Y-238587D01*
X220772D01*
X220799Y-238614D01*
X199600Y-246100D02*
X204600Y-241100D01*
X52800Y-317381D02*
X53315Y-317896D01*
Y-330075D02*
Y-317896D01*
X52800Y-317381D02*
Y-314700D01*
X55283Y-336177D02*
Y-330075D01*
X54299Y-337161D02*
X55283Y-336177D01*
Y-285677D02*
Y-279575D01*
X54299Y-286661D02*
X55283Y-285677D01*
Y-235177D02*
Y-229075D01*
X54299Y-236161D02*
X55283Y-235177D01*
X53315Y-186646D02*
X54299Y-185661D01*
X53315Y-192748D02*
Y-186646D01*
X214400Y-338900D02*
X214769D01*
X215579Y-339710D01*
X220760D01*
X215839Y-341640D02*
X220602D01*
X213921Y-343557D02*
X215839Y-341640D01*
X191309Y-232709D02*
X220799D01*
X213900Y-330500D02*
X217204Y-333804D01*
X213900Y-330500D02*
Y-328500D01*
X217204Y-333804D02*
X220760D01*
X31400Y-243000D02*
X39223Y-235177D01*
X219881Y-225400D02*
X221784Y-227303D01*
X224905D01*
X224933Y-227331D01*
Y-228575D02*
Y-227331D01*
X217200Y-225400D02*
X219881D01*
X213100Y-289600D02*
X213469D01*
X213859Y-289210D01*
X220760D01*
X216504Y-283304D02*
X220760D01*
X208800Y-280900D02*
X213173Y-285273D01*
X220760D01*
X51191Y-224000D02*
X53315Y-226124D01*
X49700Y-224000D02*
X51191D01*
X47800Y-225900D02*
X49700Y-224000D01*
X53315Y-229075D02*
Y-226124D01*
X211023Y-234677D02*
X220799D01*
X47740Y-231240D02*
X49181D01*
X43116Y-226616D02*
X47740Y-231240D01*
X40269Y-226616D02*
X43116D01*
X185600Y-227000D02*
X191309Y-232709D01*
X68600Y-227000D02*
X185600D01*
X36700Y-233209D02*
X49181D01*
X35482D02*
X36700D01*
X59014Y-217414D02*
X68600Y-227000D01*
X41286Y-217414D02*
X59014D01*
X36700Y-222000D02*
X41286Y-217414D01*
X36700Y-233209D02*
Y-222000D01*
X45100Y-288600D02*
X45469D01*
X37361Y-340100D02*
X49167D01*
X49181Y-340114D01*
X45469Y-288600D02*
X46455Y-289587D01*
X49154D01*
X49181Y-289614D01*
X46040Y-332240D02*
X49181D01*
X44800Y-331000D02*
X46040Y-332240D01*
X44800Y-331000D02*
Y-329000D01*
X39400Y-331800D02*
X41809Y-334209D01*
X49181D01*
X40693Y-336177D02*
X49181D01*
X36517Y-332001D02*
X40693Y-336177D01*
X36517Y-332001D02*
Y-292400D01*
X36989D02*
X43712Y-285677D01*
X36517Y-292400D02*
X36989D01*
X40761Y-284239D02*
X41291Y-283709D01*
X49181D01*
X39361Y-284239D02*
X40761D01*
X39100Y-284500D02*
X39361Y-284239D01*
X22110Y-295890D02*
X36260Y-281740D01*
X43712Y-285677D02*
X49181D01*
X17178Y-295890D02*
X22110D01*
X36260Y-281740D02*
X49181D01*
X89063Y-257000D02*
Y-256114D01*
X67403Y-251400D02*
X68803Y-250000D01*
X45703Y-251400D02*
X67403D01*
X42000Y-247697D02*
X45703Y-251400D01*
X42000Y-243303D02*
X44221Y-241083D01*
X42000Y-247697D02*
Y-243303D01*
X26100Y-242590D02*
X35482Y-233209D01*
X5000Y-283712D02*
Y-259200D01*
Y-283712D02*
X17178Y-295890D01*
Y-285890D02*
X36200Y-266867D01*
Y-246982D01*
X44068Y-239114D01*
X49181D01*
X39223Y-235177D02*
X49181D01*
X31400Y-261667D02*
Y-243000D01*
X17178Y-275890D02*
X31400Y-261667D01*
X26100Y-256967D02*
Y-242590D01*
X17178Y-265890D02*
X26100Y-256967D01*
X8800Y-241100D02*
Y-179916D01*
X9377Y-116923D02*
X11772D01*
X11799Y-116896D01*
X9190Y-245890D02*
X17178D01*
X9613Y-111486D02*
X10059D01*
X10555Y-110990D01*
X11799D01*
X17178Y-225890D02*
X18045D01*
X17178Y-215890D02*
X17221Y-215847D01*
X20350Y-212718D02*
Y-209850D01*
X17221Y-215847D02*
X20350Y-212718D01*
X15905Y-107700D02*
X15933Y-107728D01*
Y-108825D02*
Y-107728D01*
X4600Y-107700D02*
X15905D01*
X49154Y-83705D02*
X49181Y-83677D01*
X23280Y-110990D02*
X23307Y-110963D01*
X22035Y-110990D02*
X23280D01*
X24221Y-115423D02*
X28300Y-119502D01*
Y-125700D02*
Y-119502D01*
X23776Y-115423D02*
X24221D01*
X23280Y-114927D02*
X23776Y-115423D01*
X22035Y-114927D02*
X23280D01*
X47493Y-180768D02*
X49154D01*
X47461Y-180800D02*
X47493Y-180768D01*
X49154D02*
X49181Y-180740D01*
X17178Y-216757D02*
X17221Y-216714D01*
X50884Y-174900D02*
X53315Y-177331D01*
Y-178575D02*
Y-177331D01*
X44518Y-53917D02*
X78716D01*
X16078Y-82357D02*
X44518Y-53917D01*
X80087Y-52547D02*
Y-51661D01*
X78716Y-53917D02*
X80087Y-52547D01*
X112307Y-50516D02*
Y-38661D01*
Y-50516D02*
X114370Y-48453D01*
X112047Y-50776D02*
X112307Y-50516D01*
X114370Y-48453D02*
X114482D01*
X112047Y-51661D02*
Y-50776D01*
X114482Y-48453D02*
X116378Y-46557D01*
X121778Y-39557D02*
X122039Y-39818D01*
Y-41361D02*
Y-39818D01*
Y-41361D02*
X130953Y-50276D01*
Y-51161D02*
Y-50276D01*
X166617Y-32618D02*
X166878Y-32357D01*
X166617Y-33832D02*
Y-32618D01*
X163173Y-37276D02*
X166617Y-33832D01*
X163173Y-38161D02*
Y-37276D01*
X173868Y-50547D02*
X177319D01*
X171078Y-47757D02*
X173868Y-50547D01*
X171078Y-47757D02*
Y-22657D01*
X168178Y-19757D02*
X171078Y-22657D01*
X38678Y-19757D02*
X168178D01*
X16078Y-42357D02*
X38678Y-19757D01*
X16078Y-32357D02*
X32078Y-16357D01*
X209878D01*
X214978Y-21457D01*
Y-25897D02*
Y-21457D01*
X210910Y-29966D02*
X214978Y-25897D01*
X210910Y-35291D02*
Y-29966D01*
X209539Y-36661D02*
X210910Y-35291D01*
X217278Y-42735D02*
Y-15157D01*
X212478Y-10357D02*
X217278Y-15157D01*
X32878Y-10357D02*
X212478D01*
X217278Y-42735D02*
X221819Y-47276D01*
X20878Y-22357D02*
X32878Y-10357D01*
X252978Y-7457D02*
X262078Y-16557D01*
X20978Y-7457D02*
X252978D01*
X16078Y-12357D02*
X20978Y-7457D01*
X221819Y-48161D02*
Y-47276D01*
X16078Y-22357D02*
X20878D01*
X254635Y-35757D02*
X261492D01*
X262078Y-35171D01*
Y-16557D01*
X254039Y-35161D02*
X254635Y-35757D01*
X306324Y-357557D02*
Y-356671D01*
X231035Y-339671D02*
X288034D01*
X230838D02*
X231035D01*
X288034D02*
X293799Y-345436D01*
X230838Y-331797D02*
X341421D01*
X365811Y-355301D02*
X367181Y-356671D01*
X364925Y-355301D02*
X365811D01*
X341421Y-331797D02*
X355030Y-345406D01*
X230838Y-333766D02*
X328175D01*
X351967Y-357557D02*
Y-356671D01*
X350597Y-355301D02*
X351967Y-356671D01*
X349711Y-355301D02*
X350597D01*
X328175Y-333766D02*
X339772Y-345363D01*
X336753Y-357557D02*
Y-356671D01*
X230838Y-335734D02*
X315815D01*
X230838Y-337703D02*
X301684D01*
X321538Y-357557D02*
Y-356671D01*
X320168Y-355301D02*
X321538Y-356671D01*
X319282Y-355301D02*
X320168D01*
X304954D02*
X306324Y-356671D01*
X230838Y-341640D02*
X275192D01*
X291110Y-357557D02*
Y-356671D01*
X289740Y-355301D02*
X291110Y-356671D01*
X288854Y-355301D02*
X289740D01*
X260681Y-357557D02*
Y-356671D01*
X254567Y-350557D02*
X260681Y-356671D01*
X213921Y-348557D02*
X215921Y-350557D01*
X213921Y-348557D02*
Y-343557D01*
X215921Y-350557D02*
X240421D01*
X254567D01*
X275192Y-341640D02*
X278744Y-345191D01*
X281015Y-347463D02*
X288854Y-355301D01*
X303664D02*
X304954D01*
X315815Y-335734D02*
X325508Y-345427D01*
X329530Y-349449D02*
X336753Y-356671D01*
X301684Y-337703D02*
X309458Y-345477D01*
X311538Y-347557D02*
X319282Y-355301D01*
X367181Y-357557D02*
Y-356671D01*
X351967Y-358443D02*
Y-357557D01*
X359361Y-371557D02*
X359447Y-371471D01*
Y-357557D01*
X374561Y-371557D02*
Y-357657D01*
X374661Y-357557D01*
X344161Y-371557D02*
X344233Y-371486D01*
Y-357557D01*
X328861Y-371557D02*
X329018Y-371400D01*
Y-357557D01*
X313661Y-371557D02*
Y-357700D01*
X313804Y-357557D01*
X298461Y-371557D02*
Y-357686D01*
X298590Y-357557D01*
X283261Y-371557D02*
X283376Y-371443D01*
Y-357557D01*
X268161Y-371557D02*
Y-357557D01*
X235921Y-345557D02*
X252878D01*
X263895D02*
X273639Y-355301D01*
X232921Y-348557D02*
X235921Y-345557D01*
X274525Y-355301D02*
X275895Y-356671D01*
X273639Y-355301D02*
X274525D01*
X228921Y-348557D02*
X232921D01*
X226929Y-346565D02*
X228921Y-348557D01*
X275895Y-357557D02*
Y-356671D01*
X226902Y-343805D02*
X226929Y-343833D01*
Y-346565D02*
Y-343833D01*
X355030Y-345406D02*
X364925Y-355301D01*
X339772Y-345363D02*
X349711Y-355301D01*
X325508Y-345427D02*
X329530Y-349449D01*
X309458Y-345477D02*
X311538Y-347557D01*
X293799Y-345436D02*
X303664Y-355301D01*
X278744Y-345191D02*
X281015Y-347463D01*
X252878Y-345557D02*
X263895D01*
X306324Y-307057D02*
Y-306171D01*
X231035Y-289171D02*
X288034D01*
X230838D02*
X231035D01*
X288034D02*
X293799Y-294936D01*
X230838Y-281297D02*
X341421D01*
X365811Y-304801D02*
X367181Y-306171D01*
X364925Y-304801D02*
X365811D01*
X341421Y-281297D02*
X355030Y-294906D01*
X230838Y-283266D02*
X328175D01*
X351967Y-307057D02*
Y-306171D01*
X350597Y-304801D02*
X351967Y-306171D01*
X349711Y-304801D02*
X350597D01*
X328175Y-283266D02*
X339772Y-294863D01*
X336753Y-307057D02*
Y-306171D01*
X230838Y-285234D02*
X315815D01*
X230838Y-287203D02*
X301684D01*
X321538Y-307057D02*
Y-306171D01*
X320168Y-304801D02*
X321538Y-306171D01*
X319282Y-304801D02*
X320168D01*
X304954D02*
X306324Y-306171D01*
X230838Y-291140D02*
X275192D01*
X291110Y-307057D02*
Y-306171D01*
X289740Y-304801D02*
X291110Y-306171D01*
X288854Y-304801D02*
X289740D01*
X260681Y-307057D02*
Y-306171D01*
X254567Y-300057D02*
X260681Y-306171D01*
X213921Y-298057D02*
X215921Y-300057D01*
X213921Y-298057D02*
Y-293057D01*
X215839Y-291140D01*
X220602D01*
X215921Y-300057D02*
X240421D01*
X254567D01*
X275192Y-291140D02*
X278744Y-294691D01*
X281015Y-296963D02*
X288854Y-304801D01*
X303664D02*
X304954D01*
X315815Y-285234D02*
X325508Y-294927D01*
X329530Y-298949D02*
X336753Y-306171D01*
X301684Y-287203D02*
X309458Y-294977D01*
X311538Y-297057D02*
X319282Y-304801D01*
X367181Y-307057D02*
Y-306171D01*
X351967Y-307943D02*
Y-307057D01*
X359361Y-321057D02*
X359447Y-320971D01*
Y-307057D01*
X374561Y-321057D02*
Y-307157D01*
X374661Y-307057D01*
X344161Y-321057D02*
X344233Y-320986D01*
Y-307057D01*
X328861Y-321057D02*
X329018Y-320900D01*
Y-307057D01*
X313661Y-321057D02*
Y-307200D01*
X313804Y-307057D01*
X298461Y-321057D02*
Y-307186D01*
X298590Y-307057D01*
X283261Y-321057D02*
X283376Y-320943D01*
Y-307057D01*
X268161Y-321057D02*
Y-307057D01*
X235921Y-295057D02*
X252878D01*
X263895D02*
X273639Y-304801D01*
X232921Y-298057D02*
X235921Y-295057D01*
X274525Y-304801D02*
X275895Y-306171D01*
X273639Y-304801D02*
X274525D01*
X228921Y-298057D02*
X232921D01*
X226929Y-296065D02*
X228921Y-298057D01*
X275895Y-307057D02*
Y-306171D01*
X226902Y-293305D02*
X226929Y-293333D01*
Y-296065D02*
Y-293333D01*
X355030Y-294906D02*
X364925Y-304801D01*
X339772Y-294863D02*
X349711Y-304801D01*
X325508Y-294927D02*
X329530Y-298949D01*
X309458Y-294977D02*
X311538Y-297057D01*
X293799Y-294936D02*
X303664Y-304801D01*
X278744Y-294691D02*
X281015Y-296963D01*
X252878Y-295057D02*
X263895D01*
X252878Y-244557D02*
X263895D01*
X278744Y-244191D02*
X281015Y-246463D01*
X293799Y-244436D02*
X303664Y-254301D01*
X309458Y-244477D02*
X311538Y-246557D01*
X325508Y-244427D02*
X329530Y-248449D01*
X339772Y-244363D02*
X349711Y-254301D01*
X355030Y-244406D02*
X364925Y-254301D01*
X226929Y-245565D02*
Y-242833D01*
X226902Y-242805D02*
X226929Y-242833D01*
X275895Y-256557D02*
Y-255671D01*
X226929Y-245565D02*
X228921Y-247557D01*
X232921D01*
X273639Y-254301D02*
X274525D01*
X275895Y-255671D01*
X232921Y-247557D02*
X235921Y-244557D01*
X263895D02*
X273639Y-254301D01*
X235921Y-244557D02*
X252878D01*
X268161Y-270557D02*
Y-256557D01*
X283376Y-270443D02*
Y-256557D01*
X283261Y-270557D02*
X283376Y-270443D01*
X298461Y-256686D02*
X298590Y-256557D01*
X298461Y-270557D02*
Y-256686D01*
X313661Y-256700D02*
X313804Y-256557D01*
X313661Y-270557D02*
Y-256700D01*
X329018Y-270400D02*
Y-256557D01*
X328861Y-270557D02*
X329018Y-270400D01*
X344233Y-270486D02*
Y-256557D01*
X344161Y-270557D02*
X344233Y-270486D01*
X374561Y-256657D02*
X374661Y-256557D01*
X374561Y-270557D02*
Y-256657D01*
X359447Y-270471D02*
Y-256557D01*
X359361Y-270557D02*
X359447Y-270471D01*
X351967Y-257443D02*
Y-256557D01*
X367181D02*
Y-255671D01*
X311538Y-246557D02*
X319282Y-254301D01*
X301684Y-236703D02*
X309458Y-244477D01*
X329530Y-248449D02*
X336753Y-255671D01*
X315815Y-234734D02*
X325508Y-244427D01*
X303664Y-254301D02*
X304954D01*
X281015Y-246463D02*
X288854Y-254301D01*
X275192Y-240640D02*
X278744Y-244191D01*
X240421Y-249557D02*
X254567D01*
X215921D02*
X240421D01*
X215839Y-240640D02*
X220602D01*
X213921Y-242557D02*
X215839Y-240640D01*
X213921Y-247557D02*
Y-242557D01*
Y-247557D02*
X215921Y-249557D01*
X254567D02*
X260681Y-255671D01*
Y-256557D02*
Y-255671D01*
X288854Y-254301D02*
X289740D01*
X291110Y-255671D01*
Y-256557D02*
Y-255671D01*
X230838Y-240640D02*
X275192D01*
X304954Y-254301D02*
X306324Y-255671D01*
X319282Y-254301D02*
X320168D01*
X321538Y-255671D01*
Y-256557D02*
Y-255671D01*
X230838Y-236703D02*
X301684D01*
X230838Y-234734D02*
X315815D01*
X336753Y-256557D02*
Y-255671D01*
X328175Y-232766D02*
X339772Y-244363D01*
X349711Y-254301D02*
X350597D01*
X351967Y-255671D01*
Y-256557D02*
Y-255671D01*
X230838Y-232766D02*
X328175D01*
X341421Y-230797D02*
X355030Y-244406D01*
X364925Y-254301D02*
X365811D01*
X367181Y-255671D01*
X230838Y-230797D02*
X341421D01*
X288034Y-238671D02*
X293799Y-244436D01*
X230838Y-238671D02*
X231035D01*
X288034D01*
X306324Y-256557D02*
Y-255671D01*
X134706Y-358000D02*
Y-357114D01*
X59417Y-340114D02*
X116416D01*
X59220D02*
X59417D01*
X116416D02*
X132046Y-355744D01*
X59220Y-332240D02*
X169803D01*
X194193Y-355744D02*
X195563Y-357114D01*
X193307Y-355744D02*
X194193D01*
X169803Y-332240D02*
X193307Y-355744D01*
X59220Y-334209D02*
X156557D01*
X180349Y-358000D02*
Y-357114D01*
X178979Y-355744D02*
X180349Y-357114D01*
X178093Y-355744D02*
X178979D01*
X156557Y-334209D02*
X178093Y-355744D01*
X165134Y-358000D02*
Y-357114D01*
X59220Y-336177D02*
X144197D01*
X59220Y-338146D02*
X130066D01*
X149920Y-358000D02*
Y-357114D01*
X148550Y-355744D02*
X149920Y-357114D01*
X147664Y-355744D02*
X148550D01*
X133336D02*
X134706Y-357114D01*
X59220Y-342083D02*
X103574D01*
X119492Y-358000D02*
Y-357114D01*
X118122Y-355744D02*
X119492Y-357114D01*
X117236Y-355744D02*
X118122D01*
X89063Y-358000D02*
Y-357114D01*
X82949Y-351000D02*
X89063Y-357114D01*
X42303Y-349000D02*
X44303Y-351000D01*
X42303Y-349000D02*
Y-344000D01*
X44221Y-342083D01*
X48984D01*
X44303Y-351000D02*
X68803D01*
X82949D01*
X103574Y-342083D02*
X109397Y-347906D01*
X117236Y-355744D01*
X132046D02*
X133336D01*
X144197Y-336177D02*
X157912Y-349891D01*
X165134Y-357114D01*
X130066Y-338146D02*
X139920Y-348000D01*
X147664Y-355744D01*
X195563Y-358000D02*
Y-357114D01*
X180349Y-358886D02*
Y-358000D01*
X187743Y-372000D02*
X187829Y-371914D01*
Y-358000D01*
X202943Y-372000D02*
Y-358100D01*
X203043Y-358000D01*
X172543Y-372000D02*
X172615Y-371929D01*
Y-358000D01*
X157243Y-372000D02*
X157400Y-371843D01*
Y-358000D01*
X142043Y-372000D02*
Y-358143D01*
X142186Y-358000D01*
X126843Y-372000D02*
Y-358129D01*
X126972Y-358000D01*
X111643Y-372000D02*
X111758Y-371886D01*
Y-358000D01*
X96543Y-372000D02*
Y-358000D01*
X64303Y-346000D02*
X92277D01*
X102021Y-355744D01*
X61303Y-349000D02*
X64303Y-346000D01*
X102907Y-355744D02*
X104277Y-357114D01*
X102021Y-355744D02*
X102907D01*
X57303Y-349000D02*
X61303D01*
X55311Y-347008D02*
X57303Y-349000D01*
X104277Y-358000D02*
Y-357114D01*
X55283Y-344248D02*
X55311Y-344276D01*
Y-347008D02*
Y-344276D01*
X134706Y-307500D02*
Y-306614D01*
X194193Y-305244D02*
X195563Y-306614D01*
X193307Y-305244D02*
X194193D01*
X180349Y-307500D02*
Y-306614D01*
X178979Y-305244D02*
X180349Y-306614D01*
X178093Y-305244D02*
X178979D01*
X165134Y-307500D02*
Y-306614D01*
X149920Y-307500D02*
Y-306614D01*
X148550Y-305244D02*
X149920Y-306614D01*
X147664Y-305244D02*
X148550D01*
X133336D02*
X134706Y-306614D01*
X119492Y-307500D02*
Y-306614D01*
X118122Y-305244D02*
X119492Y-306614D01*
X117236Y-305244D02*
X118122D01*
X89063Y-307500D02*
Y-306614D01*
X82949Y-300500D02*
X89063Y-306614D01*
X42303Y-298500D02*
X44303Y-300500D01*
X42303Y-298500D02*
Y-293500D01*
X44221Y-291583D01*
X48984D01*
X44303Y-300500D02*
X68803D01*
X82949D01*
X109397Y-297406D02*
X117236Y-305244D01*
X132046D02*
X133336D01*
X157912Y-299392D02*
X165134Y-306614D01*
X139920Y-297500D02*
X147664Y-305244D01*
X195563Y-307500D02*
Y-306614D01*
X180349Y-308386D02*
Y-307500D01*
X172543Y-321500D02*
X172615Y-321428D01*
Y-307500D01*
X157243Y-321500D02*
X157400Y-321343D01*
Y-307500D01*
X142043Y-321500D02*
Y-307643D01*
X142186Y-307500D01*
X126843Y-321500D02*
Y-307629D01*
X126972Y-307500D01*
X111643Y-321500D02*
X111758Y-321386D01*
Y-307500D01*
X96543Y-321500D02*
Y-307500D01*
X64303Y-295500D02*
X92277D01*
X102021Y-305244D01*
X61303Y-298500D02*
X64303Y-295500D01*
X102907Y-305244D02*
X104277Y-306614D01*
X102021Y-305244D02*
X102907D01*
X57303Y-298500D02*
X61303D01*
X55311Y-296508D02*
X57303Y-298500D01*
X104277Y-307500D02*
Y-306614D01*
X55283Y-293748D02*
X55311Y-293776D01*
Y-296508D02*
Y-293776D01*
X134706Y-257000D02*
Y-256114D01*
X59417Y-239114D02*
X116416D01*
X59220D02*
X59417D01*
X116416D02*
X132046Y-254744D01*
X59220Y-231240D02*
X169803D01*
X194193Y-254744D02*
X195563Y-256114D01*
X193307Y-254744D02*
X194193D01*
X169803Y-231240D02*
X193307Y-254744D01*
X59220Y-233209D02*
X156557D01*
X180349Y-257000D02*
Y-256114D01*
X178979Y-254744D02*
X180349Y-256114D01*
X178093Y-254744D02*
X178979D01*
X156557Y-233209D02*
X178093Y-254744D01*
X165134Y-257000D02*
Y-256114D01*
X59220Y-235177D02*
X144197D01*
X59220Y-237146D02*
X130066D01*
X149920Y-257000D02*
Y-256114D01*
X148550Y-254744D02*
X149920Y-256114D01*
X147664Y-254744D02*
X148550D01*
X133336D02*
X134706Y-256114D01*
X59220Y-241083D02*
X103574D01*
X119492Y-257000D02*
Y-256114D01*
X118122Y-254744D02*
X119492Y-256114D01*
X117236Y-254744D02*
X118122D01*
X82949Y-250000D02*
X89063Y-256114D01*
X44221Y-241083D02*
X48984D01*
X68803Y-250000D02*
X82949D01*
X103574Y-241083D02*
X109397Y-246906D01*
X117236Y-254744D01*
X132046D02*
X133336D01*
X144197Y-235177D02*
X157912Y-248891D01*
X165134Y-256114D01*
X130066Y-237146D02*
X139920Y-247000D01*
X147664Y-254744D01*
X195563Y-257000D02*
Y-256114D01*
X180349Y-257886D02*
Y-257000D01*
X187743Y-271000D02*
X187829Y-270914D01*
Y-257000D01*
X202943Y-271000D02*
Y-257100D01*
X203043Y-257000D01*
X172543Y-271000D02*
X172615Y-270929D01*
Y-257000D01*
X157243Y-271000D02*
X157400Y-270843D01*
Y-257000D01*
X142043Y-271000D02*
Y-257143D01*
X142186Y-257000D01*
X126843Y-271000D02*
Y-257129D01*
X126972Y-257000D01*
X111643Y-271000D02*
X111758Y-270886D01*
Y-257000D01*
X96543Y-271000D02*
Y-257000D01*
X64303Y-245000D02*
X92277D01*
X102021Y-254744D01*
X61303Y-248000D02*
X64303Y-245000D01*
X102907Y-254744D02*
X104277Y-256114D01*
X102021Y-254744D02*
X102907D01*
X57303Y-248000D02*
X61303D01*
X55311Y-246008D02*
X57303Y-248000D01*
X104277Y-257000D02*
Y-256114D01*
X55283Y-243248D02*
X55311Y-243276D01*
Y-246008D02*
Y-243276D01*
X92474Y-93500D02*
X102218Y-103244D01*
X64500Y-93500D02*
X92474D01*
X55311Y-145008D02*
X57303Y-147000D01*
X55311Y-145008D02*
Y-142276D01*
X55283Y-142248D02*
X55311Y-142276D01*
X104277Y-156000D02*
Y-155114D01*
X55311Y-195508D02*
Y-192776D01*
X55283Y-192748D02*
X55311Y-192776D01*
X104277Y-206500D02*
Y-205614D01*
X55311Y-195508D02*
X57303Y-197500D01*
X61303D01*
X102021Y-204244D02*
X102907D01*
X104277Y-205614D01*
X61303Y-197500D02*
X64303Y-194500D01*
X92277D02*
X102021Y-204244D01*
X64303Y-194500D02*
X92277D01*
X81260Y-144000D02*
X92277D01*
X64303D02*
X81260D01*
X92277D02*
X102021Y-153744D01*
X61303Y-147000D02*
X64303Y-144000D01*
X96543Y-220500D02*
Y-206500D01*
X111758Y-220386D02*
Y-206500D01*
X111643Y-220500D02*
X111758Y-220386D01*
X126843Y-206629D02*
X126972Y-206500D01*
X126843Y-220500D02*
Y-206629D01*
X142043Y-206643D02*
X142186Y-206500D01*
X142043Y-220500D02*
Y-206643D01*
X157400Y-220343D02*
Y-206500D01*
X157243Y-220500D02*
X157400Y-220343D01*
X172615Y-220428D02*
Y-206500D01*
X172543Y-220500D02*
X172615Y-220428D01*
X202943Y-206600D02*
X203043Y-206500D01*
X202943Y-220500D02*
Y-206600D01*
X187829Y-220414D02*
Y-206500D01*
X187743Y-220500D02*
X187829Y-220414D01*
X180349Y-207386D02*
Y-206500D01*
X195563D02*
Y-205614D01*
X139920Y-196500D02*
X147664Y-204244D01*
X130066Y-186646D02*
X139920Y-196500D01*
X157912Y-198391D02*
X165134Y-205614D01*
X144197Y-184677D02*
X157912Y-198391D01*
X132046Y-204244D02*
X133336D01*
X109397Y-196406D02*
X117236Y-204244D01*
X103574Y-190583D02*
X109397Y-196406D01*
X68803Y-199500D02*
X82949D01*
X89063Y-205614D01*
X117236Y-204244D02*
X118122D01*
X119492Y-205614D01*
Y-206500D02*
Y-205614D01*
X59220Y-190583D02*
X103574D01*
X133336Y-204244D02*
X134706Y-205614D01*
X147664Y-204244D02*
X148550D01*
X149920Y-205614D01*
Y-206500D02*
Y-205614D01*
X59220Y-186646D02*
X130066D01*
X59220Y-184677D02*
X144197D01*
X165134Y-206500D02*
Y-205614D01*
X156557Y-182709D02*
X178093Y-204244D01*
X178979D01*
X180349Y-205614D01*
Y-206500D02*
Y-205614D01*
X59220Y-182709D02*
X156557D01*
X169803Y-180740D02*
X193307Y-204244D01*
X194193D01*
X195563Y-205614D01*
X59220Y-180740D02*
X169803D01*
X116416Y-188614D02*
X132046Y-204244D01*
X59220Y-188614D02*
X59417D01*
X116416D01*
X134706Y-206500D02*
Y-205614D01*
Y-156000D02*
Y-155114D01*
X59417Y-138114D02*
X116416D01*
X59220D02*
X59417D01*
X116416D02*
X132046Y-153744D01*
X59220Y-130240D02*
X169803D01*
X194193Y-153744D02*
X195563Y-155114D01*
X193307Y-153744D02*
X194193D01*
X169803Y-130240D02*
X193307Y-153744D01*
X59220Y-132209D02*
X156557D01*
X180349Y-156000D02*
Y-155114D01*
X178979Y-153744D02*
X180349Y-155114D01*
X178093Y-153744D02*
X178979D01*
X156557Y-132209D02*
X178093Y-153744D01*
X165134Y-156000D02*
Y-155114D01*
X59220Y-134177D02*
X144197D01*
X59220Y-136146D02*
X130066D01*
X149920Y-156000D02*
Y-155114D01*
X148550Y-153744D02*
X149920Y-155114D01*
X147664Y-153744D02*
X148550D01*
X133336D02*
X134706Y-155114D01*
X59220Y-140083D02*
X103574D01*
X119492Y-156000D02*
Y-155114D01*
X118122Y-153744D02*
X119492Y-155114D01*
X117236Y-153744D02*
X118122D01*
X102907D02*
X104277Y-155114D01*
X102021Y-153744D02*
X102907D01*
X82949Y-149000D02*
X89063Y-155114D01*
X57303Y-147000D02*
X61303D01*
X68803Y-149000D02*
X82949D01*
X103574Y-140083D02*
X109397Y-145906D01*
X117236Y-153744D01*
X132046D02*
X133336D01*
X144197Y-134177D02*
X157912Y-147891D01*
X165134Y-155114D01*
X130066Y-136146D02*
X139920Y-146000D01*
X147664Y-153744D01*
X195563Y-156000D02*
Y-155114D01*
X180349Y-156886D02*
Y-156000D01*
X187743Y-170000D02*
X187829Y-169914D01*
Y-156000D01*
X202943Y-170000D02*
Y-156100D01*
X203043Y-156000D01*
X172543Y-170000D02*
X172615Y-169929D01*
Y-156000D01*
X157243Y-170000D02*
X157400Y-169843D01*
Y-156000D01*
X142043Y-170000D02*
Y-156143D01*
X142186Y-156000D01*
X126843Y-170000D02*
Y-156129D01*
X126972Y-156000D01*
X111643Y-170000D02*
X111758Y-169886D01*
Y-156000D01*
X96543Y-170000D02*
Y-156000D01*
X84500Y-63323D02*
Y-56961D01*
X80087Y-52547D02*
X84500Y-56961D01*
X107634Y-63323D02*
Y-56961D01*
X112047Y-52547D01*
Y-51661D01*
X135366Y-62823D02*
Y-56461D01*
X130953Y-52047D02*
X135366Y-56461D01*
X130953Y-52047D02*
Y-51161D01*
X160904Y-57427D02*
X162913Y-55417D01*
X160904Y-62437D02*
Y-57427D01*
X160518Y-62823D02*
X160904Y-62437D01*
X158500Y-62823D02*
X160518D01*
X162913Y-55417D02*
Y-51161D01*
X181732Y-61323D02*
Y-54961D01*
X177319Y-50547D02*
X181732Y-54961D01*
X177319Y-50547D02*
Y-49661D01*
X204866Y-61323D02*
Y-54961D01*
X209280Y-50547D01*
Y-49661D01*
X249366Y-59823D02*
Y-53461D01*
X253780Y-49047D01*
Y-48161D01*
X226232Y-59823D02*
Y-53461D01*
X221819Y-49047D02*
X226232Y-53461D01*
X221819Y-49047D02*
Y-48161D01*
X229299D02*
X246299D01*
X221719Y-35061D02*
X221819Y-35161D01*
X221719Y-35061D02*
Y-21661D01*
X246559Y-35161D02*
Y-21661D01*
X254039Y-47902D02*
Y-35161D01*
X253780Y-48161D02*
X254039Y-47902D01*
X221819Y-47276D02*
X229299Y-39795D01*
Y-35161D01*
X202059Y-36661D02*
Y-23161D01*
X184799Y-49661D02*
X201799D01*
X209280Y-36921D02*
X209539Y-36661D01*
X209280Y-49661D02*
Y-36921D01*
X177319Y-49661D02*
Y-45028D01*
X184799Y-37547D01*
Y-36661D01*
X177219Y-23161D02*
X177319Y-23261D01*
Y-36661D02*
Y-23261D01*
X130853Y-24661D02*
X130953Y-24761D01*
Y-38161D02*
Y-24761D01*
X155693Y-38161D02*
Y-24661D01*
X138433Y-51161D02*
X155433D01*
X163173Y-50902D02*
Y-38161D01*
X162913Y-51161D02*
X163173Y-50902D01*
X130953Y-50276D02*
X138433Y-42795D01*
Y-38161D01*
X104827Y-38661D02*
Y-25161D01*
X87567Y-51661D02*
X104567D01*
X79987Y-25161D02*
X80087Y-25261D01*
Y-38661D02*
Y-25261D01*
Y-51661D02*
Y-47028D01*
X87567Y-39547D01*
Y-38661D01*
X96740Y-119500D02*
Y-105500D01*
X111954Y-119386D02*
Y-105500D01*
X111840Y-119500D02*
X111954Y-119386D01*
X127040Y-105629D02*
X127169Y-105500D01*
X127040Y-119500D02*
Y-105629D01*
X142240Y-105643D02*
X142383Y-105500D01*
X142240Y-119500D02*
Y-105643D01*
X157597Y-119343D02*
Y-105500D01*
X157440Y-119500D02*
X157597Y-119343D01*
X172812Y-119429D02*
Y-105500D01*
X172740Y-119500D02*
X172812Y-119429D01*
X203140Y-105600D02*
X203240Y-105500D01*
X203140Y-119500D02*
Y-105600D01*
X188026Y-119414D02*
Y-105500D01*
X187940Y-119500D02*
X188026Y-119414D01*
X176000Y-111500D02*
X176261Y-111239D01*
Y-110671D01*
X180545Y-106386D01*
Y-105500D01*
X255750Y-67750D02*
X256000Y-68000D01*
X249616Y-67750D02*
X255750D01*
X249366Y-67500D02*
X249616Y-67750D01*
X195760Y-104614D02*
Y-101244D01*
Y-105500D02*
Y-104614D01*
Y-101244D02*
X223829Y-73175D01*
Y-67886D01*
X224215Y-67500D01*
X226232D01*
X140117Y-95500D02*
X147861Y-103244D01*
X130263Y-85646D02*
X140117Y-95500D01*
X144000D01*
X204866Y-69000D02*
X212000D01*
X173500D02*
X181732D01*
X158108Y-97391D02*
X165331Y-104614D01*
X144394Y-83677D02*
X158108Y-97391D01*
Y-96900D01*
X160000Y-95009D01*
Y-95000D01*
X132243Y-103244D02*
X133533D01*
X130953D02*
X132243D01*
X131000Y-102001D02*
X132243Y-103244D01*
X131000Y-102001D02*
Y-99000D01*
X128000Y-72000D02*
X128369D01*
X129869Y-70500D01*
X135366D01*
X109594Y-95406D02*
X117432Y-103244D01*
X103771Y-89583D02*
X109594Y-95406D01*
X164000Y-70500D02*
X166000Y-72500D01*
X158500Y-70500D02*
X164000D01*
X109594Y-95406D02*
X110094D01*
X113000Y-92500D01*
X72562Y-98500D02*
X83146D01*
X113750Y-71250D02*
X114000Y-71500D01*
X107884Y-71250D02*
X113750D01*
X107634Y-71000D02*
X107884Y-71250D01*
X75000Y-71000D02*
X84500D01*
X57500Y-96500D02*
X61500D01*
X64500Y-93500D01*
X83146Y-98500D02*
X89260Y-104614D01*
Y-105500D02*
Y-104614D01*
X55311Y-94311D02*
Y-91776D01*
X55283Y-91748D02*
X55311Y-91776D01*
Y-94311D02*
X57500Y-96500D01*
X102218Y-103244D02*
X103104D01*
X104474Y-104614D01*
Y-105500D02*
Y-104614D01*
X117432Y-103244D02*
X118318D01*
X119688Y-104614D01*
Y-105500D02*
Y-104614D01*
X59417Y-89583D02*
X103771D01*
X59417Y-87614D02*
X115323D01*
X130953Y-103244D01*
X133533D02*
X134903Y-104614D01*
Y-105500D02*
Y-104614D01*
X147861Y-103244D02*
X148747D01*
X150117Y-104614D01*
Y-105500D02*
Y-104614D01*
X59417Y-85646D02*
X130263D01*
X59417Y-83677D02*
X144394D01*
X165331Y-105500D02*
Y-104614D01*
X156754Y-81709D02*
X178290Y-103244D01*
X179175D01*
X180545Y-104614D01*
Y-105500D02*
Y-104614D01*
X59417Y-81709D02*
X156754D01*
X170000Y-79740D02*
X193504Y-103244D01*
X194390D01*
X195760Y-104614D01*
X59417Y-79740D02*
X170000D01*
D30*
X17178Y-195890D02*
D03*
X16078Y-12357D02*
D03*
D31*
X17178Y-205890D02*
D03*
Y-215890D02*
D03*
Y-225890D02*
D03*
Y-235890D02*
D03*
Y-245890D02*
D03*
Y-255890D02*
D03*
Y-265890D02*
D03*
Y-275890D02*
D03*
Y-285890D02*
D03*
Y-295890D02*
D03*
Y-305890D02*
D03*
X16078Y-82357D02*
D03*
Y-72357D02*
D03*
Y-62357D02*
D03*
Y-52357D02*
D03*
Y-42357D02*
D03*
Y-32357D02*
D03*
Y-22357D02*
D03*
D32*
X39900Y-201600D02*
D03*
X47700Y-195100D02*
D03*
X46400Y-106900D02*
D03*
X52100Y-96600D02*
D03*
X11800Y-131400D02*
D03*
X12500Y-124600D02*
D03*
X47000Y-149900D02*
D03*
X51300Y-145000D02*
D03*
X29500Y-116600D02*
D03*
X170900Y-278500D02*
D03*
X49200Y-272700D02*
D03*
X220800Y-270600D02*
D03*
X213800Y-228500D02*
D03*
X10200Y-173600D02*
D03*
X33500Y-189800D02*
D03*
X8700Y-123900D02*
D03*
X27100Y-114300D02*
D03*
X30200Y-110500D02*
D03*
X41200Y-107800D02*
D03*
X43800Y-135100D02*
D03*
X40400Y-142800D02*
D03*
X36586Y-144600D02*
D03*
X43700Y-146000D02*
D03*
X211100Y-313100D02*
D03*
X210900Y-278100D02*
D03*
X214200Y-281000D02*
D03*
X222300Y-246600D02*
D03*
X222700Y-296900D02*
D03*
X219800Y-347200D02*
D03*
X48600Y-346500D02*
D03*
X51900Y-297500D02*
D03*
X51400Y-248100D02*
D03*
X39200Y-194400D02*
D03*
X60100Y-175100D02*
D03*
X256800Y-60300D02*
D03*
X219400Y-60000D02*
D03*
X212500Y-61900D02*
D03*
X174700Y-62500D02*
D03*
X166100Y-63000D02*
D03*
X127400Y-64000D02*
D03*
X114500Y-65700D02*
D03*
X75600Y-64300D02*
D03*
X62000Y-73900D02*
D03*
X42500Y-92000D02*
D03*
X61100Y-123700D02*
D03*
X47900Y-95500D02*
D03*
X46900Y-123600D02*
D03*
X34800Y-113300D02*
D03*
X29400Y-100800D02*
D03*
X38500Y-83300D02*
D03*
X37400Y-79500D02*
D03*
X34400Y-138900D02*
D03*
X49500Y-69700D02*
D03*
X33900Y-101200D02*
D03*
X34500Y-186000D02*
D03*
X34600Y-195800D02*
D03*
X40200Y-178300D02*
D03*
X212900Y-238400D02*
D03*
X204600Y-241100D02*
D03*
X199600Y-246100D02*
D03*
X52800Y-314700D02*
D03*
X220500Y-275900D02*
D03*
X214400Y-338900D02*
D03*
X213900Y-328500D02*
D03*
X217200Y-225400D02*
D03*
X213100Y-289600D02*
D03*
X197600Y-232500D02*
D03*
X47800Y-225900D02*
D03*
X208800Y-236900D02*
D03*
X36300Y-237700D02*
D03*
X40269Y-226616D02*
D03*
X45100Y-288600D02*
D03*
X37361Y-340100D02*
D03*
X44800Y-329000D02*
D03*
X39400Y-331800D02*
D03*
X36517Y-292400D02*
D03*
X39100Y-284500D02*
D03*
X5000Y-259200D02*
D03*
X8800Y-241100D02*
D03*
X4600Y-107700D02*
D03*
X28300Y-125700D02*
D03*
X116378Y-46557D02*
D03*
X121778Y-39557D02*
D03*
X166878Y-32357D02*
D03*
X240421Y-350557D02*
D03*
X252878Y-345557D02*
D03*
X325378D02*
D03*
X278378D02*
D03*
X293678D02*
D03*
X339578D02*
D03*
X354878D02*
D03*
X309378D02*
D03*
X240421Y-300057D02*
D03*
X252878Y-295057D02*
D03*
X325378D02*
D03*
X278378D02*
D03*
X293678D02*
D03*
X339578D02*
D03*
X354878D02*
D03*
X309378D02*
D03*
Y-244557D02*
D03*
X354878D02*
D03*
X339578D02*
D03*
X293678D02*
D03*
X278378D02*
D03*
X325378D02*
D03*
X252878D02*
D03*
X240421Y-249557D02*
D03*
X68803Y-351000D02*
D03*
X81260Y-346000D02*
D03*
X153760D02*
D03*
X106760D02*
D03*
X122060D02*
D03*
X167960D02*
D03*
X183260D02*
D03*
X137760D02*
D03*
X68803Y-300500D02*
D03*
X81260Y-295500D02*
D03*
X153760D02*
D03*
X106760D02*
D03*
X122060D02*
D03*
X167960D02*
D03*
X183260D02*
D03*
X137760D02*
D03*
X68803Y-250000D02*
D03*
X81260Y-245000D02*
D03*
X153760D02*
D03*
X106760D02*
D03*
X122060D02*
D03*
X167960D02*
D03*
X183260D02*
D03*
X137760D02*
D03*
X179760Y-89500D02*
D03*
X137760Y-194500D02*
D03*
X183260D02*
D03*
X167960D02*
D03*
X122060D02*
D03*
X106760D02*
D03*
X153760D02*
D03*
Y-144000D02*
D03*
X80760Y-93500D02*
D03*
X81260Y-194500D02*
D03*
X68803Y-199500D02*
D03*
Y-149000D02*
D03*
X81260Y-144000D02*
D03*
X106760D02*
D03*
X122060D02*
D03*
X137360D02*
D03*
X167960D02*
D03*
X183260D02*
D03*
X176000Y-111500D02*
D03*
X256000Y-68000D02*
D03*
X144000Y-95500D02*
D03*
X212000Y-69000D02*
D03*
X173500D02*
D03*
X160000Y-95000D02*
D03*
X131000Y-99000D02*
D03*
X128000Y-72000D02*
D03*
X166000Y-72500D02*
D03*
X113000Y-92500D02*
D03*
X114000Y-71500D02*
D03*
X72000Y-101500D02*
D03*
X75000Y-71000D02*
D03*
X64500Y-93500D02*
D03*
M02*
