M48
;Layer_Color=9474304
;FILE_FORMAT=2:5
INCH,TZ
;TYPE=PLATED
T1F00S00C0.01181
T2F00S00C0.03543
%
T01
X48600Y-346500
X68803Y-351000
X81260Y-346000
X106760
X122060
X137760
X153760
X167960
X183260
X219800Y-347200
X240421Y-350557
X252878Y-345557
X278378
X293678
X309378
X325378
X339578
X354878
Y-295057
Y-244557
X339578
X325378
X309378
X293678
X278378
X252878
X240421Y-249557
X222300Y-246600
X212900Y-238400
X208800Y-236900
X204600Y-241100
X199600Y-246100
X197600Y-232500
X213800Y-228500
X217200Y-225400
X220800Y-270600
X220500Y-275900
X214200Y-281000
X210900Y-278100
X213100Y-289600
X222700Y-296900
X240421Y-300057
X252878Y-295057
X278378
X293678
X309378
X325378
X339578
X211100Y-313100
X213900Y-328500
X214400Y-338900
X183260Y-295500
X167960
X153760
X137760
X122060
X106760
X81260
X68803Y-300500
X51900Y-297500
X45100Y-288600
X49200Y-272700
X51400Y-248100
X68803Y-250000
X81260Y-245000
X106760
X122060
X137760
X153760
X167960
X183260
X170900Y-278500
X167960Y-194500
X153760
X137760
X122060
X106760
X81260
X68803Y-199500
X47700Y-195100
X39900Y-201600
X40269Y-226616
X47800Y-225900
X52800Y-314700
X44800Y-329000
X183260Y-194500
X39200Y-194400
X34600Y-195800
X33500Y-189800
X36300Y-237700
X8800Y-241100
X5000Y-259200
X39100Y-284500
X36517Y-292400
X39400Y-331800
X37361Y-340100
X34500Y-186000
X10200Y-173600
X11800Y-131400
X12500Y-124600
X8700Y-123900
X4600Y-107700
X30200Y-110500
X29500Y-116600
X27100Y-114300
X34800Y-113300
X33900Y-101200
X29400Y-100800
X28300Y-125700
X34400Y-138900
X36586Y-144600
X38500Y-83300
X37400Y-79500
X42500Y-92000
X47900Y-95500
X52100Y-96600
X64500Y-93500
X72000Y-101500
X80760Y-93500
X75000Y-71000
X75600Y-64300
X62000Y-73900
X49500Y-69700
X46400Y-106900
X41200Y-107800
X46900Y-123600
X61100Y-123700
X43800Y-135100
X43700Y-146000
X40400Y-142800
X51300Y-145000
X47000Y-149900
X68803Y-149000
X81260Y-144000
X106760
X122060
X137360
X153760
X167960
X183260
X176000Y-111500
X179760Y-89500
X160000Y-95000
X144000Y-95500
X131000Y-99000
X113000Y-92500
X114000Y-71500
X114500Y-65700
X127400Y-64000
X128000Y-72000
X116378Y-46557
X121778Y-39557
X166878Y-32357
X166100Y-63000
X174700Y-62500
X173500Y-69000
X166000Y-72500
X60100Y-175100
X40200Y-178300
X212000Y-69000
X212500Y-61900
X219400Y-60000
X256800Y-60300
X256000Y-68000
T02
X17178Y-305890
Y-295890
Y-285890
Y-275890
Y-265890
Y-255890
Y-245890
Y-235890
Y-225890
Y-215890
Y-205890
Y-195890
X16078Y-82357
Y-72357
Y-62357
Y-52357
Y-42357
Y-32357
Y-22357
Y-12357
M30
