G04*
G04 #@! TF.GenerationSoftware,Altium Limited,Altium Designer,19.1.8 (144)*
G04*
G04 Layer_Color=8388736*
%FSLAX25Y25*%
%MOIN*%
G70*
G01*
G75*
%ADD12R,0.04540X0.06312*%
%ADD13R,0.04343X0.06312*%
%ADD14R,0.07493X0.05131*%
%ADD15R,0.06607X0.02572*%
%ADD16R,0.04343X0.08280*%
%ADD17R,0.01745X0.04343*%
%ADD18R,0.04343X0.01745*%
%ADD19R,0.06706X0.06706*%
%ADD20C,0.06706*%
%ADD21C,0.03162*%
D12*
X96740Y-206500D02*
D03*
X89260D02*
D03*
X111954D02*
D03*
X104474D02*
D03*
X127169D02*
D03*
X119688D02*
D03*
X142383D02*
D03*
X134903D02*
D03*
X157597D02*
D03*
X150117D02*
D03*
X172812D02*
D03*
X165331D02*
D03*
X188026D02*
D03*
X180545D02*
D03*
X203240D02*
D03*
X195760D02*
D03*
X374858Y-357557D02*
D03*
X367378D02*
D03*
X359644D02*
D03*
X352164D02*
D03*
X344430D02*
D03*
X336949D02*
D03*
X329215D02*
D03*
X321735D02*
D03*
X314001D02*
D03*
X306521D02*
D03*
X298787D02*
D03*
X291306D02*
D03*
X283573D02*
D03*
X276092D02*
D03*
X268358D02*
D03*
X260878D02*
D03*
X374858Y-307057D02*
D03*
X367378D02*
D03*
X359644D02*
D03*
X352164D02*
D03*
X344430D02*
D03*
X336949D02*
D03*
X329215D02*
D03*
X321735D02*
D03*
X314001D02*
D03*
X306521D02*
D03*
X298787D02*
D03*
X291306D02*
D03*
X283573D02*
D03*
X276092D02*
D03*
X268358D02*
D03*
X260878D02*
D03*
X374858Y-256557D02*
D03*
X367378D02*
D03*
X359644D02*
D03*
X352164D02*
D03*
X344430D02*
D03*
X336949D02*
D03*
X329215D02*
D03*
X321735D02*
D03*
X314001D02*
D03*
X306521D02*
D03*
X298787D02*
D03*
X291306D02*
D03*
X283573D02*
D03*
X276092D02*
D03*
X268358D02*
D03*
X260878D02*
D03*
X203240Y-358000D02*
D03*
X195760D02*
D03*
X188026D02*
D03*
X180545D02*
D03*
X172812D02*
D03*
X165331D02*
D03*
X157597D02*
D03*
X150117D02*
D03*
X142383D02*
D03*
X134903D02*
D03*
X127169D02*
D03*
X119688D02*
D03*
X111954D02*
D03*
X104474D02*
D03*
X96740D02*
D03*
X89260D02*
D03*
X203240Y-307500D02*
D03*
X195760D02*
D03*
X188026D02*
D03*
X180545D02*
D03*
X172812D02*
D03*
X165331D02*
D03*
X157597D02*
D03*
X150117D02*
D03*
X142383D02*
D03*
X134903D02*
D03*
X127169D02*
D03*
X119688D02*
D03*
X111954D02*
D03*
X104474D02*
D03*
X96740D02*
D03*
X89260D02*
D03*
X203240Y-257000D02*
D03*
X195760D02*
D03*
X188026D02*
D03*
X180545D02*
D03*
X172812D02*
D03*
X165331D02*
D03*
X157597D02*
D03*
X150117D02*
D03*
X142383D02*
D03*
X134903D02*
D03*
X127169D02*
D03*
X119688D02*
D03*
X111954D02*
D03*
X104474D02*
D03*
X96740D02*
D03*
X89260D02*
D03*
X203240Y-156000D02*
D03*
X195760D02*
D03*
X188026D02*
D03*
X180545D02*
D03*
X172812D02*
D03*
X165331D02*
D03*
X157597D02*
D03*
X150117D02*
D03*
X142383D02*
D03*
X134903D02*
D03*
X127169D02*
D03*
X119688D02*
D03*
X111954D02*
D03*
X104474D02*
D03*
X96740D02*
D03*
X89260D02*
D03*
X96740Y-105500D02*
D03*
X89260D02*
D03*
X111954D02*
D03*
X104474D02*
D03*
X127169D02*
D03*
X119688D02*
D03*
X142383D02*
D03*
X134903D02*
D03*
X157597D02*
D03*
X150117D02*
D03*
X172812D02*
D03*
X165331D02*
D03*
X203240D02*
D03*
X195760D02*
D03*
X188026D02*
D03*
X180545D02*
D03*
X80087Y-38661D02*
D03*
X87567D02*
D03*
X104827D02*
D03*
X112307D02*
D03*
X80087Y-51661D02*
D03*
X87567D02*
D03*
X112047D02*
D03*
X104567D02*
D03*
X130953Y-38161D02*
D03*
X138433D02*
D03*
X155693D02*
D03*
X163173D02*
D03*
X130953Y-51161D02*
D03*
X138433D02*
D03*
X162913D02*
D03*
X155433D02*
D03*
X177319Y-36661D02*
D03*
X184799D02*
D03*
X202059D02*
D03*
X209539D02*
D03*
X177319Y-49661D02*
D03*
X184799D02*
D03*
X209280D02*
D03*
X201799D02*
D03*
X229299Y-35161D02*
D03*
X221819D02*
D03*
X254039D02*
D03*
X246559D02*
D03*
X229299Y-48161D02*
D03*
X221819D02*
D03*
X246299D02*
D03*
X253780D02*
D03*
D13*
X89260Y-220500D02*
D03*
X96740D02*
D03*
X104360D02*
D03*
X111840D02*
D03*
X119560D02*
D03*
X127040D02*
D03*
X134760D02*
D03*
X142240D02*
D03*
X149960D02*
D03*
X157440D02*
D03*
X165260D02*
D03*
X172740D02*
D03*
X180460D02*
D03*
X187940D02*
D03*
X195660D02*
D03*
X203140D02*
D03*
X367278Y-371557D02*
D03*
X374758D02*
D03*
X352078D02*
D03*
X359558D02*
D03*
X336878D02*
D03*
X344358D02*
D03*
X321578D02*
D03*
X329058D02*
D03*
X306378D02*
D03*
X313858D02*
D03*
X291178D02*
D03*
X298658D02*
D03*
X275978D02*
D03*
X283458D02*
D03*
X260878D02*
D03*
X268358D02*
D03*
X367278Y-321057D02*
D03*
X374758D02*
D03*
X352078D02*
D03*
X359558D02*
D03*
X336878D02*
D03*
X344358D02*
D03*
X321578D02*
D03*
X329058D02*
D03*
X306378D02*
D03*
X313858D02*
D03*
X291178D02*
D03*
X298658D02*
D03*
X275978D02*
D03*
X283458D02*
D03*
X260878D02*
D03*
X268358D02*
D03*
X367278Y-270557D02*
D03*
X374758D02*
D03*
X352078D02*
D03*
X359558D02*
D03*
X336878D02*
D03*
X344358D02*
D03*
X321578D02*
D03*
X329058D02*
D03*
X306378D02*
D03*
X313858D02*
D03*
X291178D02*
D03*
X298658D02*
D03*
X275978D02*
D03*
X283458D02*
D03*
X260878D02*
D03*
X268358D02*
D03*
X195660Y-372000D02*
D03*
X203140D02*
D03*
X180460D02*
D03*
X187940D02*
D03*
X165260D02*
D03*
X172740D02*
D03*
X149960D02*
D03*
X157440D02*
D03*
X134760D02*
D03*
X142240D02*
D03*
X119560D02*
D03*
X127040D02*
D03*
X104360D02*
D03*
X111840D02*
D03*
X89260D02*
D03*
X96740D02*
D03*
X195660Y-321500D02*
D03*
X203140D02*
D03*
X180460D02*
D03*
X187940D02*
D03*
X165260D02*
D03*
X172740D02*
D03*
X149960D02*
D03*
X157440D02*
D03*
X134760D02*
D03*
X142240D02*
D03*
X119560D02*
D03*
X127040D02*
D03*
X104360D02*
D03*
X111840D02*
D03*
X89260D02*
D03*
X96740D02*
D03*
X195660Y-271000D02*
D03*
X203140D02*
D03*
X180460D02*
D03*
X187940D02*
D03*
X165260D02*
D03*
X172740D02*
D03*
X149960D02*
D03*
X157440D02*
D03*
X134760D02*
D03*
X142240D02*
D03*
X119560D02*
D03*
X127040D02*
D03*
X104360D02*
D03*
X111840D02*
D03*
X89260D02*
D03*
X96740D02*
D03*
X195660Y-170000D02*
D03*
X203140D02*
D03*
X180460D02*
D03*
X187940D02*
D03*
X165260D02*
D03*
X172740D02*
D03*
X149960D02*
D03*
X157440D02*
D03*
X134760D02*
D03*
X142240D02*
D03*
X119560D02*
D03*
X127040D02*
D03*
X104360D02*
D03*
X111840D02*
D03*
X89260D02*
D03*
X96740D02*
D03*
X165260Y-119500D02*
D03*
X172740D02*
D03*
X149960D02*
D03*
X157440D02*
D03*
X134760D02*
D03*
X142240D02*
D03*
X119560D02*
D03*
X127040D02*
D03*
X104360D02*
D03*
X111840D02*
D03*
X89260D02*
D03*
X96740D02*
D03*
X195660D02*
D03*
X203140D02*
D03*
X180460D02*
D03*
X187940D02*
D03*
X87467Y-25161D02*
D03*
X79987D02*
D03*
X112307D02*
D03*
X104827D02*
D03*
X138333Y-24661D02*
D03*
X130853D02*
D03*
X163173D02*
D03*
X155693D02*
D03*
X184699Y-23161D02*
D03*
X177219D02*
D03*
X209539D02*
D03*
X202059D02*
D03*
X221719Y-21661D02*
D03*
X229199D02*
D03*
X246559D02*
D03*
X254039D02*
D03*
D14*
X96067Y-37261D02*
D03*
Y-52222D02*
D03*
X146933Y-36761D02*
D03*
Y-51722D02*
D03*
X193299Y-35261D02*
D03*
Y-50222D02*
D03*
X237799Y-48722D02*
D03*
Y-33761D02*
D03*
D15*
X107634Y-63323D02*
D03*
Y-65882D02*
D03*
Y-68441D02*
D03*
Y-71000D02*
D03*
X84500D02*
D03*
Y-68441D02*
D03*
Y-65882D02*
D03*
Y-63323D02*
D03*
X158500Y-62823D02*
D03*
Y-65382D02*
D03*
Y-67941D02*
D03*
Y-70500D02*
D03*
X135366D02*
D03*
Y-67941D02*
D03*
Y-65382D02*
D03*
Y-62823D02*
D03*
X204866Y-61323D02*
D03*
Y-63882D02*
D03*
Y-66441D02*
D03*
Y-69000D02*
D03*
X181732D02*
D03*
Y-66441D02*
D03*
Y-63882D02*
D03*
Y-61323D02*
D03*
X226232Y-59823D02*
D03*
Y-62382D02*
D03*
Y-64941D02*
D03*
Y-67500D02*
D03*
X249366D02*
D03*
Y-64941D02*
D03*
Y-62382D02*
D03*
Y-59823D02*
D03*
D16*
X225878Y-336757D02*
D03*
X54299Y-337161D02*
D03*
X225878Y-286257D02*
D03*
X54299Y-286661D02*
D03*
Y-236161D02*
D03*
X225917Y-235661D02*
D03*
X54299Y-185661D02*
D03*
Y-135161D02*
D03*
X16917Y-115911D02*
D03*
X54299Y-84661D02*
D03*
D17*
X224894Y-343844D02*
D03*
Y-329671D02*
D03*
X226862D02*
D03*
Y-343844D02*
D03*
X53315Y-344248D02*
D03*
Y-330075D02*
D03*
X55283D02*
D03*
Y-344248D02*
D03*
X224894Y-293344D02*
D03*
Y-279170D02*
D03*
X226862D02*
D03*
Y-293344D02*
D03*
X53315Y-293748D02*
D03*
Y-279575D02*
D03*
X55283D02*
D03*
Y-293748D02*
D03*
X53315Y-243248D02*
D03*
Y-229075D02*
D03*
X55283D02*
D03*
Y-243248D02*
D03*
X224933Y-242748D02*
D03*
Y-228575D02*
D03*
X226902D02*
D03*
Y-242748D02*
D03*
X55283Y-178575D02*
D03*
Y-192748D02*
D03*
X53315D02*
D03*
Y-178575D02*
D03*
X55283Y-128075D02*
D03*
Y-142248D02*
D03*
X53315D02*
D03*
Y-128075D02*
D03*
X17902Y-108825D02*
D03*
Y-122998D02*
D03*
X15933D02*
D03*
Y-108825D02*
D03*
X55283Y-77575D02*
D03*
Y-91748D02*
D03*
X53315D02*
D03*
Y-77575D02*
D03*
D18*
X220760Y-341678D02*
D03*
Y-339710D02*
D03*
Y-337741D02*
D03*
Y-335773D02*
D03*
Y-333804D02*
D03*
Y-331836D02*
D03*
X230996D02*
D03*
Y-333804D02*
D03*
Y-335773D02*
D03*
Y-337741D02*
D03*
Y-339710D02*
D03*
Y-341678D02*
D03*
X49181Y-342083D02*
D03*
Y-340114D02*
D03*
Y-338146D02*
D03*
Y-336177D02*
D03*
Y-334209D02*
D03*
Y-332240D02*
D03*
X59417D02*
D03*
Y-334209D02*
D03*
Y-336177D02*
D03*
Y-338146D02*
D03*
Y-340114D02*
D03*
Y-342083D02*
D03*
X220760Y-291178D02*
D03*
Y-289210D02*
D03*
Y-287241D02*
D03*
Y-285273D02*
D03*
Y-283304D02*
D03*
Y-281336D02*
D03*
X230996D02*
D03*
Y-283304D02*
D03*
Y-285273D02*
D03*
Y-287241D02*
D03*
Y-289210D02*
D03*
Y-291178D02*
D03*
X49181Y-291583D02*
D03*
Y-289614D02*
D03*
Y-287646D02*
D03*
Y-285677D02*
D03*
Y-283709D02*
D03*
Y-281740D02*
D03*
X59417D02*
D03*
Y-283709D02*
D03*
Y-285677D02*
D03*
Y-287646D02*
D03*
Y-289614D02*
D03*
Y-291583D02*
D03*
X49181Y-241083D02*
D03*
Y-239114D02*
D03*
Y-237146D02*
D03*
Y-235177D02*
D03*
Y-233209D02*
D03*
Y-231240D02*
D03*
X59417D02*
D03*
Y-233209D02*
D03*
Y-235177D02*
D03*
Y-237146D02*
D03*
Y-239114D02*
D03*
Y-241083D02*
D03*
X220799Y-240583D02*
D03*
Y-238614D02*
D03*
Y-236646D02*
D03*
Y-234677D02*
D03*
Y-232709D02*
D03*
Y-230740D02*
D03*
X231035D02*
D03*
Y-232709D02*
D03*
Y-234677D02*
D03*
Y-236646D02*
D03*
Y-238614D02*
D03*
Y-240583D02*
D03*
X59417Y-180740D02*
D03*
Y-182709D02*
D03*
Y-184677D02*
D03*
Y-186646D02*
D03*
Y-188614D02*
D03*
Y-190583D02*
D03*
X49181D02*
D03*
Y-188614D02*
D03*
Y-186646D02*
D03*
Y-184677D02*
D03*
Y-182709D02*
D03*
Y-180740D02*
D03*
X59417Y-130240D02*
D03*
Y-132209D02*
D03*
Y-134177D02*
D03*
Y-136146D02*
D03*
Y-138114D02*
D03*
Y-140083D02*
D03*
X49181D02*
D03*
Y-138114D02*
D03*
Y-136146D02*
D03*
Y-134177D02*
D03*
Y-132209D02*
D03*
Y-130240D02*
D03*
X22035Y-110990D02*
D03*
Y-112959D02*
D03*
Y-114927D02*
D03*
Y-116896D02*
D03*
Y-118864D02*
D03*
Y-120833D02*
D03*
X11799D02*
D03*
Y-118864D02*
D03*
Y-116896D02*
D03*
Y-114927D02*
D03*
Y-112959D02*
D03*
Y-110990D02*
D03*
X59417Y-79740D02*
D03*
Y-81709D02*
D03*
Y-83677D02*
D03*
Y-85646D02*
D03*
Y-87614D02*
D03*
Y-89583D02*
D03*
X49181D02*
D03*
Y-87614D02*
D03*
Y-85646D02*
D03*
Y-83677D02*
D03*
Y-81709D02*
D03*
Y-79740D02*
D03*
D19*
X17178Y-195890D02*
D03*
X16078Y-12357D02*
D03*
D20*
X17178Y-205890D02*
D03*
Y-215890D02*
D03*
Y-225890D02*
D03*
Y-235890D02*
D03*
Y-245890D02*
D03*
Y-255890D02*
D03*
Y-265890D02*
D03*
Y-275890D02*
D03*
Y-285890D02*
D03*
Y-295890D02*
D03*
Y-305890D02*
D03*
X16078Y-82357D02*
D03*
Y-72357D02*
D03*
Y-62357D02*
D03*
Y-52357D02*
D03*
Y-42357D02*
D03*
Y-32357D02*
D03*
Y-22357D02*
D03*
D21*
X49200Y-272700D02*
D03*
X40400Y-142800D02*
D03*
X36586Y-144600D02*
D03*
X43700Y-146000D02*
D03*
X214200Y-281000D02*
D03*
X222300Y-246600D02*
D03*
X222700Y-296900D02*
D03*
X219800Y-347200D02*
D03*
X48600Y-346500D02*
D03*
X51900Y-297500D02*
D03*
X51400Y-248100D02*
D03*
X39200Y-194400D02*
D03*
X60100Y-175100D02*
D03*
X256800Y-60300D02*
D03*
X219400Y-60000D02*
D03*
X212500Y-61900D02*
D03*
X174700Y-62500D02*
D03*
X166100Y-63000D02*
D03*
X127400Y-64000D02*
D03*
X114500Y-65700D02*
D03*
X75600Y-64300D02*
D03*
X62000Y-73900D02*
D03*
X42500Y-92000D02*
D03*
X61100Y-123700D02*
D03*
X47900Y-95500D02*
D03*
X46900Y-123600D02*
D03*
X34800Y-113300D02*
D03*
X29400Y-100800D02*
D03*
X38500Y-83300D02*
D03*
X37400Y-79500D02*
D03*
X34400Y-138900D02*
D03*
X49500Y-69700D02*
D03*
X33900Y-101200D02*
D03*
X34500Y-186000D02*
D03*
X34600Y-195800D02*
D03*
X40200Y-178300D02*
D03*
X212900Y-238400D02*
D03*
X204600Y-241100D02*
D03*
X199600Y-246100D02*
D03*
X52800Y-314700D02*
D03*
X220500Y-275900D02*
D03*
X214400Y-338900D02*
D03*
X213900Y-328500D02*
D03*
X217200Y-225400D02*
D03*
X213100Y-289600D02*
D03*
X197600Y-232500D02*
D03*
X47800Y-225900D02*
D03*
X208800Y-236900D02*
D03*
X36300Y-237700D02*
D03*
X40269Y-226616D02*
D03*
X45100Y-288600D02*
D03*
X37361Y-340100D02*
D03*
X44800Y-329000D02*
D03*
X39400Y-331800D02*
D03*
X36517Y-292400D02*
D03*
X39100Y-284500D02*
D03*
X5000Y-259200D02*
D03*
X8800Y-241100D02*
D03*
X4600Y-107700D02*
D03*
X28300Y-125700D02*
D03*
X116378Y-46557D02*
D03*
X121778Y-39557D02*
D03*
X166878Y-32357D02*
D03*
X240421Y-350557D02*
D03*
X252878Y-345557D02*
D03*
X325378D02*
D03*
X278378D02*
D03*
X293678D02*
D03*
X339578D02*
D03*
X354878D02*
D03*
X309378D02*
D03*
X240421Y-300057D02*
D03*
X252878Y-295057D02*
D03*
X325378D02*
D03*
X278378D02*
D03*
X293678D02*
D03*
X339578D02*
D03*
X354878D02*
D03*
X309378D02*
D03*
Y-244557D02*
D03*
X354878D02*
D03*
X339578D02*
D03*
X293678D02*
D03*
X278378D02*
D03*
X325378D02*
D03*
X252878D02*
D03*
X240421Y-249557D02*
D03*
X68803Y-351000D02*
D03*
X81260Y-346000D02*
D03*
X153760D02*
D03*
X106760D02*
D03*
X122060D02*
D03*
X167960D02*
D03*
X183260D02*
D03*
X137760D02*
D03*
X68803Y-300500D02*
D03*
X81260Y-295500D02*
D03*
X153760D02*
D03*
X106760D02*
D03*
X122060D02*
D03*
X167960D02*
D03*
X183260D02*
D03*
X137760D02*
D03*
X68803Y-250000D02*
D03*
X81260Y-245000D02*
D03*
X153760D02*
D03*
X106760D02*
D03*
X122060D02*
D03*
X167960D02*
D03*
X183260D02*
D03*
X137760D02*
D03*
X179760Y-89500D02*
D03*
X137760Y-194500D02*
D03*
X183260D02*
D03*
X167960D02*
D03*
X122060D02*
D03*
X106760D02*
D03*
X153760D02*
D03*
Y-144000D02*
D03*
X80760Y-93500D02*
D03*
X81260Y-194500D02*
D03*
X68803Y-199500D02*
D03*
Y-149000D02*
D03*
X81260Y-144000D02*
D03*
X106760D02*
D03*
X122060D02*
D03*
X137360D02*
D03*
X167960D02*
D03*
X183260D02*
D03*
X176000Y-111500D02*
D03*
X256000Y-68000D02*
D03*
X144000Y-95500D02*
D03*
X212000Y-69000D02*
D03*
X173500D02*
D03*
X160000Y-95000D02*
D03*
X131000Y-99000D02*
D03*
X128000Y-72000D02*
D03*
X166000Y-72500D02*
D03*
X113000Y-92500D02*
D03*
X114000Y-71500D02*
D03*
X72000Y-101500D02*
D03*
X75000Y-71000D02*
D03*
X64500Y-93500D02*
D03*
M02*
