G04*
G04 #@! TF.GenerationSoftware,Altium Limited,Altium Designer,19.1.8 (144)*
G04*
G04 Layer_Color=32768*
%FSLAX25Y25*%
%MOIN*%
G70*
G01*
G75*
%ADD33C,0.00394*%
%ADD34C,0.00200*%
G36*
X579476Y168194D02*
X579487Y168193D01*
X579498Y168192D01*
X579511Y168190D01*
X579526Y168188D01*
X579556Y168181D01*
X579571Y168176D01*
X579589Y168170D01*
X579604Y168163D01*
X579621Y168156D01*
X579636Y168146D01*
X579651Y168136D01*
X579653Y168135D01*
X579655Y168133D01*
X579660Y168130D01*
X579665Y168125D01*
X579670Y168119D01*
X579678Y168112D01*
X579686Y168103D01*
X579696Y168093D01*
X579705Y168082D01*
X579713Y168070D01*
X579722Y168056D01*
X579732Y168042D01*
X579740Y168026D01*
X579748Y168009D01*
X579756Y167990D01*
X579763Y167971D01*
X579663Y167947D01*
Y167948D01*
X579662Y167951D01*
X579660Y167955D01*
X579658Y167961D01*
X579655Y167968D01*
X579651Y167976D01*
X579642Y167994D01*
X579632Y168014D01*
X579619Y168034D01*
X579602Y168053D01*
X579594Y168061D01*
X579585Y168069D01*
X579584D01*
X579583Y168071D01*
X579579Y168073D01*
X579575Y168075D01*
X579570Y168078D01*
X579565Y168081D01*
X579550Y168089D01*
X579530Y168096D01*
X579508Y168102D01*
X579484Y168106D01*
X579456Y168108D01*
X579447D01*
X579440Y168107D01*
X579433D01*
X579424Y168106D01*
X579415Y168104D01*
X579403Y168103D01*
X579381Y168098D01*
X579355Y168090D01*
X579330Y168079D01*
X579319Y168073D01*
X579307Y168065D01*
X579306D01*
X579304Y168063D01*
X579300Y168061D01*
X579296Y168057D01*
X579286Y168048D01*
X579275Y168035D01*
X579260Y168019D01*
X579247Y167999D01*
X579234Y167977D01*
X579223Y167951D01*
Y167950D01*
X579222Y167948D01*
X579221Y167944D01*
X579219Y167939D01*
X579217Y167932D01*
X579215Y167924D01*
X579213Y167915D01*
X579212Y167906D01*
X579208Y167883D01*
X579204Y167858D01*
X579201Y167831D01*
X579200Y167803D01*
Y167802D01*
Y167799D01*
Y167794D01*
Y167787D01*
X579201Y167778D01*
X579202Y167768D01*
Y167757D01*
X579204Y167745D01*
X579207Y167718D01*
X579212Y167690D01*
X579218Y167660D01*
X579227Y167632D01*
Y167631D01*
X579228Y167629D01*
X579230Y167625D01*
X579234Y167620D01*
X579237Y167614D01*
X579240Y167607D01*
X579249Y167591D01*
X579262Y167573D01*
X579278Y167555D01*
X579295Y167538D01*
X579317Y167523D01*
X579318D01*
X579319Y167521D01*
X579322Y167520D01*
X579327Y167517D01*
X579332Y167515D01*
X579340Y167512D01*
X579355Y167505D01*
X579376Y167498D01*
X579397Y167493D01*
X579422Y167489D01*
X579448Y167487D01*
X579456D01*
X579461Y167488D01*
X579469Y167489D01*
X579478Y167490D01*
X579488Y167491D01*
X579497Y167493D01*
X579521Y167499D01*
X579544Y167508D01*
X579558Y167513D01*
X579569Y167520D01*
X579581Y167527D01*
X579593Y167536D01*
X579594Y167537D01*
X579596Y167538D01*
X579599Y167541D01*
X579602Y167545D01*
X579606Y167550D01*
X579612Y167557D01*
X579619Y167564D01*
X579625Y167573D01*
X579632Y167582D01*
X579638Y167593D01*
X579644Y167605D01*
X579651Y167618D01*
X579658Y167633D01*
X579664Y167648D01*
X579669Y167664D01*
X579673Y167682D01*
X579775Y167656D01*
Y167655D01*
X579774Y167651D01*
X579772Y167644D01*
X579770Y167635D01*
X579766Y167625D01*
X579761Y167613D01*
X579755Y167600D01*
X579748Y167585D01*
X579741Y167570D01*
X579733Y167554D01*
X579724Y167539D01*
X579712Y167523D01*
X579702Y167507D01*
X579689Y167492D01*
X579674Y167478D01*
X579660Y167465D01*
X579659Y167464D01*
X579656Y167462D01*
X579651Y167459D01*
X579644Y167455D01*
X579636Y167450D01*
X579627Y167444D01*
X579615Y167439D01*
X579603Y167433D01*
X579589Y167426D01*
X579573Y167421D01*
X579557Y167415D01*
X579538Y167410D01*
X579520Y167406D01*
X579499Y167403D01*
X579479Y167401D01*
X579457Y167400D01*
X579445D01*
X579435Y167401D01*
X579425Y167402D01*
X579413Y167403D01*
X579399Y167404D01*
X579385Y167406D01*
X579353Y167412D01*
X579319Y167421D01*
X579302Y167427D01*
X579284Y167434D01*
X579269Y167441D01*
X579253Y167450D01*
X579252Y167451D01*
X579250Y167452D01*
X579247Y167455D01*
X579241Y167460D01*
X579235Y167465D01*
X579226Y167471D01*
X579218Y167479D01*
X579210Y167488D01*
X579200Y167497D01*
X579190Y167508D01*
X579180Y167520D01*
X579171Y167534D01*
X579160Y167548D01*
X579151Y167563D01*
X579143Y167580D01*
X579135Y167597D01*
Y167598D01*
X579133Y167601D01*
X579131Y167607D01*
X579129Y167614D01*
X579125Y167623D01*
X579121Y167633D01*
X579118Y167645D01*
X579114Y167659D01*
X579110Y167674D01*
X579108Y167690D01*
X579104Y167707D01*
X579101Y167724D01*
X579097Y167763D01*
X579095Y167803D01*
Y167804D01*
Y167808D01*
Y167815D01*
X579096Y167823D01*
Y167834D01*
X579097Y167846D01*
X579099Y167859D01*
X579101Y167874D01*
X579103Y167890D01*
X579106Y167907D01*
X579113Y167942D01*
X579124Y167977D01*
X579132Y167995D01*
X579140Y168012D01*
X579141Y168013D01*
X579142Y168016D01*
X579144Y168021D01*
X579148Y168027D01*
X579152Y168034D01*
X579158Y168043D01*
X579166Y168052D01*
X579174Y168063D01*
X579191Y168085D01*
X579214Y168107D01*
X579241Y168129D01*
X579255Y168139D01*
X579271Y168148D01*
X579272Y168149D01*
X579275Y168150D01*
X579280Y168152D01*
X579285Y168155D01*
X579293Y168159D01*
X579303Y168163D01*
X579314Y168167D01*
X579325Y168172D01*
X579340Y168176D01*
X579354Y168180D01*
X579386Y168188D01*
X579421Y168193D01*
X579438Y168195D01*
X579468D01*
X579476Y168194D01*
D02*
G37*
G36*
X580218Y167413D02*
X580124D01*
Y168014D01*
X580122Y168013D01*
X580118Y168009D01*
X580110Y168002D01*
X580099Y167994D01*
X580087Y167984D01*
X580070Y167973D01*
X580054Y167961D01*
X580033Y167949D01*
X580032D01*
X580031Y167948D01*
X580028Y167946D01*
X580024Y167944D01*
X580014Y167938D01*
X580000Y167931D01*
X579986Y167923D01*
X579969Y167915D01*
X579951Y167907D01*
X579935Y167900D01*
Y167992D01*
X579936D01*
X579939Y167994D01*
X579943Y167996D01*
X579948Y167999D01*
X579954Y168002D01*
X579962Y168007D01*
X579982Y168017D01*
X580002Y168030D01*
X580026Y168046D01*
X580050Y168063D01*
X580072Y168082D01*
X580073Y168083D01*
X580076Y168084D01*
X580079Y168087D01*
X580083Y168091D01*
X580092Y168101D01*
X580105Y168115D01*
X580119Y168130D01*
X580132Y168148D01*
X580146Y168166D01*
X580157Y168185D01*
X580218D01*
Y167413D01*
D02*
G37*
G36*
X555090Y168081D02*
X555100Y168080D01*
X555112Y168079D01*
X555125Y168077D01*
X555139Y168075D01*
X555169Y168068D01*
X555185Y168063D01*
X555202Y168057D01*
X555218Y168050D01*
X555234Y168043D01*
X555250Y168033D01*
X555265Y168023D01*
X555266Y168022D01*
X555268Y168020D01*
X555273Y168017D01*
X555278Y168012D01*
X555284Y168006D01*
X555292Y167999D01*
X555300Y167990D01*
X555309Y167980D01*
X555318Y167969D01*
X555327Y167957D01*
X555336Y167943D01*
X555345Y167929D01*
X555354Y167913D01*
X555362Y167896D01*
X555370Y167877D01*
X555376Y167858D01*
X555276Y167834D01*
Y167835D01*
X555275Y167838D01*
X555273Y167842D01*
X555271Y167848D01*
X555268Y167855D01*
X555265Y167863D01*
X555256Y167881D01*
X555245Y167901D01*
X555232Y167921D01*
X555216Y167940D01*
X555207Y167948D01*
X555198Y167956D01*
X555197D01*
X555196Y167958D01*
X555193Y167960D01*
X555189Y167962D01*
X555184Y167965D01*
X555178Y167968D01*
X555163Y167976D01*
X555144Y167983D01*
X555122Y167989D01*
X555097Y167993D01*
X555069Y167995D01*
X555060D01*
X555054Y167994D01*
X555047D01*
X555038Y167993D01*
X555028Y167991D01*
X555017Y167990D01*
X554994Y167985D01*
X554969Y167977D01*
X554944Y167966D01*
X554932Y167960D01*
X554920Y167952D01*
X554919D01*
X554917Y167950D01*
X554914Y167948D01*
X554910Y167944D01*
X554900Y167935D01*
X554888Y167922D01*
X554874Y167906D01*
X554860Y167886D01*
X554847Y167864D01*
X554837Y167838D01*
Y167837D01*
X554836Y167835D01*
X554835Y167831D01*
X554833Y167826D01*
X554831Y167819D01*
X554829Y167811D01*
X554827Y167802D01*
X554825Y167793D01*
X554821Y167770D01*
X554817Y167745D01*
X554814Y167718D01*
X554813Y167690D01*
Y167689D01*
Y167686D01*
Y167681D01*
Y167674D01*
X554814Y167665D01*
X554815Y167655D01*
Y167644D01*
X554817Y167632D01*
X554820Y167605D01*
X554825Y167577D01*
X554832Y167547D01*
X554841Y167519D01*
Y167518D01*
X554842Y167516D01*
X554844Y167512D01*
X554847Y167507D01*
X554850Y167501D01*
X554853Y167494D01*
X554863Y167478D01*
X554876Y167460D01*
X554891Y167442D01*
X554909Y167425D01*
X554930Y167410D01*
X554931D01*
X554933Y167408D01*
X554936Y167407D01*
X554941Y167404D01*
X554946Y167402D01*
X554953Y167399D01*
X554969Y167392D01*
X554989Y167385D01*
X555011Y167380D01*
X555035Y167376D01*
X555061Y167374D01*
X555069D01*
X555075Y167375D01*
X555083Y167376D01*
X555091Y167377D01*
X555101Y167378D01*
X555111Y167380D01*
X555134Y167386D01*
X555158Y167395D01*
X555171Y167400D01*
X555183Y167407D01*
X555195Y167414D01*
X555206Y167423D01*
X555207Y167424D01*
X555209Y167425D01*
X555212Y167428D01*
X555216Y167432D01*
X555220Y167437D01*
X555226Y167444D01*
X555232Y167451D01*
X555238Y167460D01*
X555245Y167469D01*
X555252Y167480D01*
X555258Y167492D01*
X555265Y167505D01*
X555271Y167520D01*
X555277Y167535D01*
X555282Y167551D01*
X555287Y167569D01*
X555389Y167543D01*
Y167542D01*
X555387Y167538D01*
X555385Y167531D01*
X555383Y167522D01*
X555379Y167512D01*
X555374Y167500D01*
X555369Y167487D01*
X555362Y167472D01*
X555355Y167457D01*
X555346Y167441D01*
X555337Y167426D01*
X555326Y167410D01*
X555315Y167394D01*
X555302Y167379D01*
X555288Y167365D01*
X555273Y167352D01*
X555272Y167351D01*
X555269Y167349D01*
X555265Y167346D01*
X555258Y167342D01*
X555250Y167337D01*
X555240Y167331D01*
X555229Y167326D01*
X555217Y167320D01*
X555202Y167313D01*
X555187Y167308D01*
X555170Y167302D01*
X555152Y167297D01*
X555133Y167293D01*
X555113Y167290D01*
X555092Y167288D01*
X555070Y167287D01*
X555058D01*
X555049Y167288D01*
X555039Y167289D01*
X555026Y167290D01*
X555013Y167291D01*
X554998Y167293D01*
X554966Y167299D01*
X554932Y167308D01*
X554915Y167314D01*
X554898Y167321D01*
X554882Y167328D01*
X554867Y167337D01*
X554866Y167338D01*
X554864Y167339D01*
X554860Y167342D01*
X554854Y167347D01*
X554848Y167352D01*
X554840Y167358D01*
X554832Y167366D01*
X554823Y167375D01*
X554813Y167384D01*
X554804Y167395D01*
X554794Y167407D01*
X554784Y167421D01*
X554774Y167435D01*
X554765Y167450D01*
X554756Y167467D01*
X554748Y167484D01*
Y167485D01*
X554746Y167488D01*
X554744Y167494D01*
X554742Y167501D01*
X554739Y167510D01*
X554735Y167520D01*
X554732Y167532D01*
X554728Y167546D01*
X554724Y167561D01*
X554721Y167577D01*
X554717Y167594D01*
X554714Y167611D01*
X554710Y167650D01*
X554708Y167690D01*
Y167691D01*
Y167695D01*
Y167702D01*
X554709Y167710D01*
Y167721D01*
X554710Y167733D01*
X554712Y167746D01*
X554714Y167761D01*
X554716Y167777D01*
X554719Y167794D01*
X554727Y167829D01*
X554738Y167864D01*
X554745Y167882D01*
X554753Y167899D01*
X554754Y167900D01*
X554755Y167903D01*
X554758Y167908D01*
X554762Y167914D01*
X554766Y167921D01*
X554772Y167930D01*
X554779Y167939D01*
X554787Y167950D01*
X554805Y167972D01*
X554828Y167994D01*
X554854Y168016D01*
X554869Y168026D01*
X554884Y168035D01*
X554885Y168036D01*
X554888Y168037D01*
X554893Y168039D01*
X554899Y168042D01*
X554907Y168046D01*
X554916Y168050D01*
X554927Y168054D01*
X554939Y168059D01*
X554953Y168063D01*
X554967Y168067D01*
X554999Y168075D01*
X555034Y168080D01*
X555052Y168082D01*
X555082D01*
X555090Y168081D01*
D02*
G37*
G36*
X555747Y168071D02*
X555757Y168070D01*
X555768Y168069D01*
X555780Y168067D01*
X555793Y168064D01*
X555821Y168057D01*
X555835Y168052D01*
X555850Y168046D01*
X555865Y168039D01*
X555879Y168030D01*
X555892Y168021D01*
X555905Y168010D01*
X555906Y168009D01*
X555908Y168007D01*
X555911Y168004D01*
X555915Y167999D01*
X555920Y167993D01*
X555926Y167986D01*
X555931Y167978D01*
X555938Y167968D01*
X555944Y167958D01*
X555949Y167946D01*
X555960Y167920D01*
X555964Y167906D01*
X555967Y167891D01*
X555969Y167875D01*
X555970Y167858D01*
Y167856D01*
Y167850D01*
X555969Y167841D01*
X555968Y167829D01*
X555965Y167816D01*
X555962Y167800D01*
X555957Y167784D01*
X555951Y167767D01*
X555950Y167765D01*
X555947Y167759D01*
X555943Y167750D01*
X555936Y167739D01*
X555927Y167725D01*
X555916Y167709D01*
X555903Y167691D01*
X555888Y167673D01*
Y167672D01*
X555886Y167671D01*
X555883Y167668D01*
X555880Y167664D01*
X555875Y167659D01*
X555869Y167653D01*
X555862Y167646D01*
X555853Y167638D01*
X555844Y167629D01*
X555833Y167619D01*
X555821Y167607D01*
X555808Y167595D01*
X555793Y167582D01*
X555778Y167569D01*
X555760Y167554D01*
X555742Y167538D01*
X555741Y167537D01*
X555738Y167535D01*
X555734Y167531D01*
X555728Y167527D01*
X555722Y167521D01*
X555714Y167514D01*
X555697Y167499D01*
X555678Y167483D01*
X555660Y167467D01*
X555652Y167460D01*
X555645Y167453D01*
X555638Y167446D01*
X555633Y167441D01*
X555632Y167440D01*
X555629Y167437D01*
X555625Y167432D01*
X555619Y167425D01*
X555613Y167418D01*
X555606Y167409D01*
X555593Y167391D01*
X555971D01*
Y167300D01*
X555462D01*
Y167302D01*
Y167306D01*
Y167312D01*
X555463Y167321D01*
X555464Y167331D01*
X555466Y167342D01*
X555469Y167353D01*
X555473Y167365D01*
Y167366D01*
X555474Y167367D01*
X555475Y167370D01*
X555477Y167374D01*
X555481Y167384D01*
X555488Y167397D01*
X555497Y167413D01*
X555507Y167430D01*
X555520Y167448D01*
X555535Y167467D01*
X555536Y167468D01*
X555537Y167469D01*
X555540Y167472D01*
X555543Y167476D01*
X555553Y167487D01*
X555567Y167501D01*
X555584Y167518D01*
X555605Y167538D01*
X555630Y167560D01*
X555659Y167584D01*
X555660Y167585D01*
X555664Y167589D01*
X555671Y167594D01*
X555679Y167601D01*
X555689Y167610D01*
X555701Y167620D01*
X555714Y167631D01*
X555727Y167643D01*
X555755Y167669D01*
X555783Y167696D01*
X555796Y167710D01*
X555808Y167723D01*
X555819Y167735D01*
X555828Y167747D01*
X555829Y167748D01*
X555830Y167750D01*
X555832Y167753D01*
X555835Y167757D01*
X555838Y167763D01*
X555842Y167769D01*
X555851Y167784D01*
X555859Y167801D01*
X555866Y167820D01*
X555871Y167841D01*
X555873Y167851D01*
Y167861D01*
Y167862D01*
Y167864D01*
Y167866D01*
X555872Y167870D01*
X555871Y167881D01*
X555868Y167894D01*
X555863Y167909D01*
X555856Y167924D01*
X555846Y167940D01*
X555832Y167955D01*
X555830Y167957D01*
X555825Y167961D01*
X555816Y167967D01*
X555804Y167975D01*
X555789Y167982D01*
X555771Y167988D01*
X555750Y167992D01*
X555727Y167994D01*
X555720D01*
X555716Y167993D01*
X555710D01*
X555703Y167992D01*
X555688Y167989D01*
X555671Y167984D01*
X555652Y167977D01*
X555634Y167967D01*
X555618Y167953D01*
X555616Y167951D01*
X555612Y167946D01*
X555605Y167936D01*
X555598Y167924D01*
X555590Y167907D01*
X555583Y167888D01*
X555579Y167866D01*
X555577Y167840D01*
X555480Y167850D01*
Y167851D01*
X555481Y167855D01*
Y167860D01*
X555482Y167868D01*
X555484Y167877D01*
X555486Y167887D01*
X555489Y167899D01*
X555493Y167911D01*
X555502Y167938D01*
X555508Y167952D01*
X555515Y167965D01*
X555523Y167979D01*
X555532Y167992D01*
X555542Y168004D01*
X555554Y168015D01*
X555555Y168016D01*
X555557Y168017D01*
X555561Y168020D01*
X555566Y168024D01*
X555573Y168028D01*
X555581Y168033D01*
X555590Y168038D01*
X555601Y168044D01*
X555613Y168049D01*
X555626Y168054D01*
X555640Y168059D01*
X555656Y168063D01*
X555672Y168067D01*
X555690Y168070D01*
X555709Y168071D01*
X555729Y168072D01*
X555740D01*
X555747Y168071D01*
D02*
G37*
G36*
X571169Y168810D02*
X571168Y168801D01*
Y168792D01*
X571167Y168781D01*
X571166Y168770D01*
X571164Y168745D01*
X571160Y168719D01*
X571155Y168693D01*
X571152Y168682D01*
X571148Y168672D01*
Y168670D01*
X571147Y168669D01*
X571146Y168667D01*
X571144Y168663D01*
X571139Y168652D01*
X571131Y168640D01*
X571121Y168626D01*
X571108Y168613D01*
X571092Y168598D01*
X571074Y168586D01*
X571073D01*
X571072Y168585D01*
X571069Y168582D01*
X571065Y168580D01*
X571054Y168576D01*
X571040Y168570D01*
X571023Y168563D01*
X571003Y168559D01*
X570981Y168554D01*
X570958Y168553D01*
X570957D01*
X570954D01*
X570950D01*
X570944Y168554D01*
X570937Y168555D01*
X570929Y168556D01*
X570910Y168561D01*
X570888Y168567D01*
X570865Y168576D01*
X570854Y168581D01*
X570842Y168588D01*
X570831Y168597D01*
X570820Y168606D01*
X570819Y168607D01*
X570818Y168608D01*
X570815Y168613D01*
X570811Y168616D01*
X570807Y168623D01*
X570802Y168630D01*
X570796Y168638D01*
X570790Y168647D01*
X570784Y168658D01*
X570778Y168669D01*
X570772Y168684D01*
X570766Y168699D01*
X570761Y168714D01*
X570756Y168731D01*
X570752Y168751D01*
X570749Y168771D01*
X570748Y168769D01*
X570746Y168763D01*
X570742Y168756D01*
X570737Y168747D01*
X570724Y168728D01*
X570717Y168719D01*
X570710Y168710D01*
Y168709D01*
X570708Y168708D01*
X570703Y168702D01*
X570694Y168693D01*
X570682Y168682D01*
X570668Y168668D01*
X570650Y168655D01*
X570630Y168640D01*
X570608Y168624D01*
X570400Y168491D01*
Y168620D01*
X570559Y168720D01*
X570560D01*
X570562Y168722D01*
X570566Y168725D01*
X570570Y168728D01*
X570576Y168731D01*
X570583Y168737D01*
X570598Y168746D01*
X570615Y168758D01*
X570632Y168771D01*
X570649Y168782D01*
X570664Y168795D01*
X570666Y168796D01*
X570670Y168799D01*
X570677Y168805D01*
X570684Y168812D01*
X570693Y168819D01*
X570702Y168828D01*
X570709Y168837D01*
X570716Y168846D01*
X570717Y168848D01*
X570718Y168851D01*
X570721Y168854D01*
X570724Y168860D01*
X570728Y168868D01*
X570731Y168876D01*
X570737Y168893D01*
Y168894D01*
X570738Y168895D01*
Y168900D01*
X570739Y168905D01*
X570740Y168913D01*
Y168923D01*
X570741Y168935D01*
Y169067D01*
X570400D01*
Y169168D01*
X571169D01*
Y168810D01*
D02*
G37*
G36*
X570979Y168359D02*
X570981Y168356D01*
X570983Y168351D01*
X570986Y168347D01*
X570989Y168340D01*
X570994Y168332D01*
X571004Y168313D01*
X571017Y168291D01*
X571033Y168268D01*
X571050Y168245D01*
X571069Y168221D01*
X571070Y168220D01*
X571071Y168219D01*
X571074Y168216D01*
X571078Y168211D01*
X571088Y168201D01*
X571102Y168189D01*
X571117Y168175D01*
X571135Y168161D01*
X571153Y168149D01*
X571172Y168138D01*
Y168077D01*
X570400D01*
Y168170D01*
X571001D01*
X571000Y168173D01*
X570996Y168176D01*
X570989Y168184D01*
X570981Y168194D01*
X570971Y168208D01*
X570960Y168224D01*
X570948Y168240D01*
X570936Y168261D01*
Y168262D01*
X570935Y168263D01*
X570933Y168265D01*
X570931Y168270D01*
X570925Y168280D01*
X570918Y168293D01*
X570910Y168308D01*
X570902Y168325D01*
X570894Y168342D01*
X570887Y168359D01*
X570979D01*
Y168359D01*
D02*
G37*
%LPC*%
G36*
X571084Y169067D02*
X570829D01*
Y168832D01*
X570830Y168825D01*
X570831Y168808D01*
X570832Y168791D01*
X570835Y168772D01*
X570838Y168755D01*
X570843Y168739D01*
X570844Y168737D01*
X570846Y168733D01*
X570849Y168726D01*
X570854Y168717D01*
X570860Y168708D01*
X570868Y168698D01*
X570878Y168687D01*
X570889Y168679D01*
X570890Y168678D01*
X570895Y168676D01*
X570901Y168673D01*
X570910Y168668D01*
X570920Y168666D01*
X570932Y168661D01*
X570944Y168659D01*
X570958Y168658D01*
X570959D01*
X570960D01*
X570963D01*
X570967Y168659D01*
X570977Y168660D01*
X570990Y168664D01*
X571004Y168668D01*
X571019Y168675D01*
X571034Y168685D01*
X571048Y168699D01*
X571050Y168701D01*
X571054Y168707D01*
X571059Y168716D01*
X571066Y168729D01*
X571069Y168737D01*
X571073Y168746D01*
X571076Y168756D01*
X571078Y168769D01*
X571081Y168781D01*
X571082Y168793D01*
X571084Y168808D01*
Y169067D01*
D02*
G37*
%LPD*%
D33*
X553933Y131917D02*
Y134083D01*
X558067Y131917D02*
Y134083D01*
X553933D02*
X558067D01*
X553933Y131917D02*
X558067D01*
X566465D02*
Y134083D01*
X570598Y131917D02*
Y134083D01*
X566465D02*
X570598D01*
X566465Y131917D02*
X570598D01*
X577496Y169772D02*
X584189D01*
X577496Y166228D02*
X584189D01*
X577496D02*
Y169772D01*
X584189Y166228D02*
Y169772D01*
X553109Y169659D02*
X559802D01*
X553109Y166115D02*
X559802D01*
X553109D02*
Y169659D01*
X559802Y166115D02*
Y169659D01*
X569917Y169535D02*
X572083D01*
X569917Y165402D02*
X572083D01*
Y169535D01*
X569917Y165402D02*
Y169535D01*
D34*
X554300Y132400D02*
Y133600D01*
X554900D01*
X555100Y133400D01*
Y133000D01*
X554900Y132800D01*
X554300D01*
X554700D02*
X555100Y132400D01*
X556299D02*
X555500D01*
X556299Y133200D01*
Y133400D01*
X556099Y133600D01*
X555699D01*
X555500Y133400D01*
X566831Y132400D02*
Y133600D01*
X567431D01*
X567631Y133400D01*
Y133000D01*
X567431Y132800D01*
X566831D01*
X567231D02*
X567631Y132400D01*
X568031Y133400D02*
X568231Y133600D01*
X568631D01*
X568831Y133400D01*
Y133200D01*
X568631Y133000D01*
X568431D01*
X568631D01*
X568831Y132800D01*
Y132600D01*
X568631Y132400D01*
X568231D01*
X568031Y132600D01*
M02*
