G04*
G04 #@! TF.GenerationSoftware,Altium Limited,Altium Designer,19.1.8 (144)*
G04*
G04 Layer_Physical_Order=1*
G04 Layer_Color=255*
%FSLAX25Y25*%
%MOIN*%
G70*
G01*
G75*
%ADD21R,0.02362X0.02165*%
%ADD22R,0.02953X0.03150*%
%ADD23R,0.02165X0.02362*%
%ADD24R,0.03150X0.02165*%
%ADD25R,0.03150X0.00787*%
%ADD26R,0.00787X0.03150*%
%ADD27R,0.11221X0.15158*%
%ADD28C,0.00500*%
%ADD29C,0.05906*%
%ADD30R,0.05906X0.05906*%
%ADD31C,0.02362*%
G36*
X608000Y123500D02*
X528000D01*
Y228500D01*
X608000D01*
Y123500D01*
D02*
G37*
%LPC*%
G36*
X559575Y219126D02*
X557500D01*
Y217543D01*
X559575D01*
Y219126D01*
D02*
G37*
G36*
X556500D02*
X554425D01*
Y217543D01*
X556500D01*
Y219126D01*
D02*
G37*
G36*
X574276Y219083D02*
X572201D01*
Y217500D01*
X574276D01*
Y219083D01*
D02*
G37*
G36*
X543276D02*
X541201D01*
Y217500D01*
X543276D01*
Y219083D01*
D02*
G37*
G36*
X571201D02*
X569126D01*
Y217500D01*
X571201D01*
Y219083D01*
D02*
G37*
G36*
X540201D02*
X538126D01*
Y217500D01*
X540201D01*
Y219083D01*
D02*
G37*
G36*
X588026Y219765D02*
X585483D01*
X585190Y219707D01*
X584942Y219541D01*
X583459Y218058D01*
X583293Y217810D01*
X583235Y217517D01*
Y215748D01*
X582835Y215348D01*
X582669Y215100D01*
X582611Y214808D01*
Y213795D01*
X581551Y212735D01*
X581089Y212927D01*
Y215167D01*
X581031Y215460D01*
X580865Y215708D01*
X580075Y216499D01*
Y218583D01*
X575925D01*
Y215583D01*
X575925Y215417D01*
X575925D01*
Y215083D01*
X575925D01*
Y212999D01*
X568814Y205888D01*
X568282Y206063D01*
X568247Y206293D01*
X570917Y208963D01*
X571082Y209211D01*
X571141Y209504D01*
Y211874D01*
X573776D01*
Y214917D01*
X574276D01*
Y216500D01*
X571701D01*
X569126D01*
Y214917D01*
X569626D01*
Y212698D01*
X569611Y212624D01*
Y209821D01*
X566977Y207187D01*
X566477Y207394D01*
Y209297D01*
Y215122D01*
X566419Y215415D01*
X566253Y215663D01*
X565374Y216542D01*
Y218626D01*
X561224D01*
Y215626D01*
X561224Y215461D01*
X561224D01*
Y215126D01*
X561224D01*
Y211961D01*
X563373D01*
Y206841D01*
X562873Y206633D01*
X559090Y210417D01*
Y212667D01*
X559090Y212667D01*
X559075Y212741D01*
Y214961D01*
X559575D01*
Y216543D01*
X557000D01*
X554425D01*
Y214961D01*
X554925D01*
Y211917D01*
X557560D01*
Y210100D01*
X557618Y209808D01*
X557784Y209560D01*
X561798Y205545D01*
Y204533D01*
X561636Y204423D01*
X561298Y204340D01*
X555014Y210624D01*
X554819Y210754D01*
X549075Y216499D01*
Y218583D01*
X544925D01*
Y215583D01*
X544925Y215417D01*
X544925D01*
Y215083D01*
X544925D01*
Y213615D01*
X544456Y213334D01*
X544425Y213335D01*
X544158Y213389D01*
X542776D01*
Y214917D01*
X543276D01*
Y216500D01*
X540701D01*
X538126D01*
Y214917D01*
X538626D01*
Y211874D01*
X541460D01*
X541534Y211859D01*
X541534Y211859D01*
X543841D01*
X545482Y210218D01*
X545730Y210052D01*
X546023Y209994D01*
X546942D01*
X547391Y209545D01*
X547200Y209083D01*
X544724D01*
Y206083D01*
X544724Y205917D01*
X544724D01*
Y205583D01*
X544724D01*
Y202417D01*
X547793D01*
X553570Y196640D01*
X553377Y196131D01*
X553052Y196090D01*
X548101Y201041D01*
X547853Y201206D01*
X547561Y201265D01*
X544766D01*
X542575Y203455D01*
Y205417D01*
X543075D01*
Y207000D01*
X540500D01*
X537925D01*
Y205417D01*
X538425D01*
Y202374D01*
X541493D01*
X543908Y199959D01*
X544156Y199794D01*
X544449Y199735D01*
X544449Y199735D01*
X546911D01*
X546984Y199626D01*
X546717Y199126D01*
X544724D01*
Y196126D01*
X544724Y195961D01*
X544724D01*
Y195626D01*
X544724D01*
Y194158D01*
X544256Y193877D01*
X544224Y193879D01*
X543957Y193932D01*
X542575D01*
Y195461D01*
X543075D01*
Y197043D01*
X540500D01*
X537925D01*
Y195461D01*
X538425D01*
Y192417D01*
X541259D01*
X541333Y192403D01*
X541333Y192403D01*
X543640D01*
X546084Y189959D01*
X546332Y189794D01*
X546624Y189735D01*
X550764D01*
X551032Y189235D01*
X550940Y189097D01*
X547632D01*
X547632Y189097D01*
X547558Y189083D01*
X544724D01*
Y185917D01*
X544724Y185917D01*
Y185583D01*
X544724D01*
X544724Y185417D01*
Y184115D01*
X544256Y183834D01*
X544224Y183835D01*
X543957Y183889D01*
X542575D01*
Y185417D01*
X543075D01*
Y187000D01*
X540500D01*
X537925D01*
Y185417D01*
X538425D01*
Y182374D01*
X541259D01*
X541333Y182359D01*
X541333Y182359D01*
X543640D01*
X544373Y181627D01*
X544373Y181627D01*
X544621Y181461D01*
X544914Y181403D01*
X548660D01*
X548851Y180941D01*
X547993Y180083D01*
X544925D01*
Y176917D01*
X544925Y176917D01*
Y176583D01*
X544925D01*
X544925Y176417D01*
Y173932D01*
X542807D01*
X542776Y173963D01*
Y176417D01*
X543276D01*
Y178000D01*
X540701D01*
X538126D01*
Y176417D01*
X538626D01*
Y173374D01*
X541202D01*
X541949Y172627D01*
X542198Y172461D01*
X542490Y172403D01*
X548885D01*
X549178Y172461D01*
X549426Y172627D01*
X549865Y173066D01*
X550031Y173314D01*
X550090Y173607D01*
Y175376D01*
X554857Y180143D01*
X555529D01*
X555603Y180157D01*
X558520D01*
Y176811D01*
X558649D01*
Y173917D01*
X554693Y169962D01*
X551822D01*
Y168651D01*
X550387D01*
X550094Y168593D01*
X549846Y168428D01*
X547528Y166109D01*
X547000Y166214D01*
X546344Y166084D01*
X545788Y165712D01*
X545416Y165156D01*
X545286Y164500D01*
X545416Y163844D01*
X545788Y163288D01*
X546344Y162916D01*
X547000Y162786D01*
X547656Y162916D01*
X548212Y163288D01*
X548584Y163844D01*
X548714Y164500D01*
X548609Y165028D01*
X550704Y167122D01*
X551822D01*
Y165812D01*
X555348D01*
X555555Y165312D01*
X544959Y154716D01*
X544794Y154468D01*
X544735Y154175D01*
Y151453D01*
X541547D01*
Y148000D01*
X549453D01*
Y151453D01*
X546265D01*
Y153858D01*
X557718Y165312D01*
X558613D01*
Y167887D01*
X559613D01*
Y165312D01*
X560575D01*
Y153656D01*
X557351Y150432D01*
X557241Y150516D01*
X556401Y150864D01*
X555500Y150982D01*
X554599Y150864D01*
X553759Y150516D01*
X553038Y149962D01*
X552484Y149241D01*
X552136Y148401D01*
X552017Y147500D01*
X552136Y146599D01*
X552484Y145759D01*
X553038Y145037D01*
X553759Y144484D01*
X554198Y144302D01*
Y134583D01*
X552350D01*
Y131417D01*
X555713Y131417D01*
X555787Y130948D01*
Y130917D01*
X557469D01*
Y133000D01*
Y135083D01*
X555787Y135083D01*
X555727Y135558D01*
Y144047D01*
X556401Y144136D01*
X557241Y144484D01*
X557963Y145037D01*
X558516Y145759D01*
X558864Y146599D01*
X558983Y147500D01*
X558864Y148401D01*
X558516Y149241D01*
X558432Y149351D01*
X561880Y152799D01*
X562046Y153047D01*
X562104Y153340D01*
Y166772D01*
X564273Y168942D01*
X564735Y168750D01*
Y150882D01*
X564599Y150864D01*
X563759Y150516D01*
X563037Y149962D01*
X562484Y149241D01*
X562136Y148401D01*
X562017Y147500D01*
X562136Y146599D01*
X562484Y145759D01*
X563037Y145037D01*
X563759Y144484D01*
X564599Y144136D01*
X564867Y144101D01*
Y133833D01*
X564882Y133759D01*
Y131417D01*
X568244Y131417D01*
X568319Y130948D01*
Y130917D01*
X570000D01*
Y133000D01*
Y135083D01*
X568319D01*
Y135052D01*
X568244Y134583D01*
X567819Y134583D01*
X566397D01*
Y144135D01*
X566401Y144136D01*
X567241Y144484D01*
X567963Y145037D01*
X568516Y145759D01*
X568864Y146599D01*
X568983Y147500D01*
X568864Y148401D01*
X568516Y149241D01*
X567963Y149962D01*
X567241Y150516D01*
X566401Y150864D01*
X566265Y150882D01*
Y164303D01*
X566765Y164352D01*
X566793Y164207D01*
X566959Y163959D01*
X574735Y156183D01*
Y150882D01*
X574599Y150864D01*
X573759Y150516D01*
X573037Y149962D01*
X572484Y149241D01*
X572136Y148401D01*
X572017Y147500D01*
X572136Y146599D01*
X572484Y145759D01*
X573037Y145037D01*
X573759Y144484D01*
X574599Y144136D01*
X575500Y144018D01*
X576401Y144136D01*
X577241Y144484D01*
X577962Y145037D01*
X578516Y145759D01*
X578864Y146599D01*
X578982Y147500D01*
X578864Y148401D01*
X578516Y149241D01*
X577962Y149962D01*
X577241Y150516D01*
X576401Y150864D01*
X576265Y150882D01*
Y156500D01*
X576206Y156793D01*
X576041Y157041D01*
X569763Y163319D01*
X569970Y163819D01*
X572583D01*
Y164735D01*
X580683D01*
X584735Y160683D01*
Y150882D01*
X584599Y150864D01*
X583759Y150516D01*
X583038Y149962D01*
X582484Y149241D01*
X582136Y148401D01*
X582018Y147500D01*
X582136Y146599D01*
X582484Y145759D01*
X583038Y145037D01*
X583759Y144484D01*
X584599Y144136D01*
X585500Y144018D01*
X586401Y144136D01*
X587241Y144484D01*
X587962Y145037D01*
X588516Y145759D01*
X588864Y146599D01*
X588982Y147500D01*
X588864Y148401D01*
X588516Y149241D01*
X587962Y149962D01*
X587241Y150516D01*
X586401Y150864D01*
X586265Y150882D01*
Y161000D01*
Y165902D01*
X586265Y165902D01*
X586206Y166194D01*
X586041Y166442D01*
X585476Y167007D01*
Y170075D01*
X582347D01*
X582286Y170087D01*
X574480Y177892D01*
Y180157D01*
X577139D01*
X582881Y174416D01*
X583129Y174250D01*
X583421Y174192D01*
X585126D01*
Y173374D01*
X589276D01*
Y176539D01*
X589276D01*
Y176874D01*
X589276D01*
Y178342D01*
X589744Y178623D01*
X589776Y178621D01*
X590043Y178568D01*
X591425D01*
Y177039D01*
X590925D01*
Y175457D01*
X593500D01*
X596075D01*
Y177039D01*
X595575D01*
Y180083D01*
X592741D01*
X592667Y180097D01*
X590360D01*
X587545Y182912D01*
X587736Y183374D01*
X589276D01*
Y186539D01*
X589276Y186539D01*
Y186874D01*
X589276D01*
X589276Y187039D01*
Y188342D01*
X589744Y188623D01*
X589776Y188621D01*
X590043Y188568D01*
X591425D01*
Y187039D01*
X590925D01*
Y185457D01*
X593500D01*
Y184957D01*
D01*
Y185457D01*
X596075D01*
Y187039D01*
X595575D01*
Y190083D01*
X592741D01*
X592667Y190097D01*
X590360D01*
X589627Y190830D01*
X589379Y190996D01*
X589086Y191054D01*
X583889D01*
X583596Y190996D01*
X583348Y190830D01*
X582075Y189558D01*
X580995D01*
X580914Y189672D01*
X580806Y190058D01*
X583151Y192403D01*
X586167D01*
X586241Y192417D01*
X589075D01*
Y195583D01*
X589075Y195583D01*
Y195917D01*
X589075D01*
X589075Y196083D01*
Y197690D01*
X589537Y197882D01*
X590416Y197003D01*
X590416Y197003D01*
X590664Y196837D01*
X590957Y196779D01*
X591224D01*
Y196083D01*
X590724D01*
Y194500D01*
X593299D01*
X595874D01*
Y196083D01*
X595374D01*
Y199126D01*
X591224D01*
Y199010D01*
X590763Y198819D01*
X589041Y200541D01*
X588793Y200707D01*
X588500Y200765D01*
X586118D01*
X585866Y201265D01*
X585979Y201417D01*
X588776D01*
Y204583D01*
X588776Y204583D01*
Y204917D01*
X588776D01*
X588776Y205083D01*
Y206385D01*
X589244Y206666D01*
X589276Y206664D01*
X589543Y206611D01*
X590925D01*
Y205083D01*
X590425D01*
Y203500D01*
X593000D01*
X595575D01*
Y205083D01*
X595075D01*
Y208126D01*
X592241D01*
X592167Y208141D01*
X589860D01*
X589127Y208873D01*
X588879Y209039D01*
X588586Y209097D01*
X585746D01*
X585555Y209559D01*
X587242Y211246D01*
X587356Y211417D01*
X588776D01*
Y214583D01*
X588776Y214583D01*
Y214917D01*
X588776D01*
X588776Y215083D01*
Y216503D01*
X589276Y216724D01*
X589357Y216670D01*
X589650Y216611D01*
X589650Y216611D01*
X590925D01*
Y215083D01*
X590425D01*
Y213500D01*
X593000D01*
X595575D01*
Y215083D01*
X595075D01*
Y218126D01*
X592241D01*
X592167Y218141D01*
X589966D01*
X588566Y219541D01*
X588318Y219707D01*
X588026Y219765D01*
D02*
G37*
G36*
X595575Y212500D02*
X593500D01*
Y210917D01*
X595575D01*
Y212500D01*
D02*
G37*
G36*
X592500D02*
X590425D01*
Y210917D01*
X592500D01*
Y212500D01*
D02*
G37*
G36*
X543075Y209583D02*
X541000D01*
Y208000D01*
X543075D01*
Y209583D01*
D02*
G37*
G36*
X540000D02*
X537925D01*
Y208000D01*
X540000D01*
Y209583D01*
D02*
G37*
G36*
X595575Y202500D02*
X593500D01*
Y200917D01*
X595575D01*
Y202500D01*
D02*
G37*
G36*
X592500D02*
X590425D01*
Y200917D01*
X592500D01*
Y202500D01*
D02*
G37*
G36*
X543075Y199626D02*
X541000D01*
Y198043D01*
X543075D01*
Y199626D01*
D02*
G37*
G36*
X540000D02*
X537925D01*
Y198043D01*
X540000D01*
Y199626D01*
D02*
G37*
G36*
X595874Y193500D02*
X593799D01*
Y191917D01*
X595874D01*
Y193500D01*
D02*
G37*
G36*
X592799D02*
X590724D01*
Y191917D01*
X592799D01*
Y193500D01*
D02*
G37*
G36*
X543075Y189583D02*
X541000D01*
Y188000D01*
X543075D01*
Y189583D01*
D02*
G37*
G36*
X540000D02*
X537925D01*
Y188000D01*
X540000D01*
Y189583D01*
D02*
G37*
G36*
X596075Y184457D02*
X594000D01*
Y182874D01*
X596075D01*
Y184457D01*
D02*
G37*
G36*
X593000D02*
X590925D01*
Y182874D01*
X593000D01*
Y184457D01*
D02*
G37*
G36*
X543276Y180583D02*
X541201D01*
Y179000D01*
X543276D01*
Y180583D01*
D02*
G37*
G36*
X540201D02*
X538126D01*
Y179000D01*
X540201D01*
Y180583D01*
D02*
G37*
G36*
X596075Y174457D02*
X594000D01*
Y172874D01*
X596075D01*
Y174457D01*
D02*
G37*
G36*
X593000D02*
X590925D01*
Y172874D01*
X593000D01*
Y174457D01*
D02*
G37*
G36*
X549453Y147000D02*
X546000D01*
Y143547D01*
X549453D01*
Y147000D01*
D02*
G37*
G36*
X545000D02*
X541547D01*
Y143547D01*
X545000D01*
Y147000D01*
D02*
G37*
G36*
X572681Y135083D02*
X571000D01*
Y133500D01*
X572681D01*
Y135083D01*
D02*
G37*
G36*
X558468D02*
Y133500D01*
X560150D01*
Y135083D01*
X558468D01*
D02*
G37*
G36*
X572681Y132500D02*
X571000D01*
Y130917D01*
X572681D01*
Y132500D01*
D02*
G37*
G36*
X560150Y132500D02*
X558468D01*
Y130917D01*
X560150D01*
Y132500D01*
D02*
G37*
%LPD*%
G36*
X574071Y199055D02*
Y197480D01*
Y195905D01*
Y194331D01*
Y192756D01*
Y191181D01*
Y189606D01*
Y188031D01*
Y186457D01*
Y184882D01*
Y183307D01*
Y181732D01*
Y180961D01*
X565531D01*
Y181461D01*
X564638D01*
Y178886D01*
X563638D01*
Y181461D01*
X562744D01*
Y180961D01*
X561753D01*
Y182421D01*
X572610D01*
Y198579D01*
X560390D01*
Y183474D01*
X560282Y183312D01*
X560223Y183020D01*
Y180961D01*
X558929D01*
Y181732D01*
Y183307D01*
Y184882D01*
Y186457D01*
Y188031D01*
Y189606D01*
Y191181D01*
Y192756D01*
Y194331D01*
Y195905D01*
Y197480D01*
Y199055D01*
Y200039D01*
X574071D01*
Y199055D01*
D02*
G37*
G36*
X576194Y170725D02*
Y169226D01*
X576209Y169152D01*
Y166265D01*
X572583D01*
Y167181D01*
X569417D01*
Y164371D01*
X568917Y164164D01*
X568265Y164817D01*
Y170105D01*
X568917Y170757D01*
X569417Y170550D01*
Y167756D01*
X572583D01*
Y171118D01*
X571202D01*
Y175010D01*
X571702Y175217D01*
X576194Y170725D01*
D02*
G37*
D21*
X554032Y133000D02*
D03*
X557969D02*
D03*
X566563D02*
D03*
X570500D02*
D03*
D22*
X578185Y168000D02*
D03*
X583500D02*
D03*
X553798Y167887D02*
D03*
X559113D02*
D03*
D23*
X571000Y169437D02*
D03*
Y165500D02*
D03*
D24*
X547000Y178500D02*
D03*
Y175000D02*
D03*
X540701Y174957D02*
D03*
Y178500D02*
D03*
X546799Y187500D02*
D03*
Y184000D02*
D03*
X540500Y183957D02*
D03*
Y187500D02*
D03*
X546799Y197543D02*
D03*
Y194043D02*
D03*
X540500Y194000D02*
D03*
Y197543D02*
D03*
X578000Y217000D02*
D03*
Y213500D02*
D03*
X571701Y213457D02*
D03*
Y217000D02*
D03*
X563299Y217043D02*
D03*
Y213543D02*
D03*
X557000Y213500D02*
D03*
Y217043D02*
D03*
X547000Y217000D02*
D03*
Y213500D02*
D03*
X540701Y213457D02*
D03*
Y217000D02*
D03*
X546799Y207500D02*
D03*
Y204000D02*
D03*
X540500Y203957D02*
D03*
Y207500D02*
D03*
X586701Y203000D02*
D03*
Y206500D02*
D03*
X593000Y206543D02*
D03*
Y203000D02*
D03*
X587000Y194000D02*
D03*
Y197500D02*
D03*
X593299Y197543D02*
D03*
Y194000D02*
D03*
X587201Y184957D02*
D03*
Y188457D02*
D03*
X593500Y188500D02*
D03*
Y184957D02*
D03*
X587201Y174957D02*
D03*
Y178457D02*
D03*
X593500Y178500D02*
D03*
Y174957D02*
D03*
X586701Y213000D02*
D03*
Y216500D02*
D03*
X593000Y216543D02*
D03*
Y213000D02*
D03*
D25*
X576146Y181051D02*
D03*
Y182626D02*
D03*
Y184201D02*
D03*
Y185776D02*
D03*
Y187350D02*
D03*
Y188925D02*
D03*
Y190500D02*
D03*
Y192075D02*
D03*
Y193650D02*
D03*
Y195224D02*
D03*
Y196799D02*
D03*
Y198374D02*
D03*
Y199949D02*
D03*
X556854D02*
D03*
Y198374D02*
D03*
Y196799D02*
D03*
Y195224D02*
D03*
Y193650D02*
D03*
Y192075D02*
D03*
Y190500D02*
D03*
Y188925D02*
D03*
Y187350D02*
D03*
Y185776D02*
D03*
Y184201D02*
D03*
Y182626D02*
D03*
Y181051D02*
D03*
D26*
X573587Y202114D02*
D03*
X572012D02*
D03*
X570437D02*
D03*
X568862D02*
D03*
X567287D02*
D03*
X565713D02*
D03*
X564138D02*
D03*
X562563D02*
D03*
X560988D02*
D03*
X559413D02*
D03*
Y178886D02*
D03*
X560988D02*
D03*
X562563D02*
D03*
X564138D02*
D03*
X565713D02*
D03*
X567287D02*
D03*
X568862D02*
D03*
X570437D02*
D03*
X572012D02*
D03*
X573587D02*
D03*
D27*
X566500Y190500D02*
D03*
D28*
X547000Y164500D02*
X550387Y167887D01*
X553798D01*
X585500Y161000D02*
Y165902D01*
Y147500D02*
Y161000D01*
X581000Y165500D02*
X585500Y161000D01*
X571000Y165500D02*
X581000D01*
X583500Y168000D02*
Y168098D01*
Y167902D02*
Y168000D01*
X582274Y169325D02*
X583500Y168098D01*
X581966Y169325D02*
X582274D01*
X573587Y177705D02*
X581966Y169325D01*
X573587Y177705D02*
Y178886D01*
X555500Y147500D02*
X561340Y153340D01*
Y167089D01*
X565713Y171462D01*
Y178886D01*
X549325Y175692D02*
X554540Y180907D01*
X555529D01*
X549325Y173607D02*
Y175692D01*
Y177325D02*
X554482Y182482D01*
X549325Y177107D02*
Y177325D01*
X548885Y176667D02*
X549325Y177107D01*
X548667Y176667D02*
X548885D01*
X547000Y175000D02*
X548667Y176667D01*
X554482Y182482D02*
X556711D01*
X542490Y173167D02*
X548885D01*
X549325Y173607D01*
X540701Y174957D02*
X542490Y173167D01*
X555673Y181051D02*
X556854D01*
X555529Y180907D02*
X555673Y181051D01*
X556711Y182482D02*
X556854Y182626D01*
X553193Y184201D02*
X556854D01*
X547492Y178500D02*
X553193Y184201D01*
X547000Y178500D02*
X547492D01*
X549667Y182167D02*
X553276Y185776D01*
X556854D01*
X544914Y182167D02*
X549667D01*
X543957Y183124D02*
X544914Y182167D01*
X541333Y183124D02*
X543957D01*
X540500Y183957D02*
X541333Y183124D01*
X553158Y187350D02*
X556854D01*
X550640Y184833D02*
X553158Y187350D01*
X547632Y184833D02*
X550640D01*
X546799Y184000D02*
X547632Y184833D01*
X552195Y188925D02*
X556854D01*
X551602Y188333D02*
X552195Y188925D01*
X547632Y188333D02*
X551602D01*
X546799Y187500D02*
X547632Y188333D01*
X546624Y190500D02*
X556854D01*
X543957Y193167D02*
X546624Y190500D01*
X541333Y193167D02*
X543957D01*
X540500Y194000D02*
X541333Y193167D01*
X552466Y192075D02*
X556854D01*
X551331Y193211D02*
X552466Y192075D01*
X547632Y193211D02*
X551331D01*
X546799Y194043D02*
X547632Y193211D01*
X552997Y193650D02*
X556854D01*
X549936Y196711D02*
X552997Y193650D01*
X547632Y196711D02*
X549936D01*
X546799Y197543D02*
X547632Y196711D01*
X547561Y200500D02*
X552836Y195224D01*
X544449Y200500D02*
X547561D01*
X540992Y203957D02*
X544449Y200500D01*
X540500Y203957D02*
X540992D01*
X552836Y195224D02*
X556854D01*
X554492Y196799D02*
X556854D01*
X547291Y204000D02*
X554492Y196799D01*
X546799Y204000D02*
X547291D01*
X556711Y198518D02*
X556854Y198374D01*
X555256Y198518D02*
X556711D01*
X551546Y202227D02*
X555256Y198518D01*
X551546Y202227D02*
Y203245D01*
X547291Y207500D02*
X551546Y203245D01*
X546799Y207500D02*
X547291D01*
X555673Y199949D02*
X556854D01*
X555529Y200093D02*
X555673Y199949D01*
X555529Y200093D02*
Y202488D01*
X547259Y210759D02*
X555529Y202488D01*
X546023Y210759D02*
X547259D01*
X544158Y212624D02*
X546023Y210759D01*
X541534Y212624D02*
X544158D01*
X540701Y213457D02*
X541534Y212624D01*
X547000Y213500D02*
X547492D01*
X557553Y203439D01*
X559270D01*
X559413Y203295D01*
Y202114D02*
Y203295D01*
X560845Y202258D02*
X560988Y202114D01*
X560845Y202258D02*
Y203712D01*
X554473Y210084D02*
X560845Y203712D01*
X554409Y210084D02*
X554473D01*
X547492Y217000D02*
X554409Y210084D01*
X547000Y217000D02*
X547492D01*
X562563Y202114D02*
Y205862D01*
X558325Y210100D02*
X562563Y205862D01*
X558325Y210100D02*
Y212667D01*
X557492Y213500D02*
X558325Y212667D01*
X557000Y213500D02*
X557492D01*
X564138Y202114D02*
Y212711D01*
X563305Y213543D02*
X564138Y212711D01*
X563299Y213543D02*
X563305D01*
X565713Y209297D02*
Y215122D01*
Y202114D02*
Y209297D01*
X563791Y217043D02*
X565713Y215122D01*
X563299Y217043D02*
X563791D01*
X567287Y202114D02*
Y206415D01*
X570376Y209504D01*
Y212624D01*
X571209Y213457D01*
X571701D01*
X573869Y207000D02*
X575218D01*
X570868Y204000D02*
X573869Y207000D01*
X570868Y203726D02*
Y204000D01*
X570437Y203295D02*
X570868Y203726D01*
X570437Y202114D02*
Y203295D01*
X575218Y207000D02*
X580325Y212107D01*
Y215167D01*
X578492Y217000D02*
X580325Y215167D01*
X578000Y217000D02*
X578492D01*
X568862Y202114D02*
Y204854D01*
X577508Y213500D01*
X578000D01*
X574314Y204416D02*
Y204416D01*
X574291Y204439D02*
X574314Y204416D01*
X583376Y213478D01*
X572882Y204439D02*
X574291D01*
X572443Y204000D02*
X572882Y204439D01*
X572443Y202545D02*
Y204000D01*
X572012Y202114D02*
X572443Y202545D01*
X584000Y215432D02*
Y217517D01*
X583376Y214808D02*
X584000Y215432D01*
X583376Y213478D02*
Y214808D01*
X584000Y217517D02*
X585483Y219000D01*
X586483Y216500D02*
X586701D01*
X584376Y214393D02*
X586483Y216500D01*
X584376Y211876D02*
Y214393D01*
X574614Y202114D02*
X584376Y211876D01*
X573587Y202114D02*
X574614D01*
X585483Y219000D02*
X588026D01*
X586701Y211787D02*
Y213000D01*
X577470Y202556D02*
X586701Y211787D01*
X588026Y219000D02*
X589650Y217376D01*
X592167D01*
X593000Y216543D01*
X577470Y200093D02*
Y202556D01*
X576146Y199949D02*
X577327D01*
X577470Y200093D01*
X584815Y208333D02*
X588586D01*
X584376Y205065D02*
X584774D01*
X586209Y206500D01*
X586701D01*
X580000Y202103D02*
X584376Y206479D01*
X580000Y200774D02*
Y202103D01*
X584376Y207893D02*
X584815Y208333D01*
X584376Y206479D02*
Y207893D01*
Y202708D02*
Y205065D01*
X577600Y198374D02*
X580000Y200774D01*
X576146Y198374D02*
X577600D01*
X578468Y196799D02*
X584376Y202708D01*
X576146Y196799D02*
X578468D01*
X588586Y208333D02*
X589543Y207376D01*
X592167D01*
X593000Y206543D01*
X585000Y200000D02*
X588500D01*
X578650Y193650D02*
X585000Y200000D01*
X583797Y196667D02*
X586167D01*
X579205Y192075D02*
X583797Y196667D01*
X578471Y195262D02*
X586209Y203000D01*
X576146Y192075D02*
X579205D01*
X576146Y195224D02*
X576183Y195262D01*
X576146Y193650D02*
X578650D01*
X576183Y195262D02*
X578471D01*
X586209Y203000D02*
X586701D01*
X588500Y200000D02*
X590957Y197543D01*
X593299D01*
X582835Y193167D02*
X586167D01*
X582392Y188793D02*
X583889Y190289D01*
X576278Y188793D02*
X582392D01*
X576146Y188925D02*
X576278Y188793D01*
X586167Y196667D02*
X587000Y197500D01*
X576146Y190500D02*
X580167D01*
X582835Y193167D01*
X586167D02*
X587000Y194000D01*
X583889Y190289D02*
X589086D01*
X590043Y189333D01*
X592667D01*
X593500Y188500D01*
X576146Y187350D02*
X577327D01*
X577600Y187624D01*
X586368D01*
X587201Y188457D01*
X576146Y185776D02*
X586382D01*
X587201Y184957D01*
X576146Y184201D02*
X582317D01*
X583394Y183124D01*
X586252D01*
X590043Y179333D01*
X592667D01*
X593500Y178500D01*
X576146Y182626D02*
X579933D01*
X583270Y179289D01*
X586368D01*
X587201Y178457D01*
X583421Y174957D02*
X587201D01*
X577327Y181051D02*
X583421Y174957D01*
X576146Y181051D02*
X577327D01*
X566500Y188531D02*
Y190500D01*
X560988Y183020D02*
X566500Y188531D01*
X560988Y178886D02*
Y183020D01*
Y178886D02*
X562419D01*
X559413D02*
X560988D01*
X562419D02*
X562500Y178966D01*
Y179000D01*
X562563Y178937D01*
Y178886D02*
Y178937D01*
X553798Y167985D02*
X559413Y173600D01*
X553798Y167887D02*
Y167985D01*
X559413Y173600D02*
Y178886D01*
X583500Y167902D02*
X585500Y165902D01*
X545500Y147500D02*
Y154175D01*
X559113Y167788D01*
Y167887D01*
X554963Y146963D02*
X555500Y147500D01*
X554963Y133833D02*
Y146963D01*
X554130Y133000D02*
X554963Y133833D01*
X554032Y133000D02*
X554130D01*
X565441Y147441D02*
X565500Y147500D01*
X565632Y147368D01*
Y133833D02*
Y147368D01*
Y133833D02*
X566465Y133000D01*
X566563D01*
X564138Y175357D02*
Y178886D01*
X560340Y171559D02*
X564138Y175357D01*
X565500Y147500D02*
Y169835D01*
X567287Y171623D01*
Y178886D01*
X567500Y164500D02*
Y170421D01*
X568862Y171783D01*
Y178886D01*
X567500Y164500D02*
X575500Y156500D01*
Y147500D02*
Y156500D01*
X560340Y169113D02*
Y171559D01*
X559113Y167887D02*
X560340Y169113D01*
X570437Y169532D02*
Y178886D01*
Y169532D02*
X570968Y169000D01*
X572012Y175988D02*
Y178886D01*
Y175988D02*
X576959Y171041D01*
Y169226D02*
Y171041D01*
Y169226D02*
X578185Y168000D01*
D29*
X585500Y147500D02*
D03*
X575500D02*
D03*
X565500D02*
D03*
X555500D02*
D03*
D30*
X545500D02*
D03*
D31*
X547000Y164500D02*
D03*
M02*
