G04*
G04 #@! TF.GenerationSoftware,Altium Limited,Altium Designer,19.1.8 (144)*
G04*
G04 Layer_Color=32768*
%FSLAX25Y25*%
%MOIN*%
G70*
G01*
G75*
%ADD33C,0.00394*%
%ADD35C,0.00197*%
D33*
X552555Y131524D02*
X559445D01*
X552555Y134476D02*
X559445D01*
Y131524D02*
Y134476D01*
X552555Y131524D02*
Y134476D01*
X554917Y133000D02*
X557083D01*
X556000Y131917D02*
Y134083D01*
X565087Y131524D02*
X571976D01*
X565087Y134476D02*
X571976D01*
Y131524D02*
Y134476D01*
X565087Y131524D02*
Y134476D01*
X567449Y133000D02*
X569614D01*
X568532Y131917D02*
Y134083D01*
X585468Y166032D02*
Y169968D01*
X576217Y166032D02*
Y169968D01*
Y166032D02*
X585468D01*
X576217Y169968D02*
X585468D01*
X580842Y166228D02*
Y169772D01*
X579071Y168000D02*
X582614D01*
X561082Y165918D02*
Y169855D01*
X551830Y165918D02*
Y169855D01*
Y165918D02*
X561082D01*
X551830Y169855D02*
X561082D01*
X556456Y166115D02*
Y169659D01*
X554684Y167887D02*
X558227D01*
X569524Y164024D02*
Y170913D01*
X572476Y164024D02*
Y170913D01*
X569524Y164024D02*
X572476D01*
X569524Y170913D02*
X572476D01*
X571000Y166386D02*
Y168551D01*
X569917Y167469D02*
X572083D01*
D35*
X554295Y176327D02*
X578705D01*
X554295D02*
Y204673D01*
X578705D01*
Y176327D02*
Y204673D01*
M02*
