G04*
G04 #@! TF.GenerationSoftware,Altium Limited,Altium Designer,19.1.8 (144)*
G04*
G04 Layer_Color=8388736*
%FSLAX25Y25*%
%MOIN*%
G70*
G01*
G75*
%ADD12R,0.03162X0.02965*%
%ADD13R,0.03753X0.03950*%
%ADD14R,0.02965X0.03162*%
%ADD15R,0.03950X0.02965*%
%ADD16R,0.03950X0.01587*%
%ADD17R,0.01587X0.03950*%
%ADD18R,0.12020X0.15958*%
%ADD19C,0.06706*%
%ADD20R,0.06706X0.06706*%
D12*
X554032Y133000D02*
D03*
X557969D02*
D03*
X566563D02*
D03*
X570500D02*
D03*
D13*
X578185Y168000D02*
D03*
X583500D02*
D03*
X553798Y167887D02*
D03*
X559113D02*
D03*
D14*
X571000Y169437D02*
D03*
Y165500D02*
D03*
D15*
X547000Y178500D02*
D03*
Y175000D02*
D03*
X540701Y174957D02*
D03*
Y178500D02*
D03*
X546799Y187500D02*
D03*
Y184000D02*
D03*
X540500Y183957D02*
D03*
Y187500D02*
D03*
X546799Y197543D02*
D03*
Y194043D02*
D03*
X540500Y194000D02*
D03*
Y197543D02*
D03*
X578000Y217000D02*
D03*
Y213500D02*
D03*
X571701Y213457D02*
D03*
Y217000D02*
D03*
X563299Y217043D02*
D03*
Y213543D02*
D03*
X557000Y213500D02*
D03*
Y217043D02*
D03*
X547000Y217000D02*
D03*
Y213500D02*
D03*
X540701Y213457D02*
D03*
Y217000D02*
D03*
X546799Y207500D02*
D03*
Y204000D02*
D03*
X540500Y203957D02*
D03*
Y207500D02*
D03*
X586701Y203000D02*
D03*
Y206500D02*
D03*
X593000Y206543D02*
D03*
Y203000D02*
D03*
X587000Y194000D02*
D03*
Y197500D02*
D03*
X593299Y197543D02*
D03*
Y194000D02*
D03*
X587201Y184957D02*
D03*
Y188457D02*
D03*
X593500Y188500D02*
D03*
Y184957D02*
D03*
X587201Y174957D02*
D03*
Y178457D02*
D03*
X593500Y178500D02*
D03*
Y174957D02*
D03*
X586701Y213000D02*
D03*
Y216500D02*
D03*
X593000Y216543D02*
D03*
Y213000D02*
D03*
D16*
X576146Y181051D02*
D03*
Y182626D02*
D03*
Y184201D02*
D03*
Y185776D02*
D03*
Y187350D02*
D03*
Y188925D02*
D03*
Y190500D02*
D03*
Y192075D02*
D03*
Y193650D02*
D03*
Y195224D02*
D03*
Y196799D02*
D03*
Y198374D02*
D03*
Y199949D02*
D03*
X556854D02*
D03*
Y198374D02*
D03*
Y196799D02*
D03*
Y195224D02*
D03*
Y193650D02*
D03*
Y192075D02*
D03*
Y190500D02*
D03*
Y188925D02*
D03*
Y187350D02*
D03*
Y185776D02*
D03*
Y184201D02*
D03*
Y182626D02*
D03*
Y181051D02*
D03*
D17*
X573587Y202114D02*
D03*
X572012D02*
D03*
X570437D02*
D03*
X568862D02*
D03*
X567287D02*
D03*
X565713D02*
D03*
X564138D02*
D03*
X562563D02*
D03*
X560988D02*
D03*
X559413D02*
D03*
Y178886D02*
D03*
X560988D02*
D03*
X562563D02*
D03*
X564138D02*
D03*
X565713D02*
D03*
X567287D02*
D03*
X568862D02*
D03*
X570437D02*
D03*
X572012D02*
D03*
X573587D02*
D03*
D18*
X566500Y190500D02*
D03*
D19*
X585500Y147500D02*
D03*
X575500D02*
D03*
X565500D02*
D03*
X555500D02*
D03*
D20*
X545500D02*
D03*
M02*
