G04*
G04 #@! TF.GenerationSoftware,Altium Limited,Altium Designer,19.1.8 (144)*
G04*
G04 Layer_Physical_Order=2*
G04 Layer_Color=16711680*
%FSLAX25Y25*%
%MOIN*%
G70*
G01*
G75*
%ADD13C,0.01000*%
%ADD33C,0.03000*%
%ADD34C,0.05512*%
%ADD35C,0.05906*%
%ADD36R,0.05906X0.05906*%
%ADD37C,0.05315*%
%ADD38R,0.05315X0.05315*%
%ADD39R,0.05315X0.05315*%
%ADD40C,0.02362*%
G36*
X81980Y-18000D02*
Y-26578D01*
X78227Y-30331D01*
X78000Y-30286D01*
X77344Y-30416D01*
X76788Y-30788D01*
X76416Y-31344D01*
X76286Y-32000D01*
X76416Y-32656D01*
X76788Y-33212D01*
X77344Y-33584D01*
X78000Y-33714D01*
X78656Y-33584D01*
X79212Y-33212D01*
X79584Y-32656D01*
X79714Y-32000D01*
X79669Y-31773D01*
X83721Y-27721D01*
X83942Y-27390D01*
X84020Y-27000D01*
Y-18000D01*
X103070Y-18000D01*
X103219Y-18500D01*
X102788Y-18788D01*
X102416Y-19344D01*
X102286Y-20000D01*
X102331Y-20227D01*
X91265Y-31293D01*
X91212Y-31288D01*
X90656Y-30916D01*
X90000Y-30786D01*
X89344Y-30916D01*
X88788Y-31288D01*
X88416Y-31844D01*
X88286Y-32500D01*
X88416Y-33156D01*
X88788Y-33712D01*
X89344Y-34084D01*
X90000Y-34214D01*
X90656Y-34084D01*
X91212Y-33712D01*
X91341Y-33520D01*
X91500D01*
X91890Y-33442D01*
X92221Y-33221D01*
X103773Y-21669D01*
X104000Y-21714D01*
X104656Y-21584D01*
X105212Y-21212D01*
X105584Y-20656D01*
X105714Y-20000D01*
X105584Y-19344D01*
X105212Y-18788D01*
X104781Y-18500D01*
X104930Y-18000D01*
X126405D01*
X126596Y-18462D01*
X115078Y-29980D01*
X114341D01*
X114212Y-29788D01*
X113656Y-29416D01*
X113000Y-29286D01*
X112344Y-29416D01*
X111788Y-29788D01*
X111416Y-30344D01*
X111286Y-31000D01*
X111416Y-31656D01*
X111788Y-32212D01*
X112344Y-32584D01*
X113000Y-32714D01*
X113656Y-32584D01*
X114212Y-32212D01*
X114341Y-32020D01*
X115500D01*
X115890Y-31942D01*
X116221Y-31721D01*
X128538Y-19404D01*
X129000Y-19595D01*
Y-37000D01*
X129000D01*
Y-59480D01*
X116000D01*
Y-37000D01*
X44500Y-37000D01*
Y-61901D01*
X44480Y-62000D01*
Y-62159D01*
X44288Y-62288D01*
X43916Y-62844D01*
X43786Y-63500D01*
X43916Y-64156D01*
X44288Y-64712D01*
X44500Y-64854D01*
Y-103000D01*
X116000D01*
Y-72039D01*
X122155D01*
X129000Y-78884D01*
Y-113000D01*
X23000D01*
Y-88430D01*
X23500Y-88281D01*
X23788Y-88712D01*
X24344Y-89084D01*
X25000Y-89214D01*
X25656Y-89084D01*
X26212Y-88712D01*
X26584Y-88156D01*
X26714Y-87500D01*
X26584Y-86844D01*
X26212Y-86288D01*
X26020Y-86159D01*
Y-80710D01*
X26656Y-80584D01*
X27212Y-80212D01*
X27584Y-79656D01*
X27714Y-79000D01*
X27584Y-78344D01*
X27212Y-77788D01*
X26656Y-77416D01*
X26000Y-77286D01*
X25344Y-77416D01*
X24788Y-77788D01*
X24416Y-78344D01*
X24286Y-79000D01*
X24331Y-79227D01*
X24279Y-79279D01*
X24058Y-79610D01*
X23980Y-80000D01*
Y-86159D01*
X23788Y-86288D01*
X23500Y-86719D01*
X23000Y-86570D01*
Y-53520D01*
X24578D01*
X27331Y-56273D01*
X27286Y-56500D01*
X27416Y-57156D01*
X27788Y-57712D01*
X28344Y-58084D01*
X29000Y-58214D01*
X29656Y-58084D01*
X30212Y-57712D01*
X30584Y-57156D01*
X30714Y-56500D01*
X30584Y-55844D01*
X30212Y-55288D01*
X29656Y-54916D01*
X29000Y-54786D01*
X28773Y-54831D01*
X25721Y-51779D01*
X25390Y-51558D01*
X25000Y-51480D01*
X23000D01*
Y-18000D01*
X44500D01*
X81980D01*
D02*
G37*
G36*
X92000Y-62980D02*
X86922D01*
X83221Y-59279D01*
X82890Y-59058D01*
X82500Y-58980D01*
X53500D01*
Y-50000D01*
X92000D01*
Y-62980D01*
D02*
G37*
G36*
X129000Y-72463D02*
X128538Y-72654D01*
X124442Y-68558D01*
X123780Y-68116D01*
X123000Y-67961D01*
X116000D01*
Y-61520D01*
X129000D01*
Y-72463D01*
D02*
G37*
G36*
X85779Y-64721D02*
X86110Y-64942D01*
X86500Y-65020D01*
X92000D01*
Y-82000D01*
X53500D01*
Y-61020D01*
X82078D01*
X85779Y-64721D01*
D02*
G37*
G36*
X136096Y-177962D02*
X135227Y-178831D01*
X135000Y-178786D01*
X134344Y-178916D01*
X133788Y-179288D01*
X133416Y-179844D01*
X133286Y-180500D01*
X133416Y-181156D01*
X133788Y-181712D01*
X134344Y-182084D01*
X135000Y-182214D01*
X135656Y-182084D01*
X136212Y-181712D01*
X136584Y-181156D01*
X136714Y-180500D01*
X136669Y-180273D01*
X139422Y-177520D01*
X143000D01*
Y-193980D01*
X116841D01*
X116712Y-193788D01*
X116156Y-193416D01*
X115500Y-193286D01*
X114844Y-193416D01*
X114288Y-193788D01*
X113916Y-194344D01*
X113786Y-195000D01*
X113916Y-195656D01*
X114288Y-196212D01*
X114719Y-196500D01*
X114570Y-197000D01*
X57619D01*
X57218Y-196500D01*
X57284Y-196000D01*
X57172Y-195150D01*
X56844Y-194358D01*
X56322Y-193678D01*
X55642Y-193156D01*
X54850Y-192828D01*
X54000Y-192716D01*
X53150Y-192828D01*
X52358Y-193156D01*
X51678Y-193678D01*
X51156Y-194358D01*
X50828Y-195150D01*
X50716Y-196000D01*
X50782Y-196500D01*
X50381Y-197000D01*
X50000D01*
Y-212058D01*
X47779Y-214279D01*
X47558Y-214610D01*
X47480Y-215000D01*
Y-224659D01*
X47288Y-224788D01*
X47115Y-225047D01*
X46644Y-224852D01*
X46714Y-224500D01*
X46584Y-223844D01*
X46212Y-223288D01*
X45656Y-222916D01*
X45000Y-222786D01*
X44773Y-222831D01*
X42721Y-220779D01*
X42390Y-220558D01*
X42000Y-220480D01*
X30841D01*
X30712Y-220288D01*
X30156Y-219916D01*
X29500Y-219786D01*
X28844Y-219916D01*
X28288Y-220288D01*
X27916Y-220844D01*
X27786Y-221500D01*
X27916Y-222156D01*
X28288Y-222712D01*
X28844Y-223084D01*
X29500Y-223214D01*
X30156Y-223084D01*
X30712Y-222712D01*
X30841Y-222520D01*
X41578D01*
X43331Y-224273D01*
X43286Y-224500D01*
X43416Y-225156D01*
X43788Y-225712D01*
X44344Y-226084D01*
X45000Y-226214D01*
X45656Y-226084D01*
X46212Y-225712D01*
X46385Y-225453D01*
X46856Y-225648D01*
X46786Y-226000D01*
X46916Y-226656D01*
X47288Y-227212D01*
X47844Y-227584D01*
X48500Y-227714D01*
X49156Y-227584D01*
X49500Y-227354D01*
X50000Y-227612D01*
Y-242000D01*
X67570D01*
X67719Y-242500D01*
X67288Y-242788D01*
X66916Y-243344D01*
X66786Y-244000D01*
X66831Y-244227D01*
X66182Y-244876D01*
X65604D01*
X65214Y-244954D01*
X64883Y-245175D01*
X55227Y-254831D01*
X55000Y-254786D01*
X54344Y-254916D01*
X53788Y-255288D01*
X53416Y-255844D01*
X53286Y-256500D01*
X53416Y-257156D01*
X53788Y-257712D01*
X54344Y-258084D01*
X55000Y-258214D01*
X55656Y-258084D01*
X56212Y-257712D01*
X56584Y-257156D01*
X56714Y-256500D01*
X56669Y-256273D01*
X66027Y-246915D01*
X66604D01*
X66994Y-246838D01*
X67325Y-246617D01*
X68273Y-245669D01*
X68500Y-245714D01*
X69156Y-245584D01*
X69712Y-245212D01*
X70084Y-244656D01*
X70214Y-244000D01*
X70084Y-243344D01*
X69712Y-242788D01*
X69281Y-242500D01*
X69430Y-242000D01*
X81905D01*
X82096Y-242462D01*
X75279Y-249279D01*
X75058Y-249610D01*
X74980Y-250000D01*
Y-252159D01*
X74788Y-252288D01*
X74416Y-252844D01*
X74286Y-253500D01*
X74416Y-254156D01*
X74788Y-254712D01*
X75344Y-255084D01*
X76000Y-255214D01*
X76656Y-255084D01*
X77212Y-254712D01*
X77584Y-254156D01*
X77714Y-253500D01*
X77584Y-252844D01*
X77212Y-252288D01*
X77020Y-252159D01*
Y-250422D01*
X83253Y-244189D01*
X83641Y-244508D01*
X83416Y-244844D01*
X83286Y-245500D01*
X83416Y-246156D01*
X83788Y-246712D01*
X83980Y-246841D01*
Y-256078D01*
X78227Y-261831D01*
X78000Y-261786D01*
X77344Y-261916D01*
X76788Y-262288D01*
X76416Y-262844D01*
X76286Y-263500D01*
X76385Y-264000D01*
X76091Y-264500D01*
X26000D01*
X25868Y-246641D01*
X26156Y-246584D01*
X26712Y-246212D01*
X26841Y-246020D01*
X41500D01*
X41890Y-245942D01*
X42221Y-245721D01*
X45273Y-242669D01*
X45500Y-242714D01*
X46156Y-242584D01*
X46712Y-242212D01*
X47084Y-241656D01*
X47214Y-241000D01*
X47084Y-240344D01*
X46712Y-239788D01*
X46156Y-239416D01*
X45500Y-239286D01*
X44844Y-239416D01*
X44288Y-239788D01*
X43916Y-240344D01*
X43786Y-241000D01*
X43831Y-241227D01*
X41078Y-243980D01*
X26841D01*
X26712Y-243788D01*
X26156Y-243416D01*
X25843Y-243354D01*
X25766Y-232862D01*
X26227Y-232669D01*
X29480Y-235922D01*
Y-237659D01*
X29288Y-237788D01*
X28916Y-238344D01*
X28786Y-239000D01*
X28916Y-239656D01*
X29288Y-240212D01*
X29844Y-240584D01*
X30500Y-240714D01*
X31156Y-240584D01*
X31712Y-240212D01*
X32084Y-239656D01*
X32214Y-239000D01*
X32084Y-238344D01*
X31712Y-237788D01*
X31520Y-237659D01*
Y-235500D01*
X31442Y-235110D01*
X31221Y-234779D01*
X27169Y-230727D01*
X27214Y-230500D01*
X27084Y-229844D01*
X26712Y-229288D01*
X26156Y-228916D01*
X25736Y-228833D01*
X25503Y-197355D01*
X25855Y-197000D01*
X25500D01*
Y-177500D01*
X26480D01*
Y-181500D01*
X26558Y-181890D01*
X26779Y-182221D01*
X36518Y-191960D01*
X36849Y-192181D01*
X37239Y-192259D01*
X45985D01*
X46288Y-192712D01*
X46844Y-193084D01*
X47500Y-193214D01*
X48156Y-193084D01*
X48712Y-192712D01*
X49084Y-192156D01*
X49214Y-191500D01*
X49084Y-190844D01*
X48712Y-190288D01*
X48156Y-189916D01*
X47500Y-189786D01*
X46844Y-189916D01*
X46390Y-190220D01*
X37662D01*
X28520Y-181078D01*
Y-177500D01*
X55631D01*
X55779Y-177721D01*
X67831Y-189773D01*
X67786Y-190000D01*
X67916Y-190656D01*
X68288Y-191212D01*
X68844Y-191584D01*
X69500Y-191714D01*
X70156Y-191584D01*
X70712Y-191212D01*
X71084Y-190656D01*
X71214Y-190000D01*
X71084Y-189344D01*
X70712Y-188788D01*
X70156Y-188416D01*
X69500Y-188286D01*
X69273Y-188331D01*
X58904Y-177962D01*
X59095Y-177500D01*
X79570D01*
X79719Y-178000D01*
X79288Y-178288D01*
X78916Y-178844D01*
X78786Y-179500D01*
X78916Y-180156D01*
X79288Y-180712D01*
X79844Y-181084D01*
X80500Y-181214D01*
X81156Y-181084D01*
X81712Y-180712D01*
X81841Y-180520D01*
X85000D01*
X85390Y-180442D01*
X85721Y-180221D01*
X88442Y-177500D01*
X92070D01*
X92219Y-178000D01*
X91788Y-178288D01*
X91416Y-178844D01*
X91286Y-179500D01*
X91331Y-179727D01*
X84779Y-186279D01*
X84558Y-186610D01*
X84480Y-187000D01*
Y-189159D01*
X84288Y-189288D01*
X83916Y-189844D01*
X83786Y-190500D01*
X83916Y-191156D01*
X84288Y-191712D01*
X84844Y-192084D01*
X85500Y-192214D01*
X86156Y-192084D01*
X86712Y-191712D01*
X87084Y-191156D01*
X87214Y-190500D01*
X87084Y-189844D01*
X86712Y-189288D01*
X86520Y-189159D01*
Y-187422D01*
X92773Y-181169D01*
X93000Y-181214D01*
X93656Y-181084D01*
X94212Y-180712D01*
X94584Y-180156D01*
X94714Y-179500D01*
X94584Y-178844D01*
X94212Y-178288D01*
X93781Y-178000D01*
X93930Y-177500D01*
X101980D01*
Y-177631D01*
X102058Y-178022D01*
X102279Y-178352D01*
X102392Y-178466D01*
X102286Y-179000D01*
X102416Y-179656D01*
X102788Y-180212D01*
X102998Y-180353D01*
X103062Y-180996D01*
X97727Y-186331D01*
X97500Y-186286D01*
X96844Y-186416D01*
X96288Y-186788D01*
X95916Y-187344D01*
X95786Y-188000D01*
X95916Y-188656D01*
X96288Y-189212D01*
X96844Y-189584D01*
X97500Y-189714D01*
X98156Y-189584D01*
X98712Y-189212D01*
X99084Y-188656D01*
X99214Y-188000D01*
X99169Y-187773D01*
X104741Y-182201D01*
X104903D01*
X105294Y-182123D01*
X105624Y-181902D01*
X110027Y-177500D01*
X123905D01*
X124096Y-177962D01*
X117727Y-184331D01*
X117500Y-184286D01*
X116844Y-184416D01*
X116288Y-184788D01*
X115916Y-185344D01*
X115786Y-186000D01*
X115916Y-186656D01*
X116288Y-187212D01*
X116844Y-187584D01*
X117500Y-187714D01*
X118156Y-187584D01*
X118712Y-187212D01*
X119084Y-186656D01*
X119214Y-186000D01*
X119169Y-185773D01*
X127442Y-177500D01*
X135905D01*
X136096Y-177962D01*
D02*
G37*
G36*
X143000Y-197000D02*
Y-222961D01*
X116500D01*
Y-220409D01*
X117000Y-220115D01*
X117500Y-220214D01*
X118156Y-220084D01*
X118712Y-219712D01*
X119084Y-219156D01*
X119214Y-218500D01*
X119169Y-218273D01*
X120422Y-217020D01*
X138659D01*
X138788Y-217212D01*
X139344Y-217584D01*
X140000Y-217714D01*
X140656Y-217584D01*
X141212Y-217212D01*
X141584Y-216656D01*
X141714Y-216000D01*
X141584Y-215344D01*
X141212Y-214788D01*
X140656Y-214416D01*
X140000Y-214286D01*
X139344Y-214416D01*
X138788Y-214788D01*
X138659Y-214980D01*
X120000D01*
X119610Y-215058D01*
X119279Y-215279D01*
X117727Y-216831D01*
X117500Y-216786D01*
X117000Y-216885D01*
X116500Y-216591D01*
Y-200615D01*
X116656Y-200584D01*
X117212Y-200212D01*
X117584Y-199656D01*
X117714Y-199000D01*
X117584Y-198344D01*
X117212Y-197788D01*
X116781Y-197500D01*
X116930Y-197000D01*
X116430D01*
X116281Y-196500D01*
X116712Y-196212D01*
X116841Y-196020D01*
X143000D01*
Y-197000D01*
D02*
G37*
G36*
X102000Y-236500D02*
X66000D01*
Y-201000D01*
X102000D01*
Y-236500D01*
D02*
G37*
G36*
X143000Y-242000D02*
Y-264500D01*
X134357D01*
X118435Y-248577D01*
X118580Y-248099D01*
X118656Y-248084D01*
X119110Y-247780D01*
X119338D01*
X133331Y-261773D01*
X133286Y-262000D01*
X133416Y-262656D01*
X133788Y-263212D01*
X134344Y-263584D01*
X135000Y-263714D01*
X135656Y-263584D01*
X136212Y-263212D01*
X136584Y-262656D01*
X136714Y-262000D01*
X136584Y-261344D01*
X136212Y-260788D01*
X135656Y-260416D01*
X135000Y-260286D01*
X134773Y-260331D01*
X120482Y-246040D01*
X120151Y-245819D01*
X119761Y-245741D01*
X119515D01*
X119212Y-245288D01*
X118656Y-244916D01*
X118000Y-244786D01*
X117344Y-244916D01*
X116788Y-245288D01*
X116416Y-245844D01*
X116401Y-245920D01*
X115923Y-246065D01*
X112448Y-242591D01*
Y-242000D01*
X116500D01*
Y-227039D01*
X143000D01*
Y-242000D01*
D02*
G37*
G36*
X125096Y-264038D02*
X124905Y-264500D01*
X124027D01*
X101988Y-242462D01*
X102180Y-242000D01*
X103058D01*
X125096Y-264038D01*
D02*
G37*
G36*
X95809Y-242387D02*
X95786Y-242500D01*
X95916Y-243156D01*
X96288Y-243712D01*
X96480Y-243841D01*
Y-244759D01*
X95779Y-245460D01*
X95558Y-245791D01*
X95480Y-246181D01*
Y-248159D01*
X95288Y-248288D01*
X94916Y-248844D01*
X94786Y-249500D01*
X94916Y-250156D01*
X95288Y-250712D01*
X95844Y-251084D01*
X96500Y-251214D01*
X97156Y-251084D01*
X97712Y-250712D01*
X98084Y-250156D01*
X98214Y-249500D01*
X98084Y-248844D01*
X97712Y-248288D01*
X97520Y-248159D01*
Y-246603D01*
X98221Y-245902D01*
X98442Y-245571D01*
X98520Y-245181D01*
Y-243841D01*
X98712Y-243712D01*
X99084Y-243156D01*
X99099Y-243080D01*
X99577Y-242935D01*
X120681Y-264038D01*
X120489Y-264500D01*
X115281D01*
X115156Y-264416D01*
X114500Y-264286D01*
X113844Y-264416D01*
X113719Y-264500D01*
X108442D01*
X107020Y-263078D01*
Y-261341D01*
X107212Y-261212D01*
X107584Y-260656D01*
X107714Y-260000D01*
X107584Y-259344D01*
X107212Y-258788D01*
X106656Y-258416D01*
X106000Y-258286D01*
X105344Y-258416D01*
X104788Y-258788D01*
X104416Y-259344D01*
X104286Y-260000D01*
X104416Y-260656D01*
X104788Y-261212D01*
X104980Y-261341D01*
Y-263500D01*
X105058Y-263890D01*
X105131Y-264000D01*
X104865Y-264500D01*
X86942D01*
X85669Y-263227D01*
X85714Y-263000D01*
X85584Y-262344D01*
X85212Y-261788D01*
X84656Y-261416D01*
X84000Y-261286D01*
X83344Y-261416D01*
X82788Y-261788D01*
X82416Y-262344D01*
X82286Y-263000D01*
X82416Y-263656D01*
X82646Y-264000D01*
X82388Y-264500D01*
X79909D01*
X79615Y-264000D01*
X79714Y-263500D01*
X79669Y-263273D01*
X85721Y-257221D01*
X85942Y-256890D01*
X86020Y-256500D01*
Y-246841D01*
X86212Y-246712D01*
X86584Y-246156D01*
X86714Y-245500D01*
X86584Y-244844D01*
X86212Y-244288D01*
X85656Y-243916D01*
X85000Y-243786D01*
X84344Y-243916D01*
X84008Y-244141D01*
X83689Y-243753D01*
X85442Y-242000D01*
X95491D01*
X95809Y-242387D01*
D02*
G37*
G36*
X368000Y-48070D02*
X367500Y-48219D01*
X367212Y-47788D01*
X366656Y-47416D01*
X366000Y-47286D01*
X365344Y-47416D01*
X364788Y-47788D01*
X364416Y-48344D01*
X364286Y-49000D01*
X364416Y-49656D01*
X364788Y-50212D01*
X364980Y-50341D01*
Y-55790D01*
X364344Y-55916D01*
X363788Y-56288D01*
X363416Y-56844D01*
X363286Y-57500D01*
X363416Y-58156D01*
X363788Y-58712D01*
X364344Y-59084D01*
X365000Y-59214D01*
X365656Y-59084D01*
X366212Y-58712D01*
X366584Y-58156D01*
X366714Y-57500D01*
X366669Y-57273D01*
X366721Y-57221D01*
X366942Y-56890D01*
X367020Y-56500D01*
Y-50341D01*
X367212Y-50212D01*
X367500Y-49781D01*
X368000Y-49930D01*
Y-82980D01*
X366422D01*
X363669Y-80227D01*
X363714Y-80000D01*
X363584Y-79344D01*
X363212Y-78788D01*
X362656Y-78416D01*
X362000Y-78286D01*
X361344Y-78416D01*
X360788Y-78788D01*
X360416Y-79344D01*
X360286Y-80000D01*
X360416Y-80656D01*
X360788Y-81212D01*
X361344Y-81584D01*
X362000Y-81714D01*
X362227Y-81669D01*
X365279Y-84721D01*
X365610Y-84942D01*
X366000Y-85020D01*
X368000D01*
Y-118500D01*
X346500D01*
X309020D01*
Y-109922D01*
X312773Y-106169D01*
X313000Y-106214D01*
X313656Y-106084D01*
X314212Y-105712D01*
X314584Y-105156D01*
X314714Y-104500D01*
X314584Y-103844D01*
X314212Y-103288D01*
X313656Y-102916D01*
X313000Y-102786D01*
X312344Y-102916D01*
X311788Y-103288D01*
X311416Y-103844D01*
X311286Y-104500D01*
X311331Y-104727D01*
X307279Y-108779D01*
X307058Y-109110D01*
X306980Y-109500D01*
Y-118500D01*
X287930Y-118500D01*
X287781Y-118000D01*
X288212Y-117712D01*
X288584Y-117156D01*
X288714Y-116500D01*
X288669Y-116273D01*
X299735Y-105207D01*
X299788Y-105212D01*
X300344Y-105584D01*
X301000Y-105714D01*
X301656Y-105584D01*
X302212Y-105212D01*
X302584Y-104656D01*
X302714Y-104000D01*
X302584Y-103344D01*
X302212Y-102788D01*
X301656Y-102416D01*
X301000Y-102286D01*
X300344Y-102416D01*
X299788Y-102788D01*
X299659Y-102980D01*
X299500D01*
X299110Y-103058D01*
X298779Y-103279D01*
X287227Y-114831D01*
X287000Y-114786D01*
X286344Y-114916D01*
X285788Y-115288D01*
X285416Y-115844D01*
X285286Y-116500D01*
X285416Y-117156D01*
X285788Y-117712D01*
X286219Y-118000D01*
X286070Y-118500D01*
X264595D01*
X264404Y-118038D01*
X275922Y-106520D01*
X276659D01*
X276788Y-106712D01*
X277344Y-107084D01*
X278000Y-107214D01*
X278656Y-107084D01*
X279212Y-106712D01*
X279584Y-106156D01*
X279714Y-105500D01*
X279584Y-104844D01*
X279212Y-104288D01*
X278656Y-103916D01*
X278000Y-103786D01*
X277344Y-103916D01*
X276788Y-104288D01*
X276659Y-104480D01*
X275500D01*
X275110Y-104558D01*
X274779Y-104779D01*
X262462Y-117096D01*
X262000Y-116905D01*
Y-99500D01*
X346500Y-99500D01*
Y-74214D01*
X347156Y-74084D01*
X347712Y-73712D01*
X348084Y-73156D01*
X348214Y-72500D01*
X348084Y-71844D01*
X347712Y-71288D01*
X347156Y-70916D01*
X346500Y-70786D01*
Y-33500D01*
X275000D01*
Y-60961D01*
X263345D01*
X262000Y-59616D01*
Y-23500D01*
X368000D01*
Y-48070D01*
D02*
G37*
G36*
X262500Y-65039D02*
X275000D01*
Y-74980D01*
X262000D01*
Y-65334D01*
X262386Y-65017D01*
X262500Y-65039D01*
D02*
G37*
G36*
X334000Y-91500D02*
X295500D01*
Y-59500D01*
X334000D01*
Y-91500D01*
D02*
G37*
G36*
X275000Y-97162D02*
X262000D01*
Y-77020D01*
X275000D01*
Y-97162D01*
D02*
G37*
G36*
X373132Y-234359D02*
X372844Y-234416D01*
X372288Y-234788D01*
X372159Y-234980D01*
X357500D01*
X357110Y-235058D01*
X356779Y-235279D01*
X353727Y-238331D01*
X353500Y-238286D01*
X352844Y-238416D01*
X352288Y-238788D01*
X351916Y-239344D01*
X351786Y-240000D01*
X351916Y-240656D01*
X352288Y-241212D01*
X352844Y-241584D01*
X353500Y-241714D01*
X354156Y-241584D01*
X354712Y-241212D01*
X355084Y-240656D01*
X355214Y-240000D01*
X355169Y-239773D01*
X357922Y-237020D01*
X372159D01*
X372288Y-237212D01*
X372844Y-237584D01*
X373157Y-237646D01*
X373234Y-248138D01*
X372773Y-248331D01*
X369520Y-245078D01*
Y-243341D01*
X369712Y-243212D01*
X370084Y-242656D01*
X370214Y-242000D01*
X370084Y-241344D01*
X369712Y-240788D01*
X369156Y-240416D01*
X368500Y-240286D01*
X367844Y-240416D01*
X367288Y-240788D01*
X366916Y-241344D01*
X366786Y-242000D01*
X366916Y-242656D01*
X367288Y-243212D01*
X367480Y-243341D01*
Y-245500D01*
X367558Y-245890D01*
X367779Y-246221D01*
X371831Y-250273D01*
X371786Y-250500D01*
X371916Y-251156D01*
X372288Y-251712D01*
X372844Y-252084D01*
X373264Y-252167D01*
X373497Y-283645D01*
X373145Y-284000D01*
X373500D01*
Y-303500D01*
X372520D01*
Y-299500D01*
X372442Y-299110D01*
X372221Y-298779D01*
X362482Y-289040D01*
X362151Y-288819D01*
X361761Y-288741D01*
X353015D01*
X352712Y-288288D01*
X352156Y-287916D01*
X351500Y-287786D01*
X350844Y-287916D01*
X350288Y-288288D01*
X349916Y-288844D01*
X349786Y-289500D01*
X349916Y-290156D01*
X350288Y-290712D01*
X350844Y-291084D01*
X351500Y-291214D01*
X352156Y-291084D01*
X352610Y-290780D01*
X361338D01*
X370480Y-299922D01*
Y-303500D01*
X343369D01*
X343221Y-303279D01*
X331169Y-291227D01*
X331214Y-291000D01*
X331084Y-290344D01*
X330712Y-289788D01*
X330156Y-289416D01*
X329500Y-289286D01*
X328844Y-289416D01*
X328288Y-289788D01*
X327916Y-290344D01*
X327786Y-291000D01*
X327916Y-291656D01*
X328288Y-292212D01*
X328844Y-292584D01*
X329500Y-292714D01*
X329727Y-292669D01*
X340096Y-303038D01*
X339905Y-303500D01*
X319430D01*
X319281Y-303000D01*
X319712Y-302712D01*
X320084Y-302156D01*
X320214Y-301500D01*
X320084Y-300844D01*
X319712Y-300288D01*
X319156Y-299916D01*
X318500Y-299786D01*
X317844Y-299916D01*
X317288Y-300288D01*
X317159Y-300480D01*
X314000D01*
X313610Y-300558D01*
X313279Y-300779D01*
X310558Y-303500D01*
X306930D01*
X306781Y-303000D01*
X307212Y-302712D01*
X307584Y-302156D01*
X307714Y-301500D01*
X307669Y-301273D01*
X314221Y-294721D01*
X314442Y-294390D01*
X314520Y-294000D01*
Y-291841D01*
X314712Y-291712D01*
X315084Y-291156D01*
X315214Y-290500D01*
X315084Y-289844D01*
X314712Y-289288D01*
X314156Y-288916D01*
X313500Y-288786D01*
X312844Y-288916D01*
X312288Y-289288D01*
X311916Y-289844D01*
X311786Y-290500D01*
X311916Y-291156D01*
X312288Y-291712D01*
X312480Y-291841D01*
Y-293578D01*
X306227Y-299831D01*
X306000Y-299786D01*
X305344Y-299916D01*
X304788Y-300288D01*
X304416Y-300844D01*
X304286Y-301500D01*
X304416Y-302156D01*
X304788Y-302712D01*
X305219Y-303000D01*
X305070Y-303500D01*
X297020D01*
Y-303369D01*
X296942Y-302978D01*
X296721Y-302648D01*
X296608Y-302534D01*
X296714Y-302000D01*
X296584Y-301344D01*
X296212Y-300788D01*
X296002Y-300647D01*
X295938Y-300004D01*
X301273Y-294669D01*
X301500Y-294714D01*
X302156Y-294584D01*
X302712Y-294212D01*
X303084Y-293656D01*
X303214Y-293000D01*
X303084Y-292344D01*
X302712Y-291788D01*
X302156Y-291416D01*
X301500Y-291286D01*
X300844Y-291416D01*
X300288Y-291788D01*
X299916Y-292344D01*
X299786Y-293000D01*
X299831Y-293227D01*
X294259Y-298799D01*
X294097D01*
X293706Y-298877D01*
X293376Y-299098D01*
X288973Y-303500D01*
X275095D01*
X274904Y-303038D01*
X281273Y-296669D01*
X281500Y-296714D01*
X282156Y-296584D01*
X282712Y-296212D01*
X283084Y-295656D01*
X283214Y-295000D01*
X283084Y-294344D01*
X282712Y-293788D01*
X282156Y-293416D01*
X281500Y-293286D01*
X280844Y-293416D01*
X280288Y-293788D01*
X279916Y-294344D01*
X279786Y-295000D01*
X279831Y-295227D01*
X271558Y-303500D01*
X263095D01*
X262904Y-303038D01*
X263773Y-302169D01*
X264000Y-302214D01*
X264656Y-302084D01*
X265212Y-301712D01*
X265584Y-301156D01*
X265714Y-300500D01*
X265584Y-299844D01*
X265212Y-299288D01*
X264656Y-298916D01*
X264000Y-298786D01*
X263344Y-298916D01*
X262788Y-299288D01*
X262416Y-299844D01*
X262286Y-300500D01*
X262331Y-300727D01*
X259578Y-303480D01*
X256000D01*
Y-287020D01*
X282159D01*
X282288Y-287212D01*
X282844Y-287584D01*
X283500Y-287714D01*
X284156Y-287584D01*
X284712Y-287212D01*
X285084Y-286656D01*
X285214Y-286000D01*
X285084Y-285344D01*
X284712Y-284788D01*
X284281Y-284500D01*
X284430Y-284000D01*
X341381D01*
X341782Y-284500D01*
X341716Y-285000D01*
X341828Y-285850D01*
X342156Y-286642D01*
X342678Y-287322D01*
X343358Y-287844D01*
X344150Y-288172D01*
X345000Y-288284D01*
X345850Y-288172D01*
X346642Y-287844D01*
X347322Y-287322D01*
X347844Y-286642D01*
X348172Y-285850D01*
X348284Y-285000D01*
X348218Y-284500D01*
X348619Y-284000D01*
X349000D01*
Y-268942D01*
X351221Y-266721D01*
X351442Y-266390D01*
X351520Y-266000D01*
Y-256341D01*
X351712Y-256212D01*
X351885Y-255953D01*
X352356Y-256148D01*
X352286Y-256500D01*
X352416Y-257156D01*
X352788Y-257712D01*
X353344Y-258084D01*
X354000Y-258214D01*
X354227Y-258169D01*
X356279Y-260221D01*
X356610Y-260442D01*
X357000Y-260520D01*
X368159D01*
X368288Y-260712D01*
X368844Y-261084D01*
X369500Y-261214D01*
X370156Y-261084D01*
X370712Y-260712D01*
X371084Y-260156D01*
X371214Y-259500D01*
X371084Y-258844D01*
X370712Y-258288D01*
X370156Y-257916D01*
X369500Y-257786D01*
X368844Y-257916D01*
X368288Y-258288D01*
X368159Y-258480D01*
X357422D01*
X355669Y-256727D01*
X355714Y-256500D01*
X355584Y-255844D01*
X355212Y-255288D01*
X354656Y-254916D01*
X354000Y-254786D01*
X353344Y-254916D01*
X352788Y-255288D01*
X352615Y-255547D01*
X352144Y-255352D01*
X352214Y-255000D01*
X352084Y-254344D01*
X351712Y-253788D01*
X351156Y-253416D01*
X350500Y-253286D01*
X349844Y-253416D01*
X349500Y-253646D01*
X349000Y-253387D01*
Y-239000D01*
X331430D01*
X331281Y-238500D01*
X331712Y-238212D01*
X332084Y-237656D01*
X332214Y-237000D01*
X332169Y-236773D01*
X332818Y-236124D01*
X333396D01*
X333786Y-236046D01*
X334117Y-235825D01*
X343773Y-226169D01*
X344000Y-226214D01*
X344656Y-226084D01*
X345212Y-225712D01*
X345584Y-225156D01*
X345714Y-224500D01*
X345584Y-223844D01*
X345212Y-223288D01*
X344656Y-222916D01*
X344000Y-222786D01*
X343344Y-222916D01*
X342788Y-223288D01*
X342416Y-223844D01*
X342286Y-224500D01*
X342331Y-224727D01*
X332974Y-234085D01*
X332396D01*
X332006Y-234162D01*
X331675Y-234383D01*
X330727Y-235331D01*
X330500Y-235286D01*
X329844Y-235416D01*
X329288Y-235788D01*
X328916Y-236344D01*
X328786Y-237000D01*
X328916Y-237656D01*
X329288Y-238212D01*
X329719Y-238500D01*
X329570Y-239000D01*
X317095D01*
X316904Y-238538D01*
X323721Y-231721D01*
X323942Y-231390D01*
X324020Y-231000D01*
Y-228841D01*
X324212Y-228712D01*
X324584Y-228156D01*
X324714Y-227500D01*
X324584Y-226844D01*
X324212Y-226288D01*
X323656Y-225916D01*
X323000Y-225786D01*
X322344Y-225916D01*
X321788Y-226288D01*
X321416Y-226844D01*
X321286Y-227500D01*
X321416Y-228156D01*
X321788Y-228712D01*
X321980Y-228841D01*
Y-230578D01*
X315747Y-236811D01*
X315359Y-236492D01*
X315584Y-236156D01*
X315714Y-235500D01*
X315584Y-234844D01*
X315212Y-234288D01*
X315020Y-234159D01*
Y-224922D01*
X320773Y-219169D01*
X321000Y-219214D01*
X321656Y-219084D01*
X322212Y-218712D01*
X322584Y-218156D01*
X322714Y-217500D01*
X322615Y-217000D01*
X322909Y-216500D01*
X373000D01*
X373132Y-234359D01*
D02*
G37*
G36*
X319385Y-217000D02*
X319286Y-217500D01*
X319331Y-217727D01*
X313279Y-223779D01*
X313058Y-224110D01*
X312980Y-224500D01*
Y-234159D01*
X312788Y-234288D01*
X312416Y-234844D01*
X312286Y-235500D01*
X312416Y-236156D01*
X312788Y-236712D01*
X313344Y-237084D01*
X314000Y-237214D01*
X314656Y-237084D01*
X314992Y-236859D01*
X315311Y-237247D01*
X313558Y-239000D01*
X303509D01*
X303191Y-238614D01*
X303214Y-238500D01*
X303084Y-237844D01*
X302712Y-237288D01*
X302520Y-237159D01*
Y-236241D01*
X303221Y-235540D01*
X303442Y-235209D01*
X303520Y-234819D01*
Y-232841D01*
X303712Y-232712D01*
X304084Y-232156D01*
X304214Y-231500D01*
X304084Y-230844D01*
X303712Y-230288D01*
X303156Y-229916D01*
X302500Y-229786D01*
X301844Y-229916D01*
X301288Y-230288D01*
X300916Y-230844D01*
X300786Y-231500D01*
X300916Y-232156D01*
X301288Y-232712D01*
X301480Y-232841D01*
Y-234397D01*
X300779Y-235098D01*
X300558Y-235429D01*
X300480Y-235819D01*
Y-237159D01*
X300288Y-237288D01*
X299916Y-237844D01*
X299901Y-237920D01*
X299423Y-238065D01*
X278319Y-216962D01*
X278511Y-216500D01*
X283719D01*
X283844Y-216584D01*
X284500Y-216714D01*
X285156Y-216584D01*
X285281Y-216500D01*
X290558D01*
X291980Y-217922D01*
Y-219659D01*
X291788Y-219788D01*
X291416Y-220344D01*
X291286Y-221000D01*
X291416Y-221656D01*
X291788Y-222212D01*
X292344Y-222584D01*
X293000Y-222714D01*
X293656Y-222584D01*
X294212Y-222212D01*
X294584Y-221656D01*
X294714Y-221000D01*
X294584Y-220344D01*
X294212Y-219788D01*
X294020Y-219659D01*
Y-217500D01*
X293942Y-217110D01*
X293869Y-217000D01*
X294135Y-216500D01*
X312058D01*
X313331Y-217773D01*
X313286Y-218000D01*
X313416Y-218656D01*
X313788Y-219212D01*
X314344Y-219584D01*
X315000Y-219714D01*
X315656Y-219584D01*
X316212Y-219212D01*
X316584Y-218656D01*
X316714Y-218000D01*
X316584Y-217344D01*
X316354Y-217000D01*
X316613Y-216500D01*
X319091D01*
X319385Y-217000D01*
D02*
G37*
G36*
X280565Y-232423D02*
X280420Y-232901D01*
X280344Y-232916D01*
X279890Y-233220D01*
X279662D01*
X265669Y-219227D01*
X265714Y-219000D01*
X265584Y-218344D01*
X265212Y-217788D01*
X264656Y-217416D01*
X264000Y-217286D01*
X263344Y-217416D01*
X262788Y-217788D01*
X262416Y-218344D01*
X262286Y-219000D01*
X262416Y-219656D01*
X262788Y-220212D01*
X263344Y-220584D01*
X264000Y-220714D01*
X264227Y-220669D01*
X278518Y-234960D01*
X278849Y-235181D01*
X279239Y-235259D01*
X279485D01*
X279788Y-235712D01*
X280344Y-236084D01*
X281000Y-236214D01*
X281656Y-236084D01*
X282212Y-235712D01*
X282584Y-235156D01*
X282599Y-235080D01*
X283077Y-234935D01*
X286552Y-238409D01*
Y-239000D01*
X282500D01*
Y-253961D01*
X256000D01*
Y-239000D01*
Y-216500D01*
X264643D01*
X280565Y-232423D01*
D02*
G37*
G36*
X297012Y-238538D02*
X296820Y-239000D01*
X295942D01*
X273904Y-216962D01*
X274095Y-216500D01*
X274974D01*
X297012Y-238538D01*
D02*
G37*
G36*
X282500Y-260591D02*
X282000Y-260885D01*
X281500Y-260786D01*
X280844Y-260916D01*
X280288Y-261288D01*
X279916Y-261844D01*
X279786Y-262500D01*
X279831Y-262727D01*
X278578Y-263980D01*
X260341D01*
X260212Y-263788D01*
X259656Y-263416D01*
X259000Y-263286D01*
X258344Y-263416D01*
X257788Y-263788D01*
X257416Y-264344D01*
X257286Y-265000D01*
X257416Y-265656D01*
X257788Y-266212D01*
X258344Y-266584D01*
X259000Y-266714D01*
X259656Y-266584D01*
X260212Y-266212D01*
X260341Y-266020D01*
X279000D01*
X279390Y-265942D01*
X279721Y-265721D01*
X281273Y-264169D01*
X281500Y-264214D01*
X282000Y-264115D01*
X282500Y-264409D01*
Y-269480D01*
X257084D01*
X256694Y-269558D01*
X256500Y-269688D01*
X256000Y-269492D01*
Y-258039D01*
X282500D01*
Y-260591D01*
D02*
G37*
G36*
X333000Y-280000D02*
X297000D01*
Y-244500D01*
X333000D01*
Y-280000D01*
D02*
G37*
G36*
X282500Y-276558D02*
X282279Y-276779D01*
X282058Y-277110D01*
X281980Y-277500D01*
Y-280659D01*
X281788Y-280788D01*
X281416Y-281344D01*
X281286Y-282000D01*
X281416Y-282656D01*
X281788Y-283212D01*
X282219Y-283500D01*
X282070Y-284000D01*
X282570D01*
X282719Y-284500D01*
X282288Y-284788D01*
X282159Y-284980D01*
X256000D01*
Y-284000D01*
Y-273026D01*
X257507Y-271520D01*
X282500D01*
Y-276558D01*
D02*
G37*
%LPC*%
G36*
X36750Y-31036D02*
X36094Y-31166D01*
X35538Y-31538D01*
X35242Y-31980D01*
X30341D01*
X30212Y-31788D01*
X29656Y-31416D01*
X29000Y-31286D01*
X28344Y-31416D01*
X27788Y-31788D01*
X27416Y-32344D01*
X27286Y-33000D01*
X27416Y-33656D01*
X27788Y-34212D01*
X28344Y-34584D01*
X29000Y-34714D01*
X29656Y-34584D01*
X30212Y-34212D01*
X30341Y-34020D01*
X35624D01*
X36094Y-34334D01*
X36750Y-34464D01*
X37406Y-34334D01*
X37962Y-33962D01*
X38334Y-33406D01*
X38464Y-32750D01*
X38334Y-32094D01*
X37962Y-31538D01*
X37406Y-31166D01*
X36750Y-31036D01*
D02*
G37*
G36*
X59500Y-20286D02*
X58844Y-20416D01*
X58288Y-20788D01*
X57916Y-21344D01*
X57786Y-22000D01*
X57916Y-22656D01*
X58288Y-23212D01*
X58844Y-23584D01*
X59500Y-23714D01*
X59727Y-23669D01*
X64480Y-28422D01*
Y-31659D01*
X64288Y-31788D01*
X63916Y-32344D01*
X63786Y-33000D01*
X63916Y-33656D01*
X64288Y-34212D01*
X64844Y-34584D01*
X65500Y-34714D01*
X66156Y-34584D01*
X66712Y-34212D01*
X67084Y-33656D01*
X67214Y-33000D01*
X67084Y-32344D01*
X66712Y-31788D01*
X66520Y-31659D01*
Y-28000D01*
X66442Y-27610D01*
X66221Y-27279D01*
X61169Y-22227D01*
X61214Y-22000D01*
X61084Y-21344D01*
X60712Y-20788D01*
X60156Y-20416D01*
X59500Y-20286D01*
D02*
G37*
G36*
X43000Y-22286D02*
X42344Y-22416D01*
X41788Y-22788D01*
X41416Y-23344D01*
X41286Y-24000D01*
X41416Y-24656D01*
X41788Y-25212D01*
X42344Y-25584D01*
X43000Y-25714D01*
X43227Y-25669D01*
X44500Y-26942D01*
Y-27595D01*
X44962Y-27404D01*
X50373Y-32814D01*
X50286Y-33250D01*
X50416Y-33906D01*
X50788Y-34462D01*
X51344Y-34834D01*
X52000Y-34964D01*
X52656Y-34834D01*
X53212Y-34462D01*
X53584Y-33906D01*
X53714Y-33250D01*
X53584Y-32594D01*
X53212Y-32038D01*
X52656Y-31666D01*
X52000Y-31536D01*
X51982Y-31540D01*
X44669Y-24227D01*
X44714Y-24000D01*
X44584Y-23344D01*
X44500Y-23219D01*
Y-22388D01*
X44000Y-22646D01*
X43656Y-22416D01*
X43000Y-22286D01*
D02*
G37*
G36*
X31500Y-196286D02*
X30844Y-196416D01*
X30288Y-196788D01*
X30146Y-197000D01*
X29591D01*
X29885Y-197500D01*
X29786Y-198000D01*
X29916Y-198656D01*
X30288Y-199212D01*
X30844Y-199584D01*
X31500Y-199714D01*
X32156Y-199584D01*
X32712Y-199212D01*
X32841Y-199020D01*
X34078D01*
X44331Y-209273D01*
X44286Y-209500D01*
X44416Y-210156D01*
X44788Y-210712D01*
X45344Y-211084D01*
X46000Y-211214D01*
X46656Y-211084D01*
X47212Y-210712D01*
X47584Y-210156D01*
X47714Y-209500D01*
X47584Y-208844D01*
X47212Y-208288D01*
X46656Y-207916D01*
X46000Y-207786D01*
X45773Y-207831D01*
X35442Y-197500D01*
X35649Y-197000D01*
X34598D01*
X34500Y-196980D01*
X32841D01*
X32712Y-196788D01*
X32156Y-196416D01*
X31500Y-196286D01*
D02*
G37*
G36*
X63000Y-256786D02*
X62344Y-256916D01*
X61788Y-257288D01*
X61659Y-257480D01*
X58500D01*
X58110Y-257558D01*
X57779Y-257779D01*
X56227Y-259331D01*
X56000Y-259286D01*
X55344Y-259416D01*
X54788Y-259788D01*
X54416Y-260344D01*
X54286Y-261000D01*
X54416Y-261656D01*
X54788Y-262212D01*
X55344Y-262584D01*
X56000Y-262714D01*
X56656Y-262584D01*
X57212Y-262212D01*
X57584Y-261656D01*
X57714Y-261000D01*
X57669Y-260773D01*
X58922Y-259520D01*
X61659D01*
X61788Y-259712D01*
X62344Y-260084D01*
X63000Y-260214D01*
X63656Y-260084D01*
X64212Y-259712D01*
X64584Y-259156D01*
X64714Y-258500D01*
X64584Y-257844D01*
X64212Y-257288D01*
X63656Y-256916D01*
X63000Y-256786D01*
D02*
G37*
G36*
X43000D02*
X42344Y-256916D01*
X41788Y-257288D01*
X41659Y-257480D01*
X37000D01*
X36610Y-257558D01*
X36279Y-257779D01*
X33727Y-260331D01*
X33500Y-260286D01*
X32844Y-260416D01*
X32288Y-260788D01*
X31916Y-261344D01*
X31786Y-262000D01*
X31916Y-262656D01*
X32288Y-263212D01*
X32844Y-263584D01*
X33500Y-263714D01*
X34156Y-263584D01*
X34712Y-263212D01*
X35084Y-262656D01*
X35214Y-262000D01*
X35169Y-261773D01*
X37422Y-259520D01*
X41659D01*
X41788Y-259712D01*
X42344Y-260084D01*
X43000Y-260214D01*
X43656Y-260084D01*
X44212Y-259712D01*
X44584Y-259156D01*
X44714Y-258500D01*
X44584Y-257844D01*
X44212Y-257288D01*
X43656Y-256916D01*
X43000Y-256786D01*
D02*
G37*
G36*
X120930Y-197000D02*
X119070D01*
X119219Y-197500D01*
X118788Y-197788D01*
X118416Y-198344D01*
X118286Y-199000D01*
X118416Y-199656D01*
X118788Y-200212D01*
X119344Y-200584D01*
X120000Y-200714D01*
X120534Y-200608D01*
X121148Y-201221D01*
X121478Y-201442D01*
X121869Y-201520D01*
X133659D01*
X133788Y-201712D01*
X134344Y-202084D01*
X135000Y-202214D01*
X135656Y-202084D01*
X136212Y-201712D01*
X136584Y-201156D01*
X136714Y-200500D01*
X136584Y-199844D01*
X136212Y-199288D01*
X135656Y-198916D01*
X135000Y-198786D01*
X134344Y-198916D01*
X133788Y-199288D01*
X133659Y-199480D01*
X122291D01*
X121690Y-198880D01*
X121584Y-198344D01*
X121212Y-197788D01*
X120781Y-197500D01*
X120930Y-197000D01*
D02*
G37*
G36*
X119500Y-229286D02*
X118844Y-229416D01*
X118288Y-229788D01*
X117916Y-230344D01*
X117786Y-231000D01*
X117916Y-231656D01*
X118288Y-232212D01*
X118844Y-232584D01*
X119500Y-232714D01*
X120156Y-232584D01*
X120712Y-232212D01*
X120841Y-232020D01*
X126078D01*
X134831Y-240773D01*
X134786Y-241000D01*
X134885Y-241500D01*
X134591Y-242000D01*
X135146D01*
X135288Y-242212D01*
X135844Y-242584D01*
X136500Y-242714D01*
X137156Y-242584D01*
X137712Y-242212D01*
X137854Y-242000D01*
X138409D01*
X138115Y-241500D01*
X138214Y-241000D01*
X138084Y-240344D01*
X137712Y-239788D01*
X137156Y-239416D01*
X136500Y-239286D01*
X136273Y-239331D01*
X127221Y-230279D01*
X126890Y-230058D01*
X126500Y-229980D01*
X120841D01*
X120712Y-229788D01*
X120156Y-229416D01*
X119500Y-229286D01*
D02*
G37*
G36*
X362000Y-101786D02*
X361344Y-101916D01*
X360788Y-102288D01*
X360659Y-102480D01*
X355376D01*
X354906Y-102166D01*
X354250Y-102036D01*
X353594Y-102166D01*
X353038Y-102538D01*
X352666Y-103094D01*
X352536Y-103750D01*
X352666Y-104406D01*
X353038Y-104962D01*
X353594Y-105334D01*
X354250Y-105464D01*
X354906Y-105334D01*
X355462Y-104962D01*
X355758Y-104520D01*
X360659D01*
X360788Y-104712D01*
X361344Y-105084D01*
X362000Y-105214D01*
X362656Y-105084D01*
X363212Y-104712D01*
X363584Y-104156D01*
X363714Y-103500D01*
X363584Y-102844D01*
X363212Y-102288D01*
X362656Y-101916D01*
X362000Y-101786D01*
D02*
G37*
G36*
X339000Y-101536D02*
X338344Y-101666D01*
X337788Y-102038D01*
X337416Y-102594D01*
X337286Y-103250D01*
X337416Y-103906D01*
X337788Y-104462D01*
X338344Y-104834D01*
X339000Y-104964D01*
X339018Y-104960D01*
X346331Y-112273D01*
X346286Y-112500D01*
X346416Y-113156D01*
X346500Y-113281D01*
Y-114112D01*
X347000Y-113854D01*
X347344Y-114084D01*
X348000Y-114214D01*
X348656Y-114084D01*
X349212Y-113712D01*
X349584Y-113156D01*
X349714Y-112500D01*
X349584Y-111844D01*
X349212Y-111288D01*
X348656Y-110916D01*
X348000Y-110786D01*
X347773Y-110831D01*
X346500Y-109558D01*
Y-108905D01*
X346038Y-109096D01*
X340627Y-103685D01*
X340714Y-103250D01*
X340584Y-102594D01*
X340212Y-102038D01*
X339656Y-101666D01*
X339000Y-101536D01*
D02*
G37*
G36*
X325500Y-101786D02*
X324844Y-101916D01*
X324288Y-102288D01*
X323916Y-102844D01*
X323786Y-103500D01*
X323916Y-104156D01*
X324288Y-104712D01*
X324480Y-104841D01*
Y-108500D01*
X324558Y-108890D01*
X324779Y-109221D01*
X329831Y-114273D01*
X329786Y-114500D01*
X329916Y-115156D01*
X330288Y-115712D01*
X330844Y-116084D01*
X331500Y-116214D01*
X332156Y-116084D01*
X332712Y-115712D01*
X333084Y-115156D01*
X333214Y-114500D01*
X333084Y-113844D01*
X332712Y-113288D01*
X332156Y-112916D01*
X331500Y-112786D01*
X331273Y-112831D01*
X326520Y-108078D01*
Y-104841D01*
X326712Y-104712D01*
X327084Y-104156D01*
X327214Y-103500D01*
X327084Y-102844D01*
X326712Y-102288D01*
X326156Y-101916D01*
X325500Y-101786D01*
D02*
G37*
G36*
X365500Y-217286D02*
X364844Y-217416D01*
X364288Y-217788D01*
X363916Y-218344D01*
X363786Y-219000D01*
X363831Y-219227D01*
X361578Y-221480D01*
X357341D01*
X357212Y-221288D01*
X356656Y-220916D01*
X356000Y-220786D01*
X355344Y-220916D01*
X354788Y-221288D01*
X354416Y-221844D01*
X354286Y-222500D01*
X354416Y-223156D01*
X354788Y-223712D01*
X355344Y-224084D01*
X356000Y-224214D01*
X356656Y-224084D01*
X357212Y-223712D01*
X357341Y-223520D01*
X362000D01*
X362390Y-223442D01*
X362721Y-223221D01*
X365273Y-220669D01*
X365500Y-220714D01*
X366156Y-220584D01*
X366712Y-220212D01*
X367084Y-219656D01*
X367214Y-219000D01*
X367084Y-218344D01*
X366712Y-217788D01*
X366156Y-217416D01*
X365500Y-217286D01*
D02*
G37*
G36*
X343000Y-218286D02*
X342344Y-218416D01*
X341788Y-218788D01*
X341416Y-219344D01*
X341286Y-220000D01*
X341331Y-220227D01*
X340078Y-221480D01*
X337341D01*
X337212Y-221288D01*
X336656Y-220916D01*
X336000Y-220786D01*
X335344Y-220916D01*
X334788Y-221288D01*
X334416Y-221844D01*
X334286Y-222500D01*
X334416Y-223156D01*
X334788Y-223712D01*
X335344Y-224084D01*
X336000Y-224214D01*
X336656Y-224084D01*
X337212Y-223712D01*
X337341Y-223520D01*
X340500D01*
X340890Y-223442D01*
X341221Y-223221D01*
X342773Y-221669D01*
X343000Y-221714D01*
X343656Y-221584D01*
X344212Y-221212D01*
X344584Y-220656D01*
X344714Y-220000D01*
X344584Y-219344D01*
X344212Y-218788D01*
X343656Y-218416D01*
X343000Y-218286D01*
D02*
G37*
G36*
X353000Y-269786D02*
X352344Y-269916D01*
X351788Y-270288D01*
X351416Y-270844D01*
X351286Y-271500D01*
X351416Y-272156D01*
X351788Y-272712D01*
X352344Y-273084D01*
X353000Y-273214D01*
X353227Y-273169D01*
X363558Y-283500D01*
X363351Y-284000D01*
X364402D01*
X364500Y-284020D01*
X366159D01*
X366288Y-284212D01*
X366844Y-284584D01*
X367500Y-284714D01*
X368156Y-284584D01*
X368712Y-284212D01*
X368854Y-284000D01*
X369409D01*
X369115Y-283500D01*
X369214Y-283000D01*
X369084Y-282344D01*
X368712Y-281788D01*
X368156Y-281416D01*
X367500Y-281286D01*
X366844Y-281416D01*
X366288Y-281788D01*
X366159Y-281980D01*
X364922D01*
X354669Y-271727D01*
X354714Y-271500D01*
X354584Y-270844D01*
X354212Y-270288D01*
X353656Y-269916D01*
X353000Y-269786D01*
D02*
G37*
G36*
X262500Y-238286D02*
X261844Y-238416D01*
X261288Y-238788D01*
X261146Y-239000D01*
X260591D01*
X260885Y-239500D01*
X260786Y-240000D01*
X260916Y-240656D01*
X261288Y-241212D01*
X261844Y-241584D01*
X262500Y-241714D01*
X262727Y-241669D01*
X271779Y-250721D01*
X272110Y-250942D01*
X272500Y-251020D01*
X278159D01*
X278288Y-251212D01*
X278844Y-251584D01*
X279500Y-251714D01*
X280156Y-251584D01*
X280712Y-251212D01*
X281084Y-250656D01*
X281214Y-250000D01*
X281084Y-249344D01*
X280712Y-248788D01*
X280156Y-248416D01*
X279500Y-248286D01*
X278844Y-248416D01*
X278288Y-248788D01*
X278159Y-248980D01*
X272922D01*
X264169Y-240227D01*
X264214Y-240000D01*
X264115Y-239500D01*
X264409Y-239000D01*
X263854D01*
X263712Y-238788D01*
X263156Y-238416D01*
X262500Y-238286D01*
D02*
G37*
G36*
X264000Y-278786D02*
X263344Y-278916D01*
X262788Y-279288D01*
X262416Y-279844D01*
X262286Y-280500D01*
X262416Y-281156D01*
X262788Y-281712D01*
X263344Y-282084D01*
X264000Y-282214D01*
X264656Y-282084D01*
X265212Y-281712D01*
X265341Y-281520D01*
X276709D01*
X277310Y-282120D01*
X277416Y-282656D01*
X277788Y-283212D01*
X278219Y-283500D01*
X278070Y-284000D01*
X279930D01*
X279781Y-283500D01*
X280212Y-283212D01*
X280584Y-282656D01*
X280714Y-282000D01*
X280584Y-281344D01*
X280212Y-280788D01*
X279656Y-280416D01*
X279000Y-280286D01*
X278466Y-280392D01*
X277852Y-279779D01*
X277522Y-279558D01*
X277131Y-279480D01*
X265341D01*
X265212Y-279288D01*
X264656Y-278916D01*
X264000Y-278786D01*
D02*
G37*
%LPD*%
D13*
X178000Y-294500D02*
X178500Y-295000D01*
X178000Y-293700D02*
X177300Y-293000D01*
X176700D02*
X176000Y-293700D01*
X175300Y-295000D02*
X176000Y-294300D01*
X175000Y-301800D02*
X175700Y-302500D01*
X175000Y-300200D02*
X174300Y-299500D01*
X173700D02*
X173000Y-300200D01*
X172300Y-302500D02*
X173000Y-301800D01*
X182200Y-272500D02*
X181500Y-273200D01*
X180800Y-275500D02*
X181500Y-274800D01*
X179500D02*
X180200Y-275500D01*
X179500Y-270200D02*
X178800Y-269500D01*
X178200D02*
X177500Y-270200D01*
X176800Y-275500D02*
X177500Y-274800D01*
X175500D02*
X176200Y-275500D01*
X175500Y-270200D02*
X174800Y-269500D01*
X174200D02*
X173500Y-270200D01*
X172800Y-272500D02*
X173500Y-271800D01*
X236500Y-186000D02*
X248000Y-197500D01*
X253000Y-270500D02*
Y-260086D01*
X234000Y-280500D02*
X247084D01*
X253000Y-260086D02*
X253586Y-259500D01*
X247084Y-280500D02*
X257084Y-270500D01*
X287000D01*
X253586Y-259500D02*
X258000D01*
X195500Y-243000D02*
Y-241500D01*
X196000Y-243000D02*
X197000D01*
X188500Y-268500D02*
Y-250500D01*
X196000Y-243000D01*
X187896Y-285301D02*
Y-277396D01*
Y-285301D02*
X189047Y-286453D01*
X186000Y-275500D02*
X187896Y-277396D01*
X189047Y-286453D02*
X243047D01*
X243500Y-286000D01*
X227000Y-212500D02*
X262085D01*
X224500Y-215000D02*
X227000Y-212500D01*
X262085D02*
X287571Y-237987D01*
X224500Y-270500D02*
Y-215000D01*
X196500Y-273000D02*
X197000Y-272500D01*
X235500Y-179500D02*
X263000Y-207000D01*
X224000Y-179500D02*
X235500D01*
X213500Y-190000D02*
X224000Y-179500D01*
X263000Y-209500D02*
Y-207000D01*
X213500Y-219500D02*
Y-190000D01*
X208500Y-276500D02*
X211000Y-279000D01*
Y-282000D02*
Y-279000D01*
X197000Y-272500D02*
X222500D01*
X224500Y-270500D01*
X200318Y-265500D02*
X221000D01*
X197318Y-262500D02*
X200318Y-265500D01*
X196500Y-262500D02*
X197318D01*
X226500Y-273500D02*
X227000D01*
X234000Y-280500D01*
X287000Y-270500D02*
X288500Y-272000D01*
Y-275500D02*
Y-272000D01*
X283000Y-277500D02*
X285500Y-275000D01*
X283000Y-282000D02*
Y-277500D01*
X183000Y-272500D02*
X196500D01*
X194703Y-293000D02*
X197500D01*
X230000Y-186000D02*
X236500D01*
X218000Y-198000D02*
X230000Y-186000D01*
X218000Y-214500D02*
Y-198000D01*
X301500Y-238500D02*
Y-235819D01*
X302500Y-234819D01*
Y-231500D01*
X338500Y-278000D02*
X350500Y-266000D01*
Y-255000D01*
X357500Y-236000D02*
X373500D01*
X353500Y-240000D02*
X357500Y-236000D01*
X368500Y-245500D02*
X373500Y-250500D01*
X368500Y-245500D02*
Y-242000D01*
X362000Y-222500D02*
X365500Y-219000D01*
X356000Y-222500D02*
X362000D01*
X340500D02*
X343000Y-220000D01*
X336000Y-222500D02*
X340500D01*
X330500Y-237000D02*
X332396Y-235104D01*
X333396D02*
X344000Y-224500D01*
X332396Y-235104D02*
X333396D01*
X305261Y-208261D02*
X315000Y-218000D01*
X303761Y-208261D02*
X305261D01*
X303500Y-208000D02*
X303761Y-208261D01*
X314000Y-224500D02*
X321000Y-217500D01*
X314000Y-235500D02*
Y-224500D01*
X264000Y-219000D02*
X279239Y-234239D01*
X280739D01*
X281000Y-234500D01*
X262500Y-240000D02*
X272500Y-250000D01*
X279500D01*
X259000Y-265000D02*
X279000D01*
X281500Y-262500D01*
X256000Y-320500D02*
X281500Y-295000D01*
X251000Y-320500D02*
X256000D01*
X244500Y-304500D02*
X260000D01*
X264000Y-300500D01*
X265500Y-320000D02*
X272500Y-313000D01*
X294681Y-299819D02*
X301500Y-293000D01*
X294097Y-299819D02*
X294681D01*
X272500Y-313000D02*
X280915D01*
X294097Y-299819D01*
X296000Y-308000D02*
Y-303369D01*
X295000Y-302369D02*
X296000Y-303369D01*
X295000Y-302369D02*
Y-302000D01*
X291500Y-310000D02*
Y-305500D01*
X284500Y-317000D02*
X291500Y-310000D01*
X309000Y-306500D02*
X314000Y-301500D01*
X318500D01*
X306000D02*
X313500Y-294000D01*
Y-290500D01*
X329500Y-291000D02*
X342500Y-304000D01*
Y-313000D02*
Y-304000D01*
X351500Y-289500D02*
X351761Y-289761D01*
X364500Y-283000D02*
X367500D01*
X353000Y-271500D02*
X364500Y-283000D01*
X278631Y-282000D02*
X279000D01*
X277131Y-280500D02*
X278631Y-282000D01*
X264000Y-280500D02*
X277131D01*
X323000Y-231000D02*
Y-227500D01*
X313000Y-241000D02*
X323000Y-231000D01*
X354000Y-256500D02*
X357000Y-259500D01*
X369500D01*
X371500Y-306000D02*
Y-299500D01*
X361761Y-289761D02*
X371500Y-299500D01*
X351761Y-289761D02*
X361761D01*
X293000Y-221000D02*
Y-217500D01*
X290500Y-215000D02*
X293000Y-217500D01*
X284500Y-215000D02*
X290500D01*
X301631Y-241496D02*
X302000D01*
X300816Y-240681D02*
X301631Y-241496D01*
X300597Y-240681D02*
X300816D01*
X270000Y-210085D02*
X300597Y-240681D01*
X270000Y-210085D02*
Y-210000D01*
X293500Y-242000D02*
Y-241000D01*
X266761Y-214261D02*
X293500Y-241000D01*
X266761Y-214261D02*
Y-213261D01*
X269761Y-214261D02*
X297500Y-242000D01*
X269761Y-214261D02*
Y-212761D01*
X269500Y-212500D02*
X269761Y-212761D01*
X287571Y-239571D02*
X293500Y-245500D01*
X287571Y-239571D02*
Y-237987D01*
X295000Y-277000D02*
X298500Y-273500D01*
X301000D01*
X243500Y-286000D02*
X283500D01*
X252000Y-288500D02*
X256000Y-292500D01*
X258500D01*
X266500Y-213000D02*
X266761Y-213261D01*
X263000Y-209500D02*
X266500Y-213000D01*
X132500Y-268000D02*
X136000Y-271500D01*
X132239Y-267739D02*
X132500Y-268000D01*
X140500Y-188500D02*
X143000D01*
X147000Y-192500D01*
X115500Y-195000D02*
X155500D01*
X175000Y-214500D01*
Y-221000D02*
Y-214500D01*
Y-221000D02*
X195500Y-241500D01*
X98000Y-207500D02*
X100500D01*
X104000Y-204000D01*
X192703Y-295000D02*
X194703Y-293000D01*
X178500Y-295000D02*
X192703D01*
X162500D02*
X175000D01*
X178000Y-294500D02*
Y-293700D01*
X176700Y-293000D02*
X177300D01*
X176000Y-294300D02*
Y-293700D01*
X175000Y-295000D02*
X175300D01*
X151000Y-283500D02*
X162500Y-295000D01*
X176500Y-302500D02*
X196500D01*
X165500D02*
X172000D01*
X175700D02*
X176500D01*
X175000Y-301800D02*
Y-300200D01*
X173700Y-299500D02*
X174300D01*
X173000Y-301800D02*
Y-300200D01*
X172000Y-302500D02*
X172300D01*
X136000Y-273000D02*
X165500Y-302500D01*
X136000Y-273000D02*
Y-271500D01*
X148000Y-272500D02*
X172500D01*
X182200D02*
X183000D01*
X181500Y-274800D02*
Y-273200D01*
X180200Y-275500D02*
X180800D01*
X179500Y-274800D02*
Y-272500D01*
Y-270200D01*
X178200Y-269500D02*
X178800D01*
X177500Y-272500D02*
Y-270200D01*
Y-274800D02*
Y-272500D01*
X176200Y-275500D02*
X176800D01*
X175500Y-274800D02*
Y-272500D01*
Y-270200D01*
X174200Y-269500D02*
X174800D01*
X173500Y-271800D02*
Y-270200D01*
X172500Y-272500D02*
X172800D01*
X144000Y-268500D02*
X148000Y-272500D01*
X136916Y-268500D02*
X144000D01*
X111429Y-243013D02*
X136916Y-268500D01*
X111429Y-243013D02*
Y-241429D01*
X105500Y-235500D02*
X111429Y-241429D01*
X129239Y-268239D02*
X129500Y-268500D01*
X129239Y-268239D02*
Y-266739D01*
X101500Y-239000D02*
X129239Y-266739D01*
X132239Y-267739D02*
Y-266739D01*
X105500Y-240000D02*
X132239Y-266739D01*
X105500Y-240000D02*
Y-239000D01*
X129000Y-271000D02*
Y-270916D01*
X98403Y-240319D02*
X129000Y-270916D01*
X98184Y-240319D02*
X98403D01*
X97369Y-239504D02*
X98184Y-240319D01*
X97000Y-239504D02*
X97369D01*
X108500Y-266000D02*
X114500D01*
X106000Y-263500D02*
X108500Y-266000D01*
X106000Y-263500D02*
Y-260000D01*
X37239Y-191239D02*
X47239D01*
X27500Y-181500D02*
X37239Y-191239D01*
X27500Y-181500D02*
Y-175000D01*
X29500Y-221500D02*
X42000D01*
X45000Y-224500D01*
X76000Y-250000D02*
X86000Y-240000D01*
X76000Y-253500D02*
Y-250000D01*
X121869Y-200500D02*
X135000D01*
X120369Y-199000D02*
X121869Y-200500D01*
X120000Y-199000D02*
X120369D01*
X34500Y-198000D02*
X46000Y-209500D01*
X31500Y-198000D02*
X34500D01*
X47239Y-191239D02*
X47500Y-191500D01*
X56500Y-177000D02*
Y-168000D01*
Y-177000D02*
X69500Y-190000D01*
X85500Y-190500D02*
Y-187000D01*
X93000Y-179500D01*
X80500D02*
X85000D01*
X90000Y-174500D01*
X107500Y-171000D02*
X114500Y-164000D01*
X107500Y-175500D02*
Y-171000D01*
X104000Y-179000D02*
Y-178631D01*
X103000Y-177631D02*
X104000Y-178631D01*
X103000Y-177631D02*
Y-173000D01*
X104903Y-181181D02*
X118085Y-168000D01*
X126500D01*
X104319Y-181181D02*
X104903D01*
X97500Y-188000D02*
X104319Y-181181D01*
X126500Y-168000D02*
X133500Y-161000D01*
X135000Y-180500D02*
X139000Y-176500D01*
X154500D01*
X143000Y-160500D02*
X148000D01*
X117500Y-186000D02*
X143000Y-160500D01*
X117500Y-218500D02*
X120000Y-216000D01*
X140000D01*
X119500Y-231000D02*
X126500D01*
X136500Y-241000D01*
X118000Y-246500D02*
X118261Y-246761D01*
X119761D01*
X135000Y-262000D01*
X85000Y-256500D02*
Y-245500D01*
X78000Y-263500D02*
X85000Y-256500D01*
X95239Y-272739D02*
X95500Y-273000D01*
X93739Y-272739D02*
X95239D01*
X84000Y-263000D02*
X93739Y-272739D01*
X65604Y-245896D02*
X66604D01*
X55000Y-256500D02*
X65604Y-245896D01*
X66604D02*
X68500Y-244000D01*
X58500Y-258500D02*
X63000D01*
X56000Y-261000D02*
X58500Y-258500D01*
X37000D02*
X43000D01*
X33500Y-262000D02*
X37000Y-258500D01*
X30500Y-239000D02*
Y-235500D01*
X25500Y-230500D02*
X30500Y-235500D01*
X41500Y-245000D02*
X45500Y-241000D01*
X25500Y-245000D02*
X41500D01*
X48500Y-226000D02*
Y-215000D01*
X60500Y-203000D01*
X105500Y-207000D02*
X113319Y-199181D01*
X115819D01*
X116000Y-199000D01*
X96500Y-249500D02*
Y-246181D01*
X97500Y-245181D01*
Y-242500D01*
X173000Y-83000D02*
X183000Y-73000D01*
Y-72500D01*
X173000Y-93000D02*
Y-83000D01*
X196181Y-55500D02*
X208181Y-43500D01*
X209000D01*
X193500Y-55500D02*
X196181D01*
X264500Y-96000D02*
X265000Y-95500D01*
X259000Y-96000D02*
X264500D01*
X334819Y-98181D02*
X338500Y-94500D01*
X247477Y-98181D02*
X334819D01*
X246295Y-97000D02*
X247477Y-98181D01*
X233500Y-97000D02*
X246295D01*
X279000Y-86369D02*
X281000Y-84369D01*
X218500Y-84500D02*
Y-84250D01*
X208500Y-74250D02*
X218500Y-84250D01*
X208500Y-74250D02*
Y-74000D01*
X338500Y-94500D02*
Y-80500D01*
X346500Y-72500D01*
X231500Y-72631D02*
X232000Y-73131D01*
Y-73500D02*
Y-73131D01*
X231500Y-72631D02*
Y-60000D01*
X243750Y-124250D02*
X269750D01*
X270000Y-124000D02*
X270369D01*
X243500Y-124500D02*
X243750Y-124250D01*
X373379Y-125000D02*
X373500D01*
X350500Y-125500D02*
X373500D01*
X269750Y-124250D02*
X270000Y-124000D01*
X308000Y-120000D02*
Y-109500D01*
X313000Y-104500D01*
X148000Y-78000D02*
X183000Y-113000D01*
X198000Y-98000D01*
X182500Y-113500D02*
X183000Y-113000D01*
X198000Y-98000D02*
Y-66500D01*
X194000Y-79000D02*
Y-65500D01*
X205457Y-54043D01*
X207957D02*
X208500Y-53500D01*
X205457Y-54043D02*
X207957D01*
X182500Y-104500D02*
X184000Y-103000D01*
X188500D02*
X190500Y-101000D01*
X184000Y-103000D02*
X188500D01*
X190500Y-101000D02*
Y-44086D01*
X191086Y-43500D01*
X198000D01*
X208000Y-33500D01*
X86500Y-64000D02*
X114000D01*
X82500Y-60000D02*
X86500Y-64000D01*
X366000Y-84000D02*
X381500D01*
X362000Y-80000D02*
X366000Y-84000D01*
Y-56500D02*
Y-49000D01*
X365000Y-57500D02*
X366000Y-56500D01*
X259500Y-121500D02*
X275500Y-105500D01*
X278000D01*
X325500Y-108500D02*
X331500Y-114500D01*
X325500Y-108500D02*
Y-103500D01*
X339000D02*
X348000Y-112500D01*
X339000Y-103500D02*
Y-103000D01*
X354500Y-103500D02*
X362000D01*
X354000Y-104000D02*
X354500Y-103500D01*
X299500Y-104000D02*
X301000D01*
X287000Y-116500D02*
X299500Y-104000D01*
X254500Y-76000D02*
X290500D01*
X244500Y-66000D02*
X254500Y-76000D01*
X279000Y-93000D02*
Y-86369D01*
X282500Y-86500D02*
X285000Y-84000D01*
X282500Y-90500D02*
Y-86500D01*
X281000Y-84500D02*
Y-84369D01*
X281369Y-84000D01*
X294500Y-48000D02*
X296500Y-50000D01*
Y-55000D02*
Y-50000D01*
X378250Y-45500D02*
X378500D01*
X372250Y-51500D02*
X378250Y-45500D01*
X372000Y-51500D02*
X372250D01*
X373000Y-90500D02*
X373250Y-90750D01*
Y-124871D02*
Y-90750D01*
Y-124871D02*
X373379Y-125000D01*
X348500Y-123500D02*
X350500Y-125500D01*
X324500Y-123500D02*
X348500D01*
X298369D02*
X324500D01*
X297369Y-122500D02*
X298369Y-123500D01*
X297000Y-122500D02*
X297369D01*
X270369Y-124000D02*
X271869Y-122500D01*
X297000D01*
X243000Y-77500D02*
Y-58500D01*
X208000Y-23500D02*
X243000Y-58500D01*
X224000Y-32500D02*
Y-32000D01*
X244500Y-66000D02*
Y-53000D01*
X224000Y-32500D02*
X244500Y-53000D01*
X257000Y-68500D02*
X259000Y-70500D01*
X257000Y-68500D02*
Y-64500D01*
X237500Y-83500D02*
Y-62000D01*
Y-83500D02*
X240000Y-86000D01*
X372000Y-68000D02*
Y-51500D01*
Y-68000D02*
X384500Y-80500D01*
X373000Y-90500D02*
X375000Y-88500D01*
X384500Y-86000D02*
Y-80500D01*
X382000Y-88500D02*
X384500Y-86000D01*
X375000Y-88500D02*
X382000D01*
X17500Y-11500D02*
X17621D01*
X9000Y-48000D02*
X16000D01*
X6500Y-50500D02*
X9000Y-48000D01*
X6500Y-56000D02*
Y-50500D01*
X16000Y-48000D02*
X18000Y-46000D01*
X6500Y-56000D02*
X19000Y-68500D01*
X47500Y-60000D02*
X82500D01*
X19000Y-85000D02*
Y-68500D01*
X151000Y-50500D02*
X153500Y-53000D01*
Y-74500D02*
Y-53000D01*
X157500Y-61000D02*
X159000Y-62500D01*
Y-75500D02*
Y-62500D01*
X134000Y-72000D02*
Y-68000D01*
X132000Y-66000D02*
X134000Y-68000D01*
X146500Y-83500D02*
X167000Y-104000D01*
X146500Y-83500D02*
Y-70500D01*
X167000Y-104500D02*
Y-104000D01*
X148000Y-78000D02*
Y-59000D01*
X147250Y-12250D02*
X147500Y-12000D01*
X121250Y-12250D02*
X147250D01*
X121000Y-12500D02*
X121250Y-12250D01*
X94000Y-14000D02*
X119131D01*
X120631Y-12500D02*
X121000D01*
X119131Y-14000D02*
X120631Y-12500D01*
X93631Y-14000D02*
X94000D01*
X92631Y-13000D02*
X93631Y-14000D01*
X66500Y-13000D02*
X92631D01*
X42500D02*
X66500D01*
X40500Y-11000D02*
X42500Y-13000D01*
X17500Y-11000D02*
X40500D01*
X17621Y-11500D02*
X17750Y-11629D01*
Y-45750D02*
Y-11629D01*
Y-45750D02*
X18000Y-46000D01*
X18750Y-85000D02*
X19000D01*
X12750Y-91000D02*
X18750Y-85000D01*
X12500Y-91000D02*
X12750D01*
X94500Y-86500D02*
Y-81500D01*
Y-86500D02*
X96500Y-88500D01*
X110000Y-52131D02*
X112000Y-50131D01*
X109631Y-52500D02*
X110000Y-52131D01*
Y-52000D01*
X108500Y-50000D02*
Y-46000D01*
X106000Y-52500D02*
X108500Y-50000D01*
X112000Y-50131D02*
Y-43500D01*
X136500Y-60500D02*
X146500Y-70500D01*
X100500Y-60500D02*
X136500D01*
X45500Y-64000D02*
Y-63500D01*
Y-62000D01*
X47500Y-60000D01*
X91500Y-32500D02*
X104000Y-20000D01*
X90000Y-32500D02*
X91500D01*
X83000Y-27000D02*
Y-16500D01*
X78000Y-32000D02*
X83000Y-27000D01*
X36500Y-33000D02*
X37000Y-32500D01*
X29000Y-33000D02*
X36500D01*
X52000Y-33500D02*
Y-33000D01*
X43000Y-24000D02*
X52000Y-33000D01*
X65500D02*
Y-28000D01*
X59500Y-22000D02*
X65500Y-28000D01*
X113000Y-31000D02*
X115500D01*
X131500Y-15000D01*
X25000Y-80000D02*
X26000Y-79000D01*
X25000Y-87500D02*
Y-80000D01*
Y-52500D02*
X29000Y-56500D01*
X9500Y-52500D02*
X25000D01*
D33*
X170500Y-191000D02*
Y-182000D01*
X227500Y-200500D02*
X234500D01*
X225000Y-198000D02*
X227500Y-200500D01*
X140500Y-182000D02*
X164000D01*
X170000Y-176000D01*
Y-175842D01*
X175000Y-170843D01*
Y-170500D01*
X229157Y-169343D02*
Y-153000D01*
X206000Y-192500D02*
X229157Y-169343D01*
X196000Y-222500D02*
X196181Y-222681D01*
X219681D01*
X206000Y-214000D02*
Y-192500D01*
X200379Y-219621D02*
X206000Y-214000D01*
X200165Y-219621D02*
X200379D01*
X197286Y-222500D02*
X200165Y-219621D01*
X196500Y-222500D02*
X197286D01*
X196500Y-232500D02*
X217500Y-253500D01*
X221000D01*
X219681Y-222681D02*
X221000Y-224000D01*
X229000Y-230500D02*
X258000D01*
X234500Y-270000D02*
Y-267000D01*
Y-270000D02*
X242500Y-278000D01*
X230500Y-256000D02*
X302500D01*
X170000Y-176000D02*
X196500Y-202500D01*
X96500Y-225000D02*
X168500D01*
X156500Y-203000D02*
X164500Y-211000D01*
Y-214000D02*
Y-211000D01*
X182500Y-216500D02*
X196500Y-202500D01*
X182500Y-223500D02*
Y-216500D01*
X139500Y-229000D02*
X174000D01*
X175500Y-227500D01*
X208500Y-114716D02*
Y-113500D01*
X246000Y-32500D02*
X254500Y-41000D01*
X242000Y-32500D02*
X246000D01*
X254500Y-55000D02*
Y-41000D01*
Y-55000D02*
X262500Y-63000D01*
X292000D01*
X297500Y-68500D01*
X136000Y-96000D02*
X144000Y-104000D01*
X159000D01*
X136000Y-96000D02*
Y-83500D01*
X132000Y-79500D02*
X136000Y-83500D01*
X132000Y-79500D02*
Y-79000D01*
X123000Y-70000D02*
X132000Y-79000D01*
X105500Y-70000D02*
X123000D01*
X102000Y-73500D02*
X105500Y-70000D01*
X87500Y-73500D02*
X102000D01*
X227000Y-73000D02*
Y-55000D01*
Y-94500D02*
Y-73000D01*
X182500Y-24000D02*
Y-23286D01*
X181658Y-22444D02*
X182500Y-23286D01*
X180287Y-22444D02*
X181658D01*
X165647Y-7804D02*
X180287Y-22444D01*
X183000Y-54000D02*
Y-53000D01*
X174624Y-44624D02*
X183000Y-53000D01*
X174624Y-44624D02*
Y-36467D01*
X165646Y-27489D02*
X174624Y-36467D01*
X208000Y-113500D02*
X227000Y-94500D01*
X208500Y-114716D02*
X225500Y-131716D01*
Y-132343D02*
Y-131716D01*
D34*
X54000Y-196000D02*
D03*
Y-226000D02*
D03*
X345000Y-285000D02*
D03*
Y-255000D02*
D03*
D35*
X196500Y-192500D02*
D03*
Y-202500D02*
D03*
Y-212500D02*
D03*
Y-222500D02*
D03*
Y-232500D02*
D03*
Y-242500D02*
D03*
Y-252500D02*
D03*
Y-262500D02*
D03*
Y-272500D02*
D03*
Y-282500D02*
D03*
Y-292500D02*
D03*
X183000Y-93000D02*
D03*
Y-23000D02*
D03*
Y-33000D02*
D03*
Y-43000D02*
D03*
Y-53000D02*
D03*
Y-63000D02*
D03*
Y-73000D02*
D03*
Y-83000D02*
D03*
Y-103000D02*
D03*
X208000Y-43500D02*
D03*
Y-113500D02*
D03*
Y-103500D02*
D03*
Y-93500D02*
D03*
Y-83500D02*
D03*
Y-73500D02*
D03*
Y-63500D02*
D03*
Y-53500D02*
D03*
Y-33500D02*
D03*
D36*
X196500Y-302500D02*
D03*
X183000Y-113000D02*
D03*
X208000Y-23500D02*
D03*
D37*
X193750Y-151157D02*
D03*
X175000D02*
D03*
X248843Y-153000D02*
D03*
X212500Y-151157D02*
D03*
X205343Y-5500D02*
D03*
X165647Y-7804D02*
D03*
X182158Y-134500D02*
D03*
X225500Y-132343D02*
D03*
D38*
X193750Y-170843D02*
D03*
X175000D02*
D03*
X212500D02*
D03*
X165646Y-27489D02*
D03*
X225500Y-112657D02*
D03*
D39*
X229157Y-153000D02*
D03*
X185658Y-5500D02*
D03*
X201842Y-134500D02*
D03*
D40*
X86000Y-260000D02*
D03*
X170500Y-182000D02*
D03*
Y-191000D02*
D03*
X248000Y-197500D02*
D03*
X234500Y-200500D02*
D03*
X225000Y-198000D02*
D03*
X253000Y-270500D02*
D03*
X258000Y-274000D02*
D03*
X221000Y-253500D02*
D03*
X188500Y-268500D02*
D03*
X186000Y-275500D02*
D03*
X313500Y-221000D02*
D03*
X301500Y-222500D02*
D03*
X259000Y-251500D02*
D03*
X258000Y-259500D02*
D03*
X221000Y-224000D02*
D03*
X229000Y-230500D02*
D03*
X213500Y-219500D02*
D03*
X208500Y-276500D02*
D03*
X211000Y-282000D02*
D03*
X221000Y-265500D02*
D03*
X226500Y-273500D02*
D03*
X288500Y-275500D02*
D03*
X285500Y-275000D02*
D03*
X218000Y-214500D02*
D03*
X323000Y-227500D02*
D03*
X301500Y-238500D02*
D03*
X313000Y-241000D02*
D03*
X302500Y-231500D02*
D03*
X283000Y-282000D02*
D03*
X338500Y-278000D02*
D03*
X350500Y-255000D02*
D03*
X373500Y-236000D02*
D03*
X353500Y-240000D02*
D03*
X373500Y-250500D02*
D03*
X368500Y-242000D02*
D03*
X365500Y-219000D02*
D03*
X356000Y-222500D02*
D03*
X343000Y-220000D02*
D03*
X336000Y-222500D02*
D03*
X344000Y-224500D02*
D03*
X330500Y-237000D02*
D03*
X315000Y-218000D02*
D03*
X303500Y-208000D02*
D03*
X321000Y-217500D02*
D03*
X314000Y-235500D02*
D03*
X293000Y-221000D02*
D03*
X264000Y-219000D02*
D03*
X281000Y-234500D02*
D03*
X262500Y-240000D02*
D03*
X279500Y-250000D02*
D03*
X259000Y-265000D02*
D03*
X281500Y-262500D02*
D03*
X279000Y-282000D02*
D03*
X281500Y-295000D02*
D03*
X251000Y-320500D02*
D03*
X244500Y-304500D02*
D03*
X264000Y-300500D02*
D03*
X301500Y-293000D02*
D03*
X265500Y-320000D02*
D03*
X296000Y-308000D02*
D03*
X295000Y-302000D02*
D03*
X291500Y-305500D02*
D03*
X284500Y-317000D02*
D03*
X309000Y-306500D02*
D03*
X318500Y-301500D02*
D03*
X306000D02*
D03*
X313500Y-290500D02*
D03*
X329500Y-291000D02*
D03*
X342500Y-313000D02*
D03*
X351500Y-289500D02*
D03*
X367500Y-283000D02*
D03*
X353000Y-271500D02*
D03*
X354000Y-256500D02*
D03*
X344000Y-301500D02*
D03*
X307000Y-296500D02*
D03*
X285500Y-301500D02*
D03*
X264000Y-296500D02*
D03*
Y-280500D02*
D03*
X261500Y-277500D02*
D03*
X265500Y-260500D02*
D03*
X260500Y-243500D02*
D03*
X262000Y-226000D02*
D03*
X299000Y-232000D02*
D03*
X317500Y-232500D02*
D03*
X333500Y-237500D02*
D03*
X367000Y-227500D02*
D03*
X366000Y-244500D02*
D03*
X369500Y-259500D02*
D03*
X367500Y-262000D02*
D03*
X370000Y-279000D02*
D03*
X371500Y-306000D02*
D03*
X366000Y-301500D02*
D03*
X302000Y-241496D02*
D03*
X284500Y-215000D02*
D03*
X269500Y-213000D02*
D03*
X270000Y-210000D02*
D03*
X293500Y-242000D02*
D03*
X297500D02*
D03*
X293500Y-245500D02*
D03*
X295000Y-277000D02*
D03*
X283500Y-286000D02*
D03*
X234500Y-267000D02*
D03*
X242500Y-278000D02*
D03*
X230500Y-256000D02*
D03*
X252000Y-288500D02*
D03*
X266500Y-213000D02*
D03*
X76000Y-226500D02*
D03*
X83500D02*
D03*
X91000D02*
D03*
Y-211500D02*
D03*
X83500D02*
D03*
X76000D02*
D03*
Y-219000D02*
D03*
X91000Y-219100D02*
D03*
X83500Y-219000D02*
D03*
X323000Y-254500D02*
D03*
X315500D02*
D03*
X308000D02*
D03*
Y-269500D02*
D03*
X315500D02*
D03*
X323000D02*
D03*
Y-262000D02*
D03*
X308000Y-261900D02*
D03*
X315500Y-262000D02*
D03*
X132500Y-268000D02*
D03*
X147000Y-192500D02*
D03*
X168500Y-225000D02*
D03*
X156500Y-203000D02*
D03*
X164500Y-214000D02*
D03*
X182500Y-223500D02*
D03*
X175500Y-227500D02*
D03*
X115500Y-195000D02*
D03*
X104000Y-204000D02*
D03*
X151000Y-283500D02*
D03*
X105500Y-235500D02*
D03*
X101500Y-239000D02*
D03*
X105500D02*
D03*
X129000Y-271000D02*
D03*
X129500Y-268000D02*
D03*
X114500Y-266000D02*
D03*
X97000Y-239504D02*
D03*
X33000Y-179500D02*
D03*
X27500Y-175000D02*
D03*
X29000Y-202000D02*
D03*
X31500Y-219000D02*
D03*
X29500Y-221500D02*
D03*
X33000Y-236500D02*
D03*
X32000Y-253500D02*
D03*
X65500Y-243500D02*
D03*
X81500Y-248500D02*
D03*
X100000Y-249000D02*
D03*
X137000Y-255000D02*
D03*
X138500Y-237500D02*
D03*
X133500Y-220500D02*
D03*
X137500Y-203500D02*
D03*
X135000Y-200500D02*
D03*
Y-184500D02*
D03*
X113500Y-179500D02*
D03*
X92000Y-184500D02*
D03*
X55000Y-179500D02*
D03*
X45000Y-224500D02*
D03*
X46000Y-209500D02*
D03*
X31500Y-198000D02*
D03*
X47500Y-191500D02*
D03*
X56500Y-168000D02*
D03*
X69500Y-190000D02*
D03*
X85500Y-190500D02*
D03*
X93000Y-179500D02*
D03*
X80500D02*
D03*
X90000Y-174500D02*
D03*
X114500Y-164000D02*
D03*
X107500Y-175500D02*
D03*
X104000Y-179000D02*
D03*
X103000Y-173000D02*
D03*
X133500Y-161000D02*
D03*
X97500Y-188000D02*
D03*
X135000Y-180500D02*
D03*
X154500Y-176500D02*
D03*
X148000Y-160500D02*
D03*
X117500Y-186000D02*
D03*
X120000Y-199000D02*
D03*
X117500Y-218500D02*
D03*
X140000Y-216000D02*
D03*
X119500Y-231000D02*
D03*
X136500Y-241000D02*
D03*
X118000Y-246500D02*
D03*
X135000Y-262000D02*
D03*
X106000Y-260000D02*
D03*
X85000Y-245500D02*
D03*
X78000Y-263500D02*
D03*
X95500Y-273000D02*
D03*
X84000Y-263000D02*
D03*
X68500Y-244000D02*
D03*
X55000Y-256500D02*
D03*
X63000Y-258500D02*
D03*
X56000Y-261000D02*
D03*
X43000Y-258500D02*
D03*
X33500Y-262000D02*
D03*
X30500Y-239000D02*
D03*
X25500Y-230500D02*
D03*
X45500Y-241000D02*
D03*
X25500Y-245000D02*
D03*
X48500Y-226000D02*
D03*
X60500Y-203000D02*
D03*
X105500Y-207000D02*
D03*
X116000Y-199000D02*
D03*
X96500Y-249500D02*
D03*
X86000Y-240000D02*
D03*
X97500Y-242500D02*
D03*
X76000Y-253500D02*
D03*
X296500Y-55000D02*
D03*
X341500Y-72500D02*
D03*
X346500D02*
D03*
X290500Y-76000D02*
D03*
X316500Y-73000D02*
D03*
X309000Y-72900D02*
D03*
X324000Y-73000D02*
D03*
Y-80500D02*
D03*
X316500D02*
D03*
X309000D02*
D03*
Y-65500D02*
D03*
X316500D02*
D03*
X324000D02*
D03*
X74500Y-63500D02*
D03*
X82000Y-63600D02*
D03*
X67000Y-63500D02*
D03*
Y-56000D02*
D03*
X74500D02*
D03*
X82000D02*
D03*
Y-71000D02*
D03*
X74500D02*
D03*
X67000D02*
D03*
X242000Y-32500D02*
D03*
X159000Y-104000D02*
D03*
X173000Y-93000D02*
D03*
X227000Y-73000D02*
D03*
X193500Y-55500D02*
D03*
X259000Y-96000D02*
D03*
X218500Y-84500D02*
D03*
X233500Y-97000D02*
D03*
X232000Y-73500D02*
D03*
X231500Y-60000D02*
D03*
X198000Y-66500D02*
D03*
X127000Y-55000D02*
D03*
X194000Y-79000D02*
D03*
X263500Y-81000D02*
D03*
X381500Y-84000D02*
D03*
X373000Y-90500D02*
D03*
X362000Y-80000D02*
D03*
X366000Y-49000D02*
D03*
X365000Y-57500D02*
D03*
X259500Y-121500D02*
D03*
X278000Y-105500D02*
D03*
X287000Y-116500D02*
D03*
X301000Y-104000D02*
D03*
X313000Y-104500D02*
D03*
X331500Y-114500D02*
D03*
X325500Y-103500D02*
D03*
X348000Y-112500D02*
D03*
X339000Y-103250D02*
D03*
X362000Y-103500D02*
D03*
X354250Y-103750D02*
D03*
X373500Y-125500D02*
D03*
X348500Y-123500D02*
D03*
X324500D02*
D03*
X271500Y-104000D02*
D03*
X267500Y-51500D02*
D03*
X263500Y-29500D02*
D03*
X285500Y-27000D02*
D03*
X302500Y-26000D02*
D03*
X325500Y-25500D02*
D03*
X342000Y-26500D02*
D03*
X362500Y-25500D02*
D03*
X357000Y-53000D02*
D03*
X346500Y-81500D02*
D03*
X351000Y-105000D02*
D03*
X332500D02*
D03*
X320500Y-104500D02*
D03*
X308000Y-120000D02*
D03*
X297000Y-122500D02*
D03*
X306500Y-105500D02*
D03*
X293000Y-104000D02*
D03*
X259000Y-70500D02*
D03*
X243000Y-77500D02*
D03*
X224000Y-32000D02*
D03*
X282500Y-90500D02*
D03*
X279000Y-93000D02*
D03*
X285000Y-84000D02*
D03*
X281000Y-84500D02*
D03*
X294500Y-48000D02*
D03*
X378500Y-45500D02*
D03*
X372000Y-51500D02*
D03*
X270000Y-124000D02*
D03*
X243500Y-124500D02*
D03*
X227000Y-55000D02*
D03*
X257000Y-64500D02*
D03*
X237500Y-62000D02*
D03*
X240000Y-86000D02*
D03*
X151000Y-50500D02*
D03*
X153500Y-74500D02*
D03*
X157500Y-61000D02*
D03*
X134000Y-72000D02*
D03*
X147500Y-12000D02*
D03*
X121000Y-12500D02*
D03*
X19000Y-85000D02*
D03*
X12500Y-91000D02*
D03*
X94500Y-81500D02*
D03*
X96500Y-88500D02*
D03*
X110000Y-52000D02*
D03*
X106000Y-52500D02*
D03*
X112000Y-43500D02*
D03*
X108500Y-46000D02*
D03*
X167000Y-104500D02*
D03*
X100500Y-60500D02*
D03*
X114000Y-64000D02*
D03*
X148000Y-59000D02*
D03*
X159000Y-75500D02*
D03*
X132000Y-66000D02*
D03*
X45500Y-63500D02*
D03*
X49500Y-64000D02*
D03*
X98000Y-32500D02*
D03*
X84500Y-31000D02*
D03*
X94000Y-14000D02*
D03*
X83000Y-16500D02*
D03*
X70500Y-32000D02*
D03*
X58500Y-31500D02*
D03*
X40000D02*
D03*
X44500Y-55000D02*
D03*
X34000Y-83500D02*
D03*
X28500Y-111000D02*
D03*
X49000Y-110000D02*
D03*
X65500Y-111000D02*
D03*
X88500Y-110500D02*
D03*
X105500Y-109500D02*
D03*
X127500Y-107000D02*
D03*
X123500Y-85000D02*
D03*
X119500Y-32500D02*
D03*
X66500Y-13000D02*
D03*
X42500D02*
D03*
X17500Y-11000D02*
D03*
X18000Y-46000D02*
D03*
X36750Y-32750D02*
D03*
X29000Y-33000D02*
D03*
X52000Y-33250D02*
D03*
X43000Y-24000D02*
D03*
X65500Y-33000D02*
D03*
X59500Y-22000D02*
D03*
X78000Y-32000D02*
D03*
X90000Y-32500D02*
D03*
X104000Y-20000D02*
D03*
X113000Y-31000D02*
D03*
X131500Y-15000D02*
D03*
X26000Y-79000D02*
D03*
X25000Y-87500D02*
D03*
X29000Y-56500D02*
D03*
X9500Y-52500D02*
D03*
M02*
