M48
;Layer_Color=9474304
;FILE_FORMAT=2:5
INCH,TZ
;TYPE=PLATED
T1F00S00C0.01181
T2F00S00C0.03150
T3F00S00C0.03346
T4F00S00C0.03543
%
T01
X251000Y-320500
X265500Y-320000
X264000Y-300500
Y-296500
X281500Y-295000
X285500Y-301500
X295000Y-302000
X296000Y-308000
X291500Y-305500
X284500Y-317000
X244500Y-304500
X306000Y-301500
X307000Y-296500
X301500Y-293000
X313500Y-290500
X318500Y-301500
X309000Y-306500
X329500Y-291000
X351500Y-289500
X344000Y-301500
X342500Y-313000
X366000Y-301500
X371500Y-306000
X367500Y-283000
X370000Y-279000
X367500Y-262000
X369500Y-259500
X373500Y-250500
X368500Y-242000
X366000Y-244500
X373500Y-236000
X367000Y-227500
X365500Y-219000
X356000Y-222500
X344000Y-224500
X343000Y-220000
X336000Y-222500
X333500Y-237500
X330500Y-237000
X323000Y-227500
X317500Y-232500
X314000Y-235500
X313000Y-241000
X302000Y-241496
X301500Y-238500
X302500Y-231500
X301500Y-222500
X313500Y-221000
X315000Y-218000
X321000Y-217500
X303500Y-208000
X308000Y-254500
Y-261900
Y-269500
X315500
X323000
Y-262000
Y-254500
X315500
Y-262000
X338500Y-278000
X353000Y-271500
X354000Y-256500
X350500Y-255000
X353500Y-240000
X297500Y-242000
X293500
Y-245500
X279500Y-250000
X281500Y-262500
X285500Y-275000
X288500Y-275500
X295000Y-277000
X283000Y-282000
X279000
X283500Y-286000
X264000Y-280500
X261500Y-277500
X258000Y-274000
X253000Y-270500
X259000Y-265000
X258000Y-259500
X265500Y-260500
X259000Y-251500
X260500Y-243500
X262500Y-240000
X262000Y-226000
X264000Y-219000
X266500Y-213000
X269500
X270000Y-210000
X284500Y-215000
X293000Y-221000
X299000Y-232000
X281000Y-234500
X229000Y-230500
X221000Y-224000
X213500Y-219500
X218000Y-214500
X225000Y-198000
X234500Y-200500
X248000Y-197500
X230500Y-256000
X221000Y-253500
Y-265500
X226500Y-273500
X234500Y-267000
X242500Y-278000
X252000Y-288500
X211000Y-282000
X208500Y-276500
X186000Y-275500
X188500Y-268500
X182500Y-223500
X175500Y-227500
X168500Y-225000
X164500Y-214000
X156500Y-203000
X147000Y-192500
X154500Y-176500
X170500Y-182000
Y-191000
X148000Y-160500
X151000Y-283500
X132500Y-268000
X129500
X129000Y-271000
X135000Y-262000
X137000Y-255000
X136500Y-241000
X138500Y-237500
X133500Y-220500
X140000Y-216000
X137500Y-203500
X135000Y-200500
Y-184500
Y-180500
X133500Y-161000
X114500Y-164000
X113500Y-179500
X107500Y-175500
X104000Y-179000
X103000Y-173000
X90000Y-174500
X93000Y-179500
X92000Y-184500
X97500Y-188000
X85500Y-190500
X80500Y-179500
X69500Y-190000
X60500Y-203000
X46000Y-209500
X45000Y-224500
X48500Y-226000
X45500Y-241000
X33000Y-236500
X30500Y-239000
X25500Y-245000
Y-230500
X29500Y-221500
X31500Y-219000
X29000Y-202000
X31500Y-198000
X33000Y-179500
X27500Y-175000
X55000Y-179500
X56500Y-168000
X47500Y-191500
X76000Y-211500
X83500
X91000
Y-219100
Y-226500
X83500
X76000
Y-219000
X83500
X86000Y-240000
X85000Y-245500
X81500Y-248500
X76000Y-253500
X78000Y-263500
X84000Y-263000
X86000Y-260000
X106000
X114500Y-266000
X118000Y-246500
X119500Y-231000
X117500Y-218500
X116000Y-199000
X120000
X115500Y-195000
X117500Y-186000
X104000Y-204000
X105500Y-207000
Y-235500
Y-239000
X101500
X97000Y-239504
X97500Y-242500
X96500Y-249500
X100000Y-249000
X95500Y-273000
X63000Y-258500
X56000Y-261000
X55000Y-256500
X43000Y-258500
X33500Y-262000
X32000Y-253500
X65500Y-243500
X68500Y-244000
X65500Y-111000
X49000Y-110000
X28500Y-111000
X25000Y-87500
X19000Y-85000
X12500Y-91000
X26000Y-79000
X34000Y-83500
X45500Y-63500
X49500Y-64000
X44500Y-55000
X29000Y-56500
X18000Y-46000
X9500Y-52500
X29000Y-33000
X36750Y-32750
X40000Y-31500
X43000Y-24000
X42500Y-13000
X66500
X59500Y-22000
X58500Y-31500
X52000Y-33250
X65500Y-33000
X70500Y-32000
X78000
X84500Y-31000
X90000Y-32500
X98000
X113000Y-31000
X119500Y-32500
X112000Y-43500
X108500Y-46000
X110000Y-52000
X106000Y-52500
X100500Y-60500
X114000Y-64000
X132000Y-66000
X134000Y-72000
X123500Y-85000
X127500Y-107000
X105500Y-109500
X88500Y-110500
X96500Y-88500
X94500Y-81500
X82000Y-71000
Y-63600
X74500Y-63500
X67000
Y-56000
X74500
X82000
X74500Y-71000
X67000
X83000Y-16500
X94000Y-14000
X104000Y-20000
X121000Y-12500
X131500Y-15000
X127000Y-55000
X17500Y-11000
X147500Y-12000
X151000Y-50500
X148000Y-59000
X157500Y-61000
X159000Y-75500
X153500Y-74500
X159000Y-104000
X167000Y-104500
X173000Y-93000
X194000Y-79000
X198000Y-66500
X193500Y-55500
X227000Y-55000
X231500Y-60000
X237500Y-62000
X232000Y-73500
X227000Y-73000
X218500Y-84500
X240000Y-86000
X243000Y-77500
X259000Y-70500
X257000Y-64500
X263500Y-81000
X259000Y-96000
X271500Y-104000
X278000Y-105500
X279000Y-93000
X282500Y-90500
X281000Y-84500
X285000Y-84000
X290500Y-76000
X296500Y-55000
X294500Y-48000
X285500Y-27000
X263500Y-29500
X242000Y-32500
X224000Y-32000
X267500Y-51500
X270000Y-124000
X259500Y-121500
X243500Y-124500
X233500Y-97000
X293000Y-104000
X287000Y-116500
X297000Y-122500
X308000Y-120000
X306500Y-105500
X301000Y-104000
X313000Y-104500
X320500
X325500Y-103500
X332500Y-105000
X339000Y-103250
X351000Y-105000
X354250Y-103750
X362000Y-103500
X348000Y-112500
X348500Y-123500
X324500
X331500Y-114500
X324000Y-80500
Y-73000
X316500
Y-80500
X309000
Y-72900
Y-65500
X316500
X324000
X341500Y-72500
X346500
Y-81500
X362000Y-80000
X373000Y-90500
X381500Y-84000
X378500Y-45500
X372000Y-51500
X366000Y-49000
X365000Y-57500
X357000Y-53000
X362500Y-25500
X342000Y-26500
X325500Y-25500
X302500Y-26000
X373500Y-125500
T02
X175000Y-170843
X193750
X212500
X212500Y-151157
X229157Y-153000
X248843Y-153000
X193750Y-151157
X175000
X182158Y-134500
X201842Y-134500
X225500Y-132343
X225500Y-112657
X205343Y-5500
X185658Y-5500
X165647Y-7804
X165646Y-27489
T03
X345000Y-285000
Y-255000
X54000Y-226000
Y-196000
T04
X196500Y-302500
Y-292500
Y-282500
Y-272500
Y-262500
Y-252500
Y-242500
Y-232500
Y-222500
Y-212500
Y-202500
Y-192500
X208000Y-113500
Y-103500
Y-93500
Y-83500
Y-73500
Y-63500
Y-53500
Y-43500
Y-33500
Y-23500
X183000Y-23000
Y-33000
Y-43000
Y-53000
Y-63000
Y-73000
Y-83000
Y-93000
Y-103000
Y-113000
M30
