G04*
G04 #@! TF.GenerationSoftware,Altium Limited,Altium Designer,19.1.8 (144)*
G04*
G04 Layer_Physical_Order=1*
G04 Layer_Color=255*
%FSLAX25Y25*%
%MOIN*%
G70*
G01*
G75*
%ADD13C,0.01000*%
G04:AMPARAMS|DCode=27|XSize=54.72mil|YSize=37.8mil|CornerRadius=0mil|HoleSize=0mil|Usage=FLASHONLY|Rotation=225.000|XOffset=0mil|YOffset=0mil|HoleType=Round|Shape=Rectangle|*
%AMROTATEDRECTD27*
4,1,4,0.00599,0.03271,0.03271,0.00599,-0.00599,-0.03271,-0.03271,-0.00599,0.00599,0.03271,0.0*
%
%ADD27ROTATEDRECTD27*%

%ADD28R,0.03150X0.02165*%
%ADD29R,0.03543X0.01181*%
%ADD30R,0.01181X0.03543*%
%ADD31R,0.22441X0.22441*%
%ADD32R,0.03780X0.05472*%
%ADD33C,0.03000*%
%ADD34C,0.05512*%
%ADD35C,0.05906*%
%ADD36R,0.05906X0.05906*%
%ADD37C,0.05315*%
%ADD38R,0.05315X0.05315*%
%ADD39R,0.05315X0.05315*%
%ADD40C,0.02362*%
G36*
X136000Y-9058D02*
X131727Y-13331D01*
X131500Y-13286D01*
X130844Y-13416D01*
X130288Y-13788D01*
X129916Y-14344D01*
X129786Y-15000D01*
X129808Y-15113D01*
X129491Y-15500D01*
X124709D01*
X124518Y-15038D01*
X134765Y-4791D01*
X136000D01*
Y-9058D01*
D02*
G37*
G36*
X86336Y-7370D02*
Y-8854D01*
X87391D01*
Y-10667D01*
X83227Y-14831D01*
X83000Y-14786D01*
X82344Y-14916D01*
X81788Y-15288D01*
X81646Y-15500D01*
X80945D01*
Y-12107D01*
X85874Y-7179D01*
X86336Y-7370D01*
D02*
G37*
G36*
X67640Y-9354D02*
X68695D01*
Y-15500D01*
X64435D01*
Y-9800D01*
X64565Y-9354D01*
X66640D01*
Y-7272D01*
X67640D01*
Y-9354D01*
D02*
G37*
G36*
X40070D02*
X42145D01*
Y-7870D01*
X42607Y-7679D01*
X49966Y-15038D01*
X49775Y-15500D01*
X40529D01*
X38015Y-12986D01*
Y-9354D01*
X39070D01*
Y-7272D01*
X40070D01*
Y-9354D01*
D02*
G37*
G36*
X26525Y-15038D02*
X26334Y-15500D01*
X17599D01*
X15500Y-13401D01*
Y-4748D01*
X16235D01*
X26525Y-15038D01*
D02*
G37*
G36*
X370901Y-8000D02*
X370610Y-8058D01*
X370279Y-8279D01*
X362004Y-16554D01*
X361504Y-16347D01*
Y-13417D01*
X361504Y-13417D01*
Y-13083D01*
X361504D01*
X361504Y-12917D01*
Y-9917D01*
X357354D01*
Y-11641D01*
X357080Y-11915D01*
X356840Y-12075D01*
X356167Y-12749D01*
X355705Y-12557D01*
Y-12000D01*
X353130D01*
X350555D01*
Y-13583D01*
X350555D01*
X350413Y-14024D01*
X349957D01*
X349566Y-14101D01*
X349236Y-14322D01*
X341058Y-22500D01*
X331804D01*
Y-16583D01*
X333934D01*
Y-13417D01*
X333934Y-13417D01*
Y-13083D01*
X333934D01*
X333934Y-12917D01*
Y-9917D01*
X329785D01*
Y-11075D01*
X329457Y-11141D01*
X329126Y-11362D01*
X328597Y-11891D01*
X328135Y-11699D01*
Y-9417D01*
X326060D01*
Y-11500D01*
X325560D01*
Y-12000D01*
X322985D01*
Y-13583D01*
X323485D01*
Y-16626D01*
X324541D01*
Y-21017D01*
X323058Y-22500D01*
X313231D01*
X306384Y-15653D01*
Y-15583D01*
X306364Y-15484D01*
Y-13417D01*
X306364Y-13417D01*
Y-13083D01*
X306364D01*
X306364Y-12917D01*
Y-9917D01*
X302215D01*
Y-11641D01*
X301940Y-11915D01*
X301701Y-12075D01*
X301065Y-12711D01*
X300565Y-12504D01*
Y-12000D01*
X297990D01*
X295415D01*
Y-13583D01*
X295915D01*
Y-16626D01*
X298045D01*
Y-22500D01*
X293942D01*
X286721Y-15279D01*
X286390Y-15058D01*
X286000Y-14980D01*
X278794D01*
Y-13417D01*
X278794Y-13417D01*
Y-13083D01*
X278794D01*
X278794Y-12917D01*
Y-9917D01*
X274645D01*
Y-11641D01*
X274371Y-11915D01*
X274131Y-12075D01*
X273495Y-12711D01*
X272995Y-12504D01*
Y-12000D01*
X270420D01*
X267846D01*
Y-13583D01*
X268345D01*
Y-16626D01*
X270476D01*
Y-19005D01*
X270553Y-19395D01*
X270774Y-19726D01*
X273086Y-22038D01*
X272895Y-22500D01*
X269757D01*
X258036Y-10779D01*
X257705Y-10558D01*
X257315Y-10480D01*
X251224D01*
Y-9917D01*
X247075D01*
Y-13083D01*
X247075D01*
Y-13417D01*
X247075D01*
Y-16583D01*
X251224D01*
Y-15770D01*
X258021D01*
X264290Y-22038D01*
X264099Y-22500D01*
X255000D01*
Y-24606D01*
X254538Y-24797D01*
X244925Y-15184D01*
Y-13583D01*
X245425D01*
Y-12000D01*
X242850D01*
X240276D01*
Y-13583D01*
X240776D01*
Y-16626D01*
X243483D01*
X255000Y-28143D01*
Y-45480D01*
X246500D01*
X246110Y-45558D01*
X245779Y-45779D01*
X242129Y-49429D01*
X241908Y-49759D01*
X241831Y-50150D01*
Y-51022D01*
X240776D01*
Y-54188D01*
X240776Y-54188D01*
Y-54522D01*
X240776D01*
X240776Y-54688D01*
Y-57688D01*
X244925D01*
Y-55964D01*
X245199Y-55690D01*
X245439Y-55530D01*
X246113Y-54856D01*
X246575Y-55048D01*
Y-55605D01*
X249150D01*
X251724D01*
Y-54022D01*
X251224D01*
Y-53520D01*
X255000D01*
Y-63661D01*
X236217D01*
X236158Y-48725D01*
X243442Y-41442D01*
X243884Y-40780D01*
X244039Y-40000D01*
Y-32500D01*
Y-23500D01*
X243884Y-22720D01*
X243442Y-22058D01*
X236942Y-15558D01*
X236280Y-15116D01*
X236028Y-15066D01*
X236000Y-8000D01*
X236500Y-7500D01*
X370852D01*
X370901Y-8000D01*
D02*
G37*
G36*
X391000Y-22500D02*
X383520D01*
Y-17126D01*
X384799D01*
Y-15043D01*
X385299D01*
Y-14543D01*
X387874D01*
Y-12961D01*
X387374D01*
Y-9917D01*
X384666D01*
X383028Y-8279D01*
X382697Y-8058D01*
X382406Y-8000D01*
X382455Y-7500D01*
X391000D01*
Y-22500D01*
D02*
G37*
G36*
X381480Y-16854D02*
Y-22500D01*
X373147D01*
X372955Y-22038D01*
X378367Y-16626D01*
X381075D01*
X381480Y-16854D01*
D02*
G37*
G36*
X376925Y-12961D02*
X376925Y-13126D01*
Y-13461D01*
X376925Y-13461D01*
Y-15184D01*
X369609Y-22500D01*
X359595D01*
X359404Y-22038D01*
X371422Y-10020D01*
X376925D01*
Y-12961D01*
D02*
G37*
G36*
X351055Y-16626D02*
X353524D01*
X353715Y-17088D01*
X348303Y-22500D01*
X344595D01*
X344404Y-22038D01*
X350379Y-16063D01*
X351055D01*
Y-16626D01*
D02*
G37*
G36*
X277491Y-16721D02*
X277821Y-16942D01*
X278212Y-17020D01*
X285578D01*
X290596Y-22038D01*
X290405Y-22500D01*
X281590D01*
X276134Y-17045D01*
X276326Y-16583D01*
X277352D01*
X277491Y-16721D01*
D02*
G37*
G36*
X239961Y-24345D02*
Y-32500D01*
Y-39155D01*
X236596Y-42520D01*
X236134Y-42330D01*
X236051Y-21089D01*
X236512Y-20896D01*
X239961Y-24345D01*
D02*
G37*
G36*
X154703Y-52107D02*
X154350Y-52461D01*
X136000D01*
Y-51415D01*
X141132D01*
X141522Y-51337D01*
X141853Y-51116D01*
X145135Y-47834D01*
X145575Y-47688D01*
X145575Y-47688D01*
X147650D01*
Y-45605D01*
X148150D01*
Y-45105D01*
X150724D01*
Y-43522D01*
X150224D01*
Y-40479D01*
X146075D01*
Y-42202D01*
X145670Y-42607D01*
X145561Y-42680D01*
X144335Y-43906D01*
X143925Y-43609D01*
Y-40522D01*
X139776D01*
Y-41085D01*
X136000D01*
Y-20442D01*
X146221Y-10221D01*
X146442Y-9890D01*
X146520Y-9500D01*
Y-9354D01*
X147650D01*
Y-7272D01*
X148150D01*
Y-6772D01*
X150724D01*
Y-5189D01*
X150224D01*
Y-2146D01*
X146075D01*
Y-3869D01*
X145596Y-4348D01*
X145486Y-4421D01*
X144779Y-5128D01*
X144558Y-5459D01*
X144480Y-5850D01*
Y-9078D01*
X136462Y-17096D01*
X136000Y-16905D01*
Y-11942D01*
X139198Y-8744D01*
X139776D01*
Y-8854D01*
X143925D01*
Y-5689D01*
X143925D01*
Y-5354D01*
X143925D01*
Y-2189D01*
X139776D01*
Y-2752D01*
X134343D01*
X133952Y-2830D01*
X133622Y-3051D01*
X121172Y-15500D01*
X115595D01*
X115404Y-15038D01*
X119721Y-10721D01*
X119942Y-10390D01*
X120020Y-10000D01*
Y-9354D01*
X121780D01*
Y-7272D01*
X122280D01*
Y-6772D01*
X124855D01*
Y-5189D01*
X124355D01*
Y-2146D01*
X120205D01*
Y-3869D01*
X119679Y-4395D01*
X119570Y-4468D01*
X118495Y-5543D01*
X118446Y-5559D01*
X118055Y-5275D01*
Y-2189D01*
X113906D01*
Y-3912D01*
X113632Y-4186D01*
X113392Y-4347D01*
X102239Y-15500D01*
X92005D01*
Y-9800D01*
X92135Y-9354D01*
X94210D01*
Y-7272D01*
X94710D01*
Y-6772D01*
X97285D01*
Y-5189D01*
X96785D01*
Y-2146D01*
X92635D01*
Y-3869D01*
X92231Y-4273D01*
X92121Y-4347D01*
X90895Y-5573D01*
X90485Y-5275D01*
Y-2189D01*
X86336D01*
Y-3912D01*
X86062Y-4186D01*
X85822Y-4347D01*
X79204Y-10964D01*
X78983Y-11295D01*
X78906Y-11685D01*
Y-15500D01*
X70734D01*
Y-5775D01*
X70657Y-5384D01*
X70436Y-5054D01*
X69728Y-4347D01*
X69619Y-4273D01*
X69215Y-3869D01*
Y-2146D01*
X65065D01*
Y-5189D01*
X64565D01*
Y-5189D01*
X64126Y-5043D01*
X63429Y-4347D01*
X63190Y-4186D01*
X62915Y-3912D01*
Y-2189D01*
X58766D01*
Y-5189D01*
X58766Y-5354D01*
X58766D01*
Y-5689D01*
X58766D01*
Y-8854D01*
X59821D01*
Y-15500D01*
X53312D01*
X42158Y-4347D01*
X42049Y-4273D01*
X41645Y-3869D01*
Y-2146D01*
X37495D01*
Y-5189D01*
X36995D01*
X36995Y-5189D01*
Y-5189D01*
X36548Y-5035D01*
X35859Y-4347D01*
X35620Y-4186D01*
X35346Y-3912D01*
Y-2189D01*
X31196D01*
Y-5189D01*
X31196Y-5354D01*
X31196D01*
Y-5689D01*
X31196D01*
Y-8854D01*
X32251D01*
Y-14271D01*
X32329Y-14661D01*
X32550Y-14992D01*
X32596Y-15038D01*
X32405Y-15500D01*
X29871D01*
X17378Y-3007D01*
X17048Y-2786D01*
X16657Y-2709D01*
X14075D01*
Y-2146D01*
X9925D01*
Y-5189D01*
X9425D01*
X9425Y-5189D01*
Y-5189D01*
X8978Y-5035D01*
X8290Y-4347D01*
X8050Y-4186D01*
X7776Y-3912D01*
Y-2189D01*
X3626D01*
Y-5189D01*
X3626Y-5354D01*
X3626D01*
Y-5689D01*
X3626D01*
Y-8854D01*
X5756D01*
Y-10776D01*
X5834Y-11166D01*
X6055Y-11497D01*
X15500Y-20942D01*
Y-41299D01*
X14075D01*
Y-40736D01*
X9925D01*
Y-43780D01*
X9425D01*
X9425Y-43780D01*
Y-43780D01*
X8978Y-43626D01*
X8290Y-42937D01*
X8050Y-42777D01*
X7776Y-42503D01*
Y-40780D01*
X3626D01*
Y-43780D01*
X3626Y-43945D01*
X3626D01*
Y-44280D01*
X3626D01*
Y-47445D01*
X4681D01*
Y-48701D01*
X4759Y-49091D01*
X4980Y-49422D01*
X7831Y-52273D01*
X7786Y-52500D01*
X7916Y-53156D01*
X8288Y-53712D01*
X8844Y-54084D01*
X9500Y-54214D01*
X10156Y-54084D01*
X10712Y-53712D01*
X11084Y-53156D01*
X11214Y-52500D01*
X11084Y-51844D01*
X10712Y-51288D01*
X10310Y-51020D01*
X10462Y-50520D01*
X15500D01*
X15500Y-74419D01*
X11707D01*
X11317Y-74496D01*
X10986Y-74717D01*
X6334Y-79370D01*
X3626D01*
Y-82535D01*
X3626D01*
Y-82870D01*
X3626D01*
Y-86035D01*
X6334D01*
X8519Y-88221D01*
X8850Y-88442D01*
X9240Y-88520D01*
X15500D01*
Y-105058D01*
X7779Y-112779D01*
X7558Y-113110D01*
X7480Y-113500D01*
Y-114000D01*
X0D01*
X0Y0D01*
X154500D01*
X154703Y-52107D01*
D02*
G37*
G36*
X154733Y-59807D02*
X154380Y-60162D01*
X149776D01*
X149540Y-59720D01*
X149584Y-59656D01*
X149714Y-59000D01*
X149584Y-58344D01*
X149212Y-57788D01*
X148656Y-57416D01*
X148000Y-57286D01*
X147387Y-57408D01*
X147341Y-57377D01*
X146950Y-57299D01*
X136000D01*
Y-56539D01*
X154720D01*
X154733Y-59807D01*
D02*
G37*
G36*
X255000Y-67059D02*
X236230D01*
X236226Y-66055D01*
X236579Y-65701D01*
X255000D01*
Y-67059D01*
D02*
G37*
G36*
X154761Y-67047D02*
X154408Y-67402D01*
X136000D01*
Y-64759D01*
X154752D01*
X154761Y-67047D01*
D02*
G37*
G36*
X154774Y-70445D02*
X154421Y-70799D01*
X136000D01*
Y-69441D01*
X154770D01*
X154774Y-70445D01*
D02*
G37*
G36*
X255000Y-72480D02*
X236251D01*
X236239Y-69453D01*
X236592Y-69098D01*
X255000D01*
Y-72480D01*
D02*
G37*
G36*
Y-77162D02*
X244647D01*
X244584Y-76844D01*
X244212Y-76288D01*
X243656Y-75916D01*
X243000Y-75786D01*
X242344Y-75916D01*
X241788Y-76288D01*
X241416Y-76844D01*
X241286Y-77500D01*
X241416Y-78156D01*
X241788Y-78712D01*
X242344Y-79084D01*
X243000Y-79214D01*
X243613Y-79092D01*
X243659Y-79123D01*
X244050Y-79201D01*
X255000D01*
Y-80461D01*
X236282D01*
X236260Y-74874D01*
X236613Y-74520D01*
X255000D01*
Y-77162D01*
D02*
G37*
G36*
X391000Y-136500D02*
X236500D01*
X236299Y-84893D01*
X236652Y-84539D01*
X255000D01*
Y-85085D01*
X249868D01*
X249478Y-85163D01*
X249147Y-85384D01*
X245865Y-88666D01*
X245425Y-88812D01*
X245425Y-88812D01*
X243350D01*
Y-90895D01*
X242850D01*
Y-91395D01*
X240276D01*
Y-92978D01*
X240776D01*
Y-96021D01*
X244925D01*
Y-94298D01*
X245330Y-93893D01*
X245439Y-93820D01*
X246665Y-92594D01*
X247075Y-92891D01*
Y-95978D01*
X251224D01*
Y-94520D01*
X255000D01*
Y-116058D01*
X244779Y-126279D01*
X244558Y-126610D01*
X244480Y-127000D01*
Y-127146D01*
X243350D01*
Y-129228D01*
X242850D01*
Y-129728D01*
X240276D01*
Y-131311D01*
X240776D01*
Y-134354D01*
X244925D01*
Y-132631D01*
X245404Y-132152D01*
X245514Y-132079D01*
X246221Y-131371D01*
X246442Y-131041D01*
X246520Y-130650D01*
Y-127422D01*
X254538Y-119404D01*
X255000Y-119595D01*
Y-124558D01*
X251802Y-127756D01*
X251224D01*
Y-127646D01*
X247075D01*
Y-130811D01*
X247075D01*
Y-131146D01*
X247075D01*
Y-134311D01*
X251224D01*
Y-133748D01*
X256658D01*
X257048Y-133670D01*
X257378Y-133449D01*
X269828Y-121000D01*
X275405D01*
X275596Y-121462D01*
X271279Y-125779D01*
X271058Y-126110D01*
X270980Y-126500D01*
Y-127146D01*
X269220D01*
Y-129228D01*
X268720D01*
Y-129728D01*
X266145D01*
Y-131311D01*
X266646D01*
Y-134354D01*
X270795D01*
Y-132631D01*
X271321Y-132105D01*
X271430Y-132032D01*
X272505Y-130957D01*
X272554Y-130941D01*
X272945Y-131225D01*
Y-134311D01*
X277094D01*
Y-132588D01*
X277368Y-132314D01*
X277608Y-132153D01*
X288761Y-121000D01*
X298995D01*
Y-126700D01*
X298865Y-127146D01*
X296790D01*
Y-129228D01*
X296290D01*
Y-129728D01*
X293715D01*
Y-131311D01*
X294215D01*
Y-134354D01*
X298365D01*
Y-132631D01*
X298769Y-132227D01*
X298879Y-132153D01*
X300105Y-130927D01*
X300515Y-131225D01*
Y-134311D01*
X304664D01*
Y-132588D01*
X304938Y-132314D01*
X305178Y-132153D01*
X311796Y-125536D01*
X312017Y-125205D01*
X312094Y-124815D01*
Y-121000D01*
X320266D01*
Y-130725D01*
X320343Y-131115D01*
X320564Y-131446D01*
X321271Y-132153D01*
X321381Y-132227D01*
X321785Y-132631D01*
Y-134354D01*
X325935D01*
Y-131311D01*
X326435D01*
Y-131311D01*
X326874Y-131457D01*
X327571Y-132153D01*
X327811Y-132314D01*
X328085Y-132588D01*
Y-134311D01*
X332234D01*
Y-131311D01*
X332234Y-131146D01*
X332234D01*
Y-130811D01*
X332234D01*
Y-127646D01*
X331179D01*
Y-121000D01*
X337688D01*
X348842Y-132153D01*
X348951Y-132227D01*
X349355Y-132631D01*
Y-134354D01*
X353505D01*
Y-131311D01*
X354005D01*
X354005Y-131311D01*
Y-131311D01*
X354452Y-131465D01*
X355141Y-132153D01*
X355381Y-132314D01*
X355655Y-132588D01*
Y-134311D01*
X359804D01*
Y-131311D01*
X359804Y-131146D01*
X359804D01*
Y-130811D01*
X359804D01*
Y-127646D01*
X358749D01*
Y-122229D01*
X358671Y-121839D01*
X358450Y-121508D01*
X358404Y-121462D01*
X358595Y-121000D01*
X361129D01*
X373622Y-133493D01*
X373952Y-133714D01*
X374342Y-133791D01*
X376925D01*
Y-134354D01*
X381075D01*
Y-131311D01*
X381575D01*
X381575Y-131311D01*
Y-131311D01*
X382022Y-131465D01*
X382711Y-132153D01*
X382950Y-132314D01*
X383224Y-132588D01*
Y-134311D01*
X387374D01*
Y-131311D01*
X387374Y-131146D01*
X387374D01*
Y-130811D01*
X387374D01*
Y-127646D01*
X385244D01*
Y-125724D01*
X385166Y-125334D01*
X384945Y-125003D01*
X375500Y-115558D01*
Y-95201D01*
X376925D01*
Y-95764D01*
X381075D01*
Y-92721D01*
X381575D01*
X381575Y-92721D01*
Y-92721D01*
X382022Y-92874D01*
X382711Y-93563D01*
X382950Y-93723D01*
X383224Y-93997D01*
Y-95720D01*
X387374D01*
Y-92721D01*
X387374Y-92555D01*
X387374D01*
Y-92220D01*
X387374D01*
Y-89055D01*
X386319D01*
Y-87799D01*
X386241Y-87409D01*
X386020Y-87078D01*
X383169Y-84227D01*
X383214Y-84000D01*
X383084Y-83344D01*
X382712Y-82788D01*
X382156Y-82416D01*
X381500Y-82286D01*
X380844Y-82416D01*
X380288Y-82788D01*
X379916Y-83344D01*
X379786Y-84000D01*
X379916Y-84656D01*
X380288Y-85212D01*
X380690Y-85480D01*
X380538Y-85980D01*
X375500D01*
X375500Y-62081D01*
X379293D01*
X379683Y-62004D01*
X380014Y-61783D01*
X384666Y-57130D01*
X387374D01*
Y-53965D01*
X387374D01*
Y-53630D01*
X387374D01*
Y-50465D01*
X384666D01*
X382481Y-48279D01*
X382150Y-48058D01*
X381760Y-47980D01*
X375500D01*
Y-31442D01*
X383221Y-23721D01*
X383442Y-23390D01*
X383520Y-23000D01*
Y-22500D01*
X391000D01*
X391000Y-136500D01*
D02*
G37*
G36*
X18045Y-114462D02*
X12633Y-119874D01*
X9925D01*
X9520Y-119646D01*
Y-114000D01*
X17853D01*
X18045Y-114462D01*
D02*
G37*
G36*
X114866Y-119455D02*
X114674Y-119917D01*
X113648D01*
X113509Y-119779D01*
X113178Y-119558D01*
X112788Y-119480D01*
X105422D01*
X100404Y-114462D01*
X100595Y-114000D01*
X109410D01*
X114866Y-119455D01*
D02*
G37*
G36*
X46596Y-114462D02*
X40621Y-120437D01*
X39945D01*
Y-119874D01*
X37476D01*
X37285Y-119412D01*
X42697Y-114000D01*
X46405D01*
X46596Y-114462D01*
D02*
G37*
G36*
X310055Y-124392D02*
X305126Y-129322D01*
X304664Y-129130D01*
Y-127646D01*
X303609D01*
Y-125833D01*
X307773Y-121669D01*
X308000Y-121714D01*
X308656Y-121584D01*
X309212Y-121212D01*
X309354Y-121000D01*
X310055D01*
Y-124392D01*
D02*
G37*
G36*
X266482Y-121462D02*
X256235Y-131709D01*
X255000D01*
Y-127442D01*
X259273Y-123169D01*
X259500Y-123214D01*
X260156Y-123084D01*
X260712Y-122712D01*
X261084Y-122156D01*
X261214Y-121500D01*
X261192Y-121387D01*
X261509Y-121000D01*
X266291D01*
X266482Y-121462D01*
D02*
G37*
G36*
X155000Y-128500D02*
X154500Y-129000D01*
X20148D01*
X20098Y-128500D01*
X20390Y-128442D01*
X20721Y-128221D01*
X28996Y-119946D01*
X29496Y-120153D01*
Y-123083D01*
X29496Y-123083D01*
Y-123417D01*
X29496D01*
X29496Y-123583D01*
Y-126583D01*
X33645D01*
Y-124859D01*
X33920Y-124585D01*
X34159Y-124425D01*
X34833Y-123751D01*
X35295Y-123943D01*
Y-124500D01*
X37870D01*
X40445D01*
Y-122917D01*
X40445D01*
X40587Y-122476D01*
X41043D01*
X41434Y-122399D01*
X41764Y-122178D01*
X49942Y-114000D01*
X59196D01*
Y-119917D01*
X57066D01*
Y-123083D01*
X57066Y-123083D01*
Y-123417D01*
X57066D01*
X57066Y-123583D01*
Y-126583D01*
X61215D01*
Y-125425D01*
X61543Y-125359D01*
X61874Y-125138D01*
X62403Y-124609D01*
X62865Y-124801D01*
Y-127083D01*
X64940D01*
Y-125000D01*
X65440D01*
Y-124500D01*
X68015D01*
Y-122917D01*
X67515D01*
Y-119874D01*
X66459D01*
Y-115482D01*
X67942Y-114000D01*
X77769D01*
X84616Y-120847D01*
Y-120917D01*
X84636Y-121016D01*
Y-123083D01*
X84636Y-123083D01*
Y-123417D01*
X84636D01*
X84636Y-123583D01*
Y-126583D01*
X88785D01*
Y-124859D01*
X89060Y-124585D01*
X89299Y-124425D01*
X89935Y-123789D01*
X90435Y-123996D01*
Y-124500D01*
X93010D01*
X95585D01*
Y-122917D01*
X95085D01*
Y-119874D01*
X92955D01*
Y-114000D01*
X97058D01*
X104279Y-121221D01*
X104610Y-121442D01*
X105000Y-121520D01*
X112206D01*
Y-123083D01*
X112206Y-123083D01*
Y-123417D01*
X112206D01*
X112206Y-123583D01*
Y-126583D01*
X116355D01*
Y-124859D01*
X116629Y-124585D01*
X116869Y-124425D01*
X117505Y-123789D01*
X118005Y-123996D01*
Y-124500D01*
X120580D01*
X123154D01*
Y-122917D01*
X122654D01*
Y-119874D01*
X120524D01*
Y-117495D01*
X120447Y-117105D01*
X120226Y-116774D01*
X117914Y-114462D01*
X118105Y-114000D01*
X121243D01*
X132964Y-125721D01*
X133295Y-125942D01*
X133685Y-126020D01*
X139776D01*
Y-126583D01*
X143925D01*
Y-123417D01*
X143925D01*
Y-123083D01*
X143925D01*
Y-119917D01*
X139776D01*
Y-120730D01*
X132979D01*
X126710Y-114462D01*
X126901Y-114000D01*
X136000D01*
Y-111894D01*
X136462Y-111703D01*
X146075Y-121316D01*
Y-122917D01*
X145575D01*
Y-124500D01*
X148150D01*
X150724D01*
Y-122917D01*
X150224D01*
Y-119874D01*
X147517D01*
X136000Y-108357D01*
Y-91020D01*
X144500D01*
X144890Y-90942D01*
X145221Y-90721D01*
X148871Y-87071D01*
X149092Y-86741D01*
X149169Y-86350D01*
Y-85478D01*
X150224D01*
Y-82312D01*
X150224Y-82312D01*
Y-81978D01*
X150224D01*
X150224Y-81812D01*
Y-78812D01*
X146075D01*
Y-80536D01*
X145801Y-80810D01*
X145561Y-80970D01*
X144887Y-81644D01*
X144425Y-81452D01*
Y-80895D01*
X141850D01*
X139276D01*
Y-82478D01*
X139776D01*
Y-82980D01*
X136000D01*
Y-72838D01*
X154783D01*
X155000Y-128500D01*
D02*
G37*
G36*
X31596Y-114462D02*
X19578Y-126480D01*
X14075D01*
Y-123539D01*
X14075Y-123374D01*
X14075D01*
Y-123039D01*
X14075D01*
Y-121316D01*
X21391Y-114000D01*
X31405D01*
X31596Y-114462D01*
D02*
G37*
G36*
X7480Y-119374D02*
X6201D01*
Y-121457D01*
X5701D01*
Y-121957D01*
X3126D01*
Y-123539D01*
X3626D01*
Y-126583D01*
X6334D01*
X7972Y-128221D01*
X8303Y-128442D01*
X8594Y-128500D01*
X8545Y-129000D01*
X0D01*
Y-114000D01*
X7480D01*
Y-119374D01*
D02*
G37*
G36*
X352985Y-123514D02*
Y-127146D01*
X351930D01*
Y-129228D01*
X350930D01*
Y-127146D01*
X348855D01*
Y-128630D01*
X348393Y-128821D01*
X341034Y-121462D01*
X341225Y-121000D01*
X350471D01*
X352985Y-123514D01*
D02*
G37*
G36*
X326565Y-126699D02*
X326435Y-127146D01*
X324360D01*
Y-129228D01*
X323360D01*
Y-127146D01*
X322305D01*
Y-121000D01*
X326565D01*
Y-126699D01*
D02*
G37*
G36*
X375500Y-123099D02*
Y-131752D01*
X374765D01*
X364475Y-121462D01*
X364666Y-121000D01*
X373401D01*
X375500Y-123099D01*
D02*
G37*
G36*
X166500Y-154000D02*
Y-171500D01*
X166500D01*
Y-224803D01*
X166461Y-225000D01*
X166500Y-225197D01*
Y-265000D01*
Y-282500D01*
X152354D01*
X152212Y-282288D01*
X151656Y-281916D01*
X151000Y-281786D01*
X150344Y-281916D01*
X149788Y-282288D01*
X149659Y-282480D01*
X145338D01*
X132935Y-270077D01*
X133080Y-269599D01*
X133156Y-269584D01*
X133712Y-269212D01*
X134084Y-268656D01*
X134214Y-268000D01*
X134084Y-267344D01*
X133712Y-266788D01*
X133156Y-266416D01*
X132500Y-266286D01*
X131844Y-266416D01*
X131288Y-266788D01*
X131250Y-266845D01*
X130750D01*
X130712Y-266788D01*
X130156Y-266416D01*
X129500Y-266286D01*
X128844Y-266416D01*
X128288Y-266788D01*
X127916Y-267344D01*
X127786Y-268000D01*
X127916Y-268656D01*
X128143Y-268995D01*
X128264Y-269249D01*
X128019Y-269634D01*
X127788Y-269788D01*
X127416Y-270344D01*
X127311Y-270873D01*
X127014Y-271082D01*
X126805Y-271146D01*
X126020D01*
Y-269514D01*
X125942Y-269124D01*
X125721Y-268793D01*
X122428Y-265500D01*
X122635Y-265000D01*
X132629D01*
X144622Y-276993D01*
X144952Y-277214D01*
X145343Y-277291D01*
X151776D01*
Y-277854D01*
X155925D01*
Y-274689D01*
X155925D01*
Y-274354D01*
X155925D01*
Y-271189D01*
X153217D01*
X147491Y-265462D01*
X147682Y-265000D01*
X150487D01*
X158075Y-272588D01*
Y-274189D01*
X157575D01*
Y-275772D01*
X160150D01*
X162724D01*
Y-274189D01*
X162224D01*
Y-271146D01*
X159517D01*
X153833Y-265462D01*
X154024Y-265000D01*
X153371D01*
X147500Y-259129D01*
Y-249041D01*
X151776D01*
Y-249604D01*
X155925D01*
Y-246439D01*
X155925D01*
Y-246104D01*
X155925D01*
Y-242939D01*
X151776D01*
Y-243502D01*
X147500D01*
Y-235373D01*
X149110D01*
X158075Y-244338D01*
Y-245939D01*
X157575D01*
Y-247522D01*
X160150D01*
X162724D01*
Y-245939D01*
X162224D01*
Y-242896D01*
X159517D01*
X150253Y-233632D01*
X149923Y-233411D01*
X149532Y-233334D01*
X147500D01*
Y-220791D01*
X151776D01*
Y-221354D01*
X155925D01*
Y-218189D01*
X155925D01*
Y-217854D01*
X155925D01*
Y-214839D01*
X156826D01*
X158075Y-216088D01*
Y-217689D01*
X157575D01*
Y-219272D01*
X160150D01*
X162724D01*
Y-217689D01*
X162224D01*
Y-214646D01*
X159517D01*
X157969Y-213098D01*
X157638Y-212877D01*
X157248Y-212799D01*
X147500D01*
Y-198822D01*
X153217Y-193104D01*
X155925D01*
Y-189939D01*
X155925D01*
Y-189604D01*
X155925D01*
Y-186439D01*
X151776D01*
Y-187002D01*
X147500D01*
Y-185187D01*
X148167Y-184520D01*
X157078D01*
X158055Y-185497D01*
Y-187396D01*
X158075Y-187494D01*
Y-189439D01*
X157575D01*
Y-191022D01*
X160150D01*
X162724D01*
Y-189439D01*
X162224D01*
Y-186396D01*
X160094D01*
Y-185075D01*
X160017Y-184685D01*
X159796Y-184354D01*
X158221Y-182779D01*
X157890Y-182558D01*
X157500Y-182480D01*
X147745D01*
X147500Y-182279D01*
Y-177942D01*
X153497Y-171945D01*
X153718Y-171615D01*
X153740Y-171500D01*
X156121D01*
Y-173437D01*
X154727Y-174831D01*
X154500Y-174786D01*
X153844Y-174916D01*
X153288Y-175288D01*
X152916Y-175844D01*
X152786Y-176500D01*
X152916Y-177156D01*
X153288Y-177712D01*
X153844Y-178084D01*
X154500Y-178214D01*
X155156Y-178084D01*
X155712Y-177712D01*
X156084Y-177156D01*
X156214Y-176500D01*
X156169Y-176273D01*
X157862Y-174580D01*
X158083Y-174249D01*
X158160Y-173859D01*
Y-171500D01*
Y-165354D01*
X159650D01*
Y-163272D01*
X160150D01*
Y-162772D01*
X162724D01*
Y-161189D01*
X162224D01*
Y-158146D01*
X158075D01*
Y-159869D01*
X157670Y-160274D01*
X157561Y-160347D01*
X156420Y-161488D01*
X156109Y-161395D01*
X155925Y-161242D01*
Y-158189D01*
X151776D01*
Y-159220D01*
X149110D01*
X148656Y-158916D01*
X148000Y-158786D01*
X147344Y-158916D01*
X146788Y-159288D01*
X146416Y-159844D01*
X146286Y-160500D01*
X146416Y-161156D01*
X146788Y-161712D01*
X147344Y-162084D01*
X148000Y-162214D01*
X148656Y-162084D01*
X149212Y-161712D01*
X149515Y-161259D01*
X151607D01*
X151776Y-161689D01*
X151776Y-161854D01*
Y-163756D01*
X151756Y-163854D01*
Y-170802D01*
X151058Y-171500D01*
X119631D01*
X119440Y-171038D01*
X125667Y-164811D01*
X128374D01*
X128374Y-161248D01*
X128621Y-160748D01*
X131437D01*
X131810Y-161120D01*
X131916Y-161656D01*
X132288Y-162212D01*
X132844Y-162584D01*
X133500Y-162714D01*
X134156Y-162584D01*
X134712Y-162212D01*
X135084Y-161656D01*
X135214Y-161000D01*
X135084Y-160344D01*
X134712Y-159788D01*
X134156Y-159416D01*
X133500Y-159286D01*
X132966Y-159392D01*
X132581Y-159007D01*
X132250Y-158786D01*
X131860Y-158709D01*
X128374D01*
Y-158146D01*
X124225D01*
Y-161146D01*
X124225Y-161646D01*
X124225Y-161811D01*
Y-163369D01*
X122459Y-165135D01*
X122075Y-164812D01*
X122075Y-164372D01*
Y-161811D01*
X122575D01*
Y-160228D01*
X120000D01*
X117426D01*
Y-161811D01*
X117926D01*
Y-162720D01*
X115610D01*
X115156Y-162416D01*
X114500Y-162286D01*
X113844Y-162416D01*
X113288Y-162788D01*
X112916Y-163344D01*
X112786Y-164000D01*
X112916Y-164656D01*
X113288Y-165212D01*
X113844Y-165584D01*
X114500Y-165714D01*
X115156Y-165584D01*
X115712Y-165212D01*
X116015Y-164759D01*
X117926D01*
Y-164854D01*
X121577D01*
X122032Y-164854D01*
X122356Y-165238D01*
X116094Y-171500D01*
X103781D01*
X103656Y-171416D01*
X103000Y-171286D01*
X102344Y-171416D01*
X102219Y-171500D01*
X94344Y-171500D01*
Y-161732D01*
X94266Y-161341D01*
X94045Y-161011D01*
X93338Y-160303D01*
X93098Y-160143D01*
X92824Y-159869D01*
Y-158146D01*
X88675D01*
Y-161146D01*
X88675Y-161311D01*
X88675D01*
Y-161646D01*
X88675D01*
Y-164811D01*
X88980D01*
Y-171500D01*
X85470D01*
Y-164854D01*
X86525D01*
Y-161811D01*
X87025D01*
Y-160228D01*
X84450D01*
X81876D01*
Y-161811D01*
X82376D01*
Y-164854D01*
X83431D01*
Y-171500D01*
X66831D01*
Y-166812D01*
X66754Y-166422D01*
X66533Y-166091D01*
X59449Y-159007D01*
X59118Y-158786D01*
X58728Y-158709D01*
X57274D01*
Y-158146D01*
X53125D01*
Y-161146D01*
X53125Y-161646D01*
X53125Y-161811D01*
Y-164811D01*
X53480D01*
Y-166000D01*
X53558Y-166390D01*
X53779Y-166721D01*
X54831Y-167773D01*
X54786Y-168000D01*
X54916Y-168656D01*
X55288Y-169212D01*
X55844Y-169584D01*
X56500Y-169714D01*
X57156Y-169584D01*
X57712Y-169212D01*
X58084Y-168656D01*
X58214Y-168000D01*
X58084Y-167344D01*
X57712Y-166788D01*
X57156Y-166416D01*
X56500Y-166286D01*
X56273Y-166331D01*
X55520Y-165578D01*
Y-164811D01*
X57274D01*
X57274Y-161248D01*
X57521Y-160748D01*
X58306D01*
X64792Y-167234D01*
Y-171500D01*
X49920D01*
Y-164854D01*
X50975D01*
Y-161811D01*
X51475D01*
Y-160228D01*
X48900D01*
X46326D01*
Y-161811D01*
X46826D01*
Y-164854D01*
X47881D01*
Y-171500D01*
X32784D01*
Y-171271D01*
X32706Y-170881D01*
X32485Y-170550D01*
X24000Y-162065D01*
Y-161412D01*
X23538Y-161603D01*
X21724Y-159790D01*
Y-158146D01*
X17575D01*
Y-161146D01*
X17575Y-161311D01*
X17575D01*
Y-161646D01*
X17575D01*
Y-164811D01*
X20282D01*
X24000Y-168528D01*
Y-175405D01*
X23538Y-175596D01*
X14520Y-166578D01*
Y-164854D01*
X15425D01*
Y-161811D01*
X15925D01*
Y-160228D01*
X13350D01*
X10776D01*
Y-161811D01*
X11276D01*
Y-164854D01*
X12480D01*
Y-167000D01*
X12558Y-167390D01*
X12779Y-167721D01*
X24000Y-178942D01*
Y-186959D01*
X21724D01*
Y-186396D01*
X17575D01*
Y-189561D01*
X17575D01*
Y-189896D01*
X17575D01*
Y-193061D01*
X20282D01*
X24000Y-196779D01*
Y-203627D01*
X16569D01*
X14520Y-201578D01*
Y-193104D01*
X15425D01*
Y-190061D01*
X15925D01*
Y-188478D01*
X13350D01*
X10776D01*
Y-190061D01*
X11276D01*
Y-193104D01*
X12480D01*
Y-202000D01*
X12558Y-202390D01*
X12779Y-202721D01*
X15426Y-205368D01*
X15756Y-205589D01*
X16147Y-205666D01*
X24000D01*
Y-214876D01*
X21724D01*
Y-214646D01*
X17575D01*
Y-217811D01*
X17575D01*
Y-218146D01*
X17575D01*
Y-221311D01*
X21724D01*
Y-220634D01*
X24000D01*
Y-223480D01*
X18993D01*
X15425Y-219912D01*
Y-218311D01*
X15925D01*
Y-216728D01*
X13350D01*
X10776D01*
Y-218311D01*
X11276D01*
Y-221354D01*
X13983D01*
X17850Y-225221D01*
X18181Y-225442D01*
X18571Y-225520D01*
X24000D01*
Y-229480D01*
X20000D01*
X19610Y-229558D01*
X19279Y-229779D01*
X8279Y-240779D01*
X8058Y-241110D01*
X7980Y-241500D01*
Y-246500D01*
X8058Y-246890D01*
X8279Y-247221D01*
X9555Y-248497D01*
X9885Y-248718D01*
X10276Y-248795D01*
X11276D01*
Y-249604D01*
X15425D01*
Y-246561D01*
X15925D01*
Y-244978D01*
X13350D01*
X10776D01*
Y-245917D01*
X10281Y-246139D01*
X10020Y-245936D01*
Y-241922D01*
X20422Y-231520D01*
X21902D01*
X22053Y-232020D01*
X22008Y-232050D01*
X20779Y-233279D01*
X20558Y-233610D01*
X20480Y-234000D01*
Y-242078D01*
X20004Y-242555D01*
X19782Y-242885D01*
X19780Y-242896D01*
X17575D01*
Y-246061D01*
X17575Y-246061D01*
Y-246396D01*
X17575D01*
X17575Y-246561D01*
Y-249561D01*
X21724D01*
Y-248427D01*
X23093D01*
X23483Y-248349D01*
X23500Y-248338D01*
X24000Y-248605D01*
Y-252644D01*
X20004Y-256640D01*
X19782Y-256971D01*
X19705Y-257361D01*
Y-271146D01*
X17575D01*
Y-274311D01*
X17575Y-274311D01*
Y-274646D01*
X17575D01*
X17575Y-274811D01*
Y-277811D01*
X20636D01*
X20895Y-278311D01*
X20776Y-278480D01*
X17493D01*
X15425Y-276412D01*
Y-274811D01*
X15925D01*
Y-273228D01*
X13350D01*
X10776D01*
Y-274811D01*
X11276D01*
Y-277854D01*
X13983D01*
X16350Y-280221D01*
X16681Y-280442D01*
X17071Y-280520D01*
X21500D01*
X21890Y-280442D01*
X22221Y-280221D01*
X23538Y-278904D01*
X24000Y-279095D01*
Y-278442D01*
X37442Y-265000D01*
X44356D01*
Y-274269D01*
X44434Y-274659D01*
X44655Y-274990D01*
X45362Y-275697D01*
X45601Y-275857D01*
X45876Y-276131D01*
Y-277854D01*
X50025D01*
Y-274854D01*
X50025Y-274689D01*
X50025D01*
Y-274354D01*
X50025D01*
Y-272631D01*
X51791Y-270865D01*
X52175Y-271188D01*
Y-274189D01*
X51675D01*
Y-275772D01*
X54250D01*
X56824D01*
Y-274189D01*
X56324D01*
Y-272244D01*
X56344Y-272146D01*
Y-272076D01*
X63420Y-265000D01*
X76980D01*
Y-271593D01*
X77058Y-271983D01*
X77279Y-272314D01*
X80662Y-275697D01*
X80901Y-275857D01*
X81176Y-276131D01*
Y-277854D01*
X85325D01*
Y-274854D01*
X85325Y-274689D01*
X85325D01*
Y-274354D01*
X85325D01*
Y-272288D01*
X85345Y-272189D01*
Y-272097D01*
X88902Y-268540D01*
X89123Y-268209D01*
X89201Y-267819D01*
Y-265000D01*
X105265D01*
X115962Y-275697D01*
X116201Y-275857D01*
X116476Y-276131D01*
Y-277854D01*
X120625D01*
Y-274854D01*
X120625Y-274689D01*
X120625D01*
Y-274354D01*
X120625D01*
Y-271189D01*
X117131D01*
X114083Y-268141D01*
X114329Y-267680D01*
X114500Y-267714D01*
X115156Y-267584D01*
X115712Y-267212D01*
X115841Y-267020D01*
X121063D01*
X123980Y-269936D01*
Y-271146D01*
X122775D01*
Y-274189D01*
X122275D01*
Y-275772D01*
X124850D01*
X127424D01*
Y-274189D01*
X126924D01*
Y-271745D01*
X127416Y-271656D01*
X127788Y-272212D01*
X128344Y-272584D01*
X129000Y-272714D01*
X129227Y-272669D01*
X138596Y-282038D01*
X138405Y-282500D01*
X6500D01*
Y-154000D01*
X24000D01*
X166500Y-154000D01*
D02*
G37*
G36*
X392500Y-327000D02*
X375000D01*
X232500Y-327000D01*
Y-309500D01*
X232500D01*
Y-267930D01*
X233000Y-267781D01*
X233288Y-268212D01*
X233844Y-268584D01*
X234500Y-268714D01*
X235156Y-268584D01*
X235712Y-268212D01*
X236084Y-267656D01*
X236214Y-267000D01*
X236084Y-266344D01*
X235712Y-265788D01*
X235156Y-265416D01*
X234500Y-265286D01*
X233844Y-265416D01*
X233288Y-265788D01*
X233000Y-266219D01*
X232500Y-266070D01*
Y-256197D01*
X232539Y-256000D01*
X232500Y-255803D01*
Y-216000D01*
Y-198500D01*
X246646D01*
X246788Y-198712D01*
X247344Y-199084D01*
X248000Y-199214D01*
X248656Y-199084D01*
X249212Y-198712D01*
X249341Y-198520D01*
X253662D01*
X266065Y-210923D01*
X265920Y-211401D01*
X265844Y-211416D01*
X265288Y-211788D01*
X264916Y-212344D01*
X264786Y-213000D01*
X264916Y-213656D01*
X265288Y-214212D01*
X265844Y-214584D01*
X266500Y-214714D01*
X267156Y-214584D01*
X267694Y-214224D01*
X267824Y-214155D01*
X268176D01*
X268305Y-214224D01*
X268844Y-214584D01*
X269500Y-214714D01*
X270156Y-214584D01*
X270712Y-214212D01*
X271084Y-213656D01*
X271214Y-213000D01*
X271084Y-212344D01*
X270857Y-212005D01*
X270736Y-211751D01*
X270981Y-211366D01*
X271212Y-211212D01*
X271584Y-210656D01*
X271689Y-210127D01*
X271986Y-209918D01*
X272195Y-209854D01*
X272980D01*
Y-211486D01*
X273058Y-211876D01*
X273279Y-212207D01*
X276572Y-215500D01*
X276365Y-216000D01*
X266371D01*
X254378Y-204007D01*
X254048Y-203786D01*
X253658Y-203709D01*
X247224D01*
Y-203146D01*
X243075D01*
Y-206311D01*
X243075D01*
Y-206646D01*
X243075D01*
Y-209811D01*
X245782D01*
X251509Y-215538D01*
X251318Y-216000D01*
X248513D01*
X240925Y-208412D01*
Y-206811D01*
X241425D01*
Y-205228D01*
X238850D01*
X236276D01*
Y-206811D01*
X236776D01*
Y-209854D01*
X239483D01*
X245167Y-215538D01*
X244976Y-216000D01*
X245629D01*
X251500Y-221871D01*
Y-231959D01*
X247224D01*
Y-231396D01*
X243075D01*
Y-234561D01*
X243075D01*
Y-234896D01*
X243075D01*
Y-238061D01*
X247224D01*
Y-237498D01*
X251500D01*
Y-245627D01*
X249890D01*
X240925Y-236662D01*
Y-235061D01*
X241425D01*
Y-233478D01*
X238850D01*
X236276D01*
Y-235061D01*
X236776D01*
Y-238104D01*
X239483D01*
X248747Y-247368D01*
X249077Y-247589D01*
X249467Y-247666D01*
X251500D01*
Y-261480D01*
X247224D01*
Y-259646D01*
X243075D01*
Y-262646D01*
X243075Y-262811D01*
X243075D01*
Y-263146D01*
X243075D01*
Y-266161D01*
X242174D01*
X240925Y-264912D01*
Y-263311D01*
X241425D01*
Y-261728D01*
X238850D01*
X236276D01*
Y-263311D01*
X236776D01*
Y-266354D01*
X239483D01*
X241031Y-267902D01*
X241362Y-268123D01*
X241752Y-268201D01*
X251500D01*
Y-269719D01*
X251416Y-269844D01*
X251286Y-270500D01*
X251416Y-271156D01*
X251500Y-271281D01*
Y-282178D01*
X245782Y-287896D01*
X243075D01*
Y-291061D01*
X243075D01*
Y-291396D01*
X243075D01*
Y-294561D01*
X247224D01*
Y-293998D01*
X251500D01*
Y-295813D01*
X250833Y-296480D01*
X241922D01*
X240945Y-295503D01*
Y-293604D01*
X240925Y-293506D01*
Y-291561D01*
X241425D01*
Y-289978D01*
X238850D01*
X236276D01*
Y-291561D01*
X236776D01*
Y-294604D01*
X238906D01*
Y-295925D01*
X238983Y-296315D01*
X239204Y-296646D01*
X240779Y-298221D01*
X241110Y-298442D01*
X241500Y-298520D01*
X251255D01*
X251500Y-298721D01*
Y-303058D01*
X245503Y-309055D01*
X245282Y-309385D01*
X245260Y-309500D01*
X242879D01*
Y-307563D01*
X244273Y-306169D01*
X244500Y-306214D01*
X245156Y-306084D01*
X245712Y-305712D01*
X246084Y-305156D01*
X246214Y-304500D01*
X246084Y-303844D01*
X245712Y-303288D01*
X245156Y-302916D01*
X244500Y-302786D01*
X243844Y-302916D01*
X243288Y-303288D01*
X242916Y-303844D01*
X242786Y-304500D01*
X242831Y-304727D01*
X241138Y-306420D01*
X240917Y-306751D01*
X240840Y-307141D01*
Y-309500D01*
Y-315646D01*
X239350D01*
Y-317728D01*
X238850D01*
Y-318228D01*
X236276D01*
Y-319811D01*
X236776D01*
Y-322854D01*
X240925D01*
Y-321131D01*
X241330Y-320726D01*
X241439Y-320653D01*
X242580Y-319512D01*
X242891Y-319605D01*
X243075Y-319758D01*
Y-322811D01*
X247224D01*
Y-321780D01*
X249890D01*
X250344Y-322084D01*
X251000Y-322214D01*
X251656Y-322084D01*
X252212Y-321712D01*
X252584Y-321156D01*
X252714Y-320500D01*
X252584Y-319844D01*
X252212Y-319288D01*
X251656Y-318916D01*
X251000Y-318786D01*
X250344Y-318916D01*
X249788Y-319288D01*
X249485Y-319741D01*
X247393D01*
X247224Y-319311D01*
X247224Y-319146D01*
Y-317244D01*
X247244Y-317146D01*
Y-310198D01*
X247942Y-309500D01*
X279369D01*
X279560Y-309962D01*
X273333Y-316189D01*
X270626D01*
X270626Y-319752D01*
X270379Y-320252D01*
X267563D01*
X267190Y-319880D01*
X267084Y-319344D01*
X266712Y-318788D01*
X266156Y-318416D01*
X265500Y-318286D01*
X264844Y-318416D01*
X264288Y-318788D01*
X263916Y-319344D01*
X263786Y-320000D01*
X263916Y-320656D01*
X264288Y-321212D01*
X264844Y-321584D01*
X265500Y-321714D01*
X266034Y-321608D01*
X266419Y-321993D01*
X266750Y-322214D01*
X267140Y-322291D01*
X270626D01*
Y-322854D01*
X274775D01*
Y-319854D01*
X274775Y-319354D01*
X274775Y-319189D01*
Y-317631D01*
X276541Y-315865D01*
X276925Y-316188D01*
X276925Y-316628D01*
Y-319189D01*
X276425D01*
Y-320772D01*
X279000D01*
X281574D01*
Y-319189D01*
X281074D01*
Y-318280D01*
X283390D01*
X283844Y-318584D01*
X284500Y-318714D01*
X285156Y-318584D01*
X285712Y-318212D01*
X286084Y-317656D01*
X286214Y-317000D01*
X286084Y-316344D01*
X285712Y-315788D01*
X285156Y-315416D01*
X284500Y-315286D01*
X283844Y-315416D01*
X283288Y-315788D01*
X282985Y-316241D01*
X281074D01*
Y-316146D01*
X277423D01*
X276968Y-316146D01*
X276644Y-315762D01*
X282906Y-309500D01*
X295219D01*
X295344Y-309584D01*
X296000Y-309714D01*
X296656Y-309584D01*
X296781Y-309500D01*
X304656Y-309500D01*
Y-319268D01*
X304734Y-319659D01*
X304955Y-319989D01*
X305662Y-320697D01*
X305902Y-320857D01*
X306176Y-321131D01*
Y-322854D01*
X310325D01*
Y-319854D01*
X310325Y-319689D01*
X310325D01*
Y-319354D01*
X310325D01*
Y-316189D01*
X310020D01*
Y-309500D01*
X313530D01*
Y-316146D01*
X312475D01*
Y-319189D01*
X311975D01*
Y-320772D01*
X314550D01*
X317124D01*
Y-319189D01*
X316624D01*
Y-316146D01*
X315569D01*
Y-309500D01*
X332169D01*
Y-314188D01*
X332246Y-314578D01*
X332467Y-314909D01*
X339551Y-321993D01*
X339881Y-322214D01*
X340272Y-322291D01*
X341726D01*
Y-322854D01*
X345875D01*
Y-319854D01*
X345875Y-319354D01*
X345875Y-319189D01*
Y-316189D01*
X345520D01*
Y-315000D01*
X345442Y-314610D01*
X345221Y-314279D01*
X344169Y-313227D01*
X344214Y-313000D01*
X344084Y-312344D01*
X343712Y-311788D01*
X343156Y-311416D01*
X342500Y-311286D01*
X341844Y-311416D01*
X341288Y-311788D01*
X340916Y-312344D01*
X340786Y-313000D01*
X340916Y-313656D01*
X341288Y-314212D01*
X341844Y-314584D01*
X342500Y-314714D01*
X342727Y-314669D01*
X343480Y-315422D01*
Y-316189D01*
X341726D01*
X341726Y-319752D01*
X341479Y-320252D01*
X340694D01*
X334208Y-313766D01*
Y-309500D01*
X349080D01*
Y-316146D01*
X348025D01*
Y-319189D01*
X347525D01*
Y-320772D01*
X350100D01*
X352674D01*
Y-319189D01*
X352174D01*
Y-316146D01*
X351119D01*
Y-309500D01*
X366216D01*
Y-309729D01*
X366294Y-310119D01*
X366515Y-310450D01*
X375000Y-318935D01*
Y-319588D01*
X375462Y-319397D01*
X377276Y-321211D01*
Y-322854D01*
X381425D01*
Y-319854D01*
X381425Y-319689D01*
X381425D01*
Y-319354D01*
X381425D01*
Y-316189D01*
X378717D01*
X375000Y-312472D01*
Y-305595D01*
X375462Y-305404D01*
X384480Y-314422D01*
Y-316146D01*
X383575D01*
Y-319189D01*
X383075D01*
Y-320772D01*
X385650D01*
X388224D01*
Y-319189D01*
X387724D01*
Y-316146D01*
X386520D01*
Y-314000D01*
X386442Y-313610D01*
X386221Y-313279D01*
X375000Y-302058D01*
Y-294041D01*
X377276D01*
Y-294604D01*
X381425D01*
Y-291439D01*
X381425D01*
Y-291104D01*
X381425D01*
Y-287939D01*
X378717D01*
X375000Y-284222D01*
Y-277373D01*
X382431D01*
X384480Y-279422D01*
Y-287896D01*
X383575D01*
Y-290939D01*
X383075D01*
Y-292522D01*
X385650D01*
X388224D01*
Y-290939D01*
X387724D01*
Y-287896D01*
X386520D01*
Y-279000D01*
X386442Y-278610D01*
X386221Y-278279D01*
X383574Y-275632D01*
X383243Y-275411D01*
X382853Y-275334D01*
X375000D01*
Y-266124D01*
X377276D01*
Y-266354D01*
X381425D01*
Y-263189D01*
X381425D01*
Y-262854D01*
X381425D01*
Y-259689D01*
X377276D01*
Y-260366D01*
X375000D01*
Y-257520D01*
X380007D01*
X383575Y-261088D01*
Y-262689D01*
X383075D01*
Y-264272D01*
X385650D01*
X388224D01*
Y-262689D01*
X387724D01*
Y-259646D01*
X385017D01*
X381150Y-255779D01*
X380819Y-255558D01*
X380429Y-255480D01*
X375000D01*
Y-251520D01*
X379000D01*
X379390Y-251442D01*
X379721Y-251221D01*
X390721Y-240221D01*
X390942Y-239890D01*
X391020Y-239500D01*
Y-234500D01*
X390942Y-234110D01*
X390721Y-233779D01*
X389445Y-232504D01*
X389115Y-232282D01*
X388724Y-232205D01*
X387724D01*
Y-231396D01*
X383575D01*
Y-234439D01*
X383075D01*
Y-236022D01*
X385650D01*
X388224D01*
Y-235083D01*
X388719Y-234861D01*
X388980Y-235064D01*
Y-239078D01*
X378578Y-249480D01*
X377098D01*
X376947Y-248980D01*
X376992Y-248950D01*
X378221Y-247721D01*
X378442Y-247390D01*
X378520Y-247000D01*
Y-238922D01*
X378996Y-238445D01*
X379218Y-238115D01*
X379220Y-238104D01*
X381425D01*
Y-234939D01*
X381425Y-234939D01*
Y-234604D01*
X381425D01*
X381425Y-234439D01*
Y-231439D01*
X377276D01*
Y-232573D01*
X375907D01*
X375517Y-232651D01*
X375500Y-232662D01*
X375000Y-232395D01*
Y-228356D01*
X378996Y-224360D01*
X379218Y-224029D01*
X379295Y-223639D01*
Y-209854D01*
X381425D01*
Y-206689D01*
X381425Y-206689D01*
Y-206354D01*
X381425D01*
X381425Y-206189D01*
Y-203189D01*
X378364D01*
X378105Y-202689D01*
X378224Y-202520D01*
X381507D01*
X383575Y-204588D01*
Y-206189D01*
X383075D01*
Y-207772D01*
X385650D01*
X388224D01*
Y-206189D01*
X387724D01*
Y-203146D01*
X385017D01*
X382650Y-200779D01*
X382319Y-200558D01*
X381929Y-200480D01*
X377500D01*
X377110Y-200558D01*
X376779Y-200779D01*
X375462Y-202096D01*
X375000Y-201905D01*
Y-202558D01*
X361558Y-216000D01*
X354644D01*
Y-206732D01*
X354566Y-206341D01*
X354345Y-206011D01*
X353638Y-205303D01*
X353398Y-205143D01*
X353124Y-204869D01*
Y-203146D01*
X348975D01*
Y-206146D01*
X348975Y-206311D01*
X348975D01*
Y-206646D01*
X348975D01*
Y-208369D01*
X347209Y-210135D01*
X346825Y-209812D01*
Y-206811D01*
X347325D01*
Y-205228D01*
X344750D01*
X342176D01*
Y-206811D01*
X342676D01*
Y-208756D01*
X342656Y-208854D01*
Y-208924D01*
X335580Y-216000D01*
X322020D01*
Y-209407D01*
X321942Y-209017D01*
X321721Y-208686D01*
X318338Y-205303D01*
X318098Y-205143D01*
X317824Y-204869D01*
Y-203146D01*
X313675D01*
Y-206146D01*
X313675Y-206311D01*
X313675D01*
Y-206646D01*
X313675D01*
Y-208713D01*
X313655Y-208811D01*
Y-208903D01*
X310455Y-212103D01*
X310234Y-212434D01*
X310156Y-212824D01*
Y-216000D01*
X299942D01*
X289367Y-205425D01*
X289036Y-205204D01*
X288646Y-205126D01*
X282781D01*
X282524Y-204869D01*
Y-203146D01*
X278375D01*
Y-206146D01*
X278375Y-206311D01*
X278375D01*
Y-206646D01*
X278375D01*
Y-209811D01*
X281869D01*
X284917Y-212859D01*
X284671Y-213320D01*
X284500Y-213286D01*
X283844Y-213416D01*
X283288Y-213788D01*
X283159Y-213980D01*
X277937D01*
X275020Y-211064D01*
Y-209854D01*
X276225D01*
Y-206811D01*
X276725D01*
Y-205228D01*
X274150D01*
X271576D01*
Y-206811D01*
X272076D01*
Y-209255D01*
X271584Y-209344D01*
X271212Y-208788D01*
X270656Y-208416D01*
X270000Y-208286D01*
X269773Y-208331D01*
X260404Y-198962D01*
X260595Y-198500D01*
X392500D01*
Y-327000D01*
D02*
G37*
G36*
X352605Y-215953D02*
X352558Y-216000D01*
X344881D01*
X344690Y-215538D01*
X350417Y-209811D01*
X352605D01*
Y-215953D01*
D02*
G37*
G36*
X319980Y-209829D02*
Y-216000D01*
X312195D01*
Y-213247D01*
X315396Y-210046D01*
X315553Y-209811D01*
X317824D01*
Y-208327D01*
X318286Y-208135D01*
X319980Y-209829D01*
D02*
G37*
G36*
X296596Y-215538D02*
X296405Y-216000D01*
X288839D01*
Y-214319D01*
X288761Y-213929D01*
X288540Y-213598D01*
X282607Y-207665D01*
X282724Y-207165D01*
X288223D01*
X296596Y-215538D01*
D02*
G37*
G36*
X263025D02*
X262834Y-216000D01*
X254855D01*
X247224Y-208369D01*
Y-206646D01*
X247224D01*
Y-206311D01*
X247224D01*
Y-205748D01*
X253235D01*
X263025Y-215538D01*
D02*
G37*
G36*
X377276Y-208370D02*
Y-208756D01*
X377256Y-208854D01*
Y-223216D01*
X375462Y-225010D01*
X375000Y-224819D01*
Y-209992D01*
X376814Y-208179D01*
X377276Y-208370D01*
D02*
G37*
G36*
X54310Y-265462D02*
X48583Y-271189D01*
X46395D01*
Y-265047D01*
X46442Y-265000D01*
X54119D01*
X54310Y-265462D01*
D02*
G37*
G36*
X24000Y-256181D02*
Y-271008D01*
X22186Y-272821D01*
X21724Y-272630D01*
Y-272244D01*
X21744Y-272146D01*
Y-257784D01*
X23538Y-255990D01*
X24000Y-256181D01*
D02*
G37*
G36*
X87161Y-267397D02*
X83604Y-270954D01*
X83447Y-271189D01*
X81176D01*
Y-272673D01*
X80714Y-272865D01*
X79020Y-271171D01*
Y-265000D01*
X87161D01*
Y-267397D01*
D02*
G37*
G36*
X151776Y-272631D02*
Y-274354D01*
X151776D01*
Y-274689D01*
X151776D01*
Y-275252D01*
X145765D01*
X135975Y-265462D01*
X136166Y-265000D01*
X144145D01*
X151776Y-272631D01*
D02*
G37*
%LPC*%
G36*
X355705Y-9417D02*
X353630D01*
Y-11000D01*
X355705D01*
Y-9417D01*
D02*
G37*
G36*
X272995D02*
X270920D01*
Y-11000D01*
X272995D01*
Y-9417D01*
D02*
G37*
G36*
X352630D02*
X350555D01*
Y-11000D01*
X352630D01*
Y-9417D01*
D02*
G37*
G36*
X269920D02*
X267846D01*
Y-11000D01*
X269920D01*
Y-9417D01*
D02*
G37*
G36*
X300565D02*
X298490D01*
Y-11000D01*
X300565D01*
Y-9417D01*
D02*
G37*
G36*
X245425D02*
X243350D01*
Y-11000D01*
X245425D01*
Y-9417D01*
D02*
G37*
G36*
X325060D02*
X322985D01*
Y-11000D01*
X325060D01*
Y-9417D01*
D02*
G37*
G36*
X297490D02*
X295415D01*
Y-11000D01*
X297490D01*
Y-9417D01*
D02*
G37*
G36*
X242350D02*
X240276D01*
Y-11000D01*
X242350D01*
Y-9417D01*
D02*
G37*
G36*
X251724Y-56605D02*
X249650D01*
Y-58188D01*
X251724D01*
Y-56605D01*
D02*
G37*
G36*
X248650D02*
X246575D01*
Y-58188D01*
X248650D01*
Y-56605D01*
D02*
G37*
G36*
X387874Y-15543D02*
X385799D01*
Y-17126D01*
X387874D01*
Y-15543D01*
D02*
G37*
G36*
X150724Y-7772D02*
X148650D01*
Y-9354D01*
X150724D01*
Y-7772D01*
D02*
G37*
G36*
X124855Y-7772D02*
X122780D01*
Y-9354D01*
X124855D01*
Y-7772D01*
D02*
G37*
G36*
X97285Y-7772D02*
X95210D01*
Y-9354D01*
X97285D01*
Y-7772D01*
D02*
G37*
G36*
X150724Y-46105D02*
X148650D01*
Y-47688D01*
X150724D01*
Y-46105D01*
D02*
G37*
G36*
X242350Y-88812D02*
X240276D01*
Y-90395D01*
X242350D01*
Y-88812D01*
D02*
G37*
G36*
X268220Y-127146D02*
X266145D01*
Y-128728D01*
X268220D01*
Y-127146D01*
D02*
G37*
G36*
X295790D02*
X293715D01*
Y-128728D01*
X295790D01*
Y-127146D01*
D02*
G37*
G36*
X242350D02*
X240276D01*
Y-128728D01*
X242350D01*
Y-127146D01*
D02*
G37*
G36*
X144425Y-78312D02*
X142350D01*
Y-79895D01*
X144425D01*
Y-78312D01*
D02*
G37*
G36*
X141350D02*
X139276D01*
Y-79895D01*
X141350D01*
Y-78312D01*
D02*
G37*
G36*
X150724Y-125500D02*
X148650D01*
Y-127083D01*
X150724D01*
Y-125500D01*
D02*
G37*
G36*
X147650D02*
X145575D01*
Y-127083D01*
X147650D01*
Y-125500D01*
D02*
G37*
G36*
X123154Y-125500D02*
X121080D01*
Y-127083D01*
X123154D01*
Y-125500D01*
D02*
G37*
G36*
X120080D02*
X118005D01*
Y-127083D01*
X120080D01*
Y-125500D01*
D02*
G37*
G36*
X95585Y-125500D02*
X93510D01*
Y-127083D01*
X95585D01*
Y-125500D01*
D02*
G37*
G36*
X92510D02*
X90435D01*
Y-127083D01*
X92510D01*
Y-125500D01*
D02*
G37*
G36*
X68015D02*
X65940D01*
Y-127083D01*
X68015D01*
Y-125500D01*
D02*
G37*
G36*
X40445Y-125500D02*
X38370D01*
Y-127083D01*
X40445D01*
Y-125500D01*
D02*
G37*
G36*
X37370D02*
X35295D01*
Y-127083D01*
X37370D01*
Y-125500D01*
D02*
G37*
G36*
X5201Y-119374D02*
X3126D01*
Y-120957D01*
X5201D01*
Y-119374D01*
D02*
G37*
G36*
X122575Y-157646D02*
X120500D01*
Y-159228D01*
X122575D01*
Y-157646D01*
D02*
G37*
G36*
X87025D02*
X84950D01*
Y-159228D01*
X87025D01*
Y-157646D01*
D02*
G37*
G36*
X51475D02*
X49400D01*
Y-159228D01*
X51475D01*
Y-157646D01*
D02*
G37*
G36*
X15925D02*
X13850D01*
Y-159228D01*
X15925D01*
Y-157646D01*
D02*
G37*
G36*
X119500D02*
X117426D01*
Y-159228D01*
X119500D01*
Y-157646D01*
D02*
G37*
G36*
X83950D02*
X81876D01*
Y-159228D01*
X83950D01*
Y-157646D01*
D02*
G37*
G36*
X48400D02*
X46326D01*
Y-159228D01*
X48400D01*
Y-157646D01*
D02*
G37*
G36*
X12850D02*
X10776D01*
Y-159228D01*
X12850D01*
Y-157646D01*
D02*
G37*
G36*
X162724Y-163772D02*
X160650D01*
Y-165354D01*
X162724D01*
Y-163772D01*
D02*
G37*
G36*
X15925Y-185896D02*
X13850D01*
Y-187478D01*
X15925D01*
Y-185896D01*
D02*
G37*
G36*
X12850D02*
X10776D01*
Y-187478D01*
X12850D01*
Y-185896D01*
D02*
G37*
G36*
X162724Y-192022D02*
X160650D01*
Y-193604D01*
X162724D01*
Y-192022D01*
D02*
G37*
G36*
X159650D02*
X157575D01*
Y-193604D01*
X159650D01*
Y-192022D01*
D02*
G37*
G36*
X15925Y-214146D02*
X13850D01*
Y-215728D01*
X15925D01*
Y-214146D01*
D02*
G37*
G36*
X12850D02*
X10776D01*
Y-215728D01*
X12850D01*
Y-214146D01*
D02*
G37*
G36*
X162724Y-220272D02*
X160650D01*
Y-221854D01*
X162724D01*
Y-220272D01*
D02*
G37*
G36*
X159650D02*
X157575D01*
Y-221854D01*
X159650D01*
Y-220272D01*
D02*
G37*
G36*
X15925Y-242396D02*
X13850D01*
Y-243978D01*
X15925D01*
Y-242396D01*
D02*
G37*
G36*
X12850D02*
X10776D01*
Y-243978D01*
X12850D01*
Y-242396D01*
D02*
G37*
G36*
X162724Y-248522D02*
X160650D01*
Y-250104D01*
X162724D01*
Y-248522D01*
D02*
G37*
G36*
X159650D02*
X157575D01*
Y-250104D01*
X159650D01*
Y-248522D01*
D02*
G37*
G36*
X15925Y-270646D02*
X13850D01*
Y-272228D01*
X15925D01*
Y-270646D01*
D02*
G37*
G36*
X12850D02*
X10776D01*
Y-272228D01*
X12850D01*
Y-270646D01*
D02*
G37*
G36*
X91624Y-271146D02*
X87475D01*
Y-274189D01*
X86975D01*
Y-275772D01*
X89550D01*
X92124D01*
Y-274189D01*
X92498Y-273884D01*
X94069D01*
X94288Y-274212D01*
X94844Y-274584D01*
X95500Y-274714D01*
X96156Y-274584D01*
X96712Y-274212D01*
X97084Y-273656D01*
X97214Y-273000D01*
X97084Y-272344D01*
X96712Y-271788D01*
X96156Y-271416D01*
X95500Y-271286D01*
X94844Y-271416D01*
X94288Y-271788D01*
X94250Y-271845D01*
X91624D01*
Y-271146D01*
D02*
G37*
G36*
X162724Y-276772D02*
X160650D01*
Y-278354D01*
X162724D01*
Y-276772D01*
D02*
G37*
G36*
X159650D02*
X157575D01*
Y-278354D01*
X159650D01*
Y-276772D01*
D02*
G37*
G36*
X127424D02*
X125350D01*
Y-278354D01*
X127424D01*
Y-276772D01*
D02*
G37*
G36*
X124350D02*
X122275D01*
Y-278354D01*
X124350D01*
Y-276772D01*
D02*
G37*
G36*
X92124D02*
X90050D01*
Y-278354D01*
X92124D01*
Y-276772D01*
D02*
G37*
G36*
X89050D02*
X86975D01*
Y-278354D01*
X89050D01*
Y-276772D01*
D02*
G37*
G36*
X56824D02*
X54750D01*
Y-278354D01*
X56824D01*
Y-276772D01*
D02*
G37*
G36*
X53750D02*
X51675D01*
Y-278354D01*
X53750D01*
Y-276772D01*
D02*
G37*
G36*
X347325Y-202646D02*
X345250D01*
Y-204228D01*
X347325D01*
Y-202646D01*
D02*
G37*
G36*
X312025D02*
X309950D01*
Y-204228D01*
X312025D01*
Y-202646D01*
D02*
G37*
G36*
X276725D02*
X274650D01*
Y-204228D01*
X276725D01*
Y-202646D01*
D02*
G37*
G36*
X241425D02*
X239350D01*
Y-204228D01*
X241425D01*
Y-202646D01*
D02*
G37*
G36*
X344250D02*
X342176D01*
Y-204228D01*
X344250D01*
Y-202646D01*
D02*
G37*
G36*
X273650D02*
X271576D01*
Y-204228D01*
X273650D01*
Y-202646D01*
D02*
G37*
G36*
X238350D02*
X236276D01*
Y-204228D01*
X238350D01*
Y-202646D01*
D02*
G37*
G36*
X308950D02*
X306876D01*
Y-204228D01*
X308950D01*
Y-202646D01*
D02*
G37*
G36*
X312025Y-205228D02*
X309450D01*
X306876D01*
Y-206811D01*
X306502Y-207116D01*
X304931D01*
X304712Y-206788D01*
X304156Y-206416D01*
X303500Y-206286D01*
X302844Y-206416D01*
X302288Y-206788D01*
X301916Y-207344D01*
X301786Y-208000D01*
X301916Y-208656D01*
X302288Y-209212D01*
X302844Y-209584D01*
X303500Y-209714D01*
X304156Y-209584D01*
X304712Y-209212D01*
X304750Y-209155D01*
X307376D01*
Y-209854D01*
X311525D01*
Y-206811D01*
X312025D01*
Y-205228D01*
D02*
G37*
G36*
X388224Y-208772D02*
X386150D01*
Y-210354D01*
X388224D01*
Y-208772D01*
D02*
G37*
G36*
X385150D02*
X383075D01*
Y-210354D01*
X385150D01*
Y-208772D01*
D02*
G37*
G36*
X241425Y-230896D02*
X239350D01*
Y-232478D01*
X241425D01*
Y-230896D01*
D02*
G37*
G36*
X238350D02*
X236276D01*
Y-232478D01*
X238350D01*
Y-230896D01*
D02*
G37*
G36*
X388224Y-237022D02*
X386150D01*
Y-238604D01*
X388224D01*
Y-237022D01*
D02*
G37*
G36*
X385150D02*
X383075D01*
Y-238604D01*
X385150D01*
Y-237022D01*
D02*
G37*
G36*
X241425Y-259146D02*
X239350D01*
Y-260728D01*
X241425D01*
Y-259146D01*
D02*
G37*
G36*
X238350D02*
X236276D01*
Y-260728D01*
X238350D01*
Y-259146D01*
D02*
G37*
G36*
X388224Y-265272D02*
X386150D01*
Y-266854D01*
X388224D01*
Y-265272D01*
D02*
G37*
G36*
X385150D02*
X383075D01*
Y-266854D01*
X385150D01*
Y-265272D01*
D02*
G37*
G36*
X242500Y-276286D02*
X241844Y-276416D01*
X241288Y-276788D01*
X240916Y-277344D01*
X240786Y-278000D01*
X240916Y-278656D01*
X241288Y-279212D01*
X241844Y-279584D01*
X242500Y-279714D01*
X243156Y-279584D01*
X243712Y-279212D01*
X244084Y-278656D01*
X244214Y-278000D01*
X244084Y-277344D01*
X243712Y-276788D01*
X243156Y-276416D01*
X242500Y-276286D01*
D02*
G37*
G36*
X241425Y-287396D02*
X239350D01*
Y-288978D01*
X241425D01*
Y-287396D01*
D02*
G37*
G36*
X238350D02*
X236276D01*
Y-288978D01*
X238350D01*
Y-287396D01*
D02*
G37*
G36*
X388224Y-293522D02*
X386150D01*
Y-295104D01*
X388224D01*
Y-293522D01*
D02*
G37*
G36*
X385150D02*
X383075D01*
Y-295104D01*
X385150D01*
Y-293522D01*
D02*
G37*
G36*
X238350Y-315646D02*
X236276D01*
Y-317228D01*
X238350D01*
Y-315646D01*
D02*
G37*
G36*
X388224Y-321772D02*
X386150D01*
Y-323354D01*
X388224D01*
Y-321772D01*
D02*
G37*
G36*
X385150D02*
X383075D01*
Y-323354D01*
X385150D01*
Y-321772D01*
D02*
G37*
G36*
X352674D02*
X350600D01*
Y-323354D01*
X352674D01*
Y-321772D01*
D02*
G37*
G36*
X349600D02*
X347525D01*
Y-323354D01*
X349600D01*
Y-321772D01*
D02*
G37*
G36*
X317124D02*
X315050D01*
Y-323354D01*
X317124D01*
Y-321772D01*
D02*
G37*
G36*
X314050D02*
X311975D01*
Y-323354D01*
X314050D01*
Y-321772D01*
D02*
G37*
G36*
X281574D02*
X279500D01*
Y-323354D01*
X281574D01*
Y-321772D01*
D02*
G37*
G36*
X278500D02*
X276425D01*
Y-323354D01*
X278500D01*
Y-321772D01*
D02*
G37*
%LPD*%
D13*
X196000Y-282000D02*
X197000D01*
X208000Y-271000D02*
Y-220000D01*
X197000Y-282000D02*
X208000Y-271000D01*
X84325Y-271675D02*
X88181Y-267819D01*
X86000Y-260000D02*
Y-259631D01*
X84566Y-258197D02*
X86000Y-259631D01*
X84566Y-258197D02*
Y-254241D01*
X83393Y-253068D02*
X84566Y-254241D01*
X83357Y-253068D02*
X83393D01*
X82017Y-251728D02*
X83357Y-253068D01*
X81525Y-251728D02*
X82017D01*
X88181Y-267819D02*
Y-255585D01*
X87824Y-255228D02*
X88181Y-255585D01*
X125000Y-228500D02*
X130150Y-233650D01*
X114000Y-228500D02*
X125000D01*
X105500Y-220000D02*
X114000Y-228500D01*
X99067Y-220000D02*
X105500D01*
X105000Y-222000D02*
X115000Y-232000D01*
X98500Y-222000D02*
X105000D01*
X104500Y-224000D02*
X118397Y-237897D01*
X99000Y-224000D02*
X104500D01*
X103929Y-226000D02*
X129657Y-251728D01*
X99000Y-226000D02*
X103929D01*
X103666Y-227858D02*
X119904Y-244096D01*
X99051Y-227858D02*
X103666D01*
X103327Y-229827D02*
X111507Y-238007D01*
X99051Y-229827D02*
X103327D01*
X99051Y-218016D02*
X110292D01*
X130150Y-251728D02*
X138657D01*
X124000Y-221000D02*
X124321D01*
X110292Y-218016D02*
X113298Y-221022D01*
X99016Y-218016D02*
X99051D01*
X130150Y-234353D02*
Y-233650D01*
X98500Y-220000D02*
X98516Y-219984D01*
X111507Y-243500D02*
Y-238007D01*
X99000Y-218000D02*
X99016Y-218016D01*
X123500Y-255000D02*
X124071D01*
X98516Y-219984D02*
X99051D01*
X130150Y-234353D02*
X149532D01*
X129657Y-251728D02*
X130150D01*
X248000Y-197500D02*
X254084D01*
X208000Y-220000D02*
X233000Y-195000D01*
X255000D01*
X257739Y-273739D02*
X258000Y-274000D01*
X256239Y-273739D02*
X257739D01*
X253000Y-270500D02*
X256239Y-273739D01*
X245642Y-289478D02*
X263120Y-272000D01*
X277500D01*
X186000Y-271000D02*
X188500Y-268500D01*
X186000Y-275500D02*
Y-271000D01*
X313500Y-221000D02*
X314553Y-222054D01*
Y-226879D02*
Y-222054D01*
Y-226879D02*
X315607Y-227932D01*
X315643D01*
X316983Y-229272D01*
X317475D01*
X288646Y-206146D02*
X306000Y-223500D01*
X282238Y-206146D02*
X288646D01*
X306000Y-237085D02*
Y-223500D01*
X301000Y-222500D02*
X301500D01*
X297000Y-218500D02*
X301000Y-222500D01*
X290586Y-218500D02*
X297000D01*
X290000Y-219086D02*
X290586Y-218500D01*
X290000Y-222500D02*
Y-219086D01*
Y-222500D02*
X292010Y-224511D01*
Y-226348D02*
Y-224511D01*
Y-226348D02*
X293595Y-227932D01*
X293631D01*
X294970Y-229272D01*
X295462D01*
X287819Y-223403D02*
Y-214319D01*
X281728Y-208228D02*
X287819Y-214319D01*
X287253Y-227189D02*
X288671Y-225772D01*
X288943Y-225500D01*
X287819Y-223403D02*
X288088Y-223673D01*
Y-225189D02*
Y-223673D01*
Y-225189D02*
X288399Y-225500D01*
X282238Y-206146D02*
Y-206024D01*
X259000Y-251869D02*
Y-251500D01*
X258000Y-252869D02*
X259000Y-251869D01*
X258000Y-259500D02*
Y-252869D01*
X258500Y-262500D02*
X265500Y-255500D01*
X246421Y-262500D02*
X258500D01*
X265500Y-255500D02*
X270179D01*
X245150Y-261228D02*
X246421Y-262500D01*
X213500Y-271500D02*
Y-219500D01*
X208500Y-276500D02*
X213500Y-271500D01*
X196500Y-292500D02*
X218000Y-271000D01*
Y-214500D01*
X211000Y-288000D02*
Y-282000D01*
X196500Y-302500D02*
X211000Y-288000D01*
X221000Y-265500D02*
X221181Y-265681D01*
Y-268181D02*
Y-265681D01*
Y-268181D02*
X226500Y-273500D01*
X288500Y-275500D02*
X288869D01*
X289573Y-274795D01*
X299949D01*
X287500Y-273000D02*
X300000D01*
X285500Y-275000D02*
X287500Y-273000D01*
X279000Y-277500D02*
X285642Y-270858D01*
X299949D01*
X276681Y-279819D02*
X279000Y-277500D01*
Y-282000D02*
Y-277500D01*
X275684Y-279819D02*
X276681D01*
X277500Y-272000D02*
X280500Y-269000D01*
X275150Y-274350D02*
X277500Y-272000D01*
X280500Y-269000D02*
X300000D01*
X275150Y-276853D02*
Y-274350D01*
X354709Y-276397D02*
X355201D01*
X330500Y-265000D02*
X330547Y-264953D01*
X331051D01*
X354046Y-279314D02*
X354618D01*
X341654Y-266921D02*
X354046Y-279314D01*
X330500Y-267000D02*
X330579Y-266921D01*
X331051D01*
X354862Y-259138D02*
X355000Y-259000D01*
X331051Y-259047D02*
X331142Y-259138D01*
X347792Y-261016D02*
X349798Y-263022D01*
X331516Y-262984D02*
X347639D01*
X331516Y-261016D02*
X347792D01*
X361008Y-259478D02*
X361500D01*
X331051Y-255110D02*
X335890D01*
X344853Y-246147D01*
X354353D02*
X354500Y-246000D01*
X344853Y-246147D02*
X354353D01*
X335000Y-253000D02*
X345353Y-242647D01*
X330500Y-253000D02*
X335000D01*
X331051Y-251173D02*
X331142Y-251083D01*
X334323D01*
X336500Y-257000D02*
X343000Y-250500D01*
X331051Y-249205D02*
X332232D01*
X352126Y-229311D01*
X354811D01*
X328500Y-244500D02*
X330000Y-243000D01*
X326327Y-246449D02*
X326417Y-246358D01*
X352228Y-225772D02*
X355201D01*
X335000Y-243000D02*
X352228Y-225772D01*
X330000Y-243000D02*
X335000D01*
X328500Y-247000D02*
Y-244500D01*
X326417Y-246358D02*
Y-243583D01*
X331400Y-227068D02*
X332696Y-225772D01*
X331321Y-227068D02*
X331400D01*
X324358Y-246449D02*
Y-237610D01*
X322500Y-247000D02*
Y-235888D01*
X331321Y-227068D01*
X311176Y-229272D02*
X311668D01*
X312250Y-229854D01*
Y-230346D02*
Y-229854D01*
Y-230346D02*
X318453Y-236549D01*
Y-246953D02*
X318500Y-247000D01*
X318453Y-246449D02*
Y-236549D01*
Y-246953D02*
Y-246449D01*
X310683Y-225772D02*
X311176D01*
X309387Y-227068D02*
X310683Y-225772D01*
X309308Y-227068D02*
X309387D01*
X308500Y-227876D02*
X309308Y-227068D01*
X317475Y-225728D02*
X318057Y-226311D01*
X318586D01*
X319775Y-227500D01*
X323000D01*
X314500Y-247000D02*
X314516Y-246984D01*
X313000Y-241369D02*
X314516Y-242884D01*
Y-246449D02*
Y-242884D01*
Y-246984D02*
Y-246449D01*
X312457Y-246358D02*
X312547Y-246449D01*
X310488Y-246358D02*
X310579Y-246449D01*
X295462Y-225728D02*
X295954D01*
X297415Y-227189D01*
X298189D01*
X313000Y-241369D02*
Y-241000D01*
X298189Y-227189D02*
X302500Y-231500D01*
X312457Y-246358D02*
Y-243457D01*
X312181Y-243181D02*
X312457Y-243457D01*
X312097Y-243181D02*
X312181D01*
X276938Y-227024D02*
X277017D01*
X268850Y-229272D02*
X269342D01*
X295071Y-255000D01*
X300000D01*
X280603Y-243103D02*
X294500Y-257000D01*
X275150Y-243103D02*
X280603D01*
X294500Y-257000D02*
X300000D01*
X275150Y-246603D02*
X281603D01*
X294000Y-259000D02*
X300500D01*
X300484Y-261016D02*
X300500Y-261000D01*
X299949Y-261016D02*
X300484D01*
X299933Y-261000D02*
X299949Y-261016D01*
X268850Y-247350D02*
Y-246647D01*
X293500Y-261000D02*
X299933D01*
X295673Y-251173D02*
X299949D01*
X295334Y-253142D02*
X299949D01*
X288708Y-262984D02*
X299949D01*
X275500Y-263337D02*
X277116Y-264953D01*
X275500Y-263337D02*
Y-263000D01*
X268850Y-263522D02*
X269342D01*
X272742Y-266921D01*
X299921D02*
X300000Y-267000D01*
X275150Y-280353D02*
X275684Y-279819D01*
X300449Y-277551D02*
X302705D01*
X304583Y-277642D02*
X304673Y-277551D01*
X304583Y-279450D02*
Y-277642D01*
X306551D02*
X306642Y-277551D01*
X306551Y-279603D02*
Y-277642D01*
X277059Y-295811D02*
X277139D01*
X274500Y-293500D02*
X274646D01*
X275000Y-293146D01*
X277139Y-295811D02*
X278862Y-294087D01*
X275000Y-293146D02*
Y-292000D01*
X275870Y-297000D02*
X277059Y-295811D01*
X275500Y-297000D02*
X275870D01*
X268850Y-297272D02*
X269342D01*
X295000Y-283000D02*
X300449Y-277551D01*
X317067Y-293728D02*
X317475D01*
X316484Y-293146D02*
X317067Y-293728D01*
X310500Y-277500D02*
X310579Y-277579D01*
Y-281043D02*
Y-277579D01*
X298476Y-293146D02*
X310579Y-281043D01*
X318500Y-285000D02*
X320500Y-287000D01*
X318500Y-285000D02*
Y-277500D01*
X320500Y-284000D02*
X323000Y-286500D01*
X322390Y-283768D02*
X326840Y-288218D01*
Y-291495D02*
Y-288218D01*
Y-291495D02*
X332034Y-296689D01*
X332189D01*
X341481Y-282500D02*
X343981Y-285000D01*
X330000Y-282500D02*
X341481D01*
X343981Y-285000D02*
X345000D01*
X328295Y-277551D02*
X328323Y-277579D01*
X345000Y-285000D02*
X345500D01*
X328323Y-280823D02*
X330000Y-282500D01*
X328323Y-280823D02*
Y-277579D01*
X322390Y-283768D02*
Y-277551D01*
X324358Y-282083D02*
Y-277551D01*
X332113Y-293189D02*
Y-289838D01*
X326327Y-281060D02*
Y-277551D01*
X324358Y-282083D02*
X332113Y-289838D01*
X326327Y-281060D02*
X338767Y-293500D01*
X353413Y-295976D02*
X354709Y-297272D01*
X353333Y-295976D02*
X353413D01*
X349000Y-291642D02*
X353333Y-295976D01*
X331051Y-274795D02*
X335295D01*
X338500Y-278000D01*
X345000Y-255000D02*
X350500D01*
X344500Y-255500D02*
X345000Y-255000D01*
X354126Y-293189D02*
X354437Y-293500D01*
X355000D01*
X349000Y-291642D02*
Y-283500D01*
X338500Y-273000D02*
X349000Y-283500D01*
X354126Y-293189D02*
Y-286126D01*
X331051Y-264953D02*
X343265D01*
X331051Y-266921D02*
X341654D01*
X331051Y-270858D02*
X338858D01*
X331051Y-268890D02*
X339890D01*
X361500Y-290500D01*
X347905Y-237500D02*
X355905D01*
X334323Y-251083D02*
X347905Y-237500D01*
X354709Y-242647D02*
X355201D01*
X354126Y-242064D02*
X354709Y-242647D01*
X345353D02*
X354709D01*
X355201Y-246147D02*
X355693D01*
X357776Y-248229D01*
X376271D02*
X377500Y-247000D01*
X378276Y-237104D02*
X378880Y-236500D01*
X378276Y-237724D02*
Y-237104D01*
X377500Y-238500D02*
X378276Y-237724D01*
X377500Y-247000D02*
Y-238500D01*
X378880Y-236500D02*
X379500D01*
X357776Y-248229D02*
X376271D01*
X385650Y-232978D02*
X385896Y-233224D01*
X388724D01*
X390000Y-234500D01*
Y-239500D02*
Y-234500D01*
X354126Y-242064D02*
Y-240995D01*
X353500Y-240369D02*
X354126Y-240995D01*
X353500Y-240369D02*
Y-240000D01*
X378407Y-233593D02*
X379000Y-233000D01*
X375907Y-233593D02*
X378407D01*
X373500Y-236000D02*
X375907Y-233593D01*
X373500Y-250500D02*
X379000D01*
X390000Y-239500D01*
X368239Y-242261D02*
X368500Y-242000D01*
X360739Y-242261D02*
X368239D01*
X360702Y-242298D02*
X360739Y-242261D01*
X360500Y-242500D02*
X360702Y-242298D01*
X355905Y-237500D02*
X360702Y-242298D01*
X378858Y-208272D02*
X379350D01*
X378276Y-208854D02*
X378858Y-208272D01*
X357000Y-232500D02*
X369414D01*
X355500Y-229500D02*
X355921D01*
X356276Y-229854D01*
Y-231776D02*
Y-229854D01*
Y-231776D02*
X357000Y-232500D01*
X361500Y-217500D02*
X377500Y-201500D01*
X381929D01*
X385429Y-205000D01*
X378276Y-223639D02*
Y-208854D01*
X369414Y-232500D02*
X378276Y-223639D01*
X378858Y-204772D02*
X379350D01*
X377562Y-206068D02*
X378858Y-204772D01*
X377483Y-206068D02*
X377562D01*
X365761Y-217790D02*
X377483Y-206068D01*
X361500Y-225728D02*
Y-224500D01*
Y-217500D01*
X357319Y-220319D02*
X361500Y-224500D01*
X355739Y-222761D02*
X356000Y-222500D01*
X355739Y-225761D02*
Y-222761D01*
X355500Y-226000D02*
X355739Y-225761D01*
X339500Y-226000D02*
Y-220500D01*
X344258Y-208272D02*
X344750D01*
X343676Y-208854D02*
X344258Y-208272D01*
X343676Y-209347D02*
Y-208854D01*
X335500Y-217522D02*
X343676Y-209347D01*
X335500Y-219500D02*
Y-217522D01*
X343000Y-220000D02*
Y-215786D01*
X350557Y-208228D02*
X351050D01*
X343000Y-215786D02*
X350557Y-208228D01*
X338500Y-219500D02*
X339500Y-220500D01*
X335500Y-219500D02*
X338500D01*
X333452Y-226000D02*
X335739Y-223713D01*
Y-222761D01*
X336000Y-222500D01*
X333000Y-226000D02*
X333452D01*
X332696Y-225772D02*
X333188D01*
X351050Y-204728D02*
X351542D01*
X352838Y-206024D01*
X352917D01*
X353624Y-206732D01*
Y-216376D02*
Y-206732D01*
X344000Y-224500D02*
X348130Y-220370D01*
X349630D01*
X353624Y-216376D01*
X326500Y-237000D02*
X330500D01*
X326000Y-236500D02*
X326500Y-237000D01*
X324358Y-237610D02*
X332500Y-229468D01*
Y-229000D01*
X314675Y-208811D02*
X314986Y-208500D01*
X314675Y-209325D02*
Y-208811D01*
X311176Y-212824D02*
X314675Y-209325D01*
X311176Y-225772D02*
Y-212824D01*
X303636Y-208136D02*
X309136D01*
X303500Y-208000D02*
X303636Y-208136D01*
X309136D02*
X309500Y-208500D01*
X317475Y-225728D02*
Y-220475D01*
X315000Y-218000D02*
X317475Y-220475D01*
X315750Y-204728D02*
X316242D01*
X317538Y-206024D01*
X317617D01*
X321000Y-209407D01*
Y-217500D02*
Y-209407D01*
X316484Y-246984D02*
Y-246449D01*
Y-246984D02*
X316500Y-247000D01*
X308500Y-233392D02*
Y-227876D01*
X314986Y-208500D02*
X315500D01*
X316484Y-246449D02*
Y-241376D01*
X308500Y-233392D02*
X316484Y-241376D01*
X310500Y-232000D02*
X314000Y-235500D01*
X310500Y-232000D02*
Y-229500D01*
X280450Y-204728D02*
X280942D01*
X282238Y-206024D01*
X293000Y-221000D02*
X294896Y-222896D01*
Y-225162D02*
X295462Y-225728D01*
X294896Y-225162D02*
Y-222896D01*
X275150Y-225728D02*
X275642D01*
X276938Y-227024D01*
X256413Y-219000D02*
X264000D01*
X245150Y-208228D02*
X245642D01*
X256413Y-219000D01*
X279096Y-236404D02*
X281000Y-234500D01*
X279096Y-236904D02*
Y-236404D01*
X275000Y-232808D02*
Y-229000D01*
X279096Y-236904D02*
X295334Y-253142D01*
X275000Y-232808D02*
X279096Y-236904D01*
X239000Y-208000D02*
X239071D01*
X260343Y-229272D02*
X268850D01*
X239071Y-208000D02*
X260343Y-229272D01*
X285000Y-252500D02*
X293500Y-261000D01*
X274000Y-252500D02*
X285000D01*
X268850Y-247350D02*
X274000Y-252500D01*
X245150Y-236478D02*
X258978D01*
X262500Y-240000D01*
X279500Y-250000D02*
X283000D01*
X284000Y-249000D01*
X294000Y-259000D01*
X281603Y-246603D02*
X284000Y-249000D01*
X239321Y-236500D02*
X249467Y-246647D01*
X268850D01*
X238500Y-236500D02*
X239321D01*
X245150Y-232978D02*
X264532D01*
X274554Y-243000D02*
X275000D01*
X264532Y-232978D02*
X274554Y-243000D01*
X245150Y-264728D02*
X245285Y-264864D01*
X258864D01*
X259000Y-265000D01*
X285702Y-259978D02*
X288708Y-262984D01*
X299949D02*
X299984D01*
X300000Y-263000D01*
X275150Y-259978D02*
X285702D01*
X283953Y-264953D02*
X299949D01*
X277116D02*
X283953D01*
X284000Y-265000D01*
X281500Y-262500D02*
X283953Y-264953D01*
X274679Y-260000D02*
X275000D01*
X270179Y-255500D02*
X274679Y-260000D01*
X238850Y-264772D02*
X239342D01*
X241752Y-267181D01*
X273319D01*
X273500Y-267000D01*
X272742Y-266921D02*
X299921D01*
X245150Y-289478D02*
X245642D01*
X239321Y-293000D02*
X239925Y-293604D01*
Y-295925D02*
Y-293604D01*
Y-295925D02*
X241500Y-297500D01*
X238500Y-293000D02*
X239321D01*
X269342Y-280397D02*
X273446Y-284500D01*
X282631Y-282000D02*
X283000D01*
X280131Y-284500D02*
X282631Y-282000D01*
X273446Y-284500D02*
X280131D01*
X275000Y-292000D02*
X279000Y-288000D01*
X269342Y-297272D02*
X271382Y-299311D01*
X281500Y-295000D02*
Y-294638D01*
X278862Y-292000D02*
X281500Y-294638D01*
X245739Y-320761D02*
X250739D01*
X251000Y-320500D01*
X278862Y-292000D02*
Y-291224D01*
Y-294087D02*
Y-292000D01*
X245000Y-321500D02*
X245739Y-320761D01*
X238850Y-321272D02*
X239342D01*
X240682Y-319932D01*
X240718D01*
X241859Y-318791D01*
Y-307141D01*
X244500Y-304500D01*
X245150Y-317728D02*
X245642D01*
X246224Y-317146D01*
Y-309776D01*
X268000Y-288000D02*
X279000D01*
X246224Y-309776D02*
X268000Y-288000D01*
X264000Y-300500D02*
X271500D01*
X272689Y-299311D01*
X271382D02*
X272689D01*
X308610Y-280890D02*
Y-277551D01*
X300939Y-296646D02*
X312547Y-285037D01*
X295462Y-293728D02*
X295930Y-293261D01*
X301239D01*
X301500Y-293000D01*
X312547Y-285037D02*
Y-277551D01*
X272772Y-321272D02*
X273000Y-321500D01*
X265869Y-320000D02*
X267140Y-321272D01*
X265500Y-320000D02*
X265869D01*
X272700Y-321272D02*
X272772D01*
X267140D02*
X272700D01*
Y-317772D02*
X273193D01*
X289163Y-299163D02*
X292000Y-302000D01*
Y-302084D02*
Y-302000D01*
X299000Y-304500D02*
X304500Y-299000D01*
X294415Y-304500D02*
X299000D01*
X292000Y-302084D02*
X294415Y-304500D01*
X295000Y-302000D02*
X295261Y-301739D01*
Y-300050D01*
X295500Y-299811D01*
Y-297000D01*
X295000D02*
X295354Y-296646D01*
X300939D01*
X273193Y-317772D02*
X282964Y-308000D01*
X296000D01*
X289163Y-303163D02*
X291500Y-305500D01*
X279000Y-317500D02*
X279239Y-317261D01*
X284239D01*
X284500Y-317000D01*
X289163Y-299163D02*
Y-297272D01*
Y-303163D02*
Y-299163D01*
X323000Y-301000D02*
Y-286500D01*
X320000Y-304000D02*
X323000Y-301000D01*
X313000Y-304000D02*
X320000D01*
X311176Y-302176D02*
Y-297272D01*
X320500Y-284000D02*
Y-277000D01*
X314550Y-317728D02*
Y-305550D01*
X313000Y-304000D02*
X314550Y-305550D01*
X311176Y-302176D02*
X313000Y-304000D01*
X308250Y-317772D02*
X308417D01*
X309000Y-317189D01*
Y-306500D01*
X318500Y-301500D02*
Y-298000D01*
X320500Y-296000D01*
Y-287000D01*
X307758Y-321272D02*
X308250D01*
X306462Y-319976D02*
X307758Y-321272D01*
X306383Y-319976D02*
X306462D01*
X305676Y-319268D02*
X306383Y-319976D01*
X305676Y-319268D02*
Y-302193D01*
X306000Y-301869D01*
Y-301500D01*
X304500Y-299000D02*
Y-295500D01*
X314516Y-285484D02*
Y-277551D01*
X304500Y-295500D02*
X314516Y-285484D01*
X313500Y-290500D02*
X313869D01*
X315369Y-289000D01*
X316484D02*
X316500D01*
X315369D02*
X316484D01*
Y-277551D01*
Y-293146D02*
Y-289000D01*
X333188Y-314188D02*
Y-297272D01*
Y-314188D02*
X340272Y-321272D01*
X343728D01*
X332189Y-296689D02*
X333000Y-297500D01*
X343728Y-321272D02*
X344000Y-321000D01*
X332606Y-293189D02*
X333188Y-293772D01*
X329500Y-291000D02*
X331689Y-293189D01*
X342500Y-313000D02*
X344500Y-315000D01*
Y-317500D02*
Y-315000D01*
X332113Y-293189D02*
X332606D01*
X331689D02*
X332113D01*
X350100Y-317728D02*
Y-303812D01*
X340000Y-293749D02*
X341440Y-295189D01*
X341476D01*
X350100Y-303812D01*
X340000Y-293749D02*
Y-293500D01*
X338767D02*
X340000D01*
X351500Y-289500D02*
Y-285500D01*
X352500Y-284500D01*
X354126Y-286126D01*
X338858Y-270858D02*
X352500Y-284500D01*
X378858Y-317772D02*
X379350D01*
X378689Y-320689D02*
X379500Y-321500D01*
X378196Y-320689D02*
X378689D01*
X367236Y-309729D02*
X378196Y-320689D01*
X330500Y-273000D02*
X338500D01*
X367236Y-309729D02*
Y-308815D01*
X355201Y-297272D02*
X355693D01*
X354709D02*
X355201D01*
X355693D02*
X367236Y-308815D01*
X361500Y-293728D02*
X365228D01*
X385500Y-314000D01*
Y-317500D02*
Y-314000D01*
X361500Y-294000D02*
Y-290500D01*
X355796Y-280000D02*
X368818Y-293022D01*
X379350D01*
X355000Y-280000D02*
X355796D01*
X354618Y-279314D02*
X355201Y-279897D01*
X382853Y-276353D02*
X385500Y-279000D01*
Y-289500D02*
Y-279000D01*
X367500Y-283000D02*
X372337D01*
X378858Y-289522D02*
X379350D01*
X372337Y-283000D02*
X378858Y-289522D01*
X361008Y-276353D02*
X361500D01*
X331500Y-263000D02*
X331516Y-262984D01*
X361500Y-276353D02*
X382853D01*
X347639Y-262984D02*
X361008Y-276353D01*
X352739Y-271761D02*
X353000Y-271500D01*
X350739Y-271761D02*
X352739D01*
X350500Y-272000D02*
X350739Y-271761D01*
X343265Y-264953D02*
X354709Y-276397D01*
X355000Y-263000D02*
X355671D01*
X349798Y-263022D02*
X355201D01*
X379236Y-261386D02*
X379350Y-261272D01*
X385429Y-261500D02*
X385500D01*
X343000Y-250500D02*
X352029D01*
X361008Y-259478D01*
X331142Y-259138D02*
X351362D01*
X351862D02*
X352000Y-259000D01*
X351362Y-259138D02*
X351862D01*
X354862D01*
X351362D02*
X354000Y-256500D01*
X339487Y-297272D02*
X339980D01*
X344000Y-301292D01*
Y-301500D02*
Y-301292D01*
X307000Y-296500D02*
X309189Y-294311D01*
X310593D02*
X311176Y-293728D01*
X309189Y-294311D02*
X310593D01*
X272689Y-299311D02*
X283189D01*
X284000Y-298500D02*
Y-292000D01*
X283189Y-299311D02*
X284000Y-298500D01*
X288671Y-293728D02*
X289163D01*
X287332Y-295068D02*
X288671Y-293728D01*
X287295Y-295068D02*
X287332D01*
X285500Y-296863D02*
X287295Y-295068D01*
X285500Y-301500D02*
Y-296863D01*
X268268Y-294311D02*
X268850Y-293728D01*
X267739Y-294311D02*
X268268D01*
X265811Y-296239D02*
X267739Y-294311D01*
X264261Y-296239D02*
X265811D01*
X264000Y-296500D02*
X264261Y-296239D01*
X261500Y-277500D02*
X264181D01*
X264828Y-276853D02*
X268850D01*
X264181Y-277500D02*
X264828Y-276853D01*
X265500Y-260500D02*
X268329D01*
X268850Y-259978D01*
X268652Y-243302D02*
X268850Y-243103D01*
X260698Y-243302D02*
X268652D01*
X260500Y-243500D02*
X260698Y-243302D01*
X277017Y-227024D02*
X287492Y-237499D01*
Y-242992D02*
X295673Y-251173D01*
X287492Y-242992D02*
Y-237499D01*
X285500Y-229680D02*
Y-228852D01*
X287163Y-227189D01*
X287253D01*
X310488Y-246358D02*
Y-243694D01*
X288399Y-225500D02*
X288943D01*
X285500Y-229680D02*
X291820Y-236000D01*
X289500Y-229500D02*
X290500D01*
X302794Y-236000D02*
X310488Y-243694D01*
X291820Y-236000D02*
X302794D01*
X268715Y-225864D02*
X268850Y-225728D01*
X262136Y-225864D02*
X268715D01*
X262000Y-226000D02*
X262136Y-225864D01*
X297104Y-230104D02*
X299000Y-232000D01*
X295181Y-234181D02*
X303097D01*
X295462Y-229272D02*
X295954D01*
X296787Y-230104D01*
X297104D01*
X290500Y-229500D02*
X295181Y-234181D01*
X306000Y-237085D02*
X312097Y-243181D01*
X303097Y-234181D02*
X306000Y-237085D01*
X334500Y-219500D02*
X335500D01*
X320421Y-233579D02*
X334500Y-219500D01*
X320421Y-246449D02*
Y-233579D01*
X317475Y-229272D02*
X317500Y-229297D01*
Y-232500D02*
Y-229297D01*
X326417Y-243583D02*
X329000Y-241000D01*
X354060Y-220319D02*
X357319D01*
X329000Y-241000D02*
X333379D01*
X354060Y-220319D01*
X333500Y-237500D02*
X338413Y-232587D01*
X338995Y-229272D02*
X339487D01*
X338413Y-229854D02*
X338995Y-229272D01*
X338413Y-232587D02*
Y-229854D01*
X361500Y-229272D02*
X364980D01*
X366752Y-227500D01*
X367000D01*
X361500Y-246147D02*
X362083Y-245564D01*
X364567D01*
X365631Y-244500D01*
X366000D01*
X355671Y-263000D02*
X356276Y-263604D01*
X331500Y-261000D02*
X331516Y-261016D01*
X356276Y-264484D02*
Y-263604D01*
Y-264484D02*
X356896Y-265104D01*
X379018D02*
X379350Y-264772D01*
X356896Y-265104D02*
X379018D01*
X364478Y-256500D02*
X380429D01*
X361500Y-259478D02*
X364478Y-256500D01*
X380429D02*
X385429Y-261500D01*
X331000Y-257000D02*
X336500D01*
X371386Y-261386D02*
X379236D01*
X369500Y-259500D02*
X371386Y-261386D01*
X361500Y-263022D02*
X362083Y-262439D01*
X362611D01*
X363050Y-262000D01*
X367500D01*
X361500Y-279897D02*
X368735D01*
X369631Y-279000D01*
X370000D01*
X371500Y-310413D02*
X378858Y-317772D01*
X371500Y-310413D02*
Y-306000D01*
X361500Y-297272D02*
X361992D01*
X366000Y-301279D01*
Y-301500D02*
Y-301279D01*
X303036Y-238761D02*
X308500Y-244225D01*
X301761Y-238761D02*
X303036D01*
X301500Y-238500D02*
X301761Y-238761D01*
X306551Y-246358D02*
X306642Y-246449D01*
X306551Y-246358D02*
Y-244397D01*
X304583Y-246358D02*
X304673Y-246449D01*
X304583Y-246358D02*
Y-244550D01*
X302000Y-241496D02*
X303650D01*
X306551Y-244397D01*
X303710Y-243677D02*
X304583Y-244550D01*
X274000Y-211486D02*
Y-208500D01*
X280450Y-208228D02*
X281728D01*
X274000Y-211486D02*
X277514Y-215000D01*
X284500D01*
X308500Y-247000D02*
Y-244225D01*
X297864Y-246449D02*
X302705D01*
X293500Y-242085D02*
X297864Y-246449D01*
X293500Y-242085D02*
Y-242000D01*
Y-245500D02*
X295949Y-247949D01*
X298768Y-249205D02*
X299949D01*
X297512Y-247949D02*
X298768Y-249205D01*
X295949Y-247949D02*
X297512D01*
X297500Y-242000D02*
X297869D01*
X299546Y-243677D01*
X269500Y-213000D02*
Y-212915D01*
X299546Y-243677D02*
X303710D01*
X274929Y-226000D02*
X275500D01*
X245150Y-204728D02*
X253658D01*
X274929Y-226000D01*
X255000Y-195000D02*
X270000Y-210000D01*
X254084Y-197500D02*
X269500Y-212915D01*
X293104Y-278896D02*
X295000Y-277000D01*
X290301Y-279301D02*
X290899Y-278702D01*
X292865D01*
X293058Y-278896D01*
X293104D01*
X284000Y-292000D02*
X284819Y-291181D01*
X283500Y-286000D02*
X285396Y-284104D01*
X278862Y-291224D02*
X280405Y-289681D01*
X284819Y-291181D02*
X298319D01*
X280405Y-289681D02*
X296473D01*
X282597Y-288181D02*
X295851D01*
X282416Y-288000D02*
X282597Y-288181D01*
X294101Y-284298D02*
X294699Y-283699D01*
X288862Y-284298D02*
X294101D01*
X288669Y-284104D02*
X288862Y-284298D01*
X285396Y-284104D02*
X288669D01*
X296473Y-289681D02*
X306551Y-279603D01*
X279000Y-288000D02*
X282416D01*
X295851Y-288181D02*
X304583Y-279450D01*
X298319Y-291181D02*
X308610Y-280890D01*
X268850Y-280397D02*
X269342D01*
X268358D02*
X268850D01*
X241500Y-297500D02*
X251255D01*
X251522Y-292978D02*
X264000Y-280500D01*
X245150Y-292978D02*
X251522D01*
X251255Y-297500D02*
X268358Y-280397D01*
X252261Y-286739D02*
X261500Y-277500D01*
X252261Y-288239D02*
Y-286739D01*
X252000Y-288500D02*
X252261Y-288239D01*
X146739Y-192761D02*
X147000Y-192500D01*
X146739Y-194261D02*
Y-192761D01*
X137500Y-203500D02*
X146739Y-194261D01*
X130642Y-200603D02*
X147745Y-183500D01*
X147478Y-188022D02*
X153850D01*
X135000Y-200500D02*
X147478Y-188022D01*
X147745Y-183500D02*
X157500D01*
X130150Y-200603D02*
X130642D01*
X129657D02*
X130150D01*
X137880Y-207000D02*
X153358Y-191522D01*
X112000Y-207500D02*
X112500Y-207000D01*
X107253Y-212000D02*
X115106Y-204147D01*
X112500Y-207000D02*
X137880D01*
X99000Y-212000D02*
X107253D01*
X90390Y-200110D02*
X100681Y-189819D01*
X94417Y-201550D02*
X103149Y-192819D01*
X116585Y-193000D02*
X120000D01*
X92449Y-201397D02*
X102527Y-191319D01*
X110331Y-196896D02*
X113604D01*
X110138Y-196702D02*
X110331Y-196896D01*
X104899Y-196702D02*
X110138D01*
X104301Y-197301D02*
X104899Y-196702D01*
X116403Y-192819D02*
X116585Y-193000D01*
X103149Y-192819D02*
X116403D01*
X102527Y-191319D02*
X118595D01*
X100681Y-189819D02*
X114181D01*
X118595Y-191319D02*
X120138Y-189776D01*
X113604Y-196896D02*
X115500Y-195000D01*
X114181Y-189819D02*
X115000Y-189000D01*
X105896Y-202104D02*
X105942D01*
X106135Y-202298D01*
X108101D01*
X108699Y-201699D01*
X104000Y-204000D02*
X105896Y-202104D01*
X129500Y-268085D02*
X144915Y-283500D01*
X129000Y-271000D02*
X144000Y-286000D01*
X196500Y-262500D02*
X197000Y-263000D01*
X144000Y-286000D02*
X166000D01*
X144915Y-283500D02*
X151000D01*
X124071Y-255000D02*
X145343Y-276272D01*
X153850D01*
X95290Y-237323D02*
X99454D01*
X129500Y-268085D02*
Y-268000D01*
X99454Y-237323D02*
X101131Y-239000D01*
X101500D01*
X166000Y-286000D02*
X189500Y-262500D01*
X196500D01*
X101488Y-233051D02*
X103051D01*
X100232Y-231795D02*
X101488Y-233051D01*
X99051Y-231795D02*
X100232D01*
X103051Y-233051D02*
X105500Y-235500D01*
Y-239000D02*
Y-238915D01*
X101136Y-234551D02*
X105500Y-238915D01*
X96295Y-234551D02*
X101136D01*
X90500Y-236775D02*
Y-234000D01*
X114500Y-266000D02*
X121486D01*
X125000Y-269514D01*
X110057Y-255500D02*
X111747Y-253811D01*
X109500Y-255500D02*
X110057D01*
X117272Y-272772D02*
X118550D01*
X110912Y-266412D02*
X117272Y-272772D01*
X110912Y-266412D02*
Y-255811D01*
X125000Y-272500D02*
Y-269514D01*
X94417Y-236450D02*
X95290Y-237323D01*
X92449Y-236602D02*
X95350Y-239504D01*
X97000D01*
X94417Y-236450D02*
Y-234642D01*
X94327Y-234551D02*
X94417Y-234642D01*
X92449Y-236602D02*
Y-234642D01*
X92358Y-234551D02*
X92449Y-234642D01*
X97239Y-242239D02*
X97500Y-242500D01*
X95964Y-242239D02*
X97239D01*
X90500Y-236775D02*
X95964Y-242239D01*
X33000Y-179720D02*
Y-179500D01*
Y-179720D02*
X37008Y-183728D01*
X37500D01*
X27500Y-175000D02*
Y-170587D01*
X20142Y-163228D02*
X27500Y-170587D01*
X29000Y-202000D02*
X29369D01*
X30265Y-201103D01*
X37500D01*
X31500Y-219000D02*
X35950D01*
X36389Y-218561D01*
X36917D01*
X37500Y-217978D01*
X27614Y-219614D02*
X29500Y-221500D01*
X19764Y-219614D02*
X27614D01*
X62500Y-224000D02*
X68000D01*
X13571Y-219500D02*
X18571Y-224500D01*
X34522D02*
X37500Y-221522D01*
X18571Y-224500D02*
X34522D01*
X19982Y-215896D02*
X42104D01*
X19650Y-216228D02*
X19982Y-215896D01*
X42104D02*
X42724Y-216516D01*
Y-217396D02*
Y-216516D01*
X67484Y-219984D02*
X67500Y-220000D01*
X42724Y-217396D02*
X43329Y-218000D01*
X33000Y-236500D02*
X33369D01*
X34433Y-235436D01*
X36917D01*
X37500Y-234853D01*
X32000Y-253500D02*
X32248D01*
X34020Y-251728D01*
X37500D01*
X60587Y-251146D02*
Y-248413D01*
X60005Y-251728D02*
X60587Y-251146D01*
X59513Y-251728D02*
X60005D01*
X60587Y-248413D02*
X65500Y-243500D01*
X44940Y-260681D02*
X65621Y-240000D01*
X70000D01*
X41681Y-260681D02*
X44940D01*
X70000Y-240000D02*
X72583Y-237417D01*
X81500Y-251703D02*
Y-248500D01*
Y-251703D02*
X81525Y-251728D01*
X78579Y-247421D02*
Y-234551D01*
X64500Y-261500D02*
X78579Y-247421D01*
X63500Y-261500D02*
X64500D01*
X93000Y-243916D02*
X95903Y-246819D01*
X86903Y-237819D02*
X93000Y-243916D01*
Y-251293D02*
Y-243916D01*
X103819Y-246819D02*
X108500Y-251500D01*
X101896Y-250896D02*
X102213D01*
X103046Y-251728D01*
X103538D01*
X95903Y-246819D02*
X103819D01*
X100000Y-249000D02*
X101896Y-250896D01*
X136864Y-255136D02*
X137000Y-255000D01*
X130285Y-255136D02*
X136864D01*
X130150Y-255272D02*
X130285Y-255136D01*
X96206Y-245000D02*
X107180D01*
X88512Y-237306D02*
X96206Y-245000D01*
X108500Y-251500D02*
X109500D01*
X107180Y-245000D02*
X113500Y-251320D01*
X110601Y-255500D02*
X110912Y-255811D01*
X110057Y-255500D02*
X110601D01*
X88512Y-237306D02*
Y-234642D01*
X111747Y-253811D02*
X111837D01*
X113500Y-252148D01*
Y-251320D01*
X111507Y-243500D02*
X121983Y-253976D01*
X138302Y-237698D02*
X138500Y-237500D01*
X130348Y-237698D02*
X138302D01*
X130150Y-237897D02*
X130348Y-237698D01*
X130150Y-221022D02*
X130671Y-220500D01*
X133500D01*
X134172Y-204147D02*
X134819Y-203500D01*
X130150Y-204147D02*
X134172D01*
X134819Y-203500D02*
X137500D01*
X134739Y-184761D02*
X135000Y-184500D01*
X133189Y-184761D02*
X134739D01*
X131261Y-186689D02*
X133189Y-184761D01*
X130732Y-186689D02*
X131261D01*
X130150Y-187272D02*
X130732Y-186689D01*
X113500Y-184137D02*
Y-179500D01*
X111705Y-185932D02*
X113500Y-184137D01*
X111669Y-185932D02*
X111705D01*
X110329Y-187272D02*
X111669Y-185932D01*
X109837Y-187272D02*
X110329D01*
X115000Y-182500D02*
X115811Y-181689D01*
X115000Y-189000D02*
Y-182500D01*
X115811Y-181689D02*
X126311D01*
X88407Y-186689D02*
X89811D01*
X87824Y-187272D02*
X88407Y-186689D01*
X89811D02*
X92000Y-184500D01*
X55000Y-179708D02*
Y-179500D01*
Y-179708D02*
X59021Y-183728D01*
X59513D01*
X45000Y-224500D02*
X47638Y-221862D01*
X44138D02*
X47138D01*
X47638D01*
X47000Y-222000D02*
X47138Y-221862D01*
X47638D02*
X67858D01*
X37992Y-221522D02*
X46970Y-230500D01*
X56000D01*
X13500Y-219500D02*
X13571D01*
X19650Y-219728D02*
X19764Y-219614D01*
X43799Y-217978D02*
X49202D01*
X43329Y-218000D02*
X44000D01*
X44291Y-204603D02*
X55735Y-216047D01*
X48261Y-209239D02*
X48500Y-209000D01*
X46261Y-209239D02*
X48261D01*
X46000Y-209500D02*
X46261Y-209239D01*
X37992Y-204647D02*
X51361Y-218016D01*
X16147Y-204647D02*
X37500D01*
X67484Y-218016D02*
X67500Y-218000D01*
X37500Y-204647D02*
X37992D01*
X20142Y-191478D02*
X26663Y-198000D01*
X19650Y-191478D02*
X20142D01*
X26663Y-198000D02*
X31500D01*
X13500Y-202000D02*
Y-191500D01*
Y-202000D02*
X16147Y-204647D01*
X43799Y-201103D02*
X44382Y-201686D01*
X43204Y-201000D02*
X44000D01*
X19650Y-187978D02*
X30182D01*
X43204Y-201000D01*
X37500Y-190500D02*
Y-187000D01*
X13500Y-167000D02*
Y-163500D01*
Y-167000D02*
X33772Y-187272D01*
X37500D01*
X31764Y-172186D02*
X43307Y-183728D01*
X43799D02*
X44291D01*
X43307D02*
X43799D01*
X31764Y-172186D02*
Y-171271D01*
X60500Y-208000D02*
X68500D01*
X20804Y-160311D02*
X31764Y-171271D01*
X20311Y-160311D02*
X20804D01*
X19500Y-159500D02*
X20311Y-160311D01*
X19650Y-163228D02*
X20142D01*
X46500Y-196500D02*
X60142Y-210142D01*
X44874Y-194874D02*
X46500Y-196500D01*
X47500Y-195500D01*
Y-191500D01*
X59000Y-187500D02*
X60233D01*
X59000D02*
Y-187251D01*
X48900Y-177188D02*
X57524Y-185811D01*
X57560D01*
X59000Y-187251D01*
X48900Y-177188D02*
Y-163272D01*
X66887Y-187811D02*
X67311D01*
X66395D02*
X66887D01*
X54500Y-166000D02*
Y-163500D01*
Y-166000D02*
X56500Y-168000D01*
X67311Y-187811D02*
X69500Y-190000D01*
X65812Y-187228D02*
X66395Y-187811D01*
X55000Y-160000D02*
X55272Y-159728D01*
X66000Y-183500D02*
X66811Y-184311D01*
X55272Y-159728D02*
X58728D01*
X65812Y-166812D01*
Y-183728D02*
Y-166812D01*
X82516Y-192000D02*
Y-187854D01*
Y-203449D02*
Y-192000D01*
X83631D01*
X82500D02*
X82516D01*
X83631D02*
X85131Y-190500D01*
X85500D01*
X84484Y-195516D02*
X94500Y-185500D01*
X84484Y-203449D02*
Y-195516D01*
X94500Y-185500D02*
Y-182000D01*
X93000Y-179500D02*
Y-179131D01*
X93324Y-178807D01*
Y-161732D01*
X92617Y-161024D02*
X93324Y-161732D01*
X92538Y-161024D02*
X92617D01*
X91242Y-159728D02*
X92538Y-161024D01*
X90750Y-159728D02*
X91242D01*
X78500Y-194000D02*
Y-185000D01*
X80500Y-183000D01*
Y-179500D01*
X90000Y-174500D02*
Y-163811D01*
X90583Y-163228D01*
X90750D01*
X86000Y-177000D02*
X87824Y-178824D01*
X84450Y-175450D02*
X86000Y-177000D01*
X84450Y-175450D02*
Y-163272D01*
X78500Y-204000D02*
Y-197000D01*
X87824Y-183728D02*
Y-178824D01*
X79000Y-177000D02*
X86000D01*
X76000Y-180000D02*
X79000Y-177000D01*
X76000Y-194500D02*
Y-180000D01*
X109837Y-181837D02*
Y-177837D01*
Y-183728D02*
Y-181837D01*
X114500Y-164000D02*
X114761Y-163739D01*
X119761D01*
X120000Y-163500D01*
X107500Y-175500D02*
X109837Y-177837D01*
X103000Y-173000D02*
X116036D01*
X125807Y-163228D01*
X98061Y-184354D02*
X103646D01*
X104000Y-184000D01*
X103500D02*
Y-181189D01*
X103739Y-180950D01*
Y-179261D01*
X104000Y-179000D01*
X104585Y-176500D02*
X107000Y-178916D01*
X100000Y-176500D02*
X104585D01*
X94500Y-182000D02*
X100000Y-176500D01*
X107000Y-179000D02*
Y-178916D01*
Y-179000D02*
X109837Y-181837D01*
X125807Y-163228D02*
X126300D01*
Y-159728D02*
X131860D01*
X126228D02*
X126300D01*
X133131Y-161000D02*
X133500D01*
X131860Y-159728D02*
X133131Y-161000D01*
X126000Y-159500D02*
X126228Y-159728D01*
X86453Y-203449D02*
Y-195963D01*
X97500Y-188000D02*
X97761Y-187739D01*
X103070D01*
X103538Y-187272D01*
X86453Y-195963D02*
X98061Y-184354D01*
X90390Y-203449D02*
Y-200110D01*
X126311Y-181689D02*
X127618D01*
X126311D02*
X127500Y-180500D01*
X135000D01*
X131000Y-193000D02*
X152776Y-171224D01*
X120000Y-193000D02*
X131000D01*
X152776Y-171224D02*
Y-163854D01*
X153358Y-163272D01*
X153850D01*
X154500Y-176500D02*
X157141Y-173859D01*
Y-162209D01*
X158282Y-161068D01*
X158318D01*
X159658Y-159728D01*
X160150D01*
X153261Y-160239D02*
X154000Y-159500D01*
X120138Y-189000D02*
Y-186913D01*
Y-189776D02*
Y-189000D01*
X148000Y-160500D02*
X148261Y-160239D01*
X153261D01*
X117500Y-186362D02*
X120138Y-189000D01*
X117500Y-186362D02*
Y-186000D01*
X127618Y-181689D02*
X129657Y-183728D01*
X120000Y-193000D02*
X124000Y-189000D01*
X115950Y-201181D02*
X123316D01*
X118500Y-201000D02*
Y-200869D01*
X120000Y-199369D01*
Y-199000D01*
X118869Y-196500D02*
X125554D01*
X116369Y-199000D02*
X118869Y-196500D01*
X116000Y-199000D02*
X116369D01*
X125554Y-196500D02*
X129657Y-200603D01*
X159679Y-188000D02*
X160500D01*
X157500Y-183500D02*
X159075Y-185075D01*
Y-187396D02*
Y-185075D01*
Y-187396D02*
X159679Y-188000D01*
X153358Y-191522D02*
X153850D01*
X99079Y-214079D02*
X126258D01*
X125500Y-214000D02*
X125681Y-213819D01*
X157248D01*
X159658Y-216228D01*
X160150D01*
X128821Y-225500D02*
X133500D01*
X124321Y-221000D02*
X128821Y-225500D01*
X133500D02*
X139228Y-219772D01*
X153850D01*
X115047Y-216047D02*
X117500Y-218500D01*
X115000Y-216000D02*
X115047Y-216047D01*
X121884D01*
X99051D02*
X115047D01*
X113298Y-221022D02*
X123850D01*
X140000Y-216000D02*
X140136Y-216136D01*
X153715D01*
X153850Y-216272D01*
X124446Y-238000D02*
X134467Y-248022D01*
X124000Y-238000D02*
X124446D01*
X134467Y-248022D02*
X153850D01*
X159679Y-244500D02*
X160500D01*
X149532Y-234353D02*
X159679Y-244500D01*
X115000Y-232000D02*
X117397Y-234397D01*
X115000Y-232000D02*
X116000Y-231000D01*
X119500D01*
X136500Y-241000D02*
X140022Y-244522D01*
X153850D01*
X138657Y-251728D02*
X159929Y-273000D01*
X160000D01*
X119904Y-244096D02*
X124000Y-248192D01*
Y-252000D02*
Y-248192D01*
X119904Y-244596D02*
Y-244096D01*
X118000Y-246500D02*
X119904Y-244596D01*
X142587Y-262000D02*
X153358Y-272772D01*
X153850D01*
X135000Y-262000D02*
X142587D01*
X122062Y-253976D02*
X123358Y-255272D01*
X123850D01*
X104104Y-258104D02*
Y-255838D01*
X103538Y-255272D02*
X104104Y-255838D01*
Y-258104D02*
X106000Y-260000D01*
X93000Y-251293D02*
X116683Y-274976D01*
X116762D01*
X118058Y-276272D01*
X118550D01*
X88500Y-251500D02*
Y-249000D01*
X85000Y-245500D02*
X88500Y-249000D01*
X82516Y-239624D02*
X90500Y-247608D01*
X82516Y-239624D02*
Y-234551D01*
X90500Y-253124D02*
Y-247608D01*
X78000Y-271593D02*
Y-263500D01*
Y-271593D02*
X81383Y-274976D01*
X81462D01*
X82758Y-276272D01*
X83250D01*
X81525Y-260525D02*
X84000Y-263000D01*
X81525Y-260525D02*
Y-255272D01*
X89500Y-272500D02*
X89864Y-272864D01*
X95364D02*
X95500Y-273000D01*
X89864Y-272864D02*
X95364D01*
X84325Y-272189D02*
Y-271675D01*
X84014Y-272500D02*
X84325Y-272189D01*
X66500Y-252000D02*
Y-251532D01*
X74642Y-243390D01*
X72500Y-244000D02*
X73000Y-244500D01*
X68500Y-244000D02*
X72500D01*
X45376Y-264624D02*
X49370Y-260630D01*
X50870D01*
X55000Y-256500D01*
X45376Y-274269D02*
Y-264624D01*
Y-274269D02*
X46083Y-274976D01*
X46162D01*
X47458Y-276272D01*
X47950D01*
X65812Y-255228D02*
X66304D01*
X65548Y-255000D02*
X66000D01*
X63000Y-258500D02*
X63261Y-258239D01*
Y-257287D01*
X65548Y-255000D01*
X60500Y-261500D02*
X63500D01*
X59500Y-260500D02*
X60500Y-261500D01*
X48443Y-272772D02*
X56000Y-265214D01*
X47950Y-272772D02*
X48443D01*
X56000Y-265214D02*
Y-261000D01*
X63500Y-263478D02*
Y-261500D01*
X55324Y-271654D02*
X63500Y-263478D01*
X55324Y-272146D02*
Y-271654D01*
X54742Y-272728D02*
X55324Y-272146D01*
X54250Y-272728D02*
X54742D01*
X59500Y-260500D02*
Y-255000D01*
X43261Y-255239D02*
X43500Y-255000D01*
X43261Y-258239D02*
Y-255239D01*
X43000Y-258500D02*
X43261Y-258239D01*
X37500Y-256500D02*
X41681Y-260681D01*
X37500Y-263500D02*
Y-256500D01*
Y-255272D01*
X21517Y-274932D02*
X33239Y-263210D01*
X21438Y-274932D02*
X21517D01*
X20142Y-276228D02*
X21438Y-274932D01*
X19650Y-276228D02*
X20142D01*
X20724Y-257361D02*
X29586Y-248500D01*
X20724Y-272146D02*
Y-257361D01*
X13571Y-276000D02*
X17071Y-279500D01*
X21500D01*
X37500Y-263500D01*
X42000Y-248500D02*
X42724Y-249224D01*
Y-251146D02*
Y-249224D01*
Y-251146D02*
X43079Y-251500D01*
X43500D01*
X29586Y-248500D02*
X42000D01*
X20142Y-272728D02*
X20724Y-272146D01*
X19650Y-272728D02*
X20142D01*
X38298Y-238702D02*
X43095Y-243500D01*
X38298Y-238702D02*
X38500Y-238500D01*
X38261Y-238739D02*
X38298Y-238702D01*
X30761Y-238739D02*
X38261D01*
X30500Y-239000D02*
X30761Y-238739D01*
X9000Y-241500D02*
X20000Y-230500D01*
X25500D01*
X23093Y-247407D02*
X25500Y-245000D01*
X20593Y-247407D02*
X23093D01*
X20000Y-248000D02*
X20593Y-247407D01*
X45500Y-241000D02*
Y-240631D01*
X44874Y-240005D02*
X45500Y-240631D01*
X44874Y-240005D02*
Y-238936D01*
X9000Y-246500D02*
Y-241500D01*
Y-246500D02*
X10276Y-247776D01*
X13104D01*
X13350Y-248022D01*
X22729Y-232771D02*
X41224D01*
X19500Y-244500D02*
X20120D01*
X21500Y-242500D02*
Y-234000D01*
X20724Y-243276D02*
X21500Y-242500D01*
X20724Y-243896D02*
Y-243276D01*
X20120Y-244500D02*
X20724Y-243896D01*
X21500Y-234000D02*
X22729Y-232771D01*
X41224D02*
X43307Y-234853D01*
X43799D01*
X44291Y-238353D02*
X53647D01*
X44291D02*
X44874Y-238936D01*
X43799Y-238353D02*
X44291D01*
X51095Y-243500D02*
X64677Y-229917D01*
X43095Y-243500D02*
X51095D01*
X37500Y-190500D02*
X59110Y-212110D01*
X67949D01*
X60142Y-210142D02*
X67949D01*
X57346Y-214079D02*
X67949D01*
X55735Y-216047D02*
X67949D01*
X44874Y-194874D02*
Y-187811D01*
X50000Y-197500D02*
X60500Y-208000D01*
X50000Y-197500D02*
Y-189357D01*
X44000Y-187500D02*
X44563D01*
X44874Y-187811D01*
X54000Y-226000D02*
X54500Y-225500D01*
X48500Y-226000D02*
X54000D01*
X60500Y-203000D02*
X63705Y-206205D01*
X67949D01*
X45667Y-185024D02*
X50000Y-189357D01*
X45587Y-185024D02*
X45667D01*
X44291Y-183728D02*
X45587Y-185024D01*
X60233Y-187500D02*
X72673Y-199940D01*
X66887Y-191162D02*
X74642Y-198917D01*
X72673Y-203449D02*
Y-199940D01*
X66887Y-191162D02*
Y-187811D01*
X74642Y-203449D02*
Y-198917D01*
X76610Y-203449D02*
Y-197232D01*
X70677Y-203421D02*
Y-200177D01*
X69000Y-198500D02*
X70677Y-200177D01*
X53500Y-196000D02*
X54000D01*
X70677Y-203421D02*
X70705Y-203449D01*
X54000Y-196000D02*
X55019D01*
X57519Y-198500D02*
X69000D01*
X55019Y-196000D02*
X57519Y-198500D01*
X66811Y-184311D02*
X66966D01*
X72160Y-189505D01*
Y-192782D02*
Y-189505D01*
Y-192782D02*
X76610Y-197232D01*
X76000Y-194500D02*
X78500Y-197000D01*
X80500Y-203500D02*
Y-196000D01*
X78500Y-194000D02*
X80500Y-196000D01*
X88421Y-199957D02*
X100524Y-187854D01*
X88421Y-203421D02*
Y-199957D01*
Y-203421D02*
X88500Y-203500D01*
X81933Y-187272D02*
X82516Y-187854D01*
X81525Y-187272D02*
X81933D01*
X98551Y-203449D02*
X104000Y-198000D01*
X129657Y-183728D02*
X130150D01*
X123130Y-184000D02*
X123500D01*
X121941Y-185189D02*
X123130Y-184000D01*
X124000Y-189000D02*
Y-187854D01*
X120138Y-186913D02*
X121861Y-185189D01*
X124000Y-187854D02*
X124354Y-187500D01*
X124500D01*
X121861Y-185189D02*
X121941D01*
X92449Y-203358D02*
Y-201397D01*
X92358Y-203449D02*
X92449Y-203358D01*
X94417D02*
Y-201550D01*
X94327Y-203449D02*
X94417Y-203358D01*
X96295Y-203449D02*
X98551D01*
X104327Y-208173D02*
X105000Y-207500D01*
X99051Y-208173D02*
X104327D01*
X99051Y-210142D02*
X106989D01*
X115950Y-201181D01*
X123316D02*
X123850Y-200647D01*
X115106Y-204147D02*
X123850D01*
X99000Y-214000D02*
X99079Y-214079D01*
X126258D02*
X129657Y-217478D01*
X130150D01*
X123500Y-218000D02*
Y-217663D01*
X121884Y-216047D02*
X123500Y-217663D01*
X99051Y-219984D02*
X99067Y-220000D01*
X117397Y-234397D02*
X123850D01*
X118397Y-237897D02*
X123850D01*
X121983Y-253976D02*
X122062D01*
X86819Y-237819D02*
X86903D01*
X86543Y-237543D02*
X86819Y-237819D01*
X86543Y-237543D02*
Y-234642D01*
X96500Y-249500D02*
X100811Y-253811D01*
X86000Y-240000D02*
Y-239631D01*
X100811Y-253811D02*
X101585D01*
X103046Y-255272D01*
X103538D01*
X88421Y-234551D02*
X88512Y-234642D01*
X86453Y-234551D02*
X86543Y-234642D01*
X84484Y-234551D02*
Y-234016D01*
Y-238116D02*
Y-234551D01*
Y-238116D02*
X86000Y-239631D01*
X84484Y-234016D02*
X84500Y-234000D01*
X76000Y-253500D02*
X79225D01*
X80414Y-254689D01*
X80942D01*
X81525Y-255272D01*
X89692Y-253932D02*
X90500Y-253124D01*
X89613Y-253932D02*
X89692D01*
X88317Y-255228D02*
X89613Y-253932D01*
X87824Y-255228D02*
X88317D01*
X80547Y-234551D02*
Y-234047D01*
Y-244451D02*
Y-234551D01*
X80500Y-234000D02*
X80547Y-234047D01*
Y-244451D02*
X86750Y-250654D01*
Y-251146D02*
Y-250654D01*
Y-251146D02*
X87332Y-251728D01*
X87824D01*
X67680Y-253932D02*
X76500Y-245112D01*
Y-234000D01*
X74642Y-243390D02*
Y-234551D01*
X67600Y-253932D02*
X67680D01*
X66304Y-255228D02*
X67600Y-253932D01*
X72583Y-237417D02*
Y-234642D01*
X70500Y-236500D02*
Y-234000D01*
X64000Y-238000D02*
X69000D01*
X46772Y-255228D02*
X64000Y-238000D01*
X43799Y-255228D02*
X46772D01*
X72583Y-234642D02*
X72673Y-234551D01*
X69000Y-238000D02*
X70500Y-236500D01*
X44189Y-251689D02*
X46874D01*
X66768Y-231795D01*
X67949D01*
X56000Y-230500D02*
X62500Y-224000D01*
X64677Y-229917D02*
X67858D01*
X67949Y-229827D01*
X64000Y-228000D02*
X68500D01*
X53647Y-238353D02*
X64000Y-228000D01*
X44647Y-234853D02*
X54147D01*
X44500Y-235000D02*
X44647Y-234853D01*
X54147D02*
X63110Y-225890D01*
X67949D01*
X37500Y-221522D02*
X37992D01*
X51208Y-219984D02*
X67484D01*
X51361Y-218016D02*
X67484D01*
X49202Y-217978D02*
X51208Y-219984D01*
X67858Y-221862D02*
X67949Y-221953D01*
X44000Y-222000D02*
X44138Y-221862D01*
X67949Y-214079D02*
X68421D01*
X68500Y-214000D01*
X44954Y-201686D02*
X57346Y-214079D01*
X44382Y-201686D02*
X44954D01*
X67949Y-216047D02*
X68453D01*
X68500Y-216000D01*
X43799Y-204603D02*
X44291D01*
X300925Y-75976D02*
X300949Y-75953D01*
X290524Y-75976D02*
X300925D01*
X290500Y-76000D02*
X290524Y-75976D01*
X341131Y-72500D02*
X341500D01*
X302914Y-55000D02*
X303500Y-55586D01*
X300965Y-72000D02*
X315500D01*
X303500Y-58000D02*
Y-57449D01*
X346500Y-73500D02*
Y-72500D01*
X340597Y-74681D02*
X345319D01*
X317484Y-72016D02*
X340647D01*
X303500Y-57449D02*
Y-55586D01*
X339900Y-73984D02*
X340597Y-74681D01*
X340647Y-72016D02*
X341131Y-72500D01*
X296500Y-55000D02*
X302914D01*
X316500Y-73000D02*
X317484Y-72016D01*
X345319Y-74681D02*
X346500Y-73500D01*
X300949Y-72016D02*
X300965Y-72000D01*
X332051Y-73984D02*
X339900D01*
X315500Y-72000D02*
X316500Y-73000D01*
X75484Y-64484D02*
X90051D01*
X50353D02*
X73516D01*
X354215Y-103786D02*
X359658Y-109228D01*
X305223Y-34772D02*
X305805Y-35354D01*
X215500Y-68079D02*
X300949D01*
X300750Y-103750D02*
X309610Y-94890D01*
X313224Y-104500D02*
Y-100335D01*
X338881Y-103369D02*
X342075Y-106563D01*
X182500Y-73000D02*
Y-72500D01*
X171104Y-91104D02*
Y-87994D01*
X170610Y-87500D02*
X171104Y-87994D01*
Y-91104D02*
X173000Y-93000D01*
X205343Y-17157D02*
Y-17000D01*
X204500Y-18000D02*
X205343Y-17157D01*
X222610Y-73000D02*
X227000D01*
X212579Y-68079D02*
X215500D01*
Y-72110D02*
Y-68500D01*
Y-72110D02*
X216390Y-73000D01*
X190500Y-55500D02*
X193500D01*
X183000Y-63000D02*
X190500Y-55500D01*
X250045Y-93500D02*
X277500D01*
X278914Y-92914D02*
X279000Y-93000D01*
X249150Y-94395D02*
X250045Y-93500D01*
X278086Y-92914D02*
X278914D01*
X277500Y-93500D02*
X278086Y-92914D01*
X259000Y-96000D02*
X263500D01*
X271500Y-104000D01*
X218500Y-84500D02*
X221000D01*
X233500Y-97000D01*
X291085Y-73500D02*
X291584Y-74000D01*
X232000Y-73500D02*
X291085D01*
X291584Y-74000D02*
X300933D01*
X300949Y-73984D01*
X224500Y-60000D02*
X231500D01*
X208000Y-43500D02*
X224500Y-60000D01*
X332051Y-75953D02*
X339747D01*
X339975Y-76181D02*
X361681D01*
X339747Y-75953D02*
X339975Y-76181D01*
X361681D02*
X365000Y-79500D01*
X90051Y-62516D02*
X99401D01*
X90016D02*
X90051D01*
X268797Y-81000D02*
X270358Y-82562D01*
X270850D01*
X270381Y-83031D02*
X270850Y-82562D01*
X198000Y-66500D02*
Y-33500D01*
X208000Y-23500D01*
X183000Y-73000D02*
X198500D01*
X208000Y-63500D01*
X259821Y-70047D02*
X300953D01*
X147500Y-35500D02*
Y-12000D01*
X122703Y-55000D02*
X127000D01*
X122203Y-55500D02*
X122703Y-55000D01*
X190000Y-83000D02*
X194000Y-79000D01*
X183000Y-83000D02*
X190000D01*
X208500Y-64000D02*
Y-63500D01*
X208000D02*
X208500Y-63000D01*
X268500Y-129500D02*
X268941D01*
X269795Y-128646D01*
X243000Y-91500D02*
Y-89000D01*
X242253Y-91000D02*
X242850D01*
X269928Y-11500D02*
X270500D01*
X378261Y-51761D02*
X379000Y-52500D01*
X263500Y-81000D02*
X268797D01*
X373000Y-90500D02*
X378862D01*
X381500Y-84000D02*
X385299Y-87799D01*
Y-90638D02*
Y-87799D01*
X378862Y-90500D02*
X379000Y-90638D01*
X359658Y-109228D02*
X360150D01*
X332051Y-83827D02*
X332142Y-83917D01*
X334346D01*
X360150Y-112728D02*
X360378Y-112500D01*
X334346Y-83917D02*
X354215Y-103786D01*
X360378Y-112500D02*
X362414D01*
X363000Y-111914D01*
X332051Y-85795D02*
X333232D01*
X353358Y-112772D02*
X353850D01*
X351898Y-111311D02*
X353358Y-112772D01*
X351861Y-111311D02*
X351898D01*
X342657Y-109228D02*
X343150D01*
X342075Y-108646D02*
X342657Y-109228D01*
X342075Y-108646D02*
Y-106563D01*
X327335Y-91823D02*
X338881Y-103369D01*
X327335Y-91823D02*
Y-88559D01*
X327327Y-88551D02*
X327335Y-88559D01*
X344938Y-111432D02*
X345017D01*
X346000Y-110450D01*
X329295Y-89732D02*
Y-88551D01*
Y-89732D02*
X346000Y-106437D01*
Y-110450D02*
Y-106437D01*
X337343Y-112772D02*
X338682Y-111432D01*
X338718D01*
X326157Y-109228D02*
X326650D01*
X325575Y-108646D02*
X326157Y-109228D01*
X319858Y-112772D02*
X320350D01*
X318519Y-111432D02*
X319858Y-112772D01*
X318483Y-111432D02*
X318519D01*
X319453Y-99390D02*
Y-88551D01*
X323390Y-96960D02*
X329224Y-102794D01*
X323390Y-96960D02*
Y-88551D01*
X325575Y-108646D02*
Y-103075D01*
X321421Y-98921D02*
X325575Y-103075D01*
X321421Y-98921D02*
Y-88551D01*
X317000Y-101843D02*
X319453Y-99390D01*
X317000Y-109950D02*
Y-101843D01*
Y-109950D02*
X318483Y-111432D01*
X312642Y-109228D02*
X313224Y-108646D01*
X315516Y-98043D02*
Y-88551D01*
X312150Y-109228D02*
X312642D01*
X313224Y-100335D02*
X315516Y-98043D01*
X312642Y-112728D02*
X313938Y-111432D01*
X314017D01*
X315500Y-109950D01*
Y-100833D01*
X317484Y-98849D01*
Y-88551D01*
X305850Y-112772D02*
X306343D01*
X307682Y-111432D01*
X307718D01*
X313547Y-97891D02*
Y-88551D01*
X295799Y-109228D02*
X296291D01*
X296874Y-108646D01*
X289500Y-112772D02*
X289992D01*
X305583Y-88642D02*
X305673Y-88551D01*
X277150Y-109228D02*
X277642D01*
X303705Y-89732D02*
Y-88551D01*
X309610Y-94890D02*
Y-88551D01*
X270850Y-112772D02*
X271342D01*
X272803Y-111311D01*
X272839D01*
X274000Y-110151D01*
X289822Y-83827D02*
X300949D01*
X277642Y-82562D02*
X278345Y-81858D01*
X277150Y-82562D02*
X277642D01*
X287816Y-60395D02*
X289594Y-62173D01*
X300949D01*
X275361Y-58191D02*
X276658Y-56895D01*
X275282Y-58191D02*
X275361D01*
X274000Y-59473D02*
X275282Y-58191D01*
X270850Y-61350D02*
Y-60438D01*
X275610Y-66110D02*
X300949D01*
X270850Y-61350D02*
X275610Y-66110D01*
X276142Y-64142D02*
X300949D01*
X274000Y-62000D02*
Y-59473D01*
Y-62000D02*
X276142Y-64142D01*
X305583Y-57358D02*
X305673Y-57449D01*
X305583Y-57358D02*
Y-54583D01*
X293205Y-60205D02*
X300949D01*
X273075Y-40075D02*
X293205Y-60205D01*
X273075Y-40075D02*
Y-36996D01*
X270850Y-34772D02*
X273075Y-36996D01*
X302500Y-51500D02*
X305583Y-54583D01*
X293921Y-51500D02*
X302500D01*
X307551Y-57358D02*
X307642Y-57449D01*
X287790Y-37790D02*
Y-34772D01*
X294582Y-34728D02*
X295164Y-35311D01*
X292302Y-32524D02*
X293598Y-31228D01*
X292222Y-32524D02*
X292302D01*
X291500Y-33246D02*
X292222Y-32524D01*
X311579Y-57449D02*
Y-50079D01*
X296811Y-35311D02*
X311579Y-50079D01*
X295164Y-35311D02*
X296811D01*
X309520Y-57358D02*
X309610Y-57449D01*
X307358Y-57358D02*
X307551D01*
X307264Y-57264D02*
X307358Y-57358D01*
X299000Y-49000D02*
X302121D01*
X287790Y-37790D02*
X299000Y-49000D01*
X309520Y-57358D02*
Y-54230D01*
X291500Y-36211D02*
Y-33246D01*
X313547Y-57449D02*
Y-48547D01*
X305805Y-40805D02*
X313547Y-48547D01*
X305805Y-40805D02*
Y-35354D01*
X311522Y-34728D02*
X312104Y-35311D01*
X317484Y-57449D02*
Y-45484D01*
X312104Y-40104D02*
X317484Y-45484D01*
X312104Y-40104D02*
Y-35311D01*
X309242Y-32524D02*
X310538Y-31228D01*
X309162Y-32524D02*
X309242D01*
X308257Y-33429D02*
X309162Y-32524D01*
X308257Y-39757D02*
Y-33429D01*
Y-39757D02*
X315500Y-47000D01*
Y-57433D02*
X315516Y-57449D01*
X315500Y-57433D02*
Y-47000D01*
X320596Y-35354D02*
X321178Y-34772D01*
X320596Y-45240D02*
Y-35354D01*
X319453Y-46382D02*
X320596Y-45240D01*
X319453Y-57449D02*
Y-46382D01*
X327478Y-34728D02*
X327970D01*
X326895Y-35311D02*
X327478Y-34728D01*
X326895Y-44037D02*
Y-35311D01*
X323390Y-47542D02*
X326895Y-44037D01*
X323390Y-57449D02*
Y-47542D01*
X327478Y-31228D02*
X327970D01*
X326182Y-32524D02*
X327478Y-31228D01*
X326102Y-32524D02*
X326182D01*
X324500Y-34126D02*
X326102Y-32524D01*
X321421Y-57449D02*
Y-47389D01*
X324500Y-44310D01*
Y-34126D01*
X338610Y-39390D02*
Y-34772D01*
X325358Y-57449D02*
Y-52642D01*
X329295Y-57449D02*
Y-56268D01*
X344910Y-40653D01*
Y-34728D01*
X344418Y-31228D02*
X344910D01*
X343122Y-32524D02*
X344418Y-31228D01*
X343042Y-32524D02*
X343122D01*
X341521Y-34045D02*
X343042Y-32524D01*
X341521Y-39979D02*
Y-34045D01*
X327327Y-57449D02*
Y-54173D01*
X341521Y-39979D01*
X332051Y-64142D02*
X332142Y-64051D01*
X359075Y-35311D02*
X359658Y-34728D01*
X360150D01*
X352776Y-35354D02*
X353358Y-34772D01*
X359658Y-31228D02*
X360150D01*
X358362Y-32524D02*
X359658Y-31228D01*
X358282Y-32524D02*
X358362D01*
X356425Y-34381D02*
X358282Y-32524D01*
X332051Y-62173D02*
X332142Y-62083D01*
X356425Y-40575D02*
Y-34381D01*
X334917Y-62083D02*
X356425Y-40575D01*
X332142Y-62083D02*
X334917D01*
X352776Y-41724D02*
Y-35354D01*
X334295Y-60205D02*
X352776Y-41724D01*
X332051Y-60205D02*
X334295D01*
X359075Y-41425D02*
Y-35311D01*
X336449Y-64051D02*
X359075Y-41425D01*
X332142Y-64051D02*
X336449D01*
X340793Y-66110D02*
X345798Y-61105D01*
X332051Y-66110D02*
X340793D01*
X360150Y-62850D02*
Y-61062D01*
X332051Y-68079D02*
X350948D01*
X359658Y-57562D02*
X360150D01*
X358240Y-58979D02*
X359658Y-57562D01*
X358161Y-58979D02*
X358240D01*
X357000Y-60140D02*
X358161Y-58979D01*
X357000Y-62027D02*
Y-60140D01*
X350948Y-68079D02*
X357000Y-62027D01*
X332051Y-79890D02*
X332142Y-79799D01*
X359658Y-83395D02*
X360150D01*
Y-86895D02*
X360269Y-86776D01*
X363224D01*
X365000Y-85000D01*
Y-79500D01*
X361585Y-94181D02*
X379000D01*
X353850Y-86938D02*
X354343D01*
X361585Y-94181D01*
X384807Y-94138D02*
X385299D01*
X383511Y-92842D02*
X384807Y-94138D01*
X383432Y-92842D02*
X383511D01*
X381000Y-87000D02*
X382216Y-88216D01*
X367000Y-87000D02*
X381000D01*
X365000Y-85000D02*
X367000Y-87000D01*
X357579Y-80000D02*
X362000D01*
X356921Y-80658D02*
X359658Y-83395D01*
X347500Y-61105D02*
X353850D01*
X345798D02*
X347500D01*
X384807Y-55547D02*
X385299D01*
X379293Y-61062D02*
X384807Y-55547D01*
X360150Y-61062D02*
X379293D01*
X384807Y-52047D02*
X385299D01*
X368091Y-55591D02*
X379000D01*
X360150Y-57562D02*
X360180Y-57531D01*
X364969D01*
X365000Y-57500D01*
X378508Y-15043D02*
X379000D01*
X362906Y-30646D02*
X378508Y-15043D01*
X360732Y-30646D02*
X362906D01*
X360150Y-31228D02*
X360732Y-30646D01*
X379000Y-11543D02*
X379492D01*
X380788Y-12839D01*
X380868D01*
X382500Y-14472D01*
Y-23000D02*
Y-14472D01*
X360150Y-34728D02*
X370772D01*
X382500Y-23000D01*
X384807Y-11500D02*
X385299D01*
X382307Y-9000D02*
X384807Y-11500D01*
X353358Y-34772D02*
X353850D01*
X352272D02*
X353358D01*
X358937Y-15000D02*
X359429D01*
X358354Y-15583D02*
X358937Y-15000D01*
X344910Y-34728D02*
X345402D01*
X346819Y-33311D01*
X346899D01*
X348000Y-32210D01*
X371000Y-9000D02*
X382307D01*
X350500Y-29500D02*
X371000Y-9000D01*
X350500Y-33000D02*
Y-29500D01*
Y-33000D02*
X352272Y-34772D01*
X333750Y-44250D02*
X338610Y-39390D01*
X325358Y-52642D02*
X333750Y-44250D01*
X358937Y-11500D02*
X359429D01*
X357641Y-12796D02*
X358937Y-11500D01*
X357561Y-12796D02*
X357641D01*
X355705Y-14653D02*
X357561Y-12796D01*
X355705Y-16540D02*
Y-14653D01*
X344910Y-31228D02*
X345000Y-31138D01*
X358354Y-18146D02*
Y-15583D01*
X348000Y-28500D02*
X358354Y-18146D01*
X348000Y-32210D02*
Y-28500D01*
X345000Y-27245D02*
X355705Y-16540D01*
X345000Y-31138D02*
Y-27245D01*
X331367Y-15000D02*
X331859D01*
X330785Y-15583D02*
X331367Y-15000D01*
X330785Y-32485D02*
Y-15583D01*
X329124Y-34146D02*
X330785Y-32485D01*
X328552Y-34146D02*
X329124D01*
X327970Y-34728D02*
X328552Y-34146D01*
X327970Y-31228D02*
X328417D01*
X331277Y-12083D02*
X331859Y-11500D01*
X329847Y-12083D02*
X331277D01*
X328417Y-13512D02*
X329847Y-12083D01*
X328417Y-31228D02*
Y-13512D01*
X325560Y-21440D02*
Y-15043D01*
X318000Y-29000D02*
X325560Y-21440D01*
X321178Y-34772D02*
X321670D01*
X319718Y-33311D02*
X321178Y-34772D01*
X319681Y-33311D02*
X319718D01*
X318000Y-31630D02*
X319681Y-33311D01*
X318000Y-31630D02*
Y-29000D01*
X304289Y-15000D02*
X304782D01*
X305364Y-15583D01*
Y-16075D02*
Y-15583D01*
Y-16075D02*
X315000Y-25711D01*
Y-34000D02*
Y-25711D01*
X311522Y-34728D02*
X314272D01*
X315000Y-34000D01*
X310538Y-31228D02*
X311030D01*
X309955Y-30646D02*
X310538Y-31228D01*
X303797Y-11500D02*
X304289D01*
X302501Y-12796D02*
X303797Y-11500D01*
X302422Y-12796D02*
X302501D01*
X301500Y-13718D02*
X302422Y-12796D01*
X297990Y-15043D02*
X298482D01*
X299065Y-15626D01*
Y-29635D02*
Y-15626D01*
Y-29635D02*
X303619Y-34189D01*
X304640D01*
X305223Y-34772D01*
X294090Y-34728D02*
X294582D01*
X295878Y-33432D01*
X295957D01*
X297000Y-32390D01*
Y-27000D01*
X276720Y-15000D02*
X277212D01*
X278212Y-16000D01*
X286000D01*
X297000Y-27000D01*
X276227Y-11500D02*
X276720D01*
X274932Y-12796D02*
X276227Y-11500D01*
X274852Y-12796D02*
X274932D01*
X274000Y-13648D02*
X274852Y-12796D01*
X293598Y-31228D02*
X294090D01*
X293015Y-30646D02*
X293598Y-31228D01*
X293015Y-30646D02*
Y-28015D01*
X287298Y-34772D02*
X287790D01*
X285959Y-33432D02*
X287298Y-34772D01*
X285923Y-33432D02*
X285959D01*
X271495Y-19005D02*
X285923Y-33432D01*
X271495Y-19005D02*
Y-15626D01*
X270913Y-15043D02*
X271495Y-15626D01*
X270420Y-15043D02*
X270913D01*
X274000Y-16352D02*
Y-13648D01*
X289000Y-24000D02*
X293015Y-28015D01*
X281648Y-24000D02*
X289000D01*
X274000Y-16352D02*
X281648Y-24000D01*
X276658Y-31228D02*
X277150D01*
X249150Y-15000D02*
X249400Y-14750D01*
X263071Y-34772D02*
X270850D01*
X242850Y-15043D02*
X243342D01*
X263071Y-34772D01*
X282483Y-60395D02*
X287816D01*
X277150D02*
X282483D01*
X270268Y-59856D02*
X270850Y-60438D01*
X269739Y-59856D02*
X270268D01*
X262384Y-52500D02*
X269739Y-59856D01*
X249150Y-52562D02*
X249211Y-52500D01*
X262384D01*
X242850Y-52605D02*
Y-50150D01*
X246500Y-46500D01*
X270826D01*
X242850Y-56105D02*
X243342D01*
X244638Y-54809D01*
X244718D01*
X246575Y-52952D01*
Y-50425D01*
X276658Y-56895D02*
X277150D01*
X270826Y-46500D02*
X281500Y-57174D01*
Y-59412D02*
Y-57174D01*
Y-59412D02*
X282483Y-60395D01*
X301500Y-18095D02*
Y-13718D01*
X309955Y-30646D02*
Y-26550D01*
X301500Y-18095D02*
X309955Y-26550D01*
X338718Y-111432D02*
X339425Y-110725D01*
X325358Y-93195D02*
Y-88551D01*
X339425Y-110725D02*
Y-107262D01*
X325358Y-93195D02*
X339425Y-107262D01*
X270850Y-86105D02*
X272320D01*
X273425Y-85000D02*
Y-81065D01*
X272320Y-86105D02*
X273425Y-85000D01*
X242850Y-94438D02*
X243342D01*
X246575Y-91242D02*
Y-89398D01*
X249868Y-86105D01*
X270850D01*
X281858Y-81858D02*
X300949D01*
X278345D02*
X281858D01*
X249150Y-132728D02*
X256658D01*
X276658Y-112728D01*
X242850Y-132772D02*
X243342D01*
X244757Y-131358D01*
X244793D01*
X245500Y-130650D01*
X249150Y-129228D02*
X249602Y-128776D01*
X252224D01*
X259500Y-121500D01*
X278000Y-105500D02*
X281370D01*
X277642Y-109228D02*
X281370Y-105500D01*
X275019Y-132728D02*
X275512D01*
X276808Y-131432D01*
X276887D01*
X268720Y-132772D02*
X269212D01*
X270673Y-131311D01*
X270709D01*
X272000Y-130020D01*
Y-126500D01*
X275019Y-129228D02*
X275512D01*
X287000Y-117740D01*
Y-116500D01*
X302590Y-132728D02*
X303082D01*
X304378Y-131432D01*
X304457D01*
X311075Y-124815D01*
Y-113311D01*
X311658Y-112728D01*
X312150D02*
X312642D01*
X311658D02*
X312150D01*
X296290Y-132772D02*
X296782D01*
X298122Y-131432D01*
X298158D01*
X300015Y-129576D01*
X305850Y-114150D02*
Y-112772D01*
X302590Y-129228D02*
Y-125410D01*
X329224Y-110725D02*
Y-102794D01*
X328517Y-111432D02*
X329224Y-110725D01*
X328438Y-111432D02*
X328517D01*
X327142Y-112728D02*
X328438Y-111432D01*
X329667Y-132728D02*
X330159D01*
X328371Y-131432D02*
X329667Y-132728D01*
X328292Y-131432D02*
X328371D01*
X327585Y-130725D02*
X328292Y-131432D01*
X323368Y-132772D02*
X323860D01*
X322029Y-131432D02*
X323368Y-132772D01*
X321992Y-131432D02*
X322029D01*
X321285Y-130725D02*
X321992Y-131432D01*
X321285Y-130725D02*
Y-113354D01*
X320703Y-112772D02*
X321285Y-113354D01*
X320350Y-112772D02*
X320703D01*
X330159Y-129228D02*
Y-115841D01*
X331500Y-114500D01*
X350938Y-132772D02*
X351430D01*
X349599Y-131432D02*
X350938Y-132772D01*
X349563Y-131432D02*
X349599D01*
X337925Y-119795D02*
X349563Y-131432D01*
X337925Y-119795D02*
Y-113354D01*
X337343Y-112772D02*
X337925Y-113354D01*
X343642Y-112728D02*
X344938Y-111432D01*
X357237Y-132728D02*
X357729D01*
X355941Y-131432D02*
X357237Y-132728D01*
X355862Y-131432D02*
X355941D01*
X354005Y-129576D02*
X355862Y-131432D01*
X354005Y-129576D02*
Y-123092D01*
X343642Y-112728D02*
X354005Y-123092D01*
X357729Y-129228D02*
Y-122229D01*
X348000Y-112500D02*
X357729Y-122229D01*
X374342Y-132772D02*
X379000D01*
X354343Y-112772D02*
X374342Y-132772D01*
X353850Y-112772D02*
X354343D01*
X384807Y-132728D02*
X385299D01*
X383511Y-131432D02*
X384807Y-132728D01*
X383432Y-131432D02*
X383511D01*
X381575Y-129576D02*
X383432Y-131432D01*
X381575Y-129576D02*
Y-127732D01*
X364343Y-110500D02*
X381575Y-127732D01*
X363000Y-110500D02*
X364343D01*
X363000Y-111914D02*
Y-110500D01*
X384807Y-129228D02*
X385299D01*
X384224Y-128646D02*
X384807Y-129228D01*
X384224Y-128646D02*
Y-125724D01*
X362000Y-103500D02*
X384224Y-125724D01*
X332051Y-81858D02*
X337237D01*
X363000Y-110500D02*
Y-107621D01*
X337237Y-81858D02*
X363000Y-107621D01*
X382216Y-91626D02*
Y-88216D01*
Y-91626D02*
X383432Y-92842D01*
X378508Y-129228D02*
X379000D01*
X375040Y-125761D02*
X378508Y-129228D01*
X373761Y-125761D02*
X375040D01*
X373500Y-125500D02*
X373761Y-125761D01*
X350938Y-129228D02*
X351430D01*
X348500Y-126790D02*
X350938Y-129228D01*
X348500Y-126790D02*
Y-123500D01*
X327142Y-112728D02*
X327585Y-113171D01*
Y-130725D02*
Y-113171D01*
X323860Y-129228D02*
X323917D01*
X324500Y-128646D01*
Y-123500D01*
X296290Y-129228D02*
X296417D01*
X297000Y-128646D01*
X270850Y-109228D02*
X270917D01*
X271500Y-108646D01*
Y-104000D01*
X270358Y-56895D02*
X270850D01*
X269776Y-56312D02*
X270358Y-56895D01*
X269776Y-56312D02*
Y-53776D01*
X267500Y-51500D02*
X269776Y-53776D01*
X265563Y-31228D02*
X270850D01*
X263835Y-29500D02*
X265563Y-31228D01*
X263500Y-29500D02*
X263835D01*
X285500Y-27000D02*
X287396Y-28896D01*
Y-30834D02*
X287790Y-31228D01*
X287396Y-30834D02*
Y-28896D01*
X304730Y-31228D02*
Y-28230D01*
X302500Y-26000D02*
X304730Y-28230D01*
X321670Y-31228D02*
X322163D01*
X322745Y-30646D01*
Y-30154D01*
X325239Y-27659D01*
Y-25761D01*
X325500Y-25500D01*
X349957Y-15043D02*
X353130D01*
X333750Y-44250D02*
Y-31250D01*
X349957Y-15043D01*
X338610Y-31228D02*
X339103D01*
X341739Y-28592D01*
Y-26761D01*
X342000Y-26500D01*
X353850Y-31228D02*
X354343D01*
X359819Y-25752D01*
X362248D01*
X362500Y-25500D01*
X347500Y-61105D02*
Y-56000D01*
X363000Y-50500D02*
X368091Y-55591D01*
X353000Y-50500D02*
X363000D01*
X347500Y-56000D02*
X353000Y-50500D01*
X356921Y-80658D02*
X357579Y-80000D01*
X353850Y-57562D02*
X354343D01*
X356739Y-55165D01*
Y-53261D01*
X357000Y-53000D01*
X346500Y-81500D02*
X349181D01*
X353550Y-83095D02*
X353850Y-83395D01*
X350776Y-83095D02*
X353550D01*
X349181Y-81500D02*
X350776Y-83095D01*
X333232Y-85795D02*
X348000Y-100563D01*
Y-107450D02*
Y-100563D01*
Y-107450D02*
X351861Y-111311D01*
X351000Y-105000D02*
X352896Y-106896D01*
X353479Y-109228D02*
X353850D01*
X352896Y-108646D02*
X353479Y-109228D01*
X352896Y-108646D02*
Y-106896D01*
X336358Y-109228D02*
X336850D01*
X332761Y-105631D02*
X336358Y-109228D01*
X332761Y-105631D02*
Y-105261D01*
X332500Y-105000D02*
X332761Y-105261D01*
X320350Y-109228D02*
X320500Y-109079D01*
Y-104500D01*
X309000Y-102438D02*
X313547Y-97891D01*
X311579Y-97337D02*
Y-88551D01*
X305850Y-109228D02*
X305917D01*
X306500Y-108646D01*
X285728Y-112772D02*
X289500D01*
X272000Y-126500D02*
X285728Y-112772D01*
X309000Y-110151D02*
Y-102438D01*
X307718Y-111432D02*
X309000Y-110151D01*
X277642Y-112728D02*
X279059Y-111311D01*
X305583Y-91417D02*
Y-88642D01*
X302590Y-125410D02*
X308000Y-120000D01*
X297000Y-128646D02*
Y-122500D01*
X300015Y-119985D02*
X305850Y-114150D01*
X300015Y-129576D02*
Y-119985D01*
X294724Y-113311D02*
X295307Y-112728D01*
X294724Y-113595D02*
Y-113311D01*
X276887Y-131432D02*
X294724Y-113595D01*
X291489Y-111311D02*
X292500Y-110300D01*
X291453Y-111311D02*
X291489D01*
X289992Y-112772D02*
X291453Y-111311D01*
X276658Y-112728D02*
X277150D01*
X294205Y-85795D02*
X300949D01*
X274000Y-110151D02*
Y-106000D01*
X277150Y-112728D02*
X277642D01*
X279059Y-111311D02*
X279689D01*
X274000Y-106000D02*
X294205Y-85795D01*
X281370Y-105500D02*
X288870Y-98000D01*
X279689Y-111311D02*
X291275Y-99725D01*
X313224Y-108646D02*
Y-104500D01*
X306500Y-108646D02*
Y-105500D01*
X295437Y-98000D02*
X303705Y-89732D01*
X288870Y-98000D02*
X295437D01*
X297275Y-99725D02*
X305583Y-91417D01*
X291275Y-99725D02*
X297275D01*
X296874Y-107626D02*
X300750Y-103750D01*
X296874Y-108646D02*
Y-107626D01*
X292500Y-110300D02*
Y-108456D01*
X307642Y-93314D02*
Y-88551D01*
X292500Y-108456D02*
X307642Y-93314D01*
X304319Y-104780D02*
Y-104597D01*
X311579Y-97337D01*
X289500Y-109228D02*
X289992D01*
X290575Y-108646D01*
Y-108154D01*
X292739Y-105989D01*
Y-104261D01*
X293000Y-104000D01*
X296291Y-112728D02*
X297709Y-111311D01*
X297788D01*
X304319Y-104780D01*
X295307Y-112728D02*
X296291D01*
X352953Y-70047D02*
X360150Y-62850D01*
X332051Y-70047D02*
X352953D01*
X354263Y-78000D02*
X356921Y-80658D01*
X332130Y-78000D02*
X354263D01*
X332051Y-77921D02*
X332130Y-78000D01*
X300953Y-70047D02*
X301000Y-70000D01*
X273223Y-80863D02*
X273425Y-81065D01*
X273223Y-80863D02*
Y-80863D01*
X274196Y-79890D01*
X300949D01*
X259000Y-70500D02*
X259369D01*
X259821Y-70047D01*
X294812Y-77921D02*
X300949D01*
X294552Y-78181D02*
X294812Y-77921D01*
X244050Y-78181D02*
X294552D01*
X243369Y-77500D02*
X244050Y-78181D01*
X243000Y-77500D02*
X243369D01*
X213953Y-32000D02*
X224000D01*
X212453Y-33500D02*
X213953Y-32000D01*
X208000Y-33500D02*
X212453D01*
X207500D02*
X208000D01*
X257105Y-90895D02*
X259000Y-89000D01*
X249150Y-90895D02*
X257105D01*
X286649Y-87000D02*
X289822Y-83827D01*
X278088Y-87000D02*
X286649D01*
X259000Y-89000D02*
X281500D01*
X282500Y-90000D01*
Y-90500D02*
Y-90000D01*
X281858Y-81858D02*
X284000Y-84000D01*
X285000D01*
X277500Y-86000D02*
X278021Y-85479D01*
X279653D01*
X280631Y-84500D01*
X281000D01*
X277150Y-86062D02*
X278088Y-87000D01*
X291500Y-36211D02*
X309520Y-54230D01*
X302121Y-49000D02*
X307083Y-53961D01*
X307264Y-57264D02*
Y-55263D01*
X307083Y-55082D02*
X307264Y-55263D01*
X307083Y-55082D02*
Y-53961D01*
X277150Y-31228D02*
X277561Y-31640D01*
X280224D01*
X285500Y-36915D01*
Y-39000D02*
Y-36915D01*
Y-39000D02*
X294500Y-48000D01*
X274925Y-29496D02*
X276658Y-31228D01*
X274925Y-29496D02*
Y-29110D01*
X257315Y-11500D02*
X274925Y-29110D01*
X276929Y-35000D02*
X277000D01*
X275161Y-33311D02*
X275240D01*
X273425Y-31576D02*
X275161Y-33311D01*
X273425Y-31576D02*
Y-29732D01*
X258444Y-14750D02*
X273425Y-29732D01*
X249150Y-11500D02*
X257315D01*
X277150Y-34728D02*
X293921Y-51500D01*
X249400Y-14750D02*
X258444D01*
X275240Y-33311D02*
X276929Y-35000D01*
X242850Y-11500D02*
X243342D01*
X245425Y-9417D01*
X267846D01*
X295415D02*
X297498Y-11500D01*
X268464Y-10036D02*
X269083Y-9417D01*
X297498Y-11500D02*
X297990D01*
X268464Y-10036D02*
X269928Y-11500D01*
X267846Y-9417D02*
X268464Y-10036D01*
X322985Y-9417D02*
X325068Y-11500D01*
X325560D01*
X269083Y-9417D02*
X295415D01*
X352138Y-11000D02*
X353000D01*
X350555Y-9417D02*
X352138Y-11000D01*
X295415Y-9417D02*
X322985D01*
X364255D02*
X366173Y-7500D01*
X389000D01*
X390000Y-8500D01*
X385500Y-15000D02*
X385835D01*
X387252Y-13583D01*
X387288D01*
X350555Y-9417D02*
X364255D01*
X322985D02*
X350555D01*
X381760Y-49000D02*
X384807Y-52047D01*
X366000Y-49000D02*
X381760D01*
X372261Y-51761D02*
X378261D01*
X372000Y-51500D02*
X372261Y-51761D01*
X387288Y-13583D02*
X389685Y-11186D01*
X269795Y-128646D02*
Y-124205D01*
X270000Y-124000D01*
X259728Y-112772D02*
X270850D01*
X245500Y-127000D02*
X259728Y-112772D01*
X245500Y-130650D02*
Y-127000D01*
X242500Y-129000D02*
Y-125869D01*
X243500Y-124869D02*
Y-124500D01*
X242500Y-125869D02*
X243500Y-124869D01*
X244718Y-93099D02*
X246575Y-91242D01*
X244682Y-93099D02*
X244718D01*
X243342Y-94438D02*
X244682Y-93099D01*
X243500Y-124500D02*
Y-101000D01*
X237914Y-95414D02*
X243500Y-101000D01*
X240898Y-92356D02*
X242253Y-91000D01*
X240144Y-92356D02*
X240898D01*
X237914Y-94586D02*
X240144Y-92356D01*
X237914Y-95414D02*
Y-94586D01*
X248657Y-56105D02*
X249150D01*
X243762Y-61000D02*
X248657Y-56105D01*
X208500Y-64000D02*
X212579Y-68079D01*
X208000Y-53500D02*
X219181Y-64681D01*
X238500Y-61000D02*
X243762D01*
X256819Y-64681D02*
X257000Y-64500D01*
X219181Y-64681D02*
X256819D01*
X237500Y-62000D02*
X238500Y-61000D01*
X240000Y-86000D02*
X243000Y-89000D01*
X390000Y-34000D02*
Y-8500D01*
X378500Y-45500D02*
X390000Y-34000D01*
X346438Y-86938D02*
X353850D01*
X339299Y-79799D02*
X346438Y-86938D01*
X332142Y-79799D02*
X339299D01*
X246575Y-50425D02*
X248500Y-48500D01*
X268263D02*
X276658Y-56895D01*
X248500Y-48500D02*
X268263D01*
X122738Y-88000D02*
X142500D01*
X114342Y-79605D02*
X122738Y-88000D01*
X142500D02*
X144425Y-86075D01*
X51701Y-56701D02*
X58858D01*
X44562Y-49562D02*
X51701Y-56701D01*
X37150Y-49562D02*
X44562D01*
X122059Y-7000D02*
X122500D01*
X148150Y-45500D02*
X148747D01*
X121205Y-7854D02*
X122059Y-7000D01*
X148000Y-47500D02*
Y-45000D01*
X12000Y-84000D02*
X12739Y-84739D01*
X1000Y-102500D02*
X12500Y-91000D01*
X1000Y-128000D02*
Y-102500D01*
X148000Y-47500D02*
X151000Y-50500D01*
X152500Y-75500D02*
X153500Y-74500D01*
X120642Y-53938D02*
X122203Y-55500D01*
X120150Y-53938D02*
X120642D01*
X134181Y-71819D02*
X171819D01*
X134000Y-72000D02*
X134181Y-71819D01*
X147238Y-75500D02*
X152500D01*
X171819Y-71819D02*
X183000Y-83000D01*
X90051Y-68421D02*
X178421D01*
X182500Y-72500D01*
X114261Y-63739D02*
X182261D01*
X109234Y-61181D02*
X157319D01*
X157500Y-61000D01*
X142342Y-80395D02*
X147238Y-75500D01*
X141850Y-80395D02*
X142342D01*
X114000Y-64000D02*
X114261Y-63739D01*
X182261D02*
X183000Y-63000D01*
X159000Y-75500D02*
X165500D01*
X183000Y-93000D01*
X153086Y-41914D02*
Y-41086D01*
X150856Y-44144D02*
X153086Y-41914D01*
X150102Y-44144D02*
X150856D01*
X148747Y-45500D02*
X150102Y-44144D01*
X147500Y-35500D02*
X153086Y-41086D01*
X146318Y-43401D02*
X147658Y-42062D01*
X146282Y-43401D02*
X146318D01*
X144425Y-45258D02*
X146282Y-43401D01*
X147500Y-11631D02*
X148500Y-10631D01*
X147500Y-12000D02*
Y-11631D01*
X148500Y-10631D02*
Y-7500D01*
X145500Y-9500D02*
Y-5850D01*
X131272Y-23728D02*
X145500Y-9500D01*
X120150Y-23728D02*
X131272D01*
X121000Y-12500D02*
X121205Y-12295D01*
Y-7854D01*
X1315Y-125315D02*
X3712Y-122917D01*
X18739Y-84739D02*
X19000Y-85000D01*
X12739Y-84739D02*
X18739D01*
X9240Y-87500D02*
X25000D01*
X6193Y-84453D02*
X9240Y-87500D01*
X40445Y-127083D02*
X68015D01*
X26744D02*
X40445D01*
X3712Y-122917D02*
X3748D01*
X5165Y-121500D01*
X5500D01*
X1000Y-128000D02*
X2000Y-129000D01*
X24827D01*
X26744Y-127083D01*
X68015D02*
X95585D01*
X38862Y-125500D02*
X40445Y-127083D01*
X38000Y-125500D02*
X38862D01*
X95585Y-127083D02*
X121917D01*
X65440Y-125000D02*
X65932D01*
X68015Y-127083D01*
X122536Y-126464D02*
X123154Y-127083D01*
X121072Y-125000D02*
X122536Y-126464D01*
X93010Y-125000D02*
X93502D01*
X121917Y-127083D02*
X122536Y-126464D01*
X93502Y-125000D02*
X95585Y-127083D01*
X120500Y-125000D02*
X121072D01*
X123154Y-127083D02*
X145575D01*
X147658Y-125000D01*
X148150D01*
X114071Y-101500D02*
X115760Y-103189D01*
X132556Y-121750D02*
X141600D01*
X97079Y-85000D02*
X113850Y-101772D01*
X133685Y-125000D02*
X141850D01*
X117575Y-106769D02*
X132556Y-121750D01*
X117575Y-106769D02*
Y-104924D01*
X115839Y-103189D02*
X117575Y-104924D01*
X115760Y-103189D02*
X115839D01*
X114000Y-101500D02*
X114071D01*
X116075Y-107390D02*
X133685Y-125000D01*
X116075Y-107390D02*
Y-107004D01*
X114342Y-105272D02*
X116075Y-107004D01*
X87500Y-80914D02*
Y-78500D01*
Y-80914D02*
X88086Y-81500D01*
X94500D01*
X96500Y-88500D02*
X105500Y-97500D01*
Y-99585D02*
Y-97500D01*
Y-99585D02*
X110776Y-104860D01*
X113439D01*
X113850Y-105272D01*
X83917Y-82539D02*
Y-81418D01*
X83736Y-81237D02*
X83917Y-81418D01*
X83736Y-81237D02*
Y-79236D01*
X83917Y-82539D02*
X88879Y-87500D01*
X81480Y-82270D02*
X99500Y-100289D01*
X112912Y-49500D02*
X113850Y-50438D01*
X110000Y-52000D02*
X110369D01*
X111347Y-51021D01*
X112979D01*
X113500Y-50500D01*
X106000Y-52500D02*
X107000D01*
X109142Y-54642D01*
X112086Y-43586D02*
X112914D01*
X112000Y-43500D02*
X112086Y-43586D01*
X112914D02*
X114395Y-42105D01*
X141850D01*
X108500Y-46500D02*
Y-46000D01*
Y-46500D02*
X109500Y-47500D01*
X132000D01*
X104351Y-49500D02*
X112912D01*
X101178Y-52673D02*
X104351Y-49500D01*
X133895Y-45605D02*
X141850D01*
X132000Y-47500D02*
X133895Y-45605D01*
X183000Y-103000D02*
X183500D01*
X178547D02*
X183000D01*
X177047Y-104500D02*
X178547Y-103000D01*
X167000Y-104500D02*
X177047D01*
X107734Y-62681D02*
X109234Y-61181D01*
X99566Y-62681D02*
X107734D01*
X99401Y-62516D02*
X99566Y-62681D01*
X100476Y-60524D02*
X100500Y-60500D01*
X90075Y-60524D02*
X100476D01*
X90051Y-60547D02*
X90075Y-60524D01*
X96448Y-58319D02*
X146950D01*
X96188Y-58579D02*
X96448Y-58319D01*
X90051Y-58579D02*
X96188D01*
X90000Y-62500D02*
X90016Y-62516D01*
X90051Y-66453D02*
X131179D01*
X131631Y-66000D01*
X132000D01*
X90051Y-56610D02*
X116804D01*
X117777Y-55637D01*
Y-55637D01*
X117575Y-55435D02*
X117777Y-55637D01*
X90047Y-66453D02*
X90051D01*
X90000Y-66500D02*
X90047Y-66453D01*
X45500Y-63500D02*
X45869D01*
X47550Y-61819D01*
X50403D01*
X51100Y-62516D01*
X58949D01*
X58870Y-58500D02*
X58949Y-58579D01*
X36737Y-58500D02*
X58870D01*
X34079Y-55842D02*
X36737Y-58500D01*
X29319Y-60319D02*
X51025D01*
X26000Y-57000D02*
X29319Y-60319D01*
X51253Y-60547D02*
X58949D01*
X51025Y-60319D02*
X51253Y-60547D01*
X182531Y-53469D02*
X183000Y-53000D01*
X120150Y-53938D02*
X120619Y-53469D01*
X74500Y-63500D02*
X75484Y-64484D01*
X73516D02*
X74500Y-63500D01*
X38047Y-66453D02*
X58949D01*
X30850Y-73650D02*
X38047Y-66453D01*
X49500Y-64000D02*
X49869D01*
X50353Y-64484D01*
X94709Y-23772D02*
X95693D01*
X86681Y-31720D02*
X93212Y-25189D01*
X93291D01*
X94709Y-23772D01*
X98000Y-32500D02*
X98261Y-32239D01*
Y-30511D01*
X100425Y-28346D01*
Y-27854D01*
X101008Y-27272D01*
X101500D01*
X79421Y-39163D02*
X86681Y-31903D01*
Y-31720D01*
X83358Y-43186D02*
X98500Y-28044D01*
X83358Y-47949D02*
Y-43186D01*
X98500Y-28044D02*
Y-26200D01*
X94126Y-28874D02*
Y-27854D01*
X81390Y-41610D02*
X94126Y-28874D01*
X93725Y-36775D02*
X99725D01*
X85417Y-45083D02*
X93725Y-36775D01*
X95563Y-38500D02*
X102130D01*
X87295Y-46768D02*
X95563Y-38500D01*
X84500Y-31000D02*
Y-27854D01*
X77776Y-36165D02*
Y-27854D01*
X99725Y-36775D02*
X111311Y-25189D01*
X102130Y-38500D02*
X109630Y-31000D01*
X96795Y-50705D02*
X117000Y-30500D01*
X111311Y-25189D02*
X111941D01*
X113358Y-23772D02*
X113850D01*
X117000Y-30500D02*
Y-26349D01*
X90051Y-50705D02*
X96795D01*
X113850Y-23772D02*
X114342D01*
X99547Y-25189D02*
X101008Y-23728D01*
X99511Y-25189D02*
X99547D01*
X98500Y-26200D02*
X99511Y-25189D01*
X96276Y-22905D02*
X114113Y-5068D01*
X96276Y-23189D02*
Y-22905D01*
X95693Y-23772D02*
X96276Y-23189D01*
X90985Y-16515D02*
Y-6924D01*
X85150Y-22350D02*
X90985Y-16515D01*
X94000Y-14000D02*
Y-7854D01*
X83000Y-16500D02*
X88411Y-11090D01*
X85417Y-47858D02*
Y-45083D01*
X111941Y-25189D02*
X113358Y-23772D01*
X82000Y-26349D02*
X83282Y-25068D01*
X82000Y-34062D02*
Y-26349D01*
X105272Y-23728D02*
X119000Y-10000D01*
X101500Y-23728D02*
X105272D01*
X84500Y-27854D02*
X85083Y-27272D01*
X85150D01*
X79421Y-47949D02*
Y-39163D01*
X77453Y-38609D02*
X82000Y-34062D01*
X70500Y-32000D02*
Y-27421D01*
X70650Y-27272D01*
X58239Y-31239D02*
X58500Y-31500D01*
X58239Y-31239D02*
Y-30869D01*
X54642Y-27272D02*
X58239Y-30869D01*
X54150Y-27272D02*
X54642D01*
X38104Y-29604D02*
Y-27854D01*
X37521Y-27272D02*
X38104Y-27854D01*
X37150Y-27272D02*
X37521D01*
X38104Y-29604D02*
X40000Y-31500D01*
X39139Y-25189D02*
X43000Y-29050D01*
Y-35937D02*
Y-29050D01*
Y-35937D02*
X57768Y-50705D01*
X40224Y-53405D02*
X41819Y-55000D01*
X37450Y-53405D02*
X40224D01*
X37150Y-53105D02*
X37450Y-53405D01*
X41819Y-55000D02*
X44500D01*
X34000Y-83500D02*
X34261Y-83239D01*
Y-81335D01*
X36658Y-78938D01*
X37150D01*
X33421Y-56500D02*
X34079Y-55842D01*
X38000Y-86000D02*
X43500Y-80500D01*
X28000Y-86000D02*
X38000D01*
X22909Y-80909D02*
X28000Y-86000D01*
X43500Y-80500D02*
Y-75395D01*
X28500Y-111000D02*
X28752Y-110748D01*
X31181D01*
X36658Y-105272D01*
X37150D01*
X49000Y-110000D02*
X49261Y-109739D01*
Y-107908D01*
X51898Y-105272D01*
X52390D01*
X41043Y-121457D02*
X57250Y-105250D01*
Y-92250D01*
X37870Y-121457D02*
X41043D01*
X65500Y-111000D02*
X65761Y-110739D01*
Y-108841D01*
X68255Y-106346D01*
Y-105854D01*
X68837Y-105272D01*
X69330D01*
X86270Y-108270D02*
X88500Y-110500D01*
X86270Y-108270D02*
Y-105272D01*
X103604Y-107604D02*
Y-105666D01*
X103210Y-105272D02*
X103604Y-105666D01*
Y-107604D02*
X105500Y-109500D01*
X127165Y-107000D02*
X127500D01*
X125437Y-105272D02*
X127165Y-107000D01*
X120150Y-105272D02*
X125437D01*
X121224Y-82724D02*
X123500Y-85000D01*
X121224Y-82724D02*
Y-80188D01*
X120642Y-79605D02*
X121224Y-80188D01*
X120150Y-79605D02*
X120642D01*
X119500Y-32500D02*
Y-27854D01*
X120083Y-27272D01*
X120150D01*
X94000Y-7854D02*
X94583Y-7272D01*
X94710D01*
X66500Y-13000D02*
Y-7854D01*
X67083Y-7272D01*
X67140D01*
X63415Y-23329D02*
Y-5775D01*
Y-23329D02*
X63858Y-23772D01*
X42500Y-13000D02*
Y-9710D01*
X40062Y-7272D02*
X42500Y-9710D01*
X39570Y-7272D02*
X40062D01*
X17239Y-10739D02*
X17500Y-11000D01*
X15960Y-10739D02*
X17239D01*
X12492Y-7272D02*
X15960Y-10739D01*
X12000Y-7272D02*
X12492D01*
X12000Y-45862D02*
X12138Y-46000D01*
X18000D01*
X7569Y-43658D02*
X8784Y-44874D01*
Y-48284D02*
Y-44874D01*
X28000Y-28879D02*
X53763Y-54642D01*
X28000Y-28879D02*
Y-26000D01*
X53763Y-54642D02*
X58949D01*
X6776Y-10776D02*
X29000Y-33000D01*
X6776Y-10776D02*
Y-7854D01*
X6193Y-7272D02*
X6776Y-7854D01*
X5701Y-7272D02*
X6193D01*
X28000Y-26000D02*
Y-24586D01*
X26657Y-26000D02*
X28000D01*
X9425Y-8768D02*
X26657Y-26000D01*
X9425Y-8768D02*
Y-6924D01*
X7569Y-5068D02*
X9425Y-6924D01*
X7489Y-5068D02*
X7569D01*
X6193Y-3772D02*
X7489Y-5068D01*
X5701Y-3772D02*
X6193D01*
X36658Y-23728D02*
X37150D01*
X16657Y-3728D02*
X36658Y-23728D01*
X12000Y-3728D02*
X16657D01*
X33271Y-14271D02*
X43000Y-24000D01*
X33271Y-14271D02*
Y-7272D01*
X36995Y-13408D02*
X47358Y-23772D01*
X36995Y-13408D02*
Y-6924D01*
X35138Y-5068D02*
X36995Y-6924D01*
X35059Y-5068D02*
X35138D01*
X33763Y-3772D02*
X35059Y-5068D01*
X33271Y-3772D02*
X33763D01*
X46062Y-25068D02*
X47358Y-23772D01*
X53075Y-23146D02*
X53658Y-23728D01*
X53075Y-23146D02*
Y-16705D01*
X41438Y-5068D02*
X53075Y-16705D01*
X41401Y-5068D02*
X41438D01*
X40062Y-3728D02*
X41401Y-5068D01*
X39570Y-3728D02*
X40062D01*
X59500Y-22000D02*
X60841Y-20659D01*
Y-7272D01*
X70297Y-23728D02*
X70650D01*
X69715Y-23146D02*
X70297Y-23728D01*
X69715Y-23146D02*
Y-5775D01*
X69008Y-5068D02*
X69715Y-5775D01*
X68971Y-5068D02*
X69008D01*
X67632Y-3728D02*
X68971Y-5068D01*
X67140Y-3728D02*
X67632D01*
X62708Y-5068D02*
X63415Y-5775D01*
X62629Y-5068D02*
X62708D01*
X61333Y-3772D02*
X62629Y-5068D01*
X60841Y-3772D02*
X61333D01*
X62562Y-25068D02*
X63858Y-23772D01*
X62483Y-25068D02*
X62562D01*
X61776Y-25775D02*
X62483Y-25068D01*
X61776Y-33706D02*
Y-25775D01*
X88411Y-11090D02*
Y-7272D01*
X85150Y-23728D02*
Y-22350D01*
X90985Y-6924D02*
X92842Y-5068D01*
X92878D01*
X94218Y-3728D01*
X94710D01*
X78850Y-23772D02*
X79343D01*
X78358D02*
X78850D01*
X79343D02*
X79925Y-23189D01*
Y-11685D01*
X86543Y-5068D01*
X86622D01*
X87918Y-3772D01*
X88411D01*
X104000Y-20000D02*
Y-18760D01*
X115488Y-7272D01*
X115981D01*
X119000Y-10000D02*
Y-6480D01*
X120291Y-5189D01*
X120327D01*
X121788Y-3728D01*
X122280D01*
X114113Y-5068D02*
X114192D01*
X115488Y-3772D01*
X115981D01*
X109630Y-31000D02*
X113358Y-27272D01*
X109630Y-31000D02*
X113000D01*
X131500Y-15000D02*
X138776Y-7724D01*
X141398D01*
X141850Y-7272D01*
X145500Y-5850D02*
X146207Y-5142D01*
X146244D01*
X147658Y-3728D01*
X148150D01*
X114342Y-23772D02*
X134343Y-3772D01*
X141850D01*
X109142Y-54642D02*
X112655D01*
X90051D02*
X109142D01*
X120150Y-50395D02*
X141132D01*
X144425Y-47102D01*
Y-45258D01*
X147658Y-42062D02*
X148150D01*
X117575Y-51500D02*
X118680Y-50395D01*
X117575Y-55435D02*
Y-51500D01*
X118680Y-50395D02*
X120150D01*
X51575Y-29238D02*
X65642Y-43305D01*
X51575Y-29238D02*
Y-25775D01*
X65642Y-47949D02*
Y-43305D01*
X51575Y-25775D02*
X52282Y-25068D01*
X81045Y-109950D02*
X89500Y-118404D01*
X81045Y-109950D02*
Y-105854D01*
X89500Y-122782D02*
Y-118404D01*
X108517Y-76105D02*
X109500Y-77088D01*
Y-79326D02*
Y-77088D01*
Y-79326D02*
X120174Y-90000D01*
X113850Y-79605D02*
X114342D01*
X144425Y-86075D02*
Y-83548D01*
X146282Y-81691D01*
X146361D01*
X147658Y-80395D01*
X148150D01*
X120174Y-90000D02*
X144500D01*
X148150Y-86350D01*
Y-83895D01*
X128616Y-84000D02*
X141789D01*
X141850Y-83938D01*
X121261Y-76644D02*
X128616Y-84000D01*
X120732Y-76644D02*
X121261D01*
X120150Y-76062D02*
X120732Y-76644D01*
X108517Y-76105D02*
X113850D01*
X103184D02*
X108517D01*
X127929Y-101728D02*
X147658Y-121457D01*
X148150D01*
X120150Y-101728D02*
X127929D01*
X141600Y-121750D02*
X141850Y-121500D01*
X113850Y-105272D02*
X114342D01*
X109352Y-112500D02*
X117000Y-120148D01*
X102000Y-112500D02*
X109352D01*
X97985Y-108485D02*
X102000Y-112500D01*
X117000Y-122852D02*
Y-120148D01*
X120088Y-121457D02*
X120580D01*
X119505Y-120874D02*
X120088Y-121457D01*
X119505Y-120874D02*
Y-117495D01*
X105077Y-103068D02*
X119505Y-117495D01*
X105041Y-103068D02*
X105077D01*
X103702Y-101728D02*
X105041Y-103068D01*
X103210Y-101728D02*
X103702D01*
X97985Y-108485D02*
Y-105854D01*
X97403Y-105272D02*
X97985Y-105854D01*
X96910Y-105272D02*
X97403D01*
X116148Y-123704D02*
X117000Y-122852D01*
X116068Y-123704D02*
X116148D01*
X114772Y-125000D02*
X116068Y-123704D01*
X114280Y-125000D02*
X114772D01*
X94000Y-109500D02*
X105000Y-120500D01*
X112788D01*
X113788Y-121500D01*
X114280D01*
X94000Y-109500D02*
Y-104110D01*
X95043Y-103068D01*
X95122D01*
X96418Y-101772D01*
X96910D01*
X85195Y-101146D02*
X86360Y-102311D01*
X87381D01*
X91935Y-106865D01*
Y-120874D02*
Y-106865D01*
Y-120874D02*
X92518Y-121457D01*
X93010D01*
X88578Y-123704D02*
X89500Y-122782D01*
X88499Y-123704D02*
X88578D01*
X87203Y-125000D02*
X88499Y-123704D01*
X86711Y-125000D02*
X87203D01*
X80462Y-105272D02*
X81045Y-105854D01*
X79970Y-105272D02*
X80462D01*
X76000Y-102500D02*
X76728Y-101772D01*
X79478D01*
X76000Y-110789D02*
Y-102500D01*
Y-110789D02*
X85636Y-120425D01*
Y-120917D02*
Y-120425D01*
Y-120917D02*
X86219Y-121500D01*
X86711D01*
X73000Y-107500D02*
Y-104870D01*
X71319Y-103189D02*
X73000Y-104870D01*
X71282Y-103189D02*
X71319D01*
X69822Y-101728D02*
X71282Y-103189D01*
X69330Y-101728D02*
X69822D01*
X65440Y-115060D02*
X73000Y-107500D01*
X65440Y-121457D02*
Y-115060D01*
X62583Y-122988D02*
Y-105272D01*
X61153Y-124417D02*
X62583Y-122988D01*
X59723Y-124417D02*
X61153D01*
X59141Y-125000D02*
X59723Y-124417D01*
X62583Y-105272D02*
X63030D01*
X62448Y-102354D02*
X63030Y-101772D01*
X61876Y-102354D02*
X62448D01*
X60215Y-104015D02*
X61876Y-102354D01*
X60215Y-120917D02*
Y-104015D01*
X59633Y-121500D02*
X60215Y-120917D01*
X59141Y-121500D02*
X59633D01*
X46000Y-109255D02*
Y-105362D01*
X35295Y-119960D02*
X46000Y-109255D01*
X43000Y-108000D02*
Y-104290D01*
X32646Y-118354D02*
X43000Y-108000D01*
X32646Y-120917D02*
Y-118354D01*
X46000Y-105362D02*
X46090Y-105272D01*
X35295Y-121847D02*
Y-119960D01*
X33439Y-123704D02*
X35295Y-121847D01*
X33359Y-123704D02*
X33439D01*
X32063Y-125000D02*
X33359Y-123704D01*
X31571Y-125000D02*
X32063D01*
X57250Y-92250D02*
X65642Y-83858D01*
X52390Y-97110D02*
X57250Y-92250D01*
X38728Y-101728D02*
X40500Y-103500D01*
Y-107000D02*
Y-103500D01*
X20000Y-127500D02*
X40500Y-107000D01*
X8693Y-127500D02*
X20000D01*
X43000Y-104290D02*
X44101Y-103189D01*
X44181D01*
X45598Y-101772D01*
X46090D01*
X32063Y-121500D02*
X32646Y-120917D01*
X31571Y-121500D02*
X32063D01*
X37642Y-101728D02*
X38728D01*
X37150D02*
X37642D01*
X6193Y-125000D02*
X8693Y-127500D01*
X5701Y-125000D02*
X6193D01*
X8500Y-113500D02*
X20228Y-101772D01*
X30850D01*
X8500Y-122028D02*
Y-113500D01*
Y-122028D02*
X10132Y-123661D01*
X10212D01*
X11508Y-124957D01*
X12000D01*
X30268Y-105854D02*
X30850Y-105272D01*
X28095Y-105854D02*
X30268D01*
X12492Y-121457D02*
X28095Y-105854D01*
X12000Y-121457D02*
X12492D01*
X26000Y-79000D02*
X26031Y-78969D01*
X30820D01*
X30850Y-78938D01*
X12000Y-80909D02*
X22909D01*
X5701Y-84453D02*
X6193D01*
X11707Y-75438D02*
X30850D01*
X6193Y-80953D02*
X11707Y-75438D01*
X5701Y-80953D02*
X6193D01*
X43500Y-75395D02*
X45202D01*
X37150D02*
X43500D01*
X31343Y-53105D02*
X34079Y-55842D01*
X29000Y-56500D02*
X33421D01*
X5701Y-48701D02*
X9500Y-52500D01*
X5701Y-48701D02*
Y-45862D01*
X24000Y-49500D02*
X26000Y-51500D01*
X10000Y-49500D02*
X24000D01*
X8784Y-48284D02*
X10000Y-49500D01*
X7489Y-43658D02*
X7569D01*
X6193Y-42362D02*
X7489Y-43658D01*
X5701Y-42362D02*
X6193D01*
X29415Y-42319D02*
X36658Y-49562D01*
X37150D01*
X12000Y-42319D02*
X29415D01*
X26000Y-57000D02*
Y-51500D01*
X27776Y-49724D01*
X30731D01*
X30850Y-49605D01*
Y-53105D02*
X31343D01*
X58858Y-56701D02*
X58949Y-56610D01*
X34000Y-74473D02*
X40052Y-68421D01*
X34000Y-76360D02*
Y-74473D01*
X32839Y-77521D02*
X34000Y-76360D01*
X32760Y-77521D02*
X32839D01*
X31343Y-78938D02*
X32760Y-77521D01*
X30850Y-78938D02*
X31343D01*
X40052Y-68421D02*
X58949D01*
X30850Y-75438D02*
Y-73650D01*
X50207Y-70390D02*
X58949D01*
X45202Y-75395D02*
X50207Y-70390D01*
X54551Y-72449D02*
X58858D01*
X31925Y-95075D02*
X54551Y-72449D01*
X31925Y-101189D02*
Y-95075D01*
X56705Y-76295D02*
X58949D01*
X38224Y-94776D02*
X56705Y-76295D01*
X38224Y-101146D02*
Y-94776D01*
X56083Y-74417D02*
X58858D01*
X34575Y-95925D02*
X56083Y-74417D01*
X34575Y-102119D02*
Y-95925D01*
X58858Y-74417D02*
X58949Y-74327D01*
X32718Y-103976D02*
X34575Y-102119D01*
X32638Y-103976D02*
X32718D01*
X31343Y-105272D02*
X32638Y-103976D01*
X30850Y-105272D02*
X31343D01*
X37642Y-101728D02*
X38224Y-101146D01*
X30850Y-101772D02*
X31343D01*
X31925Y-101189D01*
X58858Y-72449D02*
X58949Y-72358D01*
X49479Y-96521D02*
X63673Y-82327D01*
Y-79051D01*
X49479Y-102455D02*
Y-96521D01*
X47958Y-103976D02*
X49479Y-102455D01*
X47879Y-103976D02*
X47958D01*
X46582Y-105272D02*
X47879Y-103976D01*
X46090Y-105272D02*
X46582D01*
X46090Y-101772D02*
Y-95847D01*
X61705Y-80232D01*
Y-79051D01*
X65642Y-83858D02*
Y-79051D01*
X52390Y-101728D02*
Y-97110D01*
X66500Y-102374D02*
Y-92190D01*
X69579Y-89111D01*
Y-79051D01*
X64898Y-103976D02*
X66500Y-102374D01*
X64819Y-103976D02*
X64898D01*
X63522Y-105272D02*
X64819Y-103976D01*
X63030Y-105272D02*
X63522D01*
X67610Y-88958D02*
Y-79051D01*
X64105Y-92463D02*
X67610Y-88958D01*
X64105Y-101189D02*
Y-92463D01*
X63522Y-101772D02*
X64105Y-101189D01*
X63030Y-101772D02*
X63522D01*
X71547Y-90118D02*
Y-79051D01*
X70404Y-91260D02*
X71547Y-90118D01*
X70404Y-101146D02*
Y-91260D01*
X69822Y-101728D02*
X70404Y-101146D01*
X75500Y-89500D02*
Y-79067D01*
X75484Y-79051D02*
X75500Y-79067D01*
Y-89500D02*
X82743Y-96743D01*
Y-103071D02*
Y-96743D01*
X81838Y-103976D02*
X82743Y-103071D01*
X81758Y-103976D02*
X81838D01*
X80462Y-105272D02*
X81758Y-103976D01*
X78896Y-101189D02*
Y-96396D01*
X73516Y-91016D02*
X78896Y-96396D01*
X73516Y-91016D02*
Y-79051D01*
X78896Y-101189D02*
X79478Y-101772D01*
X85195Y-101146D02*
Y-95695D01*
X77453Y-87953D02*
X85195Y-95695D01*
X77453Y-87953D02*
Y-79051D01*
X99500Y-103254D02*
Y-100289D01*
X81480Y-82270D02*
Y-79142D01*
X92000Y-87500D02*
X103210Y-98710D01*
X88879Y-87500D02*
X92000D01*
X83642Y-79142D02*
X83736Y-79236D01*
X83449Y-79142D02*
X83642D01*
X81390Y-79051D02*
X81480Y-79142D01*
X94189Y-101189D02*
X95836D01*
X79421Y-86421D02*
X94189Y-101189D01*
X79421Y-86421D02*
Y-79051D01*
X98778Y-103976D02*
X99500Y-103254D01*
X98699Y-103976D02*
X98778D01*
X97403Y-105272D02*
X98699Y-103976D01*
X95836Y-101189D02*
X96418Y-101772D01*
X103210Y-101728D02*
Y-98710D01*
X83358Y-79051D02*
X83449Y-79142D01*
X88500Y-85000D02*
X97079D01*
X85417Y-81917D02*
X88500Y-85000D01*
X117925Y-99504D02*
X120150Y-101728D01*
X117925Y-99504D02*
Y-96425D01*
X97795Y-76295D02*
X117925Y-96425D01*
X90051Y-76295D02*
X97795D01*
X85417Y-81917D02*
Y-79142D01*
X85327Y-79051D02*
X85417Y-79142D01*
X114858Y-72358D02*
X117000Y-74500D01*
Y-77027D02*
Y-74500D01*
X90051Y-72358D02*
X114858D01*
X115390Y-70390D02*
X120150Y-75150D01*
X90051Y-70390D02*
X115390D01*
X120150Y-76062D02*
Y-75150D01*
X115718Y-78309D02*
X117000Y-77027D01*
X115638Y-78309D02*
X115718D01*
X114342Y-79605D02*
X115638Y-78309D01*
X90051Y-74327D02*
X101406D01*
X103184Y-76105D01*
X113358Y-53938D02*
X113850D01*
X112655Y-54642D02*
X113358Y-53938D01*
X90051Y-52673D02*
X101178D01*
X117000Y-26349D02*
X118161Y-25189D01*
X118197D01*
X119658Y-23728D01*
X120150D01*
X81390Y-47949D02*
Y-41610D01*
X87295Y-47949D02*
Y-46768D01*
X113358Y-27272D02*
X113850D01*
X85327Y-47949D02*
X85417Y-47858D01*
X101008Y-23728D02*
X101500D01*
X94126Y-27854D02*
X94709Y-27272D01*
X95201D01*
X77453Y-47949D02*
Y-38609D01*
X83282Y-25068D02*
X83318D01*
X84658Y-23728D01*
X85150D01*
X73516Y-47949D02*
Y-37651D01*
X75500Y-35667D01*
Y-26550D01*
X76983Y-25068D01*
X77062D01*
X78358Y-23772D01*
X75484Y-38457D02*
X77776Y-36165D01*
X78358Y-27272D02*
X78850D01*
X75484Y-47949D02*
Y-38457D01*
X77776Y-27854D02*
X78358Y-27272D01*
X72517Y-25068D02*
X74000Y-26550D01*
Y-34657D02*
Y-26550D01*
X71547Y-37110D02*
X74000Y-34657D01*
X69579Y-47949D02*
Y-37579D01*
X65425Y-33425D02*
X69579Y-37579D01*
X65425Y-33425D02*
Y-27854D01*
X67610Y-47949D02*
Y-39540D01*
X61776Y-33706D02*
X67610Y-39540D01*
X71547Y-47949D02*
Y-37110D01*
X72481Y-25068D02*
X72517D01*
X71142Y-23728D02*
X72481Y-25068D01*
X70650Y-23728D02*
X71142D01*
X64842Y-27272D02*
X65425Y-27854D01*
X64350Y-27272D02*
X64842D01*
X52282Y-25068D02*
X52318D01*
X53658Y-23728D01*
X45000Y-30063D02*
Y-26050D01*
Y-30063D02*
X61705Y-46768D01*
Y-47949D02*
Y-46768D01*
X45000Y-26050D02*
X45983Y-25068D01*
X46062D01*
X63665Y-47941D02*
X63673Y-47949D01*
X63665Y-47941D02*
Y-44677D01*
X48925Y-29937D02*
X63665Y-44677D01*
X48925Y-29937D02*
Y-27854D01*
X48342Y-27272D02*
X48925Y-27854D01*
X47850Y-27272D02*
X48342D01*
X39102Y-25189D02*
X39139D01*
X37642Y-23728D02*
X39102Y-25189D01*
X37150Y-23728D02*
X37642D01*
X57768Y-50705D02*
X58949D01*
X28000Y-24586D02*
X28586Y-24000D01*
X30622D01*
X31343Y-27272D02*
X56654Y-52583D01*
X30622Y-24000D02*
X30850Y-23772D01*
X56654Y-52583D02*
X58858D01*
X58949Y-52673D01*
X30850Y-27272D02*
X31343D01*
D27*
X104301Y-197301D02*
D03*
X108699Y-201699D02*
D03*
X294699Y-283699D02*
D03*
X290301Y-279301D02*
D03*
D28*
X43799Y-217978D02*
D03*
Y-221478D02*
D03*
X37500Y-221522D02*
D03*
Y-217978D02*
D03*
X43799Y-234853D02*
D03*
Y-238353D02*
D03*
X37500Y-238397D02*
D03*
Y-234853D02*
D03*
X43799Y-251728D02*
D03*
Y-255228D02*
D03*
X37500Y-255272D02*
D03*
Y-251728D02*
D03*
X65812D02*
D03*
Y-255228D02*
D03*
X59513Y-255272D02*
D03*
Y-251728D02*
D03*
X87824D02*
D03*
Y-255228D02*
D03*
X81525Y-255272D02*
D03*
Y-251728D02*
D03*
X109837D02*
D03*
Y-255228D02*
D03*
X103538Y-255272D02*
D03*
Y-251728D02*
D03*
X123850Y-255272D02*
D03*
Y-251772D02*
D03*
X130150Y-251728D02*
D03*
Y-255272D02*
D03*
X123850Y-237897D02*
D03*
Y-234397D02*
D03*
X130150Y-234353D02*
D03*
Y-237897D02*
D03*
X43799Y-201103D02*
D03*
Y-204603D02*
D03*
X37500Y-204647D02*
D03*
Y-201103D02*
D03*
X43799Y-183728D02*
D03*
Y-187228D02*
D03*
X37500Y-187272D02*
D03*
Y-183728D02*
D03*
X65812D02*
D03*
Y-187228D02*
D03*
X59513Y-187272D02*
D03*
Y-183728D02*
D03*
X81525Y-187272D02*
D03*
Y-183772D02*
D03*
X87824Y-183728D02*
D03*
Y-187272D02*
D03*
X103538D02*
D03*
Y-183772D02*
D03*
X109837Y-183728D02*
D03*
Y-187272D02*
D03*
X123850D02*
D03*
Y-183772D02*
D03*
X130150Y-183728D02*
D03*
Y-187272D02*
D03*
X123850Y-204147D02*
D03*
Y-200647D02*
D03*
X130150Y-200603D02*
D03*
Y-204147D02*
D03*
X123850Y-221022D02*
D03*
Y-217522D02*
D03*
X130150Y-217478D02*
D03*
Y-221022D02*
D03*
X19650Y-216228D02*
D03*
Y-219728D02*
D03*
X13350Y-219772D02*
D03*
Y-216228D02*
D03*
X19650Y-244478D02*
D03*
Y-247978D02*
D03*
X13350Y-248022D02*
D03*
Y-244478D02*
D03*
X19650Y-272728D02*
D03*
Y-276228D02*
D03*
X13350Y-276272D02*
D03*
Y-272728D02*
D03*
X47950Y-276272D02*
D03*
Y-272772D02*
D03*
X54250Y-272728D02*
D03*
Y-276272D02*
D03*
X83250D02*
D03*
Y-272772D02*
D03*
X89550Y-272728D02*
D03*
Y-276272D02*
D03*
X118550D02*
D03*
Y-272772D02*
D03*
X124850Y-272728D02*
D03*
Y-276272D02*
D03*
X153850D02*
D03*
Y-272772D02*
D03*
X160150Y-272728D02*
D03*
Y-276272D02*
D03*
X153850Y-248022D02*
D03*
Y-244522D02*
D03*
X160150Y-244478D02*
D03*
Y-248022D02*
D03*
X19650Y-187978D02*
D03*
Y-191478D02*
D03*
X13350Y-191522D02*
D03*
Y-187978D02*
D03*
X19650Y-159728D02*
D03*
Y-163228D02*
D03*
X13350Y-163272D02*
D03*
Y-159728D02*
D03*
X55200D02*
D03*
Y-163228D02*
D03*
X48900Y-163272D02*
D03*
Y-159728D02*
D03*
X90750D02*
D03*
Y-163228D02*
D03*
X84450Y-163272D02*
D03*
Y-159728D02*
D03*
X126300D02*
D03*
Y-163228D02*
D03*
X120000Y-163272D02*
D03*
Y-159728D02*
D03*
X153850Y-163272D02*
D03*
Y-159772D02*
D03*
X160150Y-159728D02*
D03*
Y-163272D02*
D03*
X153850Y-191522D02*
D03*
Y-188022D02*
D03*
X160150Y-187978D02*
D03*
Y-191522D02*
D03*
X153850Y-219772D02*
D03*
Y-216272D02*
D03*
X160150Y-216228D02*
D03*
Y-219772D02*
D03*
X355201Y-263022D02*
D03*
Y-259522D02*
D03*
X361500Y-259478D02*
D03*
Y-263022D02*
D03*
X355201Y-246147D02*
D03*
Y-242647D02*
D03*
X361500Y-242603D02*
D03*
Y-246147D02*
D03*
X355201Y-229272D02*
D03*
Y-225772D02*
D03*
X361500Y-225728D02*
D03*
Y-229272D02*
D03*
X333188D02*
D03*
Y-225772D02*
D03*
X339487Y-225728D02*
D03*
Y-229272D02*
D03*
X311176D02*
D03*
Y-225772D02*
D03*
X317475Y-225728D02*
D03*
Y-229272D02*
D03*
X289163D02*
D03*
Y-225772D02*
D03*
X295462Y-225728D02*
D03*
Y-229272D02*
D03*
X275150Y-225728D02*
D03*
Y-229228D02*
D03*
X268850Y-229272D02*
D03*
Y-225728D02*
D03*
X275150Y-243103D02*
D03*
Y-246603D02*
D03*
X268850Y-246647D02*
D03*
Y-243103D02*
D03*
X355201Y-279897D02*
D03*
Y-276397D02*
D03*
X361500Y-276353D02*
D03*
Y-279897D02*
D03*
X355201Y-297272D02*
D03*
Y-293772D02*
D03*
X361500Y-293728D02*
D03*
Y-297272D02*
D03*
X333188D02*
D03*
Y-293772D02*
D03*
X339487Y-293728D02*
D03*
Y-297272D02*
D03*
X317475Y-293728D02*
D03*
Y-297228D02*
D03*
X311176Y-297272D02*
D03*
Y-293728D02*
D03*
X295462D02*
D03*
Y-297228D02*
D03*
X289163Y-297272D02*
D03*
Y-293728D02*
D03*
X275150D02*
D03*
Y-297228D02*
D03*
X268850Y-297272D02*
D03*
Y-293728D02*
D03*
X275150Y-276853D02*
D03*
Y-280353D02*
D03*
X268850Y-280397D02*
D03*
Y-276853D02*
D03*
X275150Y-259978D02*
D03*
Y-263478D02*
D03*
X268850Y-263522D02*
D03*
Y-259978D02*
D03*
X379350Y-264772D02*
D03*
Y-261272D02*
D03*
X385650Y-261228D02*
D03*
Y-264772D02*
D03*
X379350Y-236522D02*
D03*
Y-233022D02*
D03*
X385650Y-232978D02*
D03*
Y-236522D02*
D03*
X379350Y-208272D02*
D03*
Y-204772D02*
D03*
X385650Y-204728D02*
D03*
Y-208272D02*
D03*
X351050Y-204728D02*
D03*
Y-208228D02*
D03*
X344750Y-208272D02*
D03*
Y-204728D02*
D03*
X315750D02*
D03*
Y-208228D02*
D03*
X309450Y-208272D02*
D03*
Y-204728D02*
D03*
X280450D02*
D03*
Y-208228D02*
D03*
X274150Y-208272D02*
D03*
Y-204728D02*
D03*
X245150D02*
D03*
Y-208228D02*
D03*
X238850Y-208272D02*
D03*
Y-204728D02*
D03*
X245150Y-232978D02*
D03*
Y-236478D02*
D03*
X238850Y-236522D02*
D03*
Y-232978D02*
D03*
X379350Y-293022D02*
D03*
Y-289522D02*
D03*
X385650Y-289478D02*
D03*
Y-293022D02*
D03*
X379350Y-321272D02*
D03*
Y-317772D02*
D03*
X385650Y-317728D02*
D03*
Y-321272D02*
D03*
X343800D02*
D03*
Y-317772D02*
D03*
X350100Y-317728D02*
D03*
Y-321272D02*
D03*
X308250D02*
D03*
Y-317772D02*
D03*
X314550Y-317728D02*
D03*
Y-321272D02*
D03*
X272700D02*
D03*
Y-317772D02*
D03*
X279000Y-317728D02*
D03*
Y-321272D02*
D03*
X245150Y-317728D02*
D03*
Y-321228D02*
D03*
X238850Y-321272D02*
D03*
Y-317728D02*
D03*
X245150Y-289478D02*
D03*
Y-292978D02*
D03*
X238850Y-293022D02*
D03*
Y-289478D02*
D03*
X245150Y-261228D02*
D03*
Y-264728D02*
D03*
X238850Y-264772D02*
D03*
Y-261228D02*
D03*
X141850Y-7272D02*
D03*
Y-3772D02*
D03*
X148150Y-3728D02*
D03*
Y-7272D02*
D03*
X88411D02*
D03*
Y-3772D02*
D03*
X94710Y-3728D02*
D03*
Y-7272D02*
D03*
X115981D02*
D03*
Y-3772D02*
D03*
X122280Y-3728D02*
D03*
Y-7272D02*
D03*
X60841D02*
D03*
Y-3772D02*
D03*
X67140Y-3728D02*
D03*
Y-7272D02*
D03*
X33271D02*
D03*
Y-3772D02*
D03*
X39570Y-3728D02*
D03*
Y-7272D02*
D03*
X5701D02*
D03*
Y-3772D02*
D03*
X12000Y-3728D02*
D03*
Y-7272D02*
D03*
X379000Y-15043D02*
D03*
Y-11543D02*
D03*
X385299Y-11500D02*
D03*
Y-15043D02*
D03*
X331859Y-11500D02*
D03*
Y-15000D02*
D03*
X325560Y-15043D02*
D03*
Y-11500D02*
D03*
X304289D02*
D03*
Y-15000D02*
D03*
X297990Y-15043D02*
D03*
Y-11500D02*
D03*
X249150D02*
D03*
Y-15000D02*
D03*
X242850Y-15043D02*
D03*
Y-11500D02*
D03*
X385299Y-52047D02*
D03*
Y-55547D02*
D03*
X379000Y-55591D02*
D03*
Y-52047D02*
D03*
X359429Y-11500D02*
D03*
Y-15000D02*
D03*
X353130Y-15043D02*
D03*
Y-11500D02*
D03*
X276719D02*
D03*
Y-15000D02*
D03*
X270420Y-15043D02*
D03*
Y-11500D02*
D03*
X242850Y-56105D02*
D03*
Y-52605D02*
D03*
X249150Y-52562D02*
D03*
Y-56105D02*
D03*
X385299Y-90638D02*
D03*
Y-94138D02*
D03*
X379000Y-94181D02*
D03*
Y-90638D02*
D03*
X357729Y-129228D02*
D03*
Y-132728D02*
D03*
X351430Y-132772D02*
D03*
Y-129228D02*
D03*
X275020D02*
D03*
Y-132728D02*
D03*
X268720Y-132772D02*
D03*
Y-129228D02*
D03*
X249150Y-90895D02*
D03*
Y-94395D02*
D03*
X242850Y-94438D02*
D03*
Y-90895D02*
D03*
X385299Y-129228D02*
D03*
Y-132728D02*
D03*
X379000Y-132772D02*
D03*
Y-129228D02*
D03*
X330159D02*
D03*
Y-132728D02*
D03*
X323860Y-132772D02*
D03*
Y-129228D02*
D03*
X302589D02*
D03*
Y-132728D02*
D03*
X296290Y-132772D02*
D03*
Y-129228D02*
D03*
X249150D02*
D03*
Y-132728D02*
D03*
X242850Y-132772D02*
D03*
Y-129228D02*
D03*
X360150Y-31228D02*
D03*
Y-34728D02*
D03*
X353850Y-34772D02*
D03*
Y-31228D02*
D03*
X327970D02*
D03*
Y-34728D02*
D03*
X321670Y-34772D02*
D03*
Y-31228D02*
D03*
X311030D02*
D03*
Y-34728D02*
D03*
X304730Y-34772D02*
D03*
Y-31228D02*
D03*
X277150D02*
D03*
Y-34728D02*
D03*
X270850Y-34772D02*
D03*
Y-31228D02*
D03*
X360150Y-57562D02*
D03*
Y-61062D02*
D03*
X353850Y-61105D02*
D03*
Y-57562D02*
D03*
X344910Y-31228D02*
D03*
Y-34728D02*
D03*
X338610Y-34772D02*
D03*
Y-31228D02*
D03*
X294090D02*
D03*
Y-34728D02*
D03*
X287790Y-34772D02*
D03*
Y-31228D02*
D03*
X277150Y-56895D02*
D03*
Y-60395D02*
D03*
X270850Y-60438D02*
D03*
Y-56895D02*
D03*
X360150Y-83395D02*
D03*
Y-86895D02*
D03*
X353850Y-86938D02*
D03*
Y-83395D02*
D03*
X343150Y-109228D02*
D03*
Y-112728D02*
D03*
X336850Y-112772D02*
D03*
Y-109228D02*
D03*
X295799D02*
D03*
Y-112728D02*
D03*
X289500Y-112772D02*
D03*
Y-109228D02*
D03*
X277150Y-82562D02*
D03*
Y-86062D02*
D03*
X270850Y-86105D02*
D03*
Y-82562D02*
D03*
X360150Y-109228D02*
D03*
Y-112728D02*
D03*
X353850Y-112772D02*
D03*
Y-109228D02*
D03*
X326650D02*
D03*
Y-112728D02*
D03*
X320350Y-112772D02*
D03*
Y-109228D02*
D03*
X312150D02*
D03*
Y-112728D02*
D03*
X305850Y-112772D02*
D03*
Y-109228D02*
D03*
X277150D02*
D03*
Y-112728D02*
D03*
X270850Y-112772D02*
D03*
Y-109228D02*
D03*
X12000Y-121457D02*
D03*
Y-124957D02*
D03*
X5701Y-125000D02*
D03*
Y-121457D02*
D03*
X59141Y-125000D02*
D03*
Y-121500D02*
D03*
X65440Y-121457D02*
D03*
Y-125000D02*
D03*
X86711D02*
D03*
Y-121500D02*
D03*
X93010Y-121457D02*
D03*
Y-125000D02*
D03*
X141850D02*
D03*
Y-121500D02*
D03*
X148150Y-121457D02*
D03*
Y-125000D02*
D03*
X5701Y-84453D02*
D03*
Y-80953D02*
D03*
X12000Y-80909D02*
D03*
Y-84453D02*
D03*
X31571Y-125000D02*
D03*
Y-121500D02*
D03*
X37870Y-121457D02*
D03*
Y-125000D02*
D03*
X114280D02*
D03*
Y-121500D02*
D03*
X120580Y-121457D02*
D03*
Y-125000D02*
D03*
X148150Y-80395D02*
D03*
Y-83895D02*
D03*
X141850Y-83938D02*
D03*
Y-80395D02*
D03*
X5701Y-45862D02*
D03*
Y-42362D02*
D03*
X12000Y-42319D02*
D03*
Y-45862D02*
D03*
X141850Y-45605D02*
D03*
Y-42105D02*
D03*
X148150Y-42062D02*
D03*
Y-45605D02*
D03*
X30850Y-105272D02*
D03*
Y-101772D02*
D03*
X37150Y-101728D02*
D03*
Y-105272D02*
D03*
X63030D02*
D03*
Y-101772D02*
D03*
X69330Y-101728D02*
D03*
Y-105272D02*
D03*
X79970D02*
D03*
Y-101772D02*
D03*
X86270Y-101728D02*
D03*
Y-105272D02*
D03*
X113850D02*
D03*
Y-101772D02*
D03*
X120150Y-101728D02*
D03*
Y-105272D02*
D03*
X30850Y-78938D02*
D03*
Y-75438D02*
D03*
X37150Y-75395D02*
D03*
Y-78938D02*
D03*
X46090Y-105272D02*
D03*
Y-101772D02*
D03*
X52390Y-101728D02*
D03*
Y-105272D02*
D03*
X96910D02*
D03*
Y-101772D02*
D03*
X103210Y-101728D02*
D03*
Y-105272D02*
D03*
X113850Y-79605D02*
D03*
Y-76105D02*
D03*
X120150Y-76062D02*
D03*
Y-79605D02*
D03*
X30850Y-53105D02*
D03*
Y-49605D02*
D03*
X37150Y-49562D02*
D03*
Y-53105D02*
D03*
X47850Y-27272D02*
D03*
Y-23772D02*
D03*
X54150Y-23728D02*
D03*
Y-27272D02*
D03*
X95201D02*
D03*
Y-23772D02*
D03*
X101500Y-23728D02*
D03*
Y-27272D02*
D03*
X113850Y-53938D02*
D03*
Y-50438D02*
D03*
X120150Y-50395D02*
D03*
Y-53938D02*
D03*
X30850Y-27272D02*
D03*
Y-23772D02*
D03*
X37150Y-23728D02*
D03*
Y-27272D02*
D03*
X64350D02*
D03*
Y-23772D02*
D03*
X70650Y-23728D02*
D03*
Y-27272D02*
D03*
X78850D02*
D03*
Y-23772D02*
D03*
X85150Y-23728D02*
D03*
Y-27272D02*
D03*
X113850D02*
D03*
Y-23772D02*
D03*
X120150Y-23728D02*
D03*
Y-27272D02*
D03*
D29*
X67949Y-206205D02*
D03*
Y-208173D02*
D03*
Y-210142D02*
D03*
Y-212110D02*
D03*
Y-214079D02*
D03*
Y-216047D02*
D03*
Y-218016D02*
D03*
Y-219984D02*
D03*
Y-221953D02*
D03*
Y-223921D02*
D03*
Y-225890D02*
D03*
Y-227858D02*
D03*
Y-229827D02*
D03*
Y-231795D02*
D03*
X99051D02*
D03*
Y-229827D02*
D03*
Y-227858D02*
D03*
Y-225890D02*
D03*
Y-223921D02*
D03*
Y-221953D02*
D03*
Y-219984D02*
D03*
Y-218016D02*
D03*
Y-216047D02*
D03*
Y-214079D02*
D03*
Y-212110D02*
D03*
Y-210142D02*
D03*
Y-208173D02*
D03*
Y-206205D02*
D03*
X331051Y-274795D02*
D03*
Y-272827D02*
D03*
Y-270858D02*
D03*
Y-268890D02*
D03*
Y-266921D02*
D03*
Y-264953D02*
D03*
Y-262984D02*
D03*
Y-261016D02*
D03*
Y-259047D02*
D03*
Y-257079D02*
D03*
Y-255110D02*
D03*
Y-253142D02*
D03*
Y-251173D02*
D03*
Y-249205D02*
D03*
X299949D02*
D03*
Y-251173D02*
D03*
Y-253142D02*
D03*
Y-255110D02*
D03*
Y-257079D02*
D03*
Y-259047D02*
D03*
Y-261016D02*
D03*
Y-262984D02*
D03*
Y-264953D02*
D03*
Y-266921D02*
D03*
Y-268890D02*
D03*
Y-270858D02*
D03*
Y-272827D02*
D03*
Y-274795D02*
D03*
X300949Y-85795D02*
D03*
Y-83827D02*
D03*
Y-81858D02*
D03*
Y-79890D02*
D03*
Y-77921D02*
D03*
Y-75953D02*
D03*
Y-73984D02*
D03*
Y-72016D02*
D03*
Y-70047D02*
D03*
Y-68079D02*
D03*
Y-66110D02*
D03*
Y-64142D02*
D03*
Y-62173D02*
D03*
Y-60205D02*
D03*
X332051D02*
D03*
Y-62173D02*
D03*
Y-64142D02*
D03*
Y-66110D02*
D03*
Y-68079D02*
D03*
Y-70047D02*
D03*
Y-72016D02*
D03*
Y-73984D02*
D03*
Y-75953D02*
D03*
Y-77921D02*
D03*
Y-79890D02*
D03*
Y-81858D02*
D03*
Y-83827D02*
D03*
Y-85795D02*
D03*
X90051Y-50705D02*
D03*
Y-52673D02*
D03*
Y-54642D02*
D03*
Y-56610D02*
D03*
Y-58579D02*
D03*
Y-60547D02*
D03*
Y-62516D02*
D03*
Y-64484D02*
D03*
Y-66453D02*
D03*
Y-68421D02*
D03*
Y-70390D02*
D03*
Y-72358D02*
D03*
Y-74327D02*
D03*
Y-76295D02*
D03*
X58949D02*
D03*
Y-74327D02*
D03*
Y-72358D02*
D03*
Y-70390D02*
D03*
Y-68421D02*
D03*
Y-66453D02*
D03*
Y-64484D02*
D03*
Y-62516D02*
D03*
Y-60547D02*
D03*
Y-58579D02*
D03*
Y-56610D02*
D03*
Y-54642D02*
D03*
Y-52673D02*
D03*
Y-50705D02*
D03*
D30*
X70705Y-234551D02*
D03*
X72673D02*
D03*
X74642D02*
D03*
X76610D02*
D03*
X78579D02*
D03*
X80547D02*
D03*
X82516D02*
D03*
X84484D02*
D03*
X86453D02*
D03*
X88421D02*
D03*
X90390D02*
D03*
X92358D02*
D03*
X94327D02*
D03*
X96295D02*
D03*
Y-203449D02*
D03*
X94327D02*
D03*
X92358D02*
D03*
X90390D02*
D03*
X88421D02*
D03*
X86453D02*
D03*
X84484D02*
D03*
X82516D02*
D03*
X80547D02*
D03*
X78579D02*
D03*
X76610D02*
D03*
X74642D02*
D03*
X72673D02*
D03*
X70705D02*
D03*
X328295Y-246449D02*
D03*
X326327D02*
D03*
X324358D02*
D03*
X322390D02*
D03*
X320421D02*
D03*
X318453D02*
D03*
X316484D02*
D03*
X314516D02*
D03*
X312547D02*
D03*
X310579D02*
D03*
X308610D02*
D03*
X306642D02*
D03*
X304673D02*
D03*
X302705D02*
D03*
Y-277551D02*
D03*
X304673D02*
D03*
X306642D02*
D03*
X308610D02*
D03*
X310579D02*
D03*
X312547D02*
D03*
X314516D02*
D03*
X316484D02*
D03*
X318453D02*
D03*
X320421D02*
D03*
X322390D02*
D03*
X324358D02*
D03*
X326327D02*
D03*
X328295D02*
D03*
X329295Y-88551D02*
D03*
X327327D02*
D03*
X325358D02*
D03*
X323390D02*
D03*
X321421D02*
D03*
X319453D02*
D03*
X317484D02*
D03*
X315516D02*
D03*
X313547D02*
D03*
X311579D02*
D03*
X309610D02*
D03*
X307642D02*
D03*
X305673D02*
D03*
X303705D02*
D03*
Y-57449D02*
D03*
X305673D02*
D03*
X307642D02*
D03*
X309610D02*
D03*
X311579D02*
D03*
X313547D02*
D03*
X315516D02*
D03*
X317484D02*
D03*
X319453D02*
D03*
X321421D02*
D03*
X323390D02*
D03*
X325358D02*
D03*
X327327D02*
D03*
X329295D02*
D03*
X61705Y-47949D02*
D03*
X63673D02*
D03*
X65642D02*
D03*
X67610D02*
D03*
X69579D02*
D03*
X71547D02*
D03*
X73516D02*
D03*
X75484D02*
D03*
X77453D02*
D03*
X79421D02*
D03*
X81390D02*
D03*
X83358D02*
D03*
X85327D02*
D03*
X87295D02*
D03*
Y-79051D02*
D03*
X85327D02*
D03*
X83358D02*
D03*
X81390D02*
D03*
X79421D02*
D03*
X77453D02*
D03*
X75484D02*
D03*
X73516D02*
D03*
X71547D02*
D03*
X69579D02*
D03*
X67610D02*
D03*
X65642D02*
D03*
X63673D02*
D03*
X61705D02*
D03*
D31*
X83500Y-219000D02*
D03*
X315500Y-262000D02*
D03*
X316500Y-73000D02*
D03*
X74500Y-63500D02*
D03*
D32*
X170610Y-87500D02*
D03*
X164390D02*
D03*
X216390Y-73000D02*
D03*
X222610D02*
D03*
D33*
X175000Y-151157D02*
X184000Y-160158D01*
X175000Y-151157D02*
X175000Y-151157D01*
X184000Y-173000D02*
Y-160158D01*
X175000Y-151157D02*
Y-151000D01*
X179500Y-177500D02*
X184000Y-173000D01*
X175000Y-177500D02*
X179500D01*
X170500Y-182000D02*
X175000Y-177500D01*
X170500Y-223000D02*
Y-191000D01*
X168500Y-225000D02*
X170500Y-223000D01*
X179000Y-186000D02*
X182500Y-182500D01*
X164500Y-186000D02*
X179000D01*
X185000Y-185000D02*
X189000D01*
X182500Y-182500D02*
X185000Y-185000D01*
X182500Y-182500D02*
Y-182092D01*
X189000Y-185000D02*
X196500Y-192500D01*
X243500Y-146000D02*
X250500Y-153000D01*
X217657Y-146000D02*
X243500D01*
X212500Y-151157D02*
X217657Y-146000D01*
X193750Y-151157D02*
X212500D01*
X175000D02*
X193750D01*
X212500Y-170843D02*
X225000Y-183343D01*
Y-198000D02*
Y-183343D01*
X193750Y-170843D02*
X194000Y-170592D01*
X182500Y-182092D02*
X193750Y-170843D01*
X194000Y-170592D02*
Y-170500D01*
X196500Y-212500D02*
X212500Y-196500D01*
X212500Y-196500D02*
X212500Y-196500D01*
X212500Y-196500D02*
Y-170843D01*
X228000Y-253500D02*
X230500Y-256000D01*
X221000Y-253500D02*
X228000D01*
X221000Y-224000D02*
X222500D01*
X229000Y-230500D01*
X196500Y-232500D02*
X197000D01*
X185736D02*
X196500D01*
X171500Y-233243D02*
X173257Y-235000D01*
X183236D01*
X185736Y-232500D01*
X197000D02*
X197500Y-233000D01*
X171500Y-233243D02*
Y-228000D01*
X168500Y-225000D02*
X171500Y-228000D01*
X179500Y-223500D02*
X182500D01*
X175500Y-227500D02*
X179500Y-223500D01*
X181500Y-24000D02*
X188500Y-17000D01*
X164000Y-88736D02*
Y-87000D01*
X242000Y-32500D02*
Y-23500D01*
Y-40000D02*
Y-32500D01*
X159000Y-104000D02*
Y-93736D01*
Y-111343D02*
Y-104000D01*
X235000Y-137000D02*
X238500Y-133500D01*
X215886Y-137000D02*
X235000D01*
X213386Y-134500D02*
X215886Y-137000D01*
X201842Y-134500D02*
X213386D01*
X225000Y-132500D02*
Y-132469D01*
X222374Y-129842D02*
X225000Y-132469D01*
X196385Y-129842D02*
X222374D01*
X191727Y-134500D02*
X196385Y-129842D01*
X182158Y-134500D02*
X191727D01*
X159000Y-93736D02*
X164000Y-88736D01*
X159000Y-111343D02*
X182158Y-134500D01*
X205343Y-17000D02*
X235500D01*
X188500D02*
X205343D01*
Y-5500D01*
X152500Y-3000D02*
X153500Y-2000D01*
X167329D01*
X170829Y-5500D01*
X185658D01*
X235500Y-17000D02*
X242000Y-23500D01*
X208786Y-83500D02*
X213286Y-79000D01*
X208000Y-83500D02*
X208786D01*
X208000D02*
X208500Y-83000D01*
X198000Y-93500D02*
X208000Y-83500D01*
X208500Y-83000D02*
Y-82500D01*
X198000Y-117000D02*
Y-93500D01*
Y-117000D02*
X204257Y-123257D01*
X206743D01*
X217342Y-112657D01*
X225500D01*
X213286Y-79000D02*
X229750D01*
X233250Y-82500D01*
X149500Y-32500D02*
X162000D01*
X172500Y-43000D01*
X183000D01*
X127000Y-55000D02*
X127500Y-54500D01*
X160500D01*
X162500Y-56500D01*
X178714D01*
X182214Y-53000D01*
X183000D01*
X223000Y-93500D02*
X240500Y-111000D01*
X208000Y-93500D02*
X223000D01*
X233250Y-82500D02*
X262000D01*
X263500Y-81000D01*
X227000Y-55000D02*
X242000Y-40000D01*
D34*
X54000Y-196000D02*
D03*
Y-226000D02*
D03*
X345000Y-285000D02*
D03*
Y-255000D02*
D03*
D35*
X196500Y-192500D02*
D03*
Y-202500D02*
D03*
Y-212500D02*
D03*
Y-222500D02*
D03*
Y-232500D02*
D03*
Y-242500D02*
D03*
Y-252500D02*
D03*
Y-262500D02*
D03*
Y-272500D02*
D03*
Y-282500D02*
D03*
Y-292500D02*
D03*
X183000Y-93000D02*
D03*
Y-23000D02*
D03*
Y-33000D02*
D03*
Y-43000D02*
D03*
Y-53000D02*
D03*
Y-63000D02*
D03*
Y-73000D02*
D03*
Y-83000D02*
D03*
Y-103000D02*
D03*
X208000Y-43500D02*
D03*
Y-113500D02*
D03*
Y-103500D02*
D03*
Y-93500D02*
D03*
Y-83500D02*
D03*
Y-73500D02*
D03*
Y-63500D02*
D03*
Y-53500D02*
D03*
Y-33500D02*
D03*
D36*
X196500Y-302500D02*
D03*
X183000Y-113000D02*
D03*
X208000Y-23500D02*
D03*
D37*
X193750Y-151157D02*
D03*
X175000D02*
D03*
X248843Y-153000D02*
D03*
X212500Y-151157D02*
D03*
X205343Y-5500D02*
D03*
X165647Y-7804D02*
D03*
X182158Y-134500D02*
D03*
X225500Y-132343D02*
D03*
D38*
X193750Y-170843D02*
D03*
X175000D02*
D03*
X212500D02*
D03*
X165646Y-27489D02*
D03*
X225500Y-112657D02*
D03*
D39*
X229157Y-153000D02*
D03*
X185658Y-5500D02*
D03*
X201842Y-134500D02*
D03*
D40*
X86000Y-260000D02*
D03*
X170500Y-182000D02*
D03*
Y-191000D02*
D03*
X248000Y-197500D02*
D03*
X234500Y-200500D02*
D03*
X225000Y-198000D02*
D03*
X253000Y-270500D02*
D03*
X258000Y-274000D02*
D03*
X221000Y-253500D02*
D03*
X188500Y-268500D02*
D03*
X186000Y-275500D02*
D03*
X313500Y-221000D02*
D03*
X301500Y-222500D02*
D03*
X259000Y-251500D02*
D03*
X258000Y-259500D02*
D03*
X221000Y-224000D02*
D03*
X229000Y-230500D02*
D03*
X213500Y-219500D02*
D03*
X208500Y-276500D02*
D03*
X211000Y-282000D02*
D03*
X221000Y-265500D02*
D03*
X226500Y-273500D02*
D03*
X288500Y-275500D02*
D03*
X285500Y-275000D02*
D03*
X218000Y-214500D02*
D03*
X323000Y-227500D02*
D03*
X301500Y-238500D02*
D03*
X313000Y-241000D02*
D03*
X302500Y-231500D02*
D03*
X283000Y-282000D02*
D03*
X338500Y-278000D02*
D03*
X350500Y-255000D02*
D03*
X373500Y-236000D02*
D03*
X353500Y-240000D02*
D03*
X373500Y-250500D02*
D03*
X368500Y-242000D02*
D03*
X365500Y-219000D02*
D03*
X356000Y-222500D02*
D03*
X343000Y-220000D02*
D03*
X336000Y-222500D02*
D03*
X344000Y-224500D02*
D03*
X330500Y-237000D02*
D03*
X315000Y-218000D02*
D03*
X303500Y-208000D02*
D03*
X321000Y-217500D02*
D03*
X314000Y-235500D02*
D03*
X293000Y-221000D02*
D03*
X264000Y-219000D02*
D03*
X281000Y-234500D02*
D03*
X262500Y-240000D02*
D03*
X279500Y-250000D02*
D03*
X259000Y-265000D02*
D03*
X281500Y-262500D02*
D03*
X279000Y-282000D02*
D03*
X281500Y-295000D02*
D03*
X251000Y-320500D02*
D03*
X244500Y-304500D02*
D03*
X264000Y-300500D02*
D03*
X301500Y-293000D02*
D03*
X265500Y-320000D02*
D03*
X296000Y-308000D02*
D03*
X295000Y-302000D02*
D03*
X291500Y-305500D02*
D03*
X284500Y-317000D02*
D03*
X309000Y-306500D02*
D03*
X318500Y-301500D02*
D03*
X306000D02*
D03*
X313500Y-290500D02*
D03*
X329500Y-291000D02*
D03*
X342500Y-313000D02*
D03*
X351500Y-289500D02*
D03*
X367500Y-283000D02*
D03*
X353000Y-271500D02*
D03*
X354000Y-256500D02*
D03*
X344000Y-301500D02*
D03*
X307000Y-296500D02*
D03*
X285500Y-301500D02*
D03*
X264000Y-296500D02*
D03*
Y-280500D02*
D03*
X261500Y-277500D02*
D03*
X265500Y-260500D02*
D03*
X260500Y-243500D02*
D03*
X262000Y-226000D02*
D03*
X299000Y-232000D02*
D03*
X317500Y-232500D02*
D03*
X333500Y-237500D02*
D03*
X367000Y-227500D02*
D03*
X366000Y-244500D02*
D03*
X369500Y-259500D02*
D03*
X367500Y-262000D02*
D03*
X370000Y-279000D02*
D03*
X371500Y-306000D02*
D03*
X366000Y-301500D02*
D03*
X302000Y-241496D02*
D03*
X284500Y-215000D02*
D03*
X269500Y-213000D02*
D03*
X270000Y-210000D02*
D03*
X293500Y-242000D02*
D03*
X297500D02*
D03*
X293500Y-245500D02*
D03*
X295000Y-277000D02*
D03*
X283500Y-286000D02*
D03*
X234500Y-267000D02*
D03*
X242500Y-278000D02*
D03*
X230500Y-256000D02*
D03*
X252000Y-288500D02*
D03*
X266500Y-213000D02*
D03*
X76000Y-226500D02*
D03*
X83500D02*
D03*
X91000D02*
D03*
Y-211500D02*
D03*
X83500D02*
D03*
X76000D02*
D03*
Y-219000D02*
D03*
X91000Y-219100D02*
D03*
X83500Y-219000D02*
D03*
X323000Y-254500D02*
D03*
X315500D02*
D03*
X308000D02*
D03*
Y-269500D02*
D03*
X315500D02*
D03*
X323000D02*
D03*
Y-262000D02*
D03*
X308000Y-261900D02*
D03*
X315500Y-262000D02*
D03*
X132500Y-268000D02*
D03*
X147000Y-192500D02*
D03*
X168500Y-225000D02*
D03*
X156500Y-203000D02*
D03*
X164500Y-214000D02*
D03*
X182500Y-223500D02*
D03*
X175500Y-227500D02*
D03*
X115500Y-195000D02*
D03*
X104000Y-204000D02*
D03*
X151000Y-283500D02*
D03*
X105500Y-235500D02*
D03*
X101500Y-239000D02*
D03*
X105500D02*
D03*
X129000Y-271000D02*
D03*
X129500Y-268000D02*
D03*
X114500Y-266000D02*
D03*
X97000Y-239504D02*
D03*
X33000Y-179500D02*
D03*
X27500Y-175000D02*
D03*
X29000Y-202000D02*
D03*
X31500Y-219000D02*
D03*
X29500Y-221500D02*
D03*
X33000Y-236500D02*
D03*
X32000Y-253500D02*
D03*
X65500Y-243500D02*
D03*
X81500Y-248500D02*
D03*
X100000Y-249000D02*
D03*
X137000Y-255000D02*
D03*
X138500Y-237500D02*
D03*
X133500Y-220500D02*
D03*
X137500Y-203500D02*
D03*
X135000Y-200500D02*
D03*
Y-184500D02*
D03*
X113500Y-179500D02*
D03*
X92000Y-184500D02*
D03*
X55000Y-179500D02*
D03*
X45000Y-224500D02*
D03*
X46000Y-209500D02*
D03*
X31500Y-198000D02*
D03*
X47500Y-191500D02*
D03*
X56500Y-168000D02*
D03*
X69500Y-190000D02*
D03*
X85500Y-190500D02*
D03*
X93000Y-179500D02*
D03*
X80500D02*
D03*
X90000Y-174500D02*
D03*
X114500Y-164000D02*
D03*
X107500Y-175500D02*
D03*
X104000Y-179000D02*
D03*
X103000Y-173000D02*
D03*
X133500Y-161000D02*
D03*
X97500Y-188000D02*
D03*
X135000Y-180500D02*
D03*
X154500Y-176500D02*
D03*
X148000Y-160500D02*
D03*
X117500Y-186000D02*
D03*
X120000Y-199000D02*
D03*
X117500Y-218500D02*
D03*
X140000Y-216000D02*
D03*
X119500Y-231000D02*
D03*
X136500Y-241000D02*
D03*
X118000Y-246500D02*
D03*
X135000Y-262000D02*
D03*
X106000Y-260000D02*
D03*
X85000Y-245500D02*
D03*
X78000Y-263500D02*
D03*
X95500Y-273000D02*
D03*
X84000Y-263000D02*
D03*
X68500Y-244000D02*
D03*
X55000Y-256500D02*
D03*
X63000Y-258500D02*
D03*
X56000Y-261000D02*
D03*
X43000Y-258500D02*
D03*
X33500Y-262000D02*
D03*
X30500Y-239000D02*
D03*
X25500Y-230500D02*
D03*
X45500Y-241000D02*
D03*
X25500Y-245000D02*
D03*
X48500Y-226000D02*
D03*
X60500Y-203000D02*
D03*
X105500Y-207000D02*
D03*
X116000Y-199000D02*
D03*
X96500Y-249500D02*
D03*
X86000Y-240000D02*
D03*
X97500Y-242500D02*
D03*
X76000Y-253500D02*
D03*
X296500Y-55000D02*
D03*
X341500Y-72500D02*
D03*
X346500D02*
D03*
X290500Y-76000D02*
D03*
X316500Y-73000D02*
D03*
X309000Y-72900D02*
D03*
X324000Y-73000D02*
D03*
Y-80500D02*
D03*
X316500D02*
D03*
X309000D02*
D03*
Y-65500D02*
D03*
X316500D02*
D03*
X324000D02*
D03*
X74500Y-63500D02*
D03*
X82000Y-63600D02*
D03*
X67000Y-63500D02*
D03*
Y-56000D02*
D03*
X74500D02*
D03*
X82000D02*
D03*
Y-71000D02*
D03*
X74500D02*
D03*
X67000D02*
D03*
X242000Y-32500D02*
D03*
X159000Y-104000D02*
D03*
X173000Y-93000D02*
D03*
X227000Y-73000D02*
D03*
X193500Y-55500D02*
D03*
X259000Y-96000D02*
D03*
X218500Y-84500D02*
D03*
X233500Y-97000D02*
D03*
X232000Y-73500D02*
D03*
X231500Y-60000D02*
D03*
X198000Y-66500D02*
D03*
X127000Y-55000D02*
D03*
X194000Y-79000D02*
D03*
X263500Y-81000D02*
D03*
X381500Y-84000D02*
D03*
X373000Y-90500D02*
D03*
X362000Y-80000D02*
D03*
X366000Y-49000D02*
D03*
X365000Y-57500D02*
D03*
X259500Y-121500D02*
D03*
X278000Y-105500D02*
D03*
X287000Y-116500D02*
D03*
X301000Y-104000D02*
D03*
X313000Y-104500D02*
D03*
X331500Y-114500D02*
D03*
X325500Y-103500D02*
D03*
X348000Y-112500D02*
D03*
X339000Y-103250D02*
D03*
X362000Y-103500D02*
D03*
X354250Y-103750D02*
D03*
X373500Y-125500D02*
D03*
X348500Y-123500D02*
D03*
X324500D02*
D03*
X271500Y-104000D02*
D03*
X267500Y-51500D02*
D03*
X263500Y-29500D02*
D03*
X285500Y-27000D02*
D03*
X302500Y-26000D02*
D03*
X325500Y-25500D02*
D03*
X342000Y-26500D02*
D03*
X362500Y-25500D02*
D03*
X357000Y-53000D02*
D03*
X346500Y-81500D02*
D03*
X351000Y-105000D02*
D03*
X332500D02*
D03*
X320500Y-104500D02*
D03*
X308000Y-120000D02*
D03*
X297000Y-122500D02*
D03*
X306500Y-105500D02*
D03*
X293000Y-104000D02*
D03*
X259000Y-70500D02*
D03*
X243000Y-77500D02*
D03*
X224000Y-32000D02*
D03*
X282500Y-90500D02*
D03*
X279000Y-93000D02*
D03*
X285000Y-84000D02*
D03*
X281000Y-84500D02*
D03*
X294500Y-48000D02*
D03*
X378500Y-45500D02*
D03*
X372000Y-51500D02*
D03*
X270000Y-124000D02*
D03*
X243500Y-124500D02*
D03*
X227000Y-55000D02*
D03*
X257000Y-64500D02*
D03*
X237500Y-62000D02*
D03*
X240000Y-86000D02*
D03*
X151000Y-50500D02*
D03*
X153500Y-74500D02*
D03*
X157500Y-61000D02*
D03*
X134000Y-72000D02*
D03*
X147500Y-12000D02*
D03*
X121000Y-12500D02*
D03*
X19000Y-85000D02*
D03*
X12500Y-91000D02*
D03*
X94500Y-81500D02*
D03*
X96500Y-88500D02*
D03*
X110000Y-52000D02*
D03*
X106000Y-52500D02*
D03*
X112000Y-43500D02*
D03*
X108500Y-46000D02*
D03*
X167000Y-104500D02*
D03*
X100500Y-60500D02*
D03*
X114000Y-64000D02*
D03*
X148000Y-59000D02*
D03*
X159000Y-75500D02*
D03*
X132000Y-66000D02*
D03*
X45500Y-63500D02*
D03*
X49500Y-64000D02*
D03*
X98000Y-32500D02*
D03*
X84500Y-31000D02*
D03*
X94000Y-14000D02*
D03*
X83000Y-16500D02*
D03*
X70500Y-32000D02*
D03*
X58500Y-31500D02*
D03*
X40000D02*
D03*
X44500Y-55000D02*
D03*
X34000Y-83500D02*
D03*
X28500Y-111000D02*
D03*
X49000Y-110000D02*
D03*
X65500Y-111000D02*
D03*
X88500Y-110500D02*
D03*
X105500Y-109500D02*
D03*
X127500Y-107000D02*
D03*
X123500Y-85000D02*
D03*
X119500Y-32500D02*
D03*
X66500Y-13000D02*
D03*
X42500D02*
D03*
X17500Y-11000D02*
D03*
X18000Y-46000D02*
D03*
X36750Y-32750D02*
D03*
X29000Y-33000D02*
D03*
X52000Y-33250D02*
D03*
X43000Y-24000D02*
D03*
X65500Y-33000D02*
D03*
X59500Y-22000D02*
D03*
X78000Y-32000D02*
D03*
X90000Y-32500D02*
D03*
X104000Y-20000D02*
D03*
X113000Y-31000D02*
D03*
X131500Y-15000D02*
D03*
X26000Y-79000D02*
D03*
X25000Y-87500D02*
D03*
X29000Y-56500D02*
D03*
X9500Y-52500D02*
D03*
M02*
