G04*
G04 #@! TF.GenerationSoftware,Altium Limited,Altium Designer,19.1.8 (144)*
G04*
G04 Layer_Color=32896*
%FSLAX25Y25*%
%MOIN*%
G70*
G01*
G75*
%ADD10C,0.00787*%
G36*
X342955Y-245948D02*
X343049Y-245954D01*
X343138Y-245971D01*
X343221Y-245987D01*
X343299Y-246009D01*
X343371Y-246032D01*
X343438Y-246059D01*
X343499Y-246087D01*
X343554Y-246115D01*
X343599Y-246143D01*
X343637Y-246165D01*
X343671Y-246187D01*
X343699Y-246204D01*
X343715Y-246220D01*
X343726Y-246226D01*
X343732Y-246231D01*
X343787Y-246287D01*
X343837Y-246348D01*
X343887Y-246414D01*
X343926Y-246481D01*
X343993Y-246614D01*
X344037Y-246747D01*
X344054Y-246809D01*
X344070Y-246870D01*
X344081Y-246919D01*
X344093Y-246964D01*
X344098Y-247003D01*
Y-247030D01*
X344104Y-247047D01*
Y-247053D01*
X343621Y-247103D01*
X343610Y-246975D01*
X343588Y-246864D01*
X343554Y-246764D01*
X343515Y-246687D01*
X343482Y-246620D01*
X343449Y-246575D01*
X343427Y-246548D01*
X343415Y-246537D01*
X343332Y-246470D01*
X343243Y-246420D01*
X343149Y-246381D01*
X343066Y-246359D01*
X342988Y-246342D01*
X342921Y-246337D01*
X342899Y-246331D01*
X342866D01*
X342750Y-246337D01*
X342644Y-246359D01*
X342555Y-246392D01*
X342478Y-246426D01*
X342417Y-246464D01*
X342378Y-246492D01*
X342350Y-246514D01*
X342339Y-246526D01*
X342272Y-246603D01*
X342222Y-246681D01*
X342183Y-246759D01*
X342161Y-246836D01*
X342144Y-246897D01*
X342139Y-246953D01*
X342133Y-246986D01*
Y-246992D01*
Y-246997D01*
X342144Y-247097D01*
X342167Y-247203D01*
X342206Y-247297D01*
X342245Y-247386D01*
X342289Y-247458D01*
X342328Y-247519D01*
X342339Y-247541D01*
X342350Y-247558D01*
X342361Y-247563D01*
Y-247569D01*
X342405Y-247630D01*
X342461Y-247691D01*
X342522Y-247758D01*
X342588Y-247824D01*
X342727Y-247957D01*
X342866Y-248091D01*
X342938Y-248152D01*
X342999Y-248207D01*
X343060Y-248257D01*
X343110Y-248302D01*
X343149Y-248335D01*
X343182Y-248363D01*
X343205Y-248379D01*
X343210Y-248385D01*
X343349Y-248501D01*
X343477Y-248612D01*
X343582Y-248712D01*
X343665Y-248795D01*
X343737Y-248868D01*
X343787Y-248918D01*
X343815Y-248951D01*
X343826Y-248956D01*
Y-248962D01*
X343904Y-249056D01*
X343965Y-249145D01*
X344020Y-249234D01*
X344065Y-249312D01*
X344098Y-249378D01*
X344120Y-249428D01*
X344131Y-249462D01*
X344137Y-249467D01*
Y-249473D01*
X344159Y-249534D01*
X344170Y-249589D01*
X344181Y-249645D01*
X344187Y-249694D01*
X344193Y-249739D01*
Y-249772D01*
Y-249795D01*
Y-249800D01*
X341645D01*
Y-249345D01*
X343538D01*
X343471Y-249251D01*
X343438Y-249212D01*
X343410Y-249173D01*
X343382Y-249140D01*
X343360Y-249117D01*
X343343Y-249101D01*
X343338Y-249095D01*
X343310Y-249067D01*
X343277Y-249040D01*
X343199Y-248968D01*
X343110Y-248884D01*
X343016Y-248801D01*
X342927Y-248729D01*
X342888Y-248696D01*
X342855Y-248662D01*
X342827Y-248640D01*
X342805Y-248623D01*
X342794Y-248612D01*
X342788Y-248607D01*
X342700Y-248529D01*
X342611Y-248457D01*
X342533Y-248385D01*
X342461Y-248324D01*
X342394Y-248263D01*
X342339Y-248207D01*
X342283Y-248157D01*
X342239Y-248113D01*
X342195Y-248068D01*
X342161Y-248035D01*
X342133Y-248007D01*
X342106Y-247980D01*
X342078Y-247946D01*
X342067Y-247935D01*
X341989Y-247841D01*
X341923Y-247758D01*
X341867Y-247674D01*
X341823Y-247608D01*
X341789Y-247547D01*
X341767Y-247502D01*
X341756Y-247475D01*
X341751Y-247463D01*
X341717Y-247380D01*
X341695Y-247297D01*
X341673Y-247219D01*
X341662Y-247153D01*
X341656Y-247092D01*
X341651Y-247047D01*
Y-247020D01*
Y-247008D01*
X341656Y-246925D01*
X341667Y-246847D01*
X341678Y-246770D01*
X341701Y-246703D01*
X341756Y-246570D01*
X341811Y-246464D01*
X341845Y-246414D01*
X341873Y-246376D01*
X341900Y-246337D01*
X341928Y-246309D01*
X341950Y-246287D01*
X341961Y-246265D01*
X341972Y-246259D01*
X341978Y-246253D01*
X342039Y-246198D01*
X342106Y-246148D01*
X342178Y-246109D01*
X342250Y-246076D01*
X342394Y-246020D01*
X342539Y-245982D01*
X342600Y-245971D01*
X342661Y-245959D01*
X342716Y-245954D01*
X342761Y-245948D01*
X342799Y-245943D01*
X342855D01*
X342955Y-245948D01*
D02*
G37*
G36*
X347800Y-249800D02*
X347289D01*
Y-248096D01*
X346635D01*
X346573Y-248102D01*
X346529D01*
X346490Y-248107D01*
X346462Y-248113D01*
X346440D01*
X346429Y-248118D01*
X346424D01*
X346335Y-248146D01*
X346296Y-248163D01*
X346263Y-248179D01*
X346229Y-248196D01*
X346207Y-248207D01*
X346196Y-248213D01*
X346191Y-248218D01*
X346146Y-248252D01*
X346102Y-248290D01*
X346018Y-248374D01*
X345980Y-248412D01*
X345952Y-248446D01*
X345935Y-248468D01*
X345930Y-248474D01*
X345874Y-248551D01*
X345813Y-248635D01*
X345752Y-248723D01*
X345691Y-248807D01*
X345641Y-248884D01*
X345602Y-248945D01*
X345586Y-248968D01*
X345574Y-248984D01*
X345563Y-248995D01*
Y-249001D01*
X345058Y-249800D01*
X344426D01*
X345086Y-248757D01*
X345164Y-248646D01*
X345236Y-248546D01*
X345308Y-248462D01*
X345369Y-248385D01*
X345425Y-248329D01*
X345469Y-248285D01*
X345497Y-248257D01*
X345508Y-248246D01*
X345552Y-248213D01*
X345602Y-248174D01*
X345702Y-248113D01*
X345746Y-248091D01*
X345780Y-248068D01*
X345802Y-248057D01*
X345813Y-248052D01*
X345713Y-248035D01*
X345619Y-248018D01*
X345536Y-247991D01*
X345452Y-247969D01*
X345380Y-247941D01*
X345314Y-247907D01*
X345253Y-247880D01*
X345197Y-247852D01*
X345153Y-247819D01*
X345108Y-247791D01*
X345075Y-247769D01*
X345047Y-247746D01*
X345025Y-247730D01*
X345008Y-247713D01*
X345003Y-247708D01*
X344997Y-247702D01*
X344953Y-247647D01*
X344908Y-247591D01*
X344842Y-247475D01*
X344797Y-247358D01*
X344764Y-247247D01*
X344742Y-247153D01*
X344736Y-247114D01*
Y-247075D01*
X344731Y-247047D01*
Y-247025D01*
Y-247014D01*
Y-247008D01*
X344736Y-246892D01*
X344753Y-246786D01*
X344781Y-246687D01*
X344809Y-246603D01*
X344842Y-246531D01*
X344864Y-246476D01*
X344886Y-246442D01*
X344892Y-246437D01*
Y-246431D01*
X344958Y-246342D01*
X345025Y-246265D01*
X345097Y-246198D01*
X345164Y-246148D01*
X345225Y-246109D01*
X345275Y-246087D01*
X345308Y-246070D01*
X345314Y-246065D01*
X345319D01*
X345369Y-246048D01*
X345430Y-246032D01*
X345552Y-246004D01*
X345685Y-245987D01*
X345808Y-245971D01*
X345924Y-245965D01*
X345974D01*
X346018Y-245959D01*
X347800D01*
Y-249800D01*
D02*
G37*
G36*
X51011Y-187037D02*
X51072Y-187126D01*
X51144Y-187215D01*
X51210Y-187292D01*
X51277Y-187359D01*
X51327Y-187415D01*
X51349Y-187431D01*
X51366Y-187448D01*
X51371Y-187453D01*
X51377Y-187459D01*
X51494Y-187553D01*
X51610Y-187642D01*
X51721Y-187720D01*
X51832Y-187781D01*
X51926Y-187836D01*
X51965Y-187858D01*
X51999Y-187875D01*
X52026Y-187892D01*
X52048Y-187897D01*
X52060Y-187908D01*
X52065D01*
Y-188364D01*
X51982Y-188330D01*
X51899Y-188291D01*
X51815Y-188252D01*
X51738Y-188214D01*
X51671Y-188180D01*
X51616Y-188153D01*
X51582Y-188130D01*
X51577Y-188125D01*
X51571D01*
X51471Y-188064D01*
X51382Y-188003D01*
X51305Y-187947D01*
X51244Y-187897D01*
X51188Y-187858D01*
X51155Y-187825D01*
X51127Y-187803D01*
X51122Y-187797D01*
Y-190800D01*
X50650D01*
Y-186943D01*
X50955D01*
X51011Y-187037D01*
D02*
G37*
G36*
X56100Y-190800D02*
X55589D01*
Y-189096D01*
X54935D01*
X54874Y-189102D01*
X54829D01*
X54790Y-189107D01*
X54763Y-189113D01*
X54740D01*
X54729Y-189118D01*
X54724D01*
X54635Y-189146D01*
X54596Y-189163D01*
X54563Y-189179D01*
X54529Y-189196D01*
X54507Y-189207D01*
X54496Y-189213D01*
X54491Y-189218D01*
X54446Y-189251D01*
X54402Y-189290D01*
X54318Y-189374D01*
X54280Y-189412D01*
X54252Y-189446D01*
X54235Y-189468D01*
X54230Y-189474D01*
X54174Y-189551D01*
X54113Y-189635D01*
X54052Y-189723D01*
X53991Y-189806D01*
X53941Y-189884D01*
X53902Y-189945D01*
X53886Y-189968D01*
X53874Y-189984D01*
X53863Y-189995D01*
Y-190001D01*
X53358Y-190800D01*
X52726D01*
X53386Y-189757D01*
X53464Y-189646D01*
X53536Y-189546D01*
X53608Y-189462D01*
X53669Y-189385D01*
X53725Y-189329D01*
X53769Y-189285D01*
X53797Y-189257D01*
X53808Y-189246D01*
X53852Y-189213D01*
X53902Y-189174D01*
X54002Y-189113D01*
X54046Y-189091D01*
X54080Y-189068D01*
X54102Y-189057D01*
X54113Y-189052D01*
X54013Y-189035D01*
X53919Y-189018D01*
X53836Y-188991D01*
X53752Y-188969D01*
X53680Y-188941D01*
X53614Y-188907D01*
X53553Y-188880D01*
X53497Y-188852D01*
X53453Y-188819D01*
X53408Y-188791D01*
X53375Y-188769D01*
X53347Y-188747D01*
X53325Y-188730D01*
X53308Y-188713D01*
X53303Y-188708D01*
X53297Y-188702D01*
X53253Y-188647D01*
X53209Y-188591D01*
X53142Y-188475D01*
X53097Y-188358D01*
X53064Y-188247D01*
X53042Y-188153D01*
X53036Y-188114D01*
Y-188075D01*
X53031Y-188047D01*
Y-188025D01*
Y-188014D01*
Y-188008D01*
X53036Y-187892D01*
X53053Y-187786D01*
X53081Y-187686D01*
X53109Y-187603D01*
X53142Y-187531D01*
X53164Y-187476D01*
X53186Y-187442D01*
X53192Y-187437D01*
Y-187431D01*
X53258Y-187342D01*
X53325Y-187265D01*
X53397Y-187198D01*
X53464Y-187148D01*
X53525Y-187109D01*
X53575Y-187087D01*
X53608Y-187070D01*
X53614Y-187065D01*
X53619D01*
X53669Y-187048D01*
X53730Y-187031D01*
X53852Y-187004D01*
X53986Y-186987D01*
X54108Y-186970D01*
X54224Y-186965D01*
X54274D01*
X54318Y-186959D01*
X56100D01*
Y-190800D01*
D02*
G37*
%LPC*%
G36*
X347289Y-246387D02*
X346079D01*
X345930Y-246392D01*
X345802Y-246414D01*
X345691Y-246442D01*
X345608Y-246476D01*
X345536Y-246509D01*
X345491Y-246537D01*
X345463Y-246559D01*
X345452Y-246564D01*
X345386Y-246637D01*
X345336Y-246709D01*
X345303Y-246786D01*
X345275Y-246853D01*
X345264Y-246919D01*
X345258Y-246970D01*
X345253Y-247003D01*
Y-247008D01*
Y-247014D01*
X345258Y-247080D01*
X345269Y-247147D01*
X345286Y-247203D01*
X345303Y-247253D01*
X345325Y-247297D01*
X345341Y-247330D01*
X345352Y-247352D01*
X345358Y-247358D01*
X345397Y-247413D01*
X345447Y-247463D01*
X345497Y-247502D01*
X345547Y-247536D01*
X345591Y-247558D01*
X345624Y-247574D01*
X345647Y-247586D01*
X345658Y-247591D01*
X345735Y-247613D01*
X345824Y-247630D01*
X345913Y-247641D01*
X346002Y-247647D01*
X346079Y-247652D01*
X346146Y-247658D01*
X347289D01*
Y-246387D01*
D02*
G37*
G36*
X55589Y-187387D02*
X54379D01*
X54230Y-187392D01*
X54102Y-187415D01*
X53991Y-187442D01*
X53908Y-187476D01*
X53836Y-187509D01*
X53791Y-187537D01*
X53764Y-187559D01*
X53752Y-187564D01*
X53686Y-187636D01*
X53636Y-187709D01*
X53602Y-187786D01*
X53575Y-187853D01*
X53564Y-187920D01*
X53558Y-187970D01*
X53553Y-188003D01*
Y-188008D01*
Y-188014D01*
X53558Y-188081D01*
X53569Y-188147D01*
X53586Y-188203D01*
X53602Y-188252D01*
X53625Y-188297D01*
X53641Y-188330D01*
X53652Y-188352D01*
X53658Y-188358D01*
X53697Y-188414D01*
X53747Y-188463D01*
X53797Y-188502D01*
X53847Y-188536D01*
X53891Y-188558D01*
X53924Y-188575D01*
X53947Y-188585D01*
X53958Y-188591D01*
X54035Y-188613D01*
X54124Y-188630D01*
X54213Y-188641D01*
X54302Y-188647D01*
X54379Y-188652D01*
X54446Y-188658D01*
X55589D01*
Y-187387D01*
D02*
G37*
%LPD*%
D10*
X54000Y-201000D02*
X57000D01*
Y-221000D02*
Y-201000D01*
X51000Y-221000D02*
X57000D01*
X51000D02*
Y-201000D01*
X54000D01*
Y-221900D02*
Y-221000D01*
Y-201000D02*
Y-200100D01*
X342000Y-280000D02*
X345000D01*
X342000D02*
Y-260000D01*
X348000D01*
Y-280000D02*
Y-260000D01*
X345000Y-280000D02*
X348000D01*
X345000Y-260000D02*
Y-259100D01*
Y-280900D02*
Y-280000D01*
M02*
