G04*
G04 #@! TF.GenerationSoftware,Altium Limited,Altium Designer,19.1.8 (144)*
G04*
G04 Layer_Color=16711935*
%FSLAX25Y25*%
%MOIN*%
G70*
G01*
G75*
%ADD20C,0.06312*%
%ADD21C,0.06706*%
%ADD22R,0.06706X0.06706*%
%ADD23C,0.06115*%
%ADD24R,0.06115X0.06115*%
%ADD25R,0.06115X0.06115*%
%ADD26C,0.03162*%
D20*
X54000Y-196000D02*
D03*
Y-226000D02*
D03*
X345000Y-285000D02*
D03*
Y-255000D02*
D03*
D21*
X196500Y-192500D02*
D03*
Y-202500D02*
D03*
Y-212500D02*
D03*
Y-222500D02*
D03*
Y-232500D02*
D03*
Y-242500D02*
D03*
Y-252500D02*
D03*
Y-262500D02*
D03*
Y-272500D02*
D03*
Y-282500D02*
D03*
Y-292500D02*
D03*
X183000Y-93000D02*
D03*
Y-23000D02*
D03*
Y-33000D02*
D03*
Y-43000D02*
D03*
Y-53000D02*
D03*
Y-63000D02*
D03*
Y-73000D02*
D03*
Y-83000D02*
D03*
Y-103000D02*
D03*
X208000Y-43500D02*
D03*
Y-113500D02*
D03*
Y-103500D02*
D03*
Y-93500D02*
D03*
Y-83500D02*
D03*
Y-73500D02*
D03*
Y-63500D02*
D03*
Y-53500D02*
D03*
Y-33500D02*
D03*
D22*
X196500Y-302500D02*
D03*
X183000Y-113000D02*
D03*
X208000Y-23500D02*
D03*
D23*
X193750Y-151157D02*
D03*
X175000D02*
D03*
X248843Y-153000D02*
D03*
X212500Y-151157D02*
D03*
X205343Y-5500D02*
D03*
X165647Y-7804D02*
D03*
X182158Y-134500D02*
D03*
X225500Y-132343D02*
D03*
D24*
X193750Y-170843D02*
D03*
X175000D02*
D03*
X212500D02*
D03*
X165646Y-27489D02*
D03*
X225500Y-112657D02*
D03*
D25*
X229157Y-153000D02*
D03*
X185658Y-5500D02*
D03*
X201842Y-134500D02*
D03*
D26*
X86000Y-260000D02*
D03*
X170500Y-182000D02*
D03*
Y-191000D02*
D03*
X248000Y-197500D02*
D03*
X234500Y-200500D02*
D03*
X225000Y-198000D02*
D03*
X253000Y-270500D02*
D03*
X258000Y-274000D02*
D03*
X221000Y-253500D02*
D03*
X188500Y-268500D02*
D03*
X186000Y-275500D02*
D03*
X313500Y-221000D02*
D03*
X301500Y-222500D02*
D03*
X259000Y-251500D02*
D03*
X258000Y-259500D02*
D03*
X221000Y-224000D02*
D03*
X229000Y-230500D02*
D03*
X213500Y-219500D02*
D03*
X208500Y-276500D02*
D03*
X211000Y-282000D02*
D03*
X221000Y-265500D02*
D03*
X226500Y-273500D02*
D03*
X288500Y-275500D02*
D03*
X285500Y-275000D02*
D03*
X218000Y-214500D02*
D03*
X323000Y-227500D02*
D03*
X301500Y-238500D02*
D03*
X313000Y-241000D02*
D03*
X302500Y-231500D02*
D03*
X283000Y-282000D02*
D03*
X338500Y-278000D02*
D03*
X350500Y-255000D02*
D03*
X373500Y-236000D02*
D03*
X353500Y-240000D02*
D03*
X373500Y-250500D02*
D03*
X368500Y-242000D02*
D03*
X365500Y-219000D02*
D03*
X356000Y-222500D02*
D03*
X343000Y-220000D02*
D03*
X336000Y-222500D02*
D03*
X344000Y-224500D02*
D03*
X330500Y-237000D02*
D03*
X315000Y-218000D02*
D03*
X303500Y-208000D02*
D03*
X321000Y-217500D02*
D03*
X314000Y-235500D02*
D03*
X293000Y-221000D02*
D03*
X264000Y-219000D02*
D03*
X281000Y-234500D02*
D03*
X262500Y-240000D02*
D03*
X279500Y-250000D02*
D03*
X259000Y-265000D02*
D03*
X281500Y-262500D02*
D03*
X279000Y-282000D02*
D03*
X281500Y-295000D02*
D03*
X251000Y-320500D02*
D03*
X244500Y-304500D02*
D03*
X264000Y-300500D02*
D03*
X301500Y-293000D02*
D03*
X265500Y-320000D02*
D03*
X296000Y-308000D02*
D03*
X295000Y-302000D02*
D03*
X291500Y-305500D02*
D03*
X284500Y-317000D02*
D03*
X309000Y-306500D02*
D03*
X318500Y-301500D02*
D03*
X306000D02*
D03*
X313500Y-290500D02*
D03*
X329500Y-291000D02*
D03*
X342500Y-313000D02*
D03*
X351500Y-289500D02*
D03*
X367500Y-283000D02*
D03*
X353000Y-271500D02*
D03*
X354000Y-256500D02*
D03*
X344000Y-301500D02*
D03*
X307000Y-296500D02*
D03*
X285500Y-301500D02*
D03*
X264000Y-296500D02*
D03*
Y-280500D02*
D03*
X261500Y-277500D02*
D03*
X265500Y-260500D02*
D03*
X260500Y-243500D02*
D03*
X262000Y-226000D02*
D03*
X299000Y-232000D02*
D03*
X317500Y-232500D02*
D03*
X333500Y-237500D02*
D03*
X367000Y-227500D02*
D03*
X366000Y-244500D02*
D03*
X369500Y-259500D02*
D03*
X367500Y-262000D02*
D03*
X370000Y-279000D02*
D03*
X371500Y-306000D02*
D03*
X366000Y-301500D02*
D03*
X302000Y-241496D02*
D03*
X284500Y-215000D02*
D03*
X269500Y-213000D02*
D03*
X270000Y-210000D02*
D03*
X293500Y-242000D02*
D03*
X297500D02*
D03*
X293500Y-245500D02*
D03*
X295000Y-277000D02*
D03*
X283500Y-286000D02*
D03*
X234500Y-267000D02*
D03*
X242500Y-278000D02*
D03*
X230500Y-256000D02*
D03*
X252000Y-288500D02*
D03*
X266500Y-213000D02*
D03*
X76000Y-226500D02*
D03*
X83500D02*
D03*
X91000D02*
D03*
Y-211500D02*
D03*
X83500D02*
D03*
X76000D02*
D03*
Y-219000D02*
D03*
X91000Y-219100D02*
D03*
X83500Y-219000D02*
D03*
X323000Y-254500D02*
D03*
X315500D02*
D03*
X308000D02*
D03*
Y-269500D02*
D03*
X315500D02*
D03*
X323000D02*
D03*
Y-262000D02*
D03*
X308000Y-261900D02*
D03*
X315500Y-262000D02*
D03*
X132500Y-268000D02*
D03*
X147000Y-192500D02*
D03*
X168500Y-225000D02*
D03*
X156500Y-203000D02*
D03*
X164500Y-214000D02*
D03*
X182500Y-223500D02*
D03*
X175500Y-227500D02*
D03*
X115500Y-195000D02*
D03*
X104000Y-204000D02*
D03*
X151000Y-283500D02*
D03*
X105500Y-235500D02*
D03*
X101500Y-239000D02*
D03*
X105500D02*
D03*
X129000Y-271000D02*
D03*
X129500Y-268000D02*
D03*
X114500Y-266000D02*
D03*
X97000Y-239504D02*
D03*
X33000Y-179500D02*
D03*
X27500Y-175000D02*
D03*
X29000Y-202000D02*
D03*
X31500Y-219000D02*
D03*
X29500Y-221500D02*
D03*
X33000Y-236500D02*
D03*
X32000Y-253500D02*
D03*
X65500Y-243500D02*
D03*
X81500Y-248500D02*
D03*
X100000Y-249000D02*
D03*
X137000Y-255000D02*
D03*
X138500Y-237500D02*
D03*
X133500Y-220500D02*
D03*
X137500Y-203500D02*
D03*
X135000Y-200500D02*
D03*
Y-184500D02*
D03*
X113500Y-179500D02*
D03*
X92000Y-184500D02*
D03*
X55000Y-179500D02*
D03*
X45000Y-224500D02*
D03*
X46000Y-209500D02*
D03*
X31500Y-198000D02*
D03*
X47500Y-191500D02*
D03*
X56500Y-168000D02*
D03*
X69500Y-190000D02*
D03*
X85500Y-190500D02*
D03*
X93000Y-179500D02*
D03*
X80500D02*
D03*
X90000Y-174500D02*
D03*
X114500Y-164000D02*
D03*
X107500Y-175500D02*
D03*
X104000Y-179000D02*
D03*
X103000Y-173000D02*
D03*
X133500Y-161000D02*
D03*
X97500Y-188000D02*
D03*
X135000Y-180500D02*
D03*
X154500Y-176500D02*
D03*
X148000Y-160500D02*
D03*
X117500Y-186000D02*
D03*
X120000Y-199000D02*
D03*
X117500Y-218500D02*
D03*
X140000Y-216000D02*
D03*
X119500Y-231000D02*
D03*
X136500Y-241000D02*
D03*
X118000Y-246500D02*
D03*
X135000Y-262000D02*
D03*
X106000Y-260000D02*
D03*
X85000Y-245500D02*
D03*
X78000Y-263500D02*
D03*
X95500Y-273000D02*
D03*
X84000Y-263000D02*
D03*
X68500Y-244000D02*
D03*
X55000Y-256500D02*
D03*
X63000Y-258500D02*
D03*
X56000Y-261000D02*
D03*
X43000Y-258500D02*
D03*
X33500Y-262000D02*
D03*
X30500Y-239000D02*
D03*
X25500Y-230500D02*
D03*
X45500Y-241000D02*
D03*
X25500Y-245000D02*
D03*
X48500Y-226000D02*
D03*
X60500Y-203000D02*
D03*
X105500Y-207000D02*
D03*
X116000Y-199000D02*
D03*
X96500Y-249500D02*
D03*
X86000Y-240000D02*
D03*
X97500Y-242500D02*
D03*
X76000Y-253500D02*
D03*
X296500Y-55000D02*
D03*
X341500Y-72500D02*
D03*
X346500D02*
D03*
X290500Y-76000D02*
D03*
X316500Y-73000D02*
D03*
X309000Y-72900D02*
D03*
X324000Y-73000D02*
D03*
Y-80500D02*
D03*
X316500D02*
D03*
X309000D02*
D03*
Y-65500D02*
D03*
X316500D02*
D03*
X324000D02*
D03*
X74500Y-63500D02*
D03*
X82000Y-63600D02*
D03*
X67000Y-63500D02*
D03*
Y-56000D02*
D03*
X74500D02*
D03*
X82000D02*
D03*
Y-71000D02*
D03*
X74500D02*
D03*
X67000D02*
D03*
X242000Y-32500D02*
D03*
X159000Y-104000D02*
D03*
X173000Y-93000D02*
D03*
X227000Y-73000D02*
D03*
X193500Y-55500D02*
D03*
X259000Y-96000D02*
D03*
X218500Y-84500D02*
D03*
X233500Y-97000D02*
D03*
X232000Y-73500D02*
D03*
X231500Y-60000D02*
D03*
X198000Y-66500D02*
D03*
X127000Y-55000D02*
D03*
X194000Y-79000D02*
D03*
X263500Y-81000D02*
D03*
X381500Y-84000D02*
D03*
X373000Y-90500D02*
D03*
X362000Y-80000D02*
D03*
X366000Y-49000D02*
D03*
X365000Y-57500D02*
D03*
X259500Y-121500D02*
D03*
X278000Y-105500D02*
D03*
X287000Y-116500D02*
D03*
X301000Y-104000D02*
D03*
X313000Y-104500D02*
D03*
X331500Y-114500D02*
D03*
X325500Y-103500D02*
D03*
X348000Y-112500D02*
D03*
X339000Y-103250D02*
D03*
X362000Y-103500D02*
D03*
X354250Y-103750D02*
D03*
X373500Y-125500D02*
D03*
X348500Y-123500D02*
D03*
X324500D02*
D03*
X271500Y-104000D02*
D03*
X267500Y-51500D02*
D03*
X263500Y-29500D02*
D03*
X285500Y-27000D02*
D03*
X302500Y-26000D02*
D03*
X325500Y-25500D02*
D03*
X342000Y-26500D02*
D03*
X362500Y-25500D02*
D03*
X357000Y-53000D02*
D03*
X346500Y-81500D02*
D03*
X351000Y-105000D02*
D03*
X332500D02*
D03*
X320500Y-104500D02*
D03*
X308000Y-120000D02*
D03*
X297000Y-122500D02*
D03*
X306500Y-105500D02*
D03*
X293000Y-104000D02*
D03*
X259000Y-70500D02*
D03*
X243000Y-77500D02*
D03*
X224000Y-32000D02*
D03*
X282500Y-90500D02*
D03*
X279000Y-93000D02*
D03*
X285000Y-84000D02*
D03*
X281000Y-84500D02*
D03*
X294500Y-48000D02*
D03*
X378500Y-45500D02*
D03*
X372000Y-51500D02*
D03*
X270000Y-124000D02*
D03*
X243500Y-124500D02*
D03*
X227000Y-55000D02*
D03*
X257000Y-64500D02*
D03*
X237500Y-62000D02*
D03*
X240000Y-86000D02*
D03*
X151000Y-50500D02*
D03*
X153500Y-74500D02*
D03*
X157500Y-61000D02*
D03*
X134000Y-72000D02*
D03*
X147500Y-12000D02*
D03*
X121000Y-12500D02*
D03*
X19000Y-85000D02*
D03*
X12500Y-91000D02*
D03*
X94500Y-81500D02*
D03*
X96500Y-88500D02*
D03*
X110000Y-52000D02*
D03*
X106000Y-52500D02*
D03*
X112000Y-43500D02*
D03*
X108500Y-46000D02*
D03*
X167000Y-104500D02*
D03*
X100500Y-60500D02*
D03*
X114000Y-64000D02*
D03*
X148000Y-59000D02*
D03*
X159000Y-75500D02*
D03*
X132000Y-66000D02*
D03*
X45500Y-63500D02*
D03*
X49500Y-64000D02*
D03*
X98000Y-32500D02*
D03*
X84500Y-31000D02*
D03*
X94000Y-14000D02*
D03*
X83000Y-16500D02*
D03*
X70500Y-32000D02*
D03*
X58500Y-31500D02*
D03*
X40000D02*
D03*
X44500Y-55000D02*
D03*
X34000Y-83500D02*
D03*
X28500Y-111000D02*
D03*
X49000Y-110000D02*
D03*
X65500Y-111000D02*
D03*
X88500Y-110500D02*
D03*
X105500Y-109500D02*
D03*
X127500Y-107000D02*
D03*
X123500Y-85000D02*
D03*
X119500Y-32500D02*
D03*
X66500Y-13000D02*
D03*
X42500D02*
D03*
X17500Y-11000D02*
D03*
X18000Y-46000D02*
D03*
X36750Y-32750D02*
D03*
X29000Y-33000D02*
D03*
X52000Y-33250D02*
D03*
X43000Y-24000D02*
D03*
X65500Y-33000D02*
D03*
X59500Y-22000D02*
D03*
X78000Y-32000D02*
D03*
X90000Y-32500D02*
D03*
X104000Y-20000D02*
D03*
X113000Y-31000D02*
D03*
X131500Y-15000D02*
D03*
X26000Y-79000D02*
D03*
X25000Y-87500D02*
D03*
X29000Y-56500D02*
D03*
X9500Y-52500D02*
D03*
M02*
