G04*
G04 #@! TF.GenerationSoftware,Altium Limited,Altium Designer,19.1.8 (144)*
G04*
G04 Layer_Color=8388736*
%FSLAX25Y25*%
%MOIN*%
G70*
G01*
G75*
G04:AMPARAMS|DCode=14|XSize=62.72mil|YSize=45.8mil|CornerRadius=0mil|HoleSize=0mil|Usage=FLASHONLY|Rotation=225.000|XOffset=0mil|YOffset=0mil|HoleType=Round|Shape=Rectangle|*
%AMROTATEDRECTD14*
4,1,4,0.00599,0.03837,0.03837,0.00599,-0.00599,-0.03837,-0.03837,-0.00599,0.00599,0.03837,0.0*
%
%ADD14ROTATEDRECTD14*%

%ADD15R,0.03950X0.02965*%
%ADD16R,0.04343X0.01981*%
%ADD17R,0.01981X0.04343*%
%ADD18R,0.23241X0.23241*%
%ADD19R,0.04580X0.06272*%
%ADD20C,0.06312*%
%ADD21C,0.06706*%
%ADD22R,0.06706X0.06706*%
%ADD23C,0.06115*%
%ADD24R,0.06115X0.06115*%
%ADD25R,0.06115X0.06115*%
%ADD26C,0.03162*%
D14*
X104301Y-197301D02*
D03*
X108699Y-201699D02*
D03*
X294699Y-283699D02*
D03*
X290301Y-279301D02*
D03*
D15*
X43799Y-217978D02*
D03*
Y-221478D02*
D03*
X37500Y-221522D02*
D03*
Y-217978D02*
D03*
X43799Y-234853D02*
D03*
Y-238353D02*
D03*
X37500Y-238397D02*
D03*
Y-234853D02*
D03*
X43799Y-251728D02*
D03*
Y-255228D02*
D03*
X37500Y-255272D02*
D03*
Y-251728D02*
D03*
X65812D02*
D03*
Y-255228D02*
D03*
X59513Y-255272D02*
D03*
Y-251728D02*
D03*
X87824D02*
D03*
Y-255228D02*
D03*
X81525Y-255272D02*
D03*
Y-251728D02*
D03*
X109837D02*
D03*
Y-255228D02*
D03*
X103538Y-255272D02*
D03*
Y-251728D02*
D03*
X123850Y-255272D02*
D03*
Y-251772D02*
D03*
X130150Y-251728D02*
D03*
Y-255272D02*
D03*
X123850Y-237897D02*
D03*
Y-234397D02*
D03*
X130150Y-234353D02*
D03*
Y-237897D02*
D03*
X43799Y-201103D02*
D03*
Y-204603D02*
D03*
X37500Y-204647D02*
D03*
Y-201103D02*
D03*
X43799Y-183728D02*
D03*
Y-187228D02*
D03*
X37500Y-187272D02*
D03*
Y-183728D02*
D03*
X65812D02*
D03*
Y-187228D02*
D03*
X59513Y-187272D02*
D03*
Y-183728D02*
D03*
X81525Y-187272D02*
D03*
Y-183772D02*
D03*
X87824Y-183728D02*
D03*
Y-187272D02*
D03*
X103538D02*
D03*
Y-183772D02*
D03*
X109837Y-183728D02*
D03*
Y-187272D02*
D03*
X123850D02*
D03*
Y-183772D02*
D03*
X130150Y-183728D02*
D03*
Y-187272D02*
D03*
X123850Y-204147D02*
D03*
Y-200647D02*
D03*
X130150Y-200603D02*
D03*
Y-204147D02*
D03*
X123850Y-221022D02*
D03*
Y-217522D02*
D03*
X130150Y-217478D02*
D03*
Y-221022D02*
D03*
X19650Y-216228D02*
D03*
Y-219728D02*
D03*
X13350Y-219772D02*
D03*
Y-216228D02*
D03*
X19650Y-244478D02*
D03*
Y-247978D02*
D03*
X13350Y-248022D02*
D03*
Y-244478D02*
D03*
X19650Y-272728D02*
D03*
Y-276228D02*
D03*
X13350Y-276272D02*
D03*
Y-272728D02*
D03*
X47950Y-276272D02*
D03*
Y-272772D02*
D03*
X54250Y-272728D02*
D03*
Y-276272D02*
D03*
X83250D02*
D03*
Y-272772D02*
D03*
X89550Y-272728D02*
D03*
Y-276272D02*
D03*
X118550D02*
D03*
Y-272772D02*
D03*
X124850Y-272728D02*
D03*
Y-276272D02*
D03*
X153850D02*
D03*
Y-272772D02*
D03*
X160150Y-272728D02*
D03*
Y-276272D02*
D03*
X153850Y-248022D02*
D03*
Y-244522D02*
D03*
X160150Y-244478D02*
D03*
Y-248022D02*
D03*
X19650Y-187978D02*
D03*
Y-191478D02*
D03*
X13350Y-191522D02*
D03*
Y-187978D02*
D03*
X19650Y-159728D02*
D03*
Y-163228D02*
D03*
X13350Y-163272D02*
D03*
Y-159728D02*
D03*
X55200D02*
D03*
Y-163228D02*
D03*
X48900Y-163272D02*
D03*
Y-159728D02*
D03*
X90750D02*
D03*
Y-163228D02*
D03*
X84450Y-163272D02*
D03*
Y-159728D02*
D03*
X126300D02*
D03*
Y-163228D02*
D03*
X120000Y-163272D02*
D03*
Y-159728D02*
D03*
X153850Y-163272D02*
D03*
Y-159772D02*
D03*
X160150Y-159728D02*
D03*
Y-163272D02*
D03*
X153850Y-191522D02*
D03*
Y-188022D02*
D03*
X160150Y-187978D02*
D03*
Y-191522D02*
D03*
X153850Y-219772D02*
D03*
Y-216272D02*
D03*
X160150Y-216228D02*
D03*
Y-219772D02*
D03*
X355201Y-263022D02*
D03*
Y-259522D02*
D03*
X361500Y-259478D02*
D03*
Y-263022D02*
D03*
X355201Y-246147D02*
D03*
Y-242647D02*
D03*
X361500Y-242603D02*
D03*
Y-246147D02*
D03*
X355201Y-229272D02*
D03*
Y-225772D02*
D03*
X361500Y-225728D02*
D03*
Y-229272D02*
D03*
X333188D02*
D03*
Y-225772D02*
D03*
X339487Y-225728D02*
D03*
Y-229272D02*
D03*
X311176D02*
D03*
Y-225772D02*
D03*
X317475Y-225728D02*
D03*
Y-229272D02*
D03*
X289163D02*
D03*
Y-225772D02*
D03*
X295462Y-225728D02*
D03*
Y-229272D02*
D03*
X275150Y-225728D02*
D03*
Y-229228D02*
D03*
X268850Y-229272D02*
D03*
Y-225728D02*
D03*
X275150Y-243103D02*
D03*
Y-246603D02*
D03*
X268850Y-246647D02*
D03*
Y-243103D02*
D03*
X355201Y-279897D02*
D03*
Y-276397D02*
D03*
X361500Y-276353D02*
D03*
Y-279897D02*
D03*
X355201Y-297272D02*
D03*
Y-293772D02*
D03*
X361500Y-293728D02*
D03*
Y-297272D02*
D03*
X333188D02*
D03*
Y-293772D02*
D03*
X339487Y-293728D02*
D03*
Y-297272D02*
D03*
X317475Y-293728D02*
D03*
Y-297228D02*
D03*
X311176Y-297272D02*
D03*
Y-293728D02*
D03*
X295462D02*
D03*
Y-297228D02*
D03*
X289163Y-297272D02*
D03*
Y-293728D02*
D03*
X275150D02*
D03*
Y-297228D02*
D03*
X268850Y-297272D02*
D03*
Y-293728D02*
D03*
X275150Y-276853D02*
D03*
Y-280353D02*
D03*
X268850Y-280397D02*
D03*
Y-276853D02*
D03*
X275150Y-259978D02*
D03*
Y-263478D02*
D03*
X268850Y-263522D02*
D03*
Y-259978D02*
D03*
X379350Y-264772D02*
D03*
Y-261272D02*
D03*
X385650Y-261228D02*
D03*
Y-264772D02*
D03*
X379350Y-236522D02*
D03*
Y-233022D02*
D03*
X385650Y-232978D02*
D03*
Y-236522D02*
D03*
X379350Y-208272D02*
D03*
Y-204772D02*
D03*
X385650Y-204728D02*
D03*
Y-208272D02*
D03*
X351050Y-204728D02*
D03*
Y-208228D02*
D03*
X344750Y-208272D02*
D03*
Y-204728D02*
D03*
X315750D02*
D03*
Y-208228D02*
D03*
X309450Y-208272D02*
D03*
Y-204728D02*
D03*
X280450D02*
D03*
Y-208228D02*
D03*
X274150Y-208272D02*
D03*
Y-204728D02*
D03*
X245150D02*
D03*
Y-208228D02*
D03*
X238850Y-208272D02*
D03*
Y-204728D02*
D03*
X245150Y-232978D02*
D03*
Y-236478D02*
D03*
X238850Y-236522D02*
D03*
Y-232978D02*
D03*
X379350Y-293022D02*
D03*
Y-289522D02*
D03*
X385650Y-289478D02*
D03*
Y-293022D02*
D03*
X379350Y-321272D02*
D03*
Y-317772D02*
D03*
X385650Y-317728D02*
D03*
Y-321272D02*
D03*
X343800D02*
D03*
Y-317772D02*
D03*
X350100Y-317728D02*
D03*
Y-321272D02*
D03*
X308250D02*
D03*
Y-317772D02*
D03*
X314550Y-317728D02*
D03*
Y-321272D02*
D03*
X272700D02*
D03*
Y-317772D02*
D03*
X279000Y-317728D02*
D03*
Y-321272D02*
D03*
X245150Y-317728D02*
D03*
Y-321228D02*
D03*
X238850Y-321272D02*
D03*
Y-317728D02*
D03*
X245150Y-289478D02*
D03*
Y-292978D02*
D03*
X238850Y-293022D02*
D03*
Y-289478D02*
D03*
X245150Y-261228D02*
D03*
Y-264728D02*
D03*
X238850Y-264772D02*
D03*
Y-261228D02*
D03*
X141850Y-7272D02*
D03*
Y-3772D02*
D03*
X148150Y-3728D02*
D03*
Y-7272D02*
D03*
X88411D02*
D03*
Y-3772D02*
D03*
X94710Y-3728D02*
D03*
Y-7272D02*
D03*
X115981D02*
D03*
Y-3772D02*
D03*
X122280Y-3728D02*
D03*
Y-7272D02*
D03*
X60841D02*
D03*
Y-3772D02*
D03*
X67140Y-3728D02*
D03*
Y-7272D02*
D03*
X33271D02*
D03*
Y-3772D02*
D03*
X39570Y-3728D02*
D03*
Y-7272D02*
D03*
X5701D02*
D03*
Y-3772D02*
D03*
X12000Y-3728D02*
D03*
Y-7272D02*
D03*
X379000Y-15043D02*
D03*
Y-11543D02*
D03*
X385299Y-11500D02*
D03*
Y-15043D02*
D03*
X331859Y-11500D02*
D03*
Y-15000D02*
D03*
X325560Y-15043D02*
D03*
Y-11500D02*
D03*
X304289D02*
D03*
Y-15000D02*
D03*
X297990Y-15043D02*
D03*
Y-11500D02*
D03*
X249150D02*
D03*
Y-15000D02*
D03*
X242850Y-15043D02*
D03*
Y-11500D02*
D03*
X385299Y-52047D02*
D03*
Y-55547D02*
D03*
X379000Y-55591D02*
D03*
Y-52047D02*
D03*
X359429Y-11500D02*
D03*
Y-15000D02*
D03*
X353130Y-15043D02*
D03*
Y-11500D02*
D03*
X276719D02*
D03*
Y-15000D02*
D03*
X270420Y-15043D02*
D03*
Y-11500D02*
D03*
X242850Y-56105D02*
D03*
Y-52605D02*
D03*
X249150Y-52562D02*
D03*
Y-56105D02*
D03*
X385299Y-90638D02*
D03*
Y-94138D02*
D03*
X379000Y-94181D02*
D03*
Y-90638D02*
D03*
X357729Y-129228D02*
D03*
Y-132728D02*
D03*
X351430Y-132772D02*
D03*
Y-129228D02*
D03*
X275020D02*
D03*
Y-132728D02*
D03*
X268720Y-132772D02*
D03*
Y-129228D02*
D03*
X249150Y-90895D02*
D03*
Y-94395D02*
D03*
X242850Y-94438D02*
D03*
Y-90895D02*
D03*
X385299Y-129228D02*
D03*
Y-132728D02*
D03*
X379000Y-132772D02*
D03*
Y-129228D02*
D03*
X330159D02*
D03*
Y-132728D02*
D03*
X323860Y-132772D02*
D03*
Y-129228D02*
D03*
X302589D02*
D03*
Y-132728D02*
D03*
X296290Y-132772D02*
D03*
Y-129228D02*
D03*
X249150D02*
D03*
Y-132728D02*
D03*
X242850Y-132772D02*
D03*
Y-129228D02*
D03*
X360150Y-31228D02*
D03*
Y-34728D02*
D03*
X353850Y-34772D02*
D03*
Y-31228D02*
D03*
X327970D02*
D03*
Y-34728D02*
D03*
X321670Y-34772D02*
D03*
Y-31228D02*
D03*
X311030D02*
D03*
Y-34728D02*
D03*
X304730Y-34772D02*
D03*
Y-31228D02*
D03*
X277150D02*
D03*
Y-34728D02*
D03*
X270850Y-34772D02*
D03*
Y-31228D02*
D03*
X360150Y-57562D02*
D03*
Y-61062D02*
D03*
X353850Y-61105D02*
D03*
Y-57562D02*
D03*
X344910Y-31228D02*
D03*
Y-34728D02*
D03*
X338610Y-34772D02*
D03*
Y-31228D02*
D03*
X294090D02*
D03*
Y-34728D02*
D03*
X287790Y-34772D02*
D03*
Y-31228D02*
D03*
X277150Y-56895D02*
D03*
Y-60395D02*
D03*
X270850Y-60438D02*
D03*
Y-56895D02*
D03*
X360150Y-83395D02*
D03*
Y-86895D02*
D03*
X353850Y-86938D02*
D03*
Y-83395D02*
D03*
X343150Y-109228D02*
D03*
Y-112728D02*
D03*
X336850Y-112772D02*
D03*
Y-109228D02*
D03*
X295799D02*
D03*
Y-112728D02*
D03*
X289500Y-112772D02*
D03*
Y-109228D02*
D03*
X277150Y-82562D02*
D03*
Y-86062D02*
D03*
X270850Y-86105D02*
D03*
Y-82562D02*
D03*
X360150Y-109228D02*
D03*
Y-112728D02*
D03*
X353850Y-112772D02*
D03*
Y-109228D02*
D03*
X326650D02*
D03*
Y-112728D02*
D03*
X320350Y-112772D02*
D03*
Y-109228D02*
D03*
X312150D02*
D03*
Y-112728D02*
D03*
X305850Y-112772D02*
D03*
Y-109228D02*
D03*
X277150D02*
D03*
Y-112728D02*
D03*
X270850Y-112772D02*
D03*
Y-109228D02*
D03*
X12000Y-121457D02*
D03*
Y-124957D02*
D03*
X5701Y-125000D02*
D03*
Y-121457D02*
D03*
X59141Y-125000D02*
D03*
Y-121500D02*
D03*
X65440Y-121457D02*
D03*
Y-125000D02*
D03*
X86711D02*
D03*
Y-121500D02*
D03*
X93010Y-121457D02*
D03*
Y-125000D02*
D03*
X141850D02*
D03*
Y-121500D02*
D03*
X148150Y-121457D02*
D03*
Y-125000D02*
D03*
X5701Y-84453D02*
D03*
Y-80953D02*
D03*
X12000Y-80909D02*
D03*
Y-84453D02*
D03*
X31571Y-125000D02*
D03*
Y-121500D02*
D03*
X37870Y-121457D02*
D03*
Y-125000D02*
D03*
X114280D02*
D03*
Y-121500D02*
D03*
X120580Y-121457D02*
D03*
Y-125000D02*
D03*
X148150Y-80395D02*
D03*
Y-83895D02*
D03*
X141850Y-83938D02*
D03*
Y-80395D02*
D03*
X5701Y-45862D02*
D03*
Y-42362D02*
D03*
X12000Y-42319D02*
D03*
Y-45862D02*
D03*
X141850Y-45605D02*
D03*
Y-42105D02*
D03*
X148150Y-42062D02*
D03*
Y-45605D02*
D03*
X30850Y-105272D02*
D03*
Y-101772D02*
D03*
X37150Y-101728D02*
D03*
Y-105272D02*
D03*
X63030D02*
D03*
Y-101772D02*
D03*
X69330Y-101728D02*
D03*
Y-105272D02*
D03*
X79970D02*
D03*
Y-101772D02*
D03*
X86270Y-101728D02*
D03*
Y-105272D02*
D03*
X113850D02*
D03*
Y-101772D02*
D03*
X120150Y-101728D02*
D03*
Y-105272D02*
D03*
X30850Y-78938D02*
D03*
Y-75438D02*
D03*
X37150Y-75395D02*
D03*
Y-78938D02*
D03*
X46090Y-105272D02*
D03*
Y-101772D02*
D03*
X52390Y-101728D02*
D03*
Y-105272D02*
D03*
X96910D02*
D03*
Y-101772D02*
D03*
X103210Y-101728D02*
D03*
Y-105272D02*
D03*
X113850Y-79605D02*
D03*
Y-76105D02*
D03*
X120150Y-76062D02*
D03*
Y-79605D02*
D03*
X30850Y-53105D02*
D03*
Y-49605D02*
D03*
X37150Y-49562D02*
D03*
Y-53105D02*
D03*
X47850Y-27272D02*
D03*
Y-23772D02*
D03*
X54150Y-23728D02*
D03*
Y-27272D02*
D03*
X95201D02*
D03*
Y-23772D02*
D03*
X101500Y-23728D02*
D03*
Y-27272D02*
D03*
X113850Y-53938D02*
D03*
Y-50438D02*
D03*
X120150Y-50395D02*
D03*
Y-53938D02*
D03*
X30850Y-27272D02*
D03*
Y-23772D02*
D03*
X37150Y-23728D02*
D03*
Y-27272D02*
D03*
X64350D02*
D03*
Y-23772D02*
D03*
X70650Y-23728D02*
D03*
Y-27272D02*
D03*
X78850D02*
D03*
Y-23772D02*
D03*
X85150Y-23728D02*
D03*
Y-27272D02*
D03*
X113850D02*
D03*
Y-23772D02*
D03*
X120150Y-23728D02*
D03*
Y-27272D02*
D03*
D16*
X67949Y-206205D02*
D03*
Y-208173D02*
D03*
Y-210142D02*
D03*
Y-212110D02*
D03*
Y-214079D02*
D03*
Y-216047D02*
D03*
Y-218016D02*
D03*
Y-219984D02*
D03*
Y-221953D02*
D03*
Y-223921D02*
D03*
Y-225890D02*
D03*
Y-227858D02*
D03*
Y-229827D02*
D03*
Y-231795D02*
D03*
X99051D02*
D03*
Y-229827D02*
D03*
Y-227858D02*
D03*
Y-225890D02*
D03*
Y-223921D02*
D03*
Y-221953D02*
D03*
Y-219984D02*
D03*
Y-218016D02*
D03*
Y-216047D02*
D03*
Y-214079D02*
D03*
Y-212110D02*
D03*
Y-210142D02*
D03*
Y-208173D02*
D03*
Y-206205D02*
D03*
X331051Y-274795D02*
D03*
Y-272827D02*
D03*
Y-270858D02*
D03*
Y-268890D02*
D03*
Y-266921D02*
D03*
Y-264953D02*
D03*
Y-262984D02*
D03*
Y-261016D02*
D03*
Y-259047D02*
D03*
Y-257079D02*
D03*
Y-255110D02*
D03*
Y-253142D02*
D03*
Y-251173D02*
D03*
Y-249205D02*
D03*
X299949D02*
D03*
Y-251173D02*
D03*
Y-253142D02*
D03*
Y-255110D02*
D03*
Y-257079D02*
D03*
Y-259047D02*
D03*
Y-261016D02*
D03*
Y-262984D02*
D03*
Y-264953D02*
D03*
Y-266921D02*
D03*
Y-268890D02*
D03*
Y-270858D02*
D03*
Y-272827D02*
D03*
Y-274795D02*
D03*
X300949Y-85795D02*
D03*
Y-83827D02*
D03*
Y-81858D02*
D03*
Y-79890D02*
D03*
Y-77921D02*
D03*
Y-75953D02*
D03*
Y-73984D02*
D03*
Y-72016D02*
D03*
Y-70047D02*
D03*
Y-68079D02*
D03*
Y-66110D02*
D03*
Y-64142D02*
D03*
Y-62173D02*
D03*
Y-60205D02*
D03*
X332051D02*
D03*
Y-62173D02*
D03*
Y-64142D02*
D03*
Y-66110D02*
D03*
Y-68079D02*
D03*
Y-70047D02*
D03*
Y-72016D02*
D03*
Y-73984D02*
D03*
Y-75953D02*
D03*
Y-77921D02*
D03*
Y-79890D02*
D03*
Y-81858D02*
D03*
Y-83827D02*
D03*
Y-85795D02*
D03*
X90051Y-50705D02*
D03*
Y-52673D02*
D03*
Y-54642D02*
D03*
Y-56610D02*
D03*
Y-58579D02*
D03*
Y-60547D02*
D03*
Y-62516D02*
D03*
Y-64484D02*
D03*
Y-66453D02*
D03*
Y-68421D02*
D03*
Y-70390D02*
D03*
Y-72358D02*
D03*
Y-74327D02*
D03*
Y-76295D02*
D03*
X58949D02*
D03*
Y-74327D02*
D03*
Y-72358D02*
D03*
Y-70390D02*
D03*
Y-68421D02*
D03*
Y-66453D02*
D03*
Y-64484D02*
D03*
Y-62516D02*
D03*
Y-60547D02*
D03*
Y-58579D02*
D03*
Y-56610D02*
D03*
Y-54642D02*
D03*
Y-52673D02*
D03*
Y-50705D02*
D03*
D17*
X70705Y-234551D02*
D03*
X72673D02*
D03*
X74642D02*
D03*
X76610D02*
D03*
X78579D02*
D03*
X80547D02*
D03*
X82516D02*
D03*
X84484D02*
D03*
X86453D02*
D03*
X88421D02*
D03*
X90390D02*
D03*
X92358D02*
D03*
X94327D02*
D03*
X96295D02*
D03*
Y-203449D02*
D03*
X94327D02*
D03*
X92358D02*
D03*
X90390D02*
D03*
X88421D02*
D03*
X86453D02*
D03*
X84484D02*
D03*
X82516D02*
D03*
X80547D02*
D03*
X78579D02*
D03*
X76610D02*
D03*
X74642D02*
D03*
X72673D02*
D03*
X70705D02*
D03*
X328295Y-246449D02*
D03*
X326327D02*
D03*
X324358D02*
D03*
X322390D02*
D03*
X320421D02*
D03*
X318453D02*
D03*
X316484D02*
D03*
X314516D02*
D03*
X312547D02*
D03*
X310579D02*
D03*
X308610D02*
D03*
X306642D02*
D03*
X304673D02*
D03*
X302705D02*
D03*
Y-277551D02*
D03*
X304673D02*
D03*
X306642D02*
D03*
X308610D02*
D03*
X310579D02*
D03*
X312547D02*
D03*
X314516D02*
D03*
X316484D02*
D03*
X318453D02*
D03*
X320421D02*
D03*
X322390D02*
D03*
X324358D02*
D03*
X326327D02*
D03*
X328295D02*
D03*
X329295Y-88551D02*
D03*
X327327D02*
D03*
X325358D02*
D03*
X323390D02*
D03*
X321421D02*
D03*
X319453D02*
D03*
X317484D02*
D03*
X315516D02*
D03*
X313547D02*
D03*
X311579D02*
D03*
X309610D02*
D03*
X307642D02*
D03*
X305673D02*
D03*
X303705D02*
D03*
Y-57449D02*
D03*
X305673D02*
D03*
X307642D02*
D03*
X309610D02*
D03*
X311579D02*
D03*
X313547D02*
D03*
X315516D02*
D03*
X317484D02*
D03*
X319453D02*
D03*
X321421D02*
D03*
X323390D02*
D03*
X325358D02*
D03*
X327327D02*
D03*
X329295D02*
D03*
X61705Y-47949D02*
D03*
X63673D02*
D03*
X65642D02*
D03*
X67610D02*
D03*
X69579D02*
D03*
X71547D02*
D03*
X73516D02*
D03*
X75484D02*
D03*
X77453D02*
D03*
X79421D02*
D03*
X81390D02*
D03*
X83358D02*
D03*
X85327D02*
D03*
X87295D02*
D03*
Y-79051D02*
D03*
X85327D02*
D03*
X83358D02*
D03*
X81390D02*
D03*
X79421D02*
D03*
X77453D02*
D03*
X75484D02*
D03*
X73516D02*
D03*
X71547D02*
D03*
X69579D02*
D03*
X67610D02*
D03*
X65642D02*
D03*
X63673D02*
D03*
X61705D02*
D03*
D18*
X83500Y-219000D02*
D03*
X315500Y-262000D02*
D03*
X316500Y-73000D02*
D03*
X74500Y-63500D02*
D03*
D19*
X170610Y-87500D02*
D03*
X164390D02*
D03*
X216390Y-73000D02*
D03*
X222610D02*
D03*
D20*
X54000Y-196000D02*
D03*
Y-226000D02*
D03*
X345000Y-285000D02*
D03*
Y-255000D02*
D03*
D21*
X196500Y-192500D02*
D03*
Y-202500D02*
D03*
Y-212500D02*
D03*
Y-222500D02*
D03*
Y-232500D02*
D03*
Y-242500D02*
D03*
Y-252500D02*
D03*
Y-262500D02*
D03*
Y-272500D02*
D03*
Y-282500D02*
D03*
Y-292500D02*
D03*
X183000Y-93000D02*
D03*
Y-23000D02*
D03*
Y-33000D02*
D03*
Y-43000D02*
D03*
Y-53000D02*
D03*
Y-63000D02*
D03*
Y-73000D02*
D03*
Y-83000D02*
D03*
Y-103000D02*
D03*
X208000Y-43500D02*
D03*
Y-113500D02*
D03*
Y-103500D02*
D03*
Y-93500D02*
D03*
Y-83500D02*
D03*
Y-73500D02*
D03*
Y-63500D02*
D03*
Y-53500D02*
D03*
Y-33500D02*
D03*
D22*
X196500Y-302500D02*
D03*
X183000Y-113000D02*
D03*
X208000Y-23500D02*
D03*
D23*
X193750Y-151157D02*
D03*
X175000D02*
D03*
X248843Y-153000D02*
D03*
X212500Y-151157D02*
D03*
X205343Y-5500D02*
D03*
X165647Y-7804D02*
D03*
X182158Y-134500D02*
D03*
X225500Y-132343D02*
D03*
D24*
X193750Y-170843D02*
D03*
X175000D02*
D03*
X212500D02*
D03*
X165646Y-27489D02*
D03*
X225500Y-112657D02*
D03*
D25*
X229157Y-153000D02*
D03*
X185658Y-5500D02*
D03*
X201842Y-134500D02*
D03*
D26*
X86000Y-260000D02*
D03*
X170500Y-182000D02*
D03*
Y-191000D02*
D03*
X248000Y-197500D02*
D03*
X234500Y-200500D02*
D03*
X225000Y-198000D02*
D03*
X253000Y-270500D02*
D03*
X258000Y-274000D02*
D03*
X221000Y-253500D02*
D03*
X188500Y-268500D02*
D03*
X186000Y-275500D02*
D03*
X313500Y-221000D02*
D03*
X301500Y-222500D02*
D03*
X259000Y-251500D02*
D03*
X258000Y-259500D02*
D03*
X221000Y-224000D02*
D03*
X229000Y-230500D02*
D03*
X213500Y-219500D02*
D03*
X208500Y-276500D02*
D03*
X211000Y-282000D02*
D03*
X221000Y-265500D02*
D03*
X226500Y-273500D02*
D03*
X288500Y-275500D02*
D03*
X285500Y-275000D02*
D03*
X218000Y-214500D02*
D03*
X323000Y-227500D02*
D03*
X301500Y-238500D02*
D03*
X313000Y-241000D02*
D03*
X302500Y-231500D02*
D03*
X283000Y-282000D02*
D03*
X338500Y-278000D02*
D03*
X350500Y-255000D02*
D03*
X373500Y-236000D02*
D03*
X353500Y-240000D02*
D03*
X373500Y-250500D02*
D03*
X368500Y-242000D02*
D03*
X365500Y-219000D02*
D03*
X356000Y-222500D02*
D03*
X343000Y-220000D02*
D03*
X336000Y-222500D02*
D03*
X344000Y-224500D02*
D03*
X330500Y-237000D02*
D03*
X315000Y-218000D02*
D03*
X303500Y-208000D02*
D03*
X321000Y-217500D02*
D03*
X314000Y-235500D02*
D03*
X293000Y-221000D02*
D03*
X264000Y-219000D02*
D03*
X281000Y-234500D02*
D03*
X262500Y-240000D02*
D03*
X279500Y-250000D02*
D03*
X259000Y-265000D02*
D03*
X281500Y-262500D02*
D03*
X279000Y-282000D02*
D03*
X281500Y-295000D02*
D03*
X251000Y-320500D02*
D03*
X244500Y-304500D02*
D03*
X264000Y-300500D02*
D03*
X301500Y-293000D02*
D03*
X265500Y-320000D02*
D03*
X296000Y-308000D02*
D03*
X295000Y-302000D02*
D03*
X291500Y-305500D02*
D03*
X284500Y-317000D02*
D03*
X309000Y-306500D02*
D03*
X318500Y-301500D02*
D03*
X306000D02*
D03*
X313500Y-290500D02*
D03*
X329500Y-291000D02*
D03*
X342500Y-313000D02*
D03*
X351500Y-289500D02*
D03*
X367500Y-283000D02*
D03*
X353000Y-271500D02*
D03*
X354000Y-256500D02*
D03*
X344000Y-301500D02*
D03*
X307000Y-296500D02*
D03*
X285500Y-301500D02*
D03*
X264000Y-296500D02*
D03*
Y-280500D02*
D03*
X261500Y-277500D02*
D03*
X265500Y-260500D02*
D03*
X260500Y-243500D02*
D03*
X262000Y-226000D02*
D03*
X299000Y-232000D02*
D03*
X317500Y-232500D02*
D03*
X333500Y-237500D02*
D03*
X367000Y-227500D02*
D03*
X366000Y-244500D02*
D03*
X369500Y-259500D02*
D03*
X367500Y-262000D02*
D03*
X370000Y-279000D02*
D03*
X371500Y-306000D02*
D03*
X366000Y-301500D02*
D03*
X302000Y-241496D02*
D03*
X284500Y-215000D02*
D03*
X269500Y-213000D02*
D03*
X270000Y-210000D02*
D03*
X293500Y-242000D02*
D03*
X297500D02*
D03*
X293500Y-245500D02*
D03*
X295000Y-277000D02*
D03*
X283500Y-286000D02*
D03*
X234500Y-267000D02*
D03*
X242500Y-278000D02*
D03*
X230500Y-256000D02*
D03*
X252000Y-288500D02*
D03*
X266500Y-213000D02*
D03*
X76000Y-226500D02*
D03*
X83500D02*
D03*
X91000D02*
D03*
Y-211500D02*
D03*
X83500D02*
D03*
X76000D02*
D03*
Y-219000D02*
D03*
X91000Y-219100D02*
D03*
X83500Y-219000D02*
D03*
X323000Y-254500D02*
D03*
X315500D02*
D03*
X308000D02*
D03*
Y-269500D02*
D03*
X315500D02*
D03*
X323000D02*
D03*
Y-262000D02*
D03*
X308000Y-261900D02*
D03*
X315500Y-262000D02*
D03*
X132500Y-268000D02*
D03*
X147000Y-192500D02*
D03*
X168500Y-225000D02*
D03*
X156500Y-203000D02*
D03*
X164500Y-214000D02*
D03*
X182500Y-223500D02*
D03*
X175500Y-227500D02*
D03*
X115500Y-195000D02*
D03*
X104000Y-204000D02*
D03*
X151000Y-283500D02*
D03*
X105500Y-235500D02*
D03*
X101500Y-239000D02*
D03*
X105500D02*
D03*
X129000Y-271000D02*
D03*
X129500Y-268000D02*
D03*
X114500Y-266000D02*
D03*
X97000Y-239504D02*
D03*
X33000Y-179500D02*
D03*
X27500Y-175000D02*
D03*
X29000Y-202000D02*
D03*
X31500Y-219000D02*
D03*
X29500Y-221500D02*
D03*
X33000Y-236500D02*
D03*
X32000Y-253500D02*
D03*
X65500Y-243500D02*
D03*
X81500Y-248500D02*
D03*
X100000Y-249000D02*
D03*
X137000Y-255000D02*
D03*
X138500Y-237500D02*
D03*
X133500Y-220500D02*
D03*
X137500Y-203500D02*
D03*
X135000Y-200500D02*
D03*
Y-184500D02*
D03*
X113500Y-179500D02*
D03*
X92000Y-184500D02*
D03*
X55000Y-179500D02*
D03*
X45000Y-224500D02*
D03*
X46000Y-209500D02*
D03*
X31500Y-198000D02*
D03*
X47500Y-191500D02*
D03*
X56500Y-168000D02*
D03*
X69500Y-190000D02*
D03*
X85500Y-190500D02*
D03*
X93000Y-179500D02*
D03*
X80500D02*
D03*
X90000Y-174500D02*
D03*
X114500Y-164000D02*
D03*
X107500Y-175500D02*
D03*
X104000Y-179000D02*
D03*
X103000Y-173000D02*
D03*
X133500Y-161000D02*
D03*
X97500Y-188000D02*
D03*
X135000Y-180500D02*
D03*
X154500Y-176500D02*
D03*
X148000Y-160500D02*
D03*
X117500Y-186000D02*
D03*
X120000Y-199000D02*
D03*
X117500Y-218500D02*
D03*
X140000Y-216000D02*
D03*
X119500Y-231000D02*
D03*
X136500Y-241000D02*
D03*
X118000Y-246500D02*
D03*
X135000Y-262000D02*
D03*
X106000Y-260000D02*
D03*
X85000Y-245500D02*
D03*
X78000Y-263500D02*
D03*
X95500Y-273000D02*
D03*
X84000Y-263000D02*
D03*
X68500Y-244000D02*
D03*
X55000Y-256500D02*
D03*
X63000Y-258500D02*
D03*
X56000Y-261000D02*
D03*
X43000Y-258500D02*
D03*
X33500Y-262000D02*
D03*
X30500Y-239000D02*
D03*
X25500Y-230500D02*
D03*
X45500Y-241000D02*
D03*
X25500Y-245000D02*
D03*
X48500Y-226000D02*
D03*
X60500Y-203000D02*
D03*
X105500Y-207000D02*
D03*
X116000Y-199000D02*
D03*
X96500Y-249500D02*
D03*
X86000Y-240000D02*
D03*
X97500Y-242500D02*
D03*
X76000Y-253500D02*
D03*
X296500Y-55000D02*
D03*
X341500Y-72500D02*
D03*
X346500D02*
D03*
X290500Y-76000D02*
D03*
X316500Y-73000D02*
D03*
X309000Y-72900D02*
D03*
X324000Y-73000D02*
D03*
Y-80500D02*
D03*
X316500D02*
D03*
X309000D02*
D03*
Y-65500D02*
D03*
X316500D02*
D03*
X324000D02*
D03*
X74500Y-63500D02*
D03*
X82000Y-63600D02*
D03*
X67000Y-63500D02*
D03*
Y-56000D02*
D03*
X74500D02*
D03*
X82000D02*
D03*
Y-71000D02*
D03*
X74500D02*
D03*
X67000D02*
D03*
X242000Y-32500D02*
D03*
X159000Y-104000D02*
D03*
X173000Y-93000D02*
D03*
X227000Y-73000D02*
D03*
X193500Y-55500D02*
D03*
X259000Y-96000D02*
D03*
X218500Y-84500D02*
D03*
X233500Y-97000D02*
D03*
X232000Y-73500D02*
D03*
X231500Y-60000D02*
D03*
X198000Y-66500D02*
D03*
X127000Y-55000D02*
D03*
X194000Y-79000D02*
D03*
X263500Y-81000D02*
D03*
X381500Y-84000D02*
D03*
X373000Y-90500D02*
D03*
X362000Y-80000D02*
D03*
X366000Y-49000D02*
D03*
X365000Y-57500D02*
D03*
X259500Y-121500D02*
D03*
X278000Y-105500D02*
D03*
X287000Y-116500D02*
D03*
X301000Y-104000D02*
D03*
X313000Y-104500D02*
D03*
X331500Y-114500D02*
D03*
X325500Y-103500D02*
D03*
X348000Y-112500D02*
D03*
X339000Y-103250D02*
D03*
X362000Y-103500D02*
D03*
X354250Y-103750D02*
D03*
X373500Y-125500D02*
D03*
X348500Y-123500D02*
D03*
X324500D02*
D03*
X271500Y-104000D02*
D03*
X267500Y-51500D02*
D03*
X263500Y-29500D02*
D03*
X285500Y-27000D02*
D03*
X302500Y-26000D02*
D03*
X325500Y-25500D02*
D03*
X342000Y-26500D02*
D03*
X362500Y-25500D02*
D03*
X357000Y-53000D02*
D03*
X346500Y-81500D02*
D03*
X351000Y-105000D02*
D03*
X332500D02*
D03*
X320500Y-104500D02*
D03*
X308000Y-120000D02*
D03*
X297000Y-122500D02*
D03*
X306500Y-105500D02*
D03*
X293000Y-104000D02*
D03*
X259000Y-70500D02*
D03*
X243000Y-77500D02*
D03*
X224000Y-32000D02*
D03*
X282500Y-90500D02*
D03*
X279000Y-93000D02*
D03*
X285000Y-84000D02*
D03*
X281000Y-84500D02*
D03*
X294500Y-48000D02*
D03*
X378500Y-45500D02*
D03*
X372000Y-51500D02*
D03*
X270000Y-124000D02*
D03*
X243500Y-124500D02*
D03*
X227000Y-55000D02*
D03*
X257000Y-64500D02*
D03*
X237500Y-62000D02*
D03*
X240000Y-86000D02*
D03*
X151000Y-50500D02*
D03*
X153500Y-74500D02*
D03*
X157500Y-61000D02*
D03*
X134000Y-72000D02*
D03*
X147500Y-12000D02*
D03*
X121000Y-12500D02*
D03*
X19000Y-85000D02*
D03*
X12500Y-91000D02*
D03*
X94500Y-81500D02*
D03*
X96500Y-88500D02*
D03*
X110000Y-52000D02*
D03*
X106000Y-52500D02*
D03*
X112000Y-43500D02*
D03*
X108500Y-46000D02*
D03*
X167000Y-104500D02*
D03*
X100500Y-60500D02*
D03*
X114000Y-64000D02*
D03*
X148000Y-59000D02*
D03*
X159000Y-75500D02*
D03*
X132000Y-66000D02*
D03*
X45500Y-63500D02*
D03*
X49500Y-64000D02*
D03*
X98000Y-32500D02*
D03*
X84500Y-31000D02*
D03*
X94000Y-14000D02*
D03*
X83000Y-16500D02*
D03*
X70500Y-32000D02*
D03*
X58500Y-31500D02*
D03*
X40000D02*
D03*
X44500Y-55000D02*
D03*
X34000Y-83500D02*
D03*
X28500Y-111000D02*
D03*
X49000Y-110000D02*
D03*
X65500Y-111000D02*
D03*
X88500Y-110500D02*
D03*
X105500Y-109500D02*
D03*
X127500Y-107000D02*
D03*
X123500Y-85000D02*
D03*
X119500Y-32500D02*
D03*
X66500Y-13000D02*
D03*
X42500D02*
D03*
X17500Y-11000D02*
D03*
X18000Y-46000D02*
D03*
X36750Y-32750D02*
D03*
X29000Y-33000D02*
D03*
X52000Y-33250D02*
D03*
X43000Y-24000D02*
D03*
X65500Y-33000D02*
D03*
X59500Y-22000D02*
D03*
X78000Y-32000D02*
D03*
X90000Y-32500D02*
D03*
X104000Y-20000D02*
D03*
X113000Y-31000D02*
D03*
X131500Y-15000D02*
D03*
X26000Y-79000D02*
D03*
X25000Y-87500D02*
D03*
X29000Y-56500D02*
D03*
X9500Y-52500D02*
D03*
M02*
